<?xml version="1.0" encoding="UTF-8" standalone="no"?>
<!-- Created with Inkscape (http://www.inkscape.org/) -->

<svg
   width="400mm"
   height="400mm"
   viewBox="0 0 400 400"
   version="1.1"
   id="svg1"
   inkscape:export-filename="..\..\..\..\..\..\Projects\puntal\assets\images\2d7.svg"
   inkscape:export-xdpi="96"
   inkscape:export-ydpi="96"
   inkscape:version="1.3.2 (091e20e, 2023-11-25, custom)"
   sodipodi:docname="2d6 draft.svg"
   xmlns:inkscape="http://www.inkscape.org/namespaces/inkscape"
   xmlns:sodipodi="http://sodipodi.sourceforge.net/DTD/sodipodi-0.dtd"
   xmlns="http://www.w3.org/2000/svg"
   xmlns:svg="http://www.w3.org/2000/svg">
  <sodipodi:namedview
     id="namedview1"
     pagecolor="#505050"
     bordercolor="#eeeeee"
     borderopacity="1"
     inkscape:showpageshadow="0"
     inkscape:pageopacity="0"
     inkscape:pagecheckerboard="0"
     inkscape:deskcolor="#505050"
     inkscape:document-units="mm"
     inkscape:zoom="0.69219277"
     inkscape:cx="630.60468"
     inkscape:cy="374.89557"
     inkscape:window-width="1920"
     inkscape:window-height="1009"
     inkscape:window-x="1912"
     inkscape:window-y="-8"
     inkscape:window-maximized="1"
     inkscape:current-layer="layer1"
     showguides="false" />
  <defs
     id="defs1" />
  <g
     inkscape:label="Capa 1"
     inkscape:groupmode="layer"
     id="layer1">
    <path
       d="M 0,0 V 400 M 2.6458333,0 V 400 M 5.2916666,0 V 400 M 7.9374999,0 V 400 M 10.583333,0 V 400 M 13.229167,0 V 400 M 15.875,0 V 400 M 18.520833,0 V 400 M 21.166667,0 V 400 M 23.8125,0 V 400 M 26.458333,0 V 400 M 29.104166,0 V 400 M 31.75,0 V 400 M 34.395833,0 V 400 M 37.041666,0 V 400 M 39.6875,0 V 400 M 42.333333,0 V 400 M 44.979166,0 V 400 M 47.625,0 V 400 M 50.270833,0 V 400 M 52.916666,0 V 400 M 55.5625,0 V 400 M 58.208333,0 V 400 M 60.854166,0 V 400 M 63.5,0 V 400 M 66.145833,0 V 400 M 68.791666,0 V 400 M 71.437499,0 V 400 M 74.083333,0 V 400 M 76.729166,0 V 400 M 79.374999,0 V 400 M 82.020833,0 V 400 M 84.666666,0 V 400 M 87.312499,0 V 400 M 89.958333,0 V 400 M 92.604166,0 V 400 M 95.249999,0 V 400 M 97.895833,0 V 400 M 100.54167,0 V 400 M 103.1875,0 V 400 M 105.83333,0 V 400 M 108.47917,0 V 400 M 111.125,0 V 400 M 113.77083,0 V 400 M 116.41667,0 V 400 M 119.0625,0 V 400 M 121.70833,0 V 400 M 124.35417,0 V 400 M 127,0 V 400 M 129.64583,0 V 400 M 132.29167,0 V 400 M 134.9375,0 V 400 M 137.58333,0 V 400 M 140.22917,0 V 400 M 142.875,0 V 400 M 145.52083,0 V 400 M 148.16667,0 V 400 M 150.8125,0 V 400 M 153.45833,0 V 400 M 156.10417,0 V 400 M 158.75,0 V 400 M 161.39583,0 V 400 M 164.04167,0 V 400 M 166.6875,0 V 400 M 169.33333,0 V 400 M 171.97917,0 V 400 M 174.625,0 V 400 M 177.27083,0 V 400 M 179.91667,0 V 400 M 182.5625,0 V 400 M 185.20833,0 V 400 M 187.85417,0 V 400 M 190.5,0 V 400 M 193.14583,0 V 400 M 195.79167,0 V 400 M 198.4375,0 V 400 M 201.08333,0 V 400 M 203.72917,0 V 400 M 206.375,0 V 400 M 209.02083,0 V 400 M 211.66667,0 V 400 M 214.3125,0 V 400 M 216.95833,0 V 400 M 219.60416,0 V 400 M 222.25,0 V 400 M 224.89583,0 V 400 M 227.54166,0 V 400 M 230.1875,0 V 400 M 232.83333,0 V 400 M 235.47916,0 V 400 M 238.125,0 V 400 M 240.77083,0 V 400 M 243.41666,0 V 400 M 246.0625,0 V 400 M 248.70833,0 V 400 M 251.35416,0 V 400 M 254,0 V 400 M 256.64583,0 V 400 M 259.29166,0 V 400 M 261.9375,0 V 400 M 264.58333,0 V 400 M 267.22916,0 V 400 M 269.875,0 V 400 M 272.52083,0 V 400 M 275.16666,0 V 400 M 277.8125,0 V 400 M 280.45833,0 V 400 M 283.10416,0 V 400 M 285.75,0 V 400 M 288.39583,0 V 400 M 291.04166,0 V 400 M 293.6875,0 V 400 M 296.33333,0 V 400 M 298.97916,0 V 400 M 301.625,0 V 400 M 304.27083,0 V 400 M 306.91666,0 V 400 M 309.5625,0 V 400 M 312.20833,0 V 400 M 314.85416,0 V 400 M 317.5,0 V 400 M 320.14583,0 V 400 M 322.79166,0 V 400 M 325.4375,0 V 400 M 328.08333,0 V 400 M 330.72916,0 V 400 M 333.375,0 V 400 M 336.02083,0 V 400 M 338.66666,0 V 400 M 341.3125,0 V 400 M 343.95833,0 V 400 M 346.60416,0 V 400 M 349.25,0 V 400 M 351.89583,0 V 400 M 354.54166,0 V 400 M 357.1875,0 V 400 M 359.83333,0 V 400 M 362.47916,0 V 400 M 365.125,0 V 400 M 367.77083,0 V 400 M 370.41666,0 V 400 M 373.0625,0 V 400 M 375.70833,0 V 400 M 378.35416,0 V 400 M 381,0 V 400 M 383.64583,0 V 400 M 386.29166,0 V 400 M 388.9375,0 V 400 M 391.58333,0 V 400 M 394.22916,0 V 400 M 396.875,0 V 400 M 399.52083,0 V 400 M 0,0 H 400 M 0,2.6458333 H 400 M 0,5.2916666 H 400 M 0,7.9374999 H 400 M 0,10.583333 H 400 M 0,13.229167 H 400 M 0,15.875 H 400 M 0,18.520833 H 400 M 0,21.166667 H 400 M 0,23.8125 H 400 M 0,26.458333 H 400 M 0,29.104166 H 400 M 0,31.75 H 400 M 0,34.395833 H 400 M 0,37.041666 H 400 M 0,39.6875 H 400 M 0,42.333333 H 400 M 0,44.979166 H 400 M 0,47.625 H 400 M 0,50.270833 H 400 M 0,52.916666 H 400 M 0,55.5625 H 400 M 0,58.208333 H 400 M 0,60.854166 H 400 M 0,63.5 H 400 M 0,66.145833 H 400 M 0,68.791666 H 400 M 0,71.437499 H 400 M 0,74.083333 H 400 M 0,76.729166 H 400 M 0,79.374999 H 400 M 0,82.020833 H 400 M 0,84.666666 H 400 M 0,87.312499 H 400 M 0,89.958333 H 400 M 0,92.604166 H 400 M 0,95.249999 H 400 M 0,97.895833 H 400 M 0,100.54167 H 400 M 0,103.1875 H 400 M 0,105.83333 H 400 M 0,108.47917 H 400 M 0,111.125 H 400 M 0,113.77083 H 400 M 0,116.41667 H 400 M 0,119.0625 H 400 M 0,121.70833 H 400 M 0,124.35417 H 400 M 0,127 H 400 M 0,129.64583 H 400 M 0,132.29167 H 400 M 0,134.9375 H 400 M 0,137.58333 H 400 M 0,140.22917 H 400 M 0,142.875 H 400 M 0,145.52083 H 400 M 0,148.16667 H 400 M 0,150.8125 H 400 M 0,153.45833 H 400 M 0,156.10417 H 400 M 0,158.75 H 400 M 0,161.39583 H 400 M 0,164.04167 H 400 M 0,166.6875 H 400 M 0,169.33333 H 400 M 0,171.97917 H 400 M 0,174.625 H 400 M 0,177.27083 H 400 M 0,179.91667 H 400 M 0,182.5625 H 400 M 0,185.20833 H 400 M 0,187.85417 H 400 M 0,190.5 H 400 M 0,193.14583 H 400 M 0,195.79167 H 400 M 0,198.4375 H 400 M 0,201.08333 H 400 M 0,203.72917 H 400 M 0,206.375 H 400 M 0,209.02083 H 400 M 0,211.66667 H 400 M 0,214.3125 H 400 M 0,216.95833 H 400 M 0,219.60416 H 400 M 0,222.25 H 400 M 0,224.89583 H 400 M 0,227.54166 H 400 M 0,230.1875 H 400 M 0,232.83333 H 400 M 0,235.47916 H 400 M 0,238.125 H 400 M 0,240.77083 H 400 M 0,243.41666 H 400 M 0,246.0625 H 400 M 0,248.70833 H 400 M 0,251.35416 H 400 M 0,254 H 400 M 0,256.64583 H 400 M 0,259.29166 H 400 M 0,261.9375 H 400 M 0,264.58333 H 400 M 0,267.22916 H 400 M 0,269.875 H 400 M 0,272.52083 H 400 M 0,275.16666 H 400 M 0,277.8125 H 400 M 0,280.45833 H 400 M 0,283.10416 H 400 M 0,285.75 H 400 M 0,288.39583 H 400 M 0,291.04166 H 400 M 0,293.6875 H 400 M 0,296.33333 H 400 M 0,298.97916 H 400 M 0,301.625 H 400 M 0,304.27083 H 400 M 0,306.91666 H 400 M 0,309.5625 H 400 M 0,312.20833 H 400 M 0,314.85416 H 400 M 0,317.5 H 400 M 0,320.14583 H 400 M 0,322.79166 H 400 M 0,325.4375 H 400 M 0,328.08333 H 400 M 0,330.72916 H 400 M 0,333.375 H 400 M 0,336.02083 H 400 M 0,338.66666 H 400 M 0,341.3125 H 400 M 0,343.95833 H 400 M 0,346.60416 H 400 M 0,349.25 H 400 M 0,351.89583 H 400 M 0,354.54166 H 400 M 0,357.1875 H 400 M 0,359.83333 H 400 M 0,362.47916 H 400 M 0,365.125 H 400 M 0,367.77083 H 400 M 0,370.41666 H 400 M 0,373.0625 H 400 M 0,375.70833 H 400 M 0,378.35416 H 400 M 0,381 H 400 M 0,383.64583 H 400 M 0,386.29166 H 400 M 0,388.9375 H 400 M 0,391.58333 H 400 M 0,394.22916 H 400 M 0,396.875 H 400 M 0,399.52083 h 400"
       style="display:none;fill:none;stroke:#000000;stroke-width:0.264583px"
       id="path1" />
    <path
       d="m 212.84196,343.46795 h 26.97054 a 7.3635509,6.6915052 0 0 1 -6.74128,4.065 h -13.48831 a 7.3635509,6.6915052 0 0 1 -6.74095,-4.065 z"
       style="fill:#ffffff;stroke-width:0.151363"
       id="path10-5-3-2-9-4-9-2" />
    <path
       d="m 233.07122,307.7173 a 7.3635509,6.6915052 0 0 1 7.36365,6.6916 v 11.02743 H 212.21955 V 314.4089 a 7.3635509,6.6915052 0 0 1 7.36336,-6.6916 z"
       style="fill:#ffffff;stroke-width:0.151363"
       id="path7-7-10-3-2-0-6-6" />
    <path
       d="m 215.9765,284.31096 -0.12836,0.40691 c 0,0 -2.34492,1.91544 22.98257,17.21515 a 15.140011,14.175152 0 0 1 -13.37051,7.5985 15.140011,14.175152 0 0 1 -15.14011,-14.17511 15.140011,14.175152 0 0 1 5.65613,-11.04545 z"
       style="fill:#ffffff;stroke-width:0.151363"
       id="path6-2-16-4-6-4-4-5" />
    <path
       id="path4-6-2-8-3-7-1-0"
       style="fill:#aa0000;stroke-width:0.151363"
       d="m 216.06615,284.24497 a 15.140011,14.175152 0 0 0 -0.0898,0.0662 l 0.0343,-0.10899 z m 0,0 22.76824,17.68213 a 15.140011,14.175152 0 0 1 -0.006,0.007 C 213.5008,286.63499 215.84575,284.71954 215.84575,284.71954 l 0.12835,-0.40692 a 15.140011,14.175152 0 0 1 0.0898,-0.0662 z m 22.76487,17.68805 a 15.140011,14.175152 0 0 0 0.006,-0.007 l 0.0474,0.0367 c -0.0178,-0.01 -0.0327,-0.0211 -0.0511,-0.0312 z M 225.4605,281.18129 a 15.140011,14.175152 0 0 1 15.14007,14.17512 15.140011,14.175152 0 0 1 -1.76618,6.57069 l -22.76824,-17.68213 a 15.140011,14.175152 0 0 1 9.39435,-3.06368 z" />
    <path
       d="m 212.21955,336.48464 h 28.21532 v 4.3567 a 7.3635509,6.6915052 0 0 1 -0.62237,2.62661 h -26.97054 a 7.3635509,6.6915052 0 0 1 -0.62241,-2.62661 z"
       style="fill:#333333;stroke-width:0.151363"
       id="path14-2-23-7-6-6-4-8" />
    <path
       d="m 240.43487,325.43633 v 6.98332 h -28.21532 v -6.98332 z"
       style="fill:#333333;stroke-width:0.151363"
       id="path11-8-38-2-8-4-6-8" />
    <path
       d="m 212.21955,332.41965 h 28.21532 v 4.06499 h -28.21532 z"
       style="fill:#aa0000;stroke-width:0.151363"
       id="path13-5-5-2-5-8-1-9" />
    <path
       d="m 234.88194,384.23284 c -0.59354,-0.48479 -17.514,-14.49303 -18.35146,-35.54179 v -2.45747 h 18.35146 z"
       style="fill:#ffffff;stroke-width:0.126522"
       id="path21-0-72-1-8-9-0-6" />
    <path
       d="m 212.05989,272.29384 h 26.97049 a 7.3635509,6.6915052 0 0 1 -6.74124,4.065 h -13.48831 a 7.3635509,6.6915052 0 0 1 -6.74094,-4.065 z"
       style="fill:#ffffff;stroke-width:0.151363"
       id="path10-5-3-2-9-4-9-3" />
    <path
       d="m 232.28914,236.54321 a 7.3635509,6.6915052 0 0 1 7.36367,6.6916 v 11.02745 h -28.21537 v -11.02745 a 7.3635509,6.6915052 0 0 1 7.36339,-6.6916 z"
       style="fill:#ffffff;stroke-width:0.151363"
       id="path7-7-10-3-2-0-6-2" />
    <path
       d="m 215.19442,213.13687 -0.12835,0.40693 c 0,0 -2.34492,1.91544 22.98254,17.21515 a 15.140011,14.175152 0 0 1 -13.37049,7.59851 15.140011,14.175152 0 0 1 -15.14011,-14.17513 15.140011,14.175152 0 0 1 5.6561,-11.04546 z"
       style="fill:#ffffff;stroke-width:0.151363"
       id="path6-2-16-4-6-4-4-3" />
    <path
       id="path4-6-2-8-3-7-1-8"
       style="fill:#aa0000;stroke-width:0.151363"
       d="m 215.28404,213.07087 a 15.140011,14.175152 0 0 0 -0.0898,0.066 l 0.0343,-0.109 z m 0,0 22.76825,17.68214 a 15.140011,14.175152 0 0 1 -0.006,0.007 C 212.71911,215.46158 215.064,213.54614 215.064,213.54614 l 0.12836,-0.40696 a 15.140011,14.175152 0 0 1 0.0894,-0.0662 z m 22.76487,17.68808 a 15.140011,14.175152 0 0 0 0.006,-0.007 l 0.0474,0.0367 c -0.0178,-0.01 -0.0327,-0.0211 -0.0507,-0.0312 z m -13.37052,-20.75174 a 15.140011,14.175152 0 0 1 15.14009,14.17512 15.140011,14.175152 0 0 1 -1.76619,6.57068 l -22.76825,-17.68214 a 15.140011,14.175152 0 0 1 9.39435,-3.06366 z" />
    <path
       d="m 211.43744,265.31055 h 28.21537 v 4.3567 a 7.3635509,6.6915052 0 0 1 -0.62243,2.62659 h -26.97049 a 7.3635509,6.6915052 0 0 1 -0.62245,-2.62659 z"
       style="fill:#333333;stroke-width:0.151363"
       id="path14-2-23-7-6-6-4-5" />
    <path
       d="m 239.65281,254.26226 v 6.98331 h -28.21537 v -6.98331 z"
       style="fill:#333333;stroke-width:0.151363"
       id="path11-8-38-2-8-4-6-87" />
    <path
       d="m 211.43744,261.24557 h 28.21537 v 4.06498 h -28.21537 z"
       style="fill:#aa0000;stroke-width:0.151363"
       id="path13-5-5-2-5-8-1-0" />
    <path
       d="m 234.09986,313.05877 c -0.59357,-0.48482 -17.51404,-14.49305 -18.35149,-35.5418 v -2.4575 h 18.35149 z"
       style="fill:#ffffff;stroke-width:0.126522"
       id="path21-0-72-1-8-9-0-3" />
    <path
       d="m 212.86321,204.05771 h 26.97051 a 7.3635509,6.6915052 0 0 1 -6.74125,4.06503 h -13.48834 a 7.3635509,6.6915052 0 0 1 -6.74092,-4.06503 z"
       style="fill:#ffffff;stroke-width:0.151363"
       id="path10-5-3-2-9-4-9-6" />
    <path
       d="m 233.09247,168.30708 a 7.3635509,6.6915052 0 0 1 7.36364,6.6916 v 11.02746 h -28.21532 v -11.02746 a 7.3635509,6.6915052 0 0 1 7.36334,-6.6916 z"
       style="fill:#ffffff;stroke-width:0.151363"
       id="path7-7-10-3-2-0-6-7" />
    <path
       d="m 215.99771,144.90074 -0.12836,0.4069 c 0,0 -2.34491,1.91543 22.98257,17.21513 a 15.140011,14.175152 0 0 1 -13.3705,7.59853 15.140011,14.175152 0 0 1 -15.14011,-14.17512 15.140011,14.175152 0 0 1 5.65611,-11.04544 z"
       style="fill:#ffffff;stroke-width:0.151363"
       id="path6-2-16-4-6-4-4-4" />
    <path
       id="path4-6-2-8-3-7-1-09"
       style="fill:#aa0000;stroke-width:0.151363"
       d="m 216.08733,144.83473 a 15.140011,14.175152 0 0 0 -0.0897,0.0662 l 0.034,-0.109 z m 0,0 22.76827,17.68215 a 15.140011,14.175152 0 0 1 -0.006,0.009 c -25.32725,-15.2998 -22.98235,-17.21526 -22.98235,-17.21526 l 0.12836,-0.40693 a 15.140011,14.175152 0 0 1 0.0894,-0.0662 z m 22.76489,17.68804 a 15.140011,14.175152 0 0 0 0.006,-0.007 l 0.0474,0.0367 c -0.0178,-0.01 -0.0327,-0.0211 -0.0511,-0.0312 z m -13.37051,-20.75173 a 15.140011,14.175152 0 0 1 15.14007,14.17514 15.140011,14.175152 0 0 1 -1.76618,6.5707 l -22.76827,-17.68215 a 15.140011,14.175152 0 0 1 9.39438,-3.06369 z" />
    <path
       d="m 212.24079,197.07442 h 28.21532 v 4.35669 a 7.3635509,6.6915052 0 0 1 -0.62239,2.6266 h -26.97051 a 7.3635509,6.6915052 0 0 1 -0.62242,-2.6266 z"
       style="fill:#333333;stroke-width:0.151363"
       id="path14-2-23-7-6-6-4-82" />
    <path
       d="m 240.45611,186.02614 v 6.98329 h -28.21532 v -6.98329 z"
       style="fill:#333333;stroke-width:0.151363"
       id="path11-8-38-2-8-4-6-4" />
    <path
       d="m 212.24079,193.00943 h 28.21532 v 4.06499 h -28.21532 z"
       style="fill:#aa0000;stroke-width:0.151363"
       id="path13-5-5-2-5-8-1-02" />
    <path
       d="m 234.90315,244.82263 c -0.59353,-0.48483 -17.51401,-14.49304 -18.35147,-35.54181 v -2.45747 h 18.35147 z"
       style="fill:#ffffff;stroke-width:0.126522"
       id="path21-0-72-1-8-9-0-60" />
    <path
       d="m 212.24122,131.75372 h 26.97053 a 7.3635509,6.6915052 0 0 1 -6.74124,4.06504 h -13.48833 a 7.3635509,6.6915052 0 0 1 -6.74096,-4.06504 z"
       style="fill:#ffffff;stroke-width:0.151363"
       id="path10-5-3-2-9-4-9-7" />
    <path
       d="m 232.47051,96.003098 a 7.3635509,6.6915052 0 0 1 7.36364,6.691572 v 11.02745 h -28.21536 v -11.02745 a 7.3635509,6.6915052 0 0 1 7.36339,-6.691572 z"
       style="fill:#ffffff;stroke-width:0.151363"
       id="path7-7-10-3-2-0-6-8" />
    <path
       d="m 215.37578,72.596748 -0.12837,0.40695 c 0,0 -2.34492,1.9154 22.98258,17.21511 a 15.140011,14.175152 0 0 1 -13.3705,7.59851 15.140011,14.175152 0 0 1 -15.1401,-14.17513 15.140011,14.175152 0 0 1 5.65609,-11.04544 z"
       style="fill:#ffffff;stroke-width:0.151363"
       id="path6-2-16-4-6-4-4-55" />
    <path
       id="path4-6-2-8-3-7-1-01"
       style="fill:#333333;stroke-width:0.151363"
       d="m 215.4654,72.530778 a 15.140011,14.175152 0 0 0 -0.0898,0.066 l 0.0343,-0.10899 z m 0,0 22.76825,17.68211 a 15.140011,14.175152 0 0 1 -0.006,0.01 c -25.32716,-15.29957 -22.98228,-17.21502 -22.98228,-17.21502 l 0.12837,-0.40694 a 15.140011,14.175152 0 0 1 0.0894,-0.0662 z m 22.76484,17.68803 a 15.140011,14.175152 0 0 0 0.006,-0.01 l 0.0474,0.0368 c -0.0178,-0.01 -0.0324,-0.0211 -0.0507,-0.0309 z m -13.37051,-20.75175 a 15.140011,14.175152 0 0 1 15.1401,14.17513 15.140011,14.175152 0 0 1 -1.76618,6.5707 L 215.4654,72.530778 a 15.140011,14.175152 0 0 1 9.39433,-3.06372 z" />
    <path
       d="m 211.61879,124.77043 h 28.21536 v 4.35669 a 7.3635509,6.6915052 0 0 1 -0.6224,2.6266 h -26.97053 a 7.3635509,6.6915052 0 0 1 -0.62243,-2.6266 z"
       style="fill:#333333;stroke-width:0.151363"
       id="path14-2-23-7-6-6-4-0" />
    <path
       d="m 239.83415,113.72212 v 6.98332 h -28.21536 v -6.98332 z"
       style="fill:#333333;stroke-width:0.151363"
       id="path11-8-38-2-8-4-6-2" />
    <path
       d="m 211.61879,120.70544 h 28.21536 v 4.06499 h -28.21536 z"
       style="fill:#aa0000;stroke-width:0.151363"
       id="path13-5-5-2-5-8-1-5" />
    <path
       d="m 234.2812,172.51864 c -0.59356,-0.48481 -17.51401,-14.49305 -18.35146,-35.54176 v -2.4575 h 18.35146 z"
       style="fill:#ffffff;stroke-width:0.126522"
       id="path21-0-72-1-8-9-0-9" />
    <path
       d="m 253.23316,343.79515 h 26.97049 a 7.3635509,6.6915052 0 0 1 -6.74121,4.06503 h -13.48835 a 7.3635509,6.6915052 0 0 1 -6.74093,-4.06503 z"
       style="fill:#ffffff;stroke-width:0.151363"
       id="path10-5-3-2-9-4-9-32-4-4" />
    <path
       d="m 273.46244,308.04454 a 7.3635509,6.6915052 0 0 1 7.36364,6.69157 v 11.02745 h -28.21535 v -11.02745 a 7.3635509,6.6915052 0 0 1 7.36336,-6.69157 z"
       style="fill:#ffffff;stroke-width:0.151363"
       id="path7-7-10-3-2-0-6-67-4-9" />
    <path
       d="m 256.36768,284.6382 -0.12836,0.40692 c 0,0 -2.3449,1.91541 22.98258,17.21513 a 15.140011,14.175152 0 0 1 -13.37048,7.59852 15.140011,14.175152 0 0 1 -15.14013,-14.17516 15.140011,14.175152 0 0 1 5.65611,-11.04541 z"
       style="fill:#ffffff;stroke-width:0.151363"
       id="path6-2-16-4-6-4-4-43-7-8" />
    <path
       id="path4-6-2-8-3-7-1-9-7-7"
       style="fill:#aa0000;stroke-width:0.151363"
       d="m 256.45731,284.57219 a 15.140011,14.175152 0 0 0 -0.0897,0.0662 l 0.034,-0.109 z m 0,0 22.76826,17.68215 a 15.140011,14.175152 0 0 1 -0.006,0.007 c -25.32875,-15.29828 -22.98382,-17.21372 -22.98382,-17.21372 l 0.12835,-0.40693 a 15.140011,14.175152 0 0 1 0.0894,-0.0662 z m 22.76487,17.68806 a 15.140011,14.175152 0 0 0 0.006,-0.007 l 0.0474,0.0368 c -0.0178,-0.01 -0.0326,-0.0211 -0.0511,-0.0312 z m -13.37052,-20.75174 a 15.140011,14.175152 0 0 1 15.14009,14.1751 15.140011,14.175152 0 0 1 -1.76618,6.57073 l -22.76826,-17.68215 a 15.140011,14.175152 0 0 1 9.39435,-3.06368 z" />
    <path
       d="m 252.61073,336.81188 h 28.21535 v 4.35667 a 7.3635509,6.6915052 0 0 1 -0.62243,2.6266 h -26.97049 a 7.3635509,6.6915052 0 0 1 -0.62243,-2.6266 z"
       style="fill:#333333;stroke-width:0.151363"
       id="path14-2-23-7-6-6-4-9-7-9" />
    <path
       d="m 280.82608,325.76356 v 6.98331 h -28.21535 v -6.98331 z"
       style="fill:#333333;stroke-width:0.151363"
       id="path11-8-38-2-8-4-6-5-7-7" />
    <path
       d="m 252.61073,332.74687 h 28.21535 v 4.06501 h -28.21535 z"
       style="fill:#aa0000;stroke-width:0.151363"
       id="path13-5-5-2-5-8-1-8-4-2" />
    <path
       d="m 275.2731,384.56007 c -0.59349,-0.48481 -17.51399,-14.49304 -18.35145,-35.54177 v -2.45751 h 18.35145 z"
       style="fill:#ffffff;stroke-width:0.126522"
       id="path21-0-72-1-8-9-0-33-8-1" />
    <path
       d="m 248.0992,305.36581 c -1.57423,-2.62882 -8.71899,-15.51529 -3.22791,-24.52193 l 0.27702,-0.1647 18.75673,26.09024 -10.37047,6.15672 z"
       style="fill:#ffffff;stroke-width:0.151363"
       id="path18-7-6-5-2-1-0-5-1-0-6" />
    <path
       d="m 296.70207,344.19578 h 26.97049 a 7.3635509,6.6915052 0 0 1 -6.74122,4.06503 h -13.48835 a 7.3635509,6.6915052 0 0 1 -6.74092,-4.06503 z"
       style="fill:#ffffff;stroke-width:0.151363"
       id="path10-5-3-2-9-4-9-32-4-4-3" />
    <path
       d="m 316.93134,308.44517 a 7.3635509,6.6915052 0 0 1 7.36365,6.69157 v 11.02745 h -28.21535 v -11.02745 a 7.3635509,6.6915052 0 0 1 7.36335,-6.69157 z"
       style="fill:#ffffff;stroke-width:0.151363"
       id="path7-7-10-3-2-0-6-67-4-9-2" />
    <path
       d="m 299.83658,285.03883 -0.12836,0.40692 c 0,0 -2.3449,1.91541 22.98258,17.21513 a 15.140011,14.175152 0 0 1 -13.37048,7.59852 15.140011,14.175152 0 0 1 -15.14012,-14.17516 15.140011,14.175152 0 0 1 5.6561,-11.04541 z"
       style="fill:#ffffff;stroke-width:0.151363"
       id="path6-2-16-4-6-4-4-43-7-8-1" />
    <path
       id="path4-6-2-8-3-7-1-9-7-7-0"
       style="fill:#aa0000;stroke-width:0.151363"
       d="m 299.92622,284.97282 a 15.140011,14.175152 0 0 0 -0.0897,0.0662 l 0.034,-0.109 z m 0,0 22.76825,17.68215 a 15.140011,14.175152 0 0 1 -0.006,0.007 c -25.32874,-15.29828 -22.98382,-17.21372 -22.98382,-17.21372 l 0.12835,-0.40693 a 15.140011,14.175152 0 0 1 0.0894,-0.0662 z m 22.76486,17.68806 a 15.140011,14.175152 0 0 0 0.006,-0.007 l 0.0474,0.0367 c -0.0178,-0.01 -0.0326,-0.0211 -0.0511,-0.0312 z m -13.37051,-20.75174 a 15.140011,14.175152 0 0 1 15.14008,14.1751 15.140011,14.175152 0 0 1 -1.76618,6.57073 l -22.76825,-17.68215 a 15.140011,14.175152 0 0 1 9.39435,-3.06368 z" />
    <path
       d="m 296.07964,337.21251 h 28.21535 v 4.35667 a 7.3635509,6.6915052 0 0 1 -0.62243,2.6266 h -26.97049 a 7.3635509,6.6915052 0 0 1 -0.62243,-2.6266 z"
       style="fill:#333333;stroke-width:0.151363"
       id="path14-2-23-7-6-6-4-9-7-9-55" />
    <path
       d="m 324.29499,326.16419 v 6.98331 h -28.21535 v -6.98331 z"
       style="fill:#333333;stroke-width:0.151363"
       id="path11-8-38-2-8-4-6-5-7-7-3" />
    <path
       d="m 296.07964,333.1475 h 28.21535 v 4.06501 h -28.21535 z"
       style="fill:#aa0000;stroke-width:0.151363"
       id="path13-5-5-2-5-8-1-8-4-2-5" />
    <path
       d="m 318.74201,384.9607 c -0.5935,-0.48481 -17.514,-14.49304 -18.35146,-35.54177 v -2.45751 h 18.35146 z"
       style="fill:#ffffff;stroke-width:0.126522"
       id="path21-0-72-1-8-9-0-33-8-1-4" />
    <path
       d="m 291.56811,305.76644 c -1.57424,-2.62882 -8.71899,-15.51529 -3.22791,-24.52193 l 0.27702,-0.1647 18.75672,26.09024 -10.37046,6.15672 z"
       style="fill:#ffffff;stroke-width:0.151363"
       id="path18-7-6-5-2-1-0-5-1-0-6-4" />
    <path
       d="m 340.55468,343.21395 h 26.97049 a 7.3635509,6.6915052 0 0 1 -6.74122,4.06503 H 347.2956 a 7.3635509,6.6915052 0 0 1 -6.74092,-4.06503 z"
       style="fill:#ffffff;stroke-width:0.151363"
       id="path10-5-3-2-9-4-9-32-4-4-35" />
    <path
       d="m 360.78395,307.46333 a 7.3635509,6.6915052 0 0 1 7.36365,6.69157 v 11.02745 H 339.93225 V 314.1549 a 7.3635509,6.6915052 0 0 1 7.36335,-6.69157 z"
       style="fill:#ffffff;stroke-width:0.151363"
       id="path7-7-10-3-2-0-6-67-4-9-5" />
    <path
       d="m 343.68919,284.05699 -0.12836,0.40692 c 0,0 -2.3449,1.91541 22.98258,17.21513 a 15.140011,14.175152 0 0 1 -13.37048,7.59852 15.140011,14.175152 0 0 1 -15.14012,-14.17516 15.140011,14.175152 0 0 1 5.6561,-11.04541 z"
       style="fill:#ffffff;stroke-width:0.151363"
       id="path6-2-16-4-6-4-4-43-7-8-2" />
    <path
       id="path4-6-2-8-3-7-1-9-7-7-5"
       style="fill:#aa0000;stroke-width:0.151363"
       d="m 343.77883,283.99098 a 15.140011,14.175152 0 0 0 -0.0897,0.0662 l 0.034,-0.10899 z m 0,0 22.76825,17.68215 a 15.140011,14.175152 0 0 1 -0.006,0.007 c -25.32874,-15.29828 -22.98382,-17.21371 -22.98382,-17.21371 l 0.12835,-0.40694 a 15.140011,14.175152 0 0 1 0.0894,-0.0662 z m 22.76486,17.68806 a 15.140011,14.175152 0 0 0 0.006,-0.007 l 0.0474,0.0368 c -0.0178,-0.01 -0.0326,-0.0211 -0.0511,-0.0312 z m -13.37051,-20.75173 a 15.140011,14.175152 0 0 1 15.14008,14.17509 15.140011,14.175152 0 0 1 -1.76618,6.57073 l -22.76825,-17.68215 a 15.140011,14.175152 0 0 1 9.39435,-3.06367 z" />
    <path
       d="m 339.93225,336.23067 h 28.21535 v 4.35668 a 7.3635509,6.6915052 0 0 1 -0.62243,2.6266 h -26.97049 a 7.3635509,6.6915052 0 0 1 -0.62243,-2.6266 z"
       style="fill:#333333;stroke-width:0.151363"
       id="path14-2-23-7-6-6-4-9-7-9-9" />
    <path
       d="m 368.1476,325.18235 v 6.98332 h -28.21535 v -6.98332 z"
       style="fill:#333333;stroke-width:0.151363"
       id="path11-8-38-2-8-4-6-5-7-7-7" />
    <path
       d="m 339.93225,332.16567 h 28.21535 v 4.065 h -28.21535 z"
       style="fill:#aa0000;stroke-width:0.151363"
       id="path13-5-5-2-5-8-1-8-4-2-0" />
    <path
       d="m 362.59462,383.97887 c -0.5935,-0.48481 -17.514,-14.49304 -18.35146,-35.54177 v -2.45751 h 18.35146 z"
       style="fill:#ffffff;stroke-width:0.126522"
       id="path21-0-72-1-8-9-0-33-8-1-5" />
    <path
       d="m 335.42072,304.78461 c -1.57424,-2.62883 -8.71899,-15.5153 -3.22791,-24.52193 l 0.27702,-0.1647 18.75672,26.09023 -10.37046,6.15672 z"
       style="fill:#ffffff;stroke-width:0.151363"
       id="path18-7-6-5-2-1-0-5-1-0-6-2" />
    <path
       d="m 225.0437,73.101208 c 1.36801,2.73217 7.50359,16.08509 1.33551,24.68222 l -0.28895,0.14473 -16.70194,-27.33568 10.81539,-5.41259 z"
       style="fill:#ffffff;stroke-width:0.151363"
       id="path18-7-6-5-2-1-0-5-1-0-6-8" />
    <path
       d="m 181.74392,49.442618 c 0.33968,-3.0114 2.46783,-17.452479 12.4447,-21.665689 l 0.32539,0.02207 -0.83407,31.644349 -12.17763,-0.8308 z"
       style="fill:#ffffff;stroke-width:0.151363"
       id="path18-7-6-5-2-1-0-5-1-0-6-8-9" />
    <path
       d="m 224.83134,51.225488 c 1.71633,2.5463 9.55868,15.05679 4.56963,24.32634 l -0.26762,0.17826 -20.16315,-25.11392 10.01815,-6.66817 z"
       style="fill:#ffffff;stroke-width:0.151363"
       id="path18-7-6-5-2-1-0-5-1-0-6-8-9-9" />
    <path
       d="m 191.87951,344.41679 h -26.97052 a 7.3635509,6.6915052 0 0 0 6.74128,4.06501 h 13.48834 a 7.3635509,6.6915052 0 0 0 6.7409,-4.06501 z"
       style="fill:#ffffff;stroke-width:0.151363"
       id="path10-5-3-2-9-4-9-2-8" />
    <path
       d="m 171.65027,308.66613 a 7.3635509,6.6915052 0 0 0 -7.36367,6.69162 v 11.02745 h 28.21535 v -11.02745 a 7.3635509,6.6915052 0 0 0 -7.36334,-6.69162 z"
       style="fill:#ffffff;stroke-width:0.151363"
       id="path7-7-10-3-2-0-6-6-2" />
    <path
       d="m 188.74499,285.2598 0.12836,0.40693 c 0,0 2.34493,1.91542 -22.98257,17.21513 a 15.140011,14.175152 0 0 0 13.3705,7.59853 15.140011,14.175152 0 0 0 15.14009,-14.17514 15.140011,14.175152 0 0 0 -5.65611,-11.04545 z"
       style="fill:#ffffff;stroke-width:0.151363"
       id="path6-2-16-4-6-4-4-5-9" />
    <path
       id="path4-6-2-8-3-7-1-0-4"
       style="fill:#aa0000;stroke-width:0.151363"
       d="m 188.65535,285.19382 a 15.140011,14.175152 0 0 1 0.0897,0.0662 l -0.0343,-0.10899 z m 0,0 -22.76825,17.68212 a 15.140011,14.175152 0 0 0 0.006,0.007 c 25.32746,-15.2995 22.98253,-17.21491 22.98253,-17.21491 l -0.12836,-0.40696 a 15.140011,14.175152 0 0 0 -0.0897,-0.0662 z m -22.76487,17.68804 a 15.140011,14.175152 0 0 1 -0.006,-0.007 l -0.0474,0.0367 c 0.0178,-0.01 0.0327,-0.0211 0.051,-0.0312 z M 179.261,282.13013 a 15.140011,14.175152 0 0 0 -15.14005,14.17512 15.140011,14.175152 0 0 0 1.76615,6.57069 l 22.76825,-17.68212 a 15.140011,14.175152 0 0 0 -9.39435,-3.06369 z" />
    <path
       d="M 192.50195,337.43348 H 164.2866 v 4.3567 a 7.3635509,6.6915052 0 0 0 0.62239,2.62661 h 26.97052 a 7.3635509,6.6915052 0 0 0 0.62244,-2.62661 z"
       style="fill:#333333;stroke-width:0.151363"
       id="path14-2-23-7-6-6-4-8-9" />
    <path
       d="m 164.2866,326.3852 v 6.9833 h 28.21535 v -6.9833 z"
       style="fill:#333333;stroke-width:0.151363"
       id="path11-8-38-2-8-4-6-8-2" />
    <path
       d="M 192.50195,333.3685 H 164.2866 v 4.06498 h 28.21535 z"
       style="fill:#aa0000;stroke-width:0.151363"
       id="path13-5-5-2-5-8-1-9-4" />
    <path
       d="m 169.83956,385.18171 c 0.59354,-0.48482 17.51399,-14.49302 18.35145,-35.54182 v -2.45747 h -18.35145 z"
       style="fill:#ffffff;stroke-width:0.126522"
       id="path21-0-72-1-8-9-0-6-2" />
    <path
       d="M 192.66162,273.24269 H 165.6911 a 7.3635509,6.6915052 0 0 0 6.74126,4.06502 h 13.48831 a 7.3635509,6.6915052 0 0 0 6.74095,-4.06502 z"
       style="fill:#ffffff;stroke-width:0.151363"
       id="path10-5-3-2-9-4-9-3-4" />
    <path
       d="m 172.43236,237.49206 a 7.3635509,6.6915052 0 0 0 -7.36366,6.69161 v 11.02743 h 28.21536 v -11.02743 a 7.3635509,6.6915052 0 0 0 -7.36339,-6.69161 z"
       style="fill:#ffffff;stroke-width:0.151363"
       id="path7-7-10-3-2-0-6-2-1" />
    <path
       d="m 189.52709,214.0857 0.12836,0.40696 c 0,0 2.34491,1.91541 -22.98257,17.21512 a 15.140011,14.175152 0 0 0 13.37051,7.59851 15.140011,14.175152 0 0 0 15.14011,-14.17511 15.140011,14.175152 0 0 0 -5.65611,-11.04548 z"
       style="fill:#ffffff;stroke-width:0.151363"
       id="path6-2-16-4-6-4-4-3-6" />
    <path
       id="path4-6-2-8-3-7-1-8-5"
       style="fill:#aa0000;stroke-width:0.151363"
       d="m 189.43747,214.01973 a 15.140011,14.175152 0 0 1 0.0898,0.0662 l -0.0343,-0.10899 z m 0,0 -22.76825,17.68215 a 15.140011,14.175152 0 0 0 0.006,0.007 c 25.3277,-15.29809 22.98278,-17.21354 22.98278,-17.21354 l -0.12835,-0.40693 a 15.140011,14.175152 0 0 0 -0.0894,-0.0662 z m -22.76488,17.68805 a 15.140011,14.175152 0 0 1 -0.006,-0.007 l -0.0474,0.0367 c 0.0178,-0.01 0.0327,-0.0211 0.051,-0.0312 z m 13.37052,-20.75173 a 15.140011,14.175152 0 0 0 -15.14009,14.17513 15.140011,14.175152 0 0 0 1.7662,6.5707 l 22.76825,-17.68215 a 15.140011,14.175152 0 0 0 -9.39436,-3.06368 z" />
    <path
       d="M 193.28406,266.2594 H 165.0687 v 4.3567 a 7.3635509,6.6915052 0 0 0 0.6224,2.62659 h 26.97052 a 7.3635509,6.6915052 0 0 0 0.62244,-2.62659 z"
       style="fill:#333333;stroke-width:0.151363"
       id="path14-2-23-7-6-6-4-5-5" />
    <path
       d="m 165.0687,255.2111 v 6.98331 h 28.21536 v -6.98331 z"
       style="fill:#333333;stroke-width:0.151363"
       id="path11-8-38-2-8-4-6-87-4" />
    <path
       d="M 193.28406,262.19441 H 165.0687 v 4.06499 h 28.21536 z"
       style="fill:#aa0000;stroke-width:0.151363"
       id="path13-5-5-2-5-8-1-0-9" />
    <path
       d="m 170.62164,314.00762 c 0.59357,-0.48481 17.51406,-14.49305 18.35148,-35.54181 v -2.45748 h -18.35148 z"
       style="fill:#ffffff;stroke-width:0.126522"
       id="path21-0-72-1-8-9-0-3-3" />
    <path
       d="m 191.8583,205.00656 h -26.97051 a 7.3635509,6.6915052 0 0 0 6.74126,4.06502 h 13.48831 a 7.3635509,6.6915052 0 0 0 6.74094,-4.06502 z"
       style="fill:#ffffff;stroke-width:0.151363"
       id="path10-5-3-2-9-4-9-6-1" />
    <path
       d="m 171.62905,169.25595 a 7.3635509,6.6915052 0 0 0 -7.36367,6.69156 v 11.02747 h 28.21533 v -11.02747 a 7.3635509,6.6915052 0 0 0 -7.36335,-6.69156 z"
       style="fill:#ffffff;stroke-width:0.151363"
       id="path7-7-10-3-2-0-6-7-1" />
    <path
       d="m 188.72378,145.84956 0.12836,0.40692 c 0,0 2.34492,1.91543 -22.98256,17.21517 a 15.140011,14.175152 0 0 0 13.37049,7.59851 15.140011,14.175152 0 0 0 15.14011,-14.17513 15.140011,14.175152 0 0 0 -5.65611,-11.04547 z"
       style="fill:#ffffff;stroke-width:0.151363"
       id="path6-2-16-4-6-4-4-4-7" />
    <path
       id="path4-6-2-8-3-7-1-09-3"
       style="fill:#aa0000;stroke-width:0.151363"
       d="m 188.63414,145.7836 a 15.140011,14.175152 0 0 1 0.0898,0.0662 l -0.034,-0.10899 z m 0,0 -22.76826,17.68213 a 15.140011,14.175152 0 0 0 0.006,0.007 c 25.32768,-15.29929 22.98278,-17.21474 22.98278,-17.21474 l -0.12836,-0.40694 a 15.140011,14.175152 0 0 0 -0.0894,-0.0662 z m -22.76487,17.68805 a 15.140011,14.175152 0 0 1 -0.006,-0.007 l -0.0474,0.0367 c 0.0178,-0.01 0.0327,-0.0211 0.0511,-0.0312 z m 13.37052,-20.75177 a 15.140011,14.175152 0 0 0 -15.14007,14.17515 15.140011,14.175152 0 0 0 1.76616,6.5707 l 22.76826,-17.68213 a 15.140011,14.175152 0 0 0 -9.39435,-3.06372 z" />
    <path
       d="m 192.48071,198.02328 h -28.21533 v 4.35667 a 7.3635509,6.6915052 0 0 0 0.62241,2.62661 h 26.97051 a 7.3635509,6.6915052 0 0 0 0.62241,-2.62661 z"
       style="fill:#333333;stroke-width:0.151363"
       id="path14-2-23-7-6-6-4-82-4" />
    <path
       d="m 164.26538,186.97498 v 6.9833 h 28.21533 v -6.9833 z"
       style="fill:#333333;stroke-width:0.151363"
       id="path11-8-38-2-8-4-6-4-8" />
    <path
       d="m 192.48071,193.95828 h -28.21533 v 4.065 h 28.21533 z"
       style="fill:#aa0000;stroke-width:0.151363"
       id="path13-5-5-2-5-8-1-02-2" />
    <path
       d="m 169.81835,245.77148 c 0.59353,-0.48481 17.51399,-14.49305 18.35147,-35.5418 v -2.45749 h -18.35147 z"
       style="fill:#ffffff;stroke-width:0.126522"
       id="path21-0-72-1-8-9-0-60-3" />
    <path
       d="m 192.48025,132.70256 h -26.9705 a 7.3635509,6.6915052 0 0 0 6.74127,4.06504 h 13.48829 a 7.3635509,6.6915052 0 0 0 6.74094,-4.06504 z"
       style="fill:#ffffff;stroke-width:0.151363"
       id="path10-5-3-2-9-4-9-7-7" />
    <path
       d="m 172.25102,96.951938 a 7.3635509,6.6915052 0 0 0 -7.36369,6.691602 V 114.671 h 28.21537 v -11.02746 a 7.3635509,6.6915052 0 0 0 -7.36339,-6.691602 z"
       style="fill:#ffffff;stroke-width:0.151363"
       id="path7-7-10-3-2-0-6-8-4" />
    <path
       d="m 189.34572,73.545608 0.12836,0.40693 c 0,0 2.34494,1.9154 -22.98257,17.21511 a 15.140011,14.175152 0 0 0 13.37048,7.59854 15.140011,14.175152 0 0 0 15.14012,-14.17514 15.140011,14.175152 0 0 0 -5.65609,-11.04544 z"
       style="fill:#ffffff;stroke-width:0.151363"
       id="path6-2-16-4-6-4-4-55-9" />
    <path
       id="path4-6-2-8-3-7-1-01-4"
       style="fill:#333333;stroke-width:0.151363"
       d="m 189.2561,73.479608 a 15.140011,14.175152 0 0 1 0.0898,0.066 l -0.0343,-0.109 z m 0,0 -22.76826,17.68213 a 15.140011,14.175152 0 0 0 0.006,0.01 c 25.32703,-15.29952 22.98213,-17.21494 22.98213,-17.21494 l -0.12836,-0.40696 a 15.140011,14.175152 0 0 0 -0.0894,-0.066 z m -22.76484,17.68804 a 15.140011,14.175152 0 0 1 -0.006,-0.01 l -0.0474,0.0368 c 0.0178,-0.01 0.0327,-0.0211 0.0511,-0.0309 z m 13.37049,-20.75175 a 15.140011,14.175152 0 0 0 -15.14008,14.17515 15.140011,14.175152 0 0 0 1.76617,6.57069 l 22.76826,-17.68213 a 15.140011,14.175152 0 0 0 -9.39435,-3.06371 z" />
    <path
       d="m 193.1027,125.71928 h -28.21537 v 4.35671 a 7.3635509,6.6915052 0 0 0 0.62242,2.62657 h 26.9705 a 7.3635509,6.6915052 0 0 0 0.62245,-2.62657 z"
       style="fill:#333333;stroke-width:0.151363"
       id="path14-2-23-7-6-6-4-0-8" />
    <path
       d="m 164.88733,114.671 v 6.98328 H 193.1027 V 114.671 Z"
       style="fill:#333333;stroke-width:0.151363"
       id="path11-8-38-2-8-4-6-2-3" />
    <path
       d="m 193.1027,121.65428 h -28.21537 v 4.065 h 28.21537 z"
       style="fill:#aa0000;stroke-width:0.151363"
       id="path13-5-5-2-5-8-1-5-7" />
    <path
       d="m 170.4403,173.46749 c 0.59355,-0.48481 17.51401,-14.49304 18.35145,-35.54177 v -2.45751 H 170.4403 Z"
       style="fill:#ffffff;stroke-width:0.126522"
       id="path21-0-72-1-8-9-0-9-1" />
    <path
       d="m 151.48833,344.74401 h -26.97049 a 7.3635509,6.6915052 0 0 0 6.74122,4.065 h 13.48834 a 7.3635509,6.6915052 0 0 0 6.74093,-4.065 z"
       style="fill:#ffffff;stroke-width:0.151363"
       id="path10-5-3-2-9-4-9-32-4-4-7" />
    <path
       d="m 131.25906,308.99338 a 7.3635509,6.6915052 0 0 0 -7.36365,6.69159 v 11.02745 h 28.21535 v -11.02745 a 7.3635509,6.6915052 0 0 0 -7.36336,-6.69159 z"
       style="fill:#ffffff;stroke-width:0.151363"
       id="path7-7-10-3-2-0-6-67-4-9-7" />
    <path
       d="m 148.3538,285.58704 0.12836,0.40693 c 0,0 2.34492,1.9154 -22.98257,17.21513 a 15.140011,14.175152 0 0 0 13.37049,7.59852 15.140011,14.175152 0 0 0 15.14012,-14.17516 15.140011,14.175152 0 0 0 -5.65609,-11.04542 z"
       style="fill:#ffffff;stroke-width:0.151363"
       id="path6-2-16-4-6-4-4-43-7-8-7" />
    <path
       id="path4-6-2-8-3-7-1-9-7-7-6"
       style="fill:#aa0000;stroke-width:0.151363"
       d="m 148.26418,285.52105 a 15.140011,14.175152 0 0 1 0.0897,0.0662 l -0.0343,-0.10899 z m 0,0 -22.76825,17.68213 a 15.140011,14.175152 0 0 0 0.006,0.007 c 25.32837,-15.29871 22.98346,-17.21414 22.98346,-17.21414 l -0.12836,-0.40693 a 15.140011,14.175152 0 0 0 -0.0894,-0.0662 z m -22.76486,17.68805 a 15.140011,14.175152 0 0 1 -0.006,-0.007 l -0.0474,0.0368 c 0.0178,-0.01 0.0327,-0.0211 0.051,-0.0312 z m 13.37051,-20.75174 a 15.140011,14.175152 0 0 0 -15.14009,14.1751 15.140011,14.175152 0 0 0 1.76619,6.57072 l 22.76825,-17.68213 a 15.140011,14.175152 0 0 0 -9.39435,-3.06369 z" />
    <path
       d="m 152.11076,337.76072 h -28.21535 v 4.35666 a 7.3635509,6.6915052 0 0 0 0.62243,2.62663 h 26.97049 a 7.3635509,6.6915052 0 0 0 0.62243,-2.62663 z"
       style="fill:#333333;stroke-width:0.151363"
       id="path14-2-23-7-6-6-4-9-7-9-5" />
    <path
       d="m 123.89541,326.71242 v 6.9833 h 28.21535 v -6.9833 z"
       style="fill:#333333;stroke-width:0.151363"
       id="path11-8-38-2-8-4-6-5-7-7-8" />
    <path
       d="m 152.11076,333.69572 h -28.21535 v 4.065 h 28.21535 z"
       style="fill:#aa0000;stroke-width:0.151363"
       id="path13-5-5-2-5-8-1-8-4-2-7" />
    <path
       d="m 129.44839,385.50894 c 0.59353,-0.48483 17.514,-14.49305 18.35146,-35.54181 v -2.4575 h -18.35146 z"
       style="fill:#ffffff;stroke-width:0.126522"
       id="path21-0-72-1-8-9-0-33-8-1-3" />
    <path
       d="m 156.62229,306.31466 c 1.57421,-2.62884 8.71899,-15.5153 3.22791,-24.52195 l -0.27702,-0.16467 -18.75672,26.09021 10.37045,6.15671 z"
       style="fill:#ffffff;stroke-width:0.151363"
       id="path18-7-6-5-2-1-0-5-1-0-6-5" />
    <path
       d="M 109.3826,344.56696 H 82.412111 a 7.3635509,6.6915052 0 0 0 6.74121,4.065 h 13.488339 a 7.3635509,6.6915052 0 0 0 6.74094,-4.065 z"
       style="fill:#ffffff;stroke-width:0.151363"
       id="path10-5-3-2-9-4-9-32-4-4-7-1" />
    <path
       d="m 89.153321,308.81633 a 7.3635509,6.6915052 0 0 0 -7.36364,6.69159 v 11.02745 h 28.215349 v -11.02745 a 7.3635509,6.6915052 0 0 0 -7.36337,-6.69159 z"
       style="fill:#ffffff;stroke-width:0.151363"
       id="path7-7-10-3-2-0-6-67-4-9-7-6" />
    <path
       d="m 106.24807,285.40998 0.12836,0.40694 c 0,0 2.34491,1.91539 -22.982579,17.21513 a 15.140011,14.175152 0 0 0 13.37049,7.59852 15.140011,14.175152 0 0 0 15.140129,-14.17516 15.140011,14.175152 0 0 0 -5.6561,-11.04543 z"
       style="fill:#ffffff;stroke-width:0.151363"
       id="path6-2-16-4-6-4-4-43-7-8-7-4" />
    <path
       id="path4-6-2-8-3-7-1-9-7-7-6-0"
       style="fill:#aa0000;stroke-width:0.151363"
       d="m 106.15845,285.344 a 15.140011,14.175152 0 0 1 0.0897,0.0662 l -0.0343,-0.109 z m 0,0 -22.768259,17.68213 a 15.140011,14.175152 0 0 0 0.006,0.007 c 25.328379,-15.29871 22.983469,-17.21414 22.983469,-17.21414 l -0.12837,-0.40694 a 15.140011,14.175152 0 0 0 -0.0894,-0.0662 z m -22.764869,17.68805 a 15.140011,14.175152 0 0 1 -0.006,-0.007 l -0.0474,0.0367 c 0.0178,-0.01 0.0327,-0.0211 0.051,-0.0312 z m 13.37052,-20.75174 a 15.140011,14.175152 0 0 0 -15.1401,14.1751 15.140011,14.175152 0 0 0 1.76619,6.57072 L 106.15845,285.344 a 15.140011,14.175152 0 0 0 -9.394349,-3.06369 z" />
    <path
       d="M 110.00503,337.58367 H 81.789681 v 4.35666 a 7.3635509,6.6915052 0 0 0 0.62243,2.62663 H 109.3826 a 7.3635509,6.6915052 0 0 0 0.62243,-2.62663 z"
       style="fill:#333333;stroke-width:0.151363"
       id="path14-2-23-7-6-6-4-9-7-9-5-3" />
    <path
       d="m 81.789681,326.53537 v 6.9833 h 28.215349 v -6.9833 z"
       style="fill:#333333;stroke-width:0.151363"
       id="path11-8-38-2-8-4-6-5-7-7-8-7" />
    <path
       d="M 110.00503,333.51867 H 81.789681 v 4.065 h 28.215349 z"
       style="fill:#aa0000;stroke-width:0.151363"
       id="path13-5-5-2-5-8-1-8-4-2-7-6" />
    <path
       d="m 87.342661,385.33189 c 0.59353,-0.48483 17.513989,-14.49305 18.351449,-35.54181 v -2.4575 H 87.342661 Z"
       style="fill:#ffffff;stroke-width:0.126522"
       id="path21-0-72-1-8-9-0-33-8-1-3-5" />
    <path
       d="m 114.51656,306.13761 c 1.5742,-2.62884 8.71899,-15.5153 3.22791,-24.52195 l -0.27702,-0.16468 -18.756729,26.09022 10.370459,6.15671 z"
       style="fill:#ffffff;stroke-width:0.151363"
       id="path18-7-6-5-2-1-0-5-1-0-6-5-8" />
    <path
       d="M 67.481918,344.56342 H 40.511422 a 7.3635509,6.6915052 0 0 0 6.741219,4.065 h 13.488341 a 7.3635509,6.6915052 0 0 0 6.740936,-4.065 z"
       style="fill:#ffffff;stroke-width:0.151363"
       id="path10-5-3-2-9-4-9-32-4-4-7-0" />
    <path
       d="m 47.252641,308.81279 a 7.3635509,6.6915052 0 0 0 -7.363648,6.69159 v 11.02745 h 28.215354 v -11.02745 a 7.3635509,6.6915052 0 0 0 -7.363365,-6.69159 z"
       style="fill:#ffffff;stroke-width:0.151363"
       id="path7-7-10-3-2-0-6-67-4-9-7-8" />
    <path
       d="m 64.347389,285.40645 0.128361,0.40693 c 0,0 2.344913,1.9154 -22.982582,17.21513 a 15.140011,14.175152 0 0 0 13.370497,7.59852 15.140011,14.175152 0 0 0 15.140126,-14.17516 15.140011,14.175152 0 0 0 -5.656095,-11.04542 z"
       style="fill:#ffffff;stroke-width:0.151363"
       id="path6-2-16-4-6-4-4-43-7-8-7-0" />
    <path
       id="path4-6-2-8-3-7-1-9-7-7-6-6"
       style="fill:#aa0000;stroke-width:0.151363"
       d="m 64.257768,285.34047 a 15.140011,14.175152 0 0 1 0.08969,0.0662 l -0.03428,-0.10899 z m 0,0 -22.768262,17.68212 a 15.140011,14.175152 0 0 0 0.0061,0.007 c 25.32838,-15.29871 22.983466,-17.21414 22.983466,-17.21414 l -0.128361,-0.40693 a 15.140011,14.175152 0 0 0 -0.08945,-0.0662 z m -22.764871,17.68804 a 15.140011,14.175152 0 0 1 -0.0061,-0.007 l -0.04743,0.0368 c 0.01782,-0.01 0.03268,-0.0211 0.05099,-0.0312 z m 13.370522,-20.75174 a 15.140011,14.175152 0 0 0 -15.140102,14.1751 15.140011,14.175152 0 0 0 1.766189,6.57072 l 22.768262,-17.68212 a 15.140011,14.175152 0 0 0 -9.394349,-3.0637 z" />
    <path
       d="M 68.104347,337.58013 H 39.888993 v 4.35666 a 7.3635509,6.6915052 0 0 0 0.622429,2.62663 h 26.970496 a 7.3635509,6.6915052 0 0 0 0.622429,-2.62663 z"
       style="fill:#333333;stroke-width:0.151363"
       id="path14-2-23-7-6-6-4-9-7-9-5-9" />
    <path
       d="m 39.888993,326.53183 v 6.98331 h 28.215354 v -6.98331 z"
       style="fill:#333333;stroke-width:0.151363"
       id="path11-8-38-2-8-4-6-5-7-7-8-6" />
    <path
       d="M 68.104347,333.51514 H 39.888993 v 4.06499 h 28.215354 z"
       style="fill:#aa0000;stroke-width:0.151363"
       id="path13-5-5-2-5-8-1-8-4-2-7-7" />
    <path
       d="m 45.441973,385.32835 c 0.59353,-0.48482 17.514001,-14.49305 18.351462,-35.54181 v -2.4575 H 45.441973 Z"
       style="fill:#ffffff;stroke-width:0.126522"
       id="path21-0-72-1-8-9-0-33-8-1-3-3" />
    <path
       d="m 72.615881,306.13408 c 1.5742,-2.62885 8.71899,-15.51531 3.22791,-24.52196 l -0.27702,-0.16467 -18.75673,26.09021 10.370455,6.15671 z"
       style="fill:#ffffff;stroke-width:0.151363"
       id="path18-7-6-5-2-1-0-5-1-0-6-5-5" />
    <path
       d="m 219.05811,89.830658 -0.36526,-25.772 a 7.0375639,7.0014621 82.310183 0 1 4.34455,6.38661 l 0.18269,12.88896 a 7.0375639,7.0014621 82.310183 0 1 -4.16198,6.49643 z"
       style="fill:#ffffff;stroke-width:0.151363"
       id="path10-5-3-2-9-4-9-7-0-7" />
    <path
       d="m 181.37785,70.984508 a 7.0375639,7.0014621 82.310183 0 1 6.9018,-7.12706 l 11.53811,-0.14933 0.38213,26.96152 -11.53813,0.14935 a 7.0375639,7.0014621 82.310183 0 1 -7.10121,-6.94553 z"
       style="fill:#ffffff;stroke-width:0.151363"
       id="path7-7-10-3-2-0-6-8-7-8" />
    <path
       d="m 211.75983,90.519998 -0.38212,-26.96153 4.55844,-0.059 a 7.0375639,7.0014621 82.310183 0 1 2.7567,0.5592 l 0.36526,25.772 a 7.0375639,7.0014621 82.310183 0 1 -2.73981,0.63032 z"
       style="fill:#ffffff;stroke-width:0.151363"
       id="path14-2-23-7-6-6-4-0-1-1" />
    <path
       d="m 199.81776,63.708108 7.30669,-0.0946 0.38212,26.96153 -7.30668,0.0946 z"
       style="fill:#ffffff;stroke-width:0.151363"
       id="path11-8-38-2-8-4-6-2-1-6" />
    <path
       d="m 207.50657,90.575048 -0.38212,-26.96153 4.25326,-0.055 0.38212,26.96152 z"
       style="fill:#ffffff;stroke-width:0.151363"
       id="path13-5-5-2-5-8-1-5-4-4" />
    <path
       d="m 180.05842,72.867348 c -1.36801,2.73218 -7.5036,16.08511 -1.33551,24.68224 l 0.28892,0.14471 16.70195,-27.33568 -10.81538,-5.41258 z"
       style="fill:#ffffff;stroke-width:0.151363"
       id="path18-7-6-5-2-1-0-5-1-0-6-8-0" />
    <path
       d="m 186.88321,76.289528 0.1608,0.39619 c 0,0 -0.61438,2.88892 29.20106,0.0488 a 14.258592,15.051412 79.229201 0 1 -5.6435,13.85336 14.258592,15.051412 79.229201 0 1 -21.06222,-2.26599 14.258592,15.051412 79.229201 0 1 -2.65648,-12.03219 z"
       style="fill:#ffffff;stroke-width:0.151363"
       id="path6-2-16-4-6-4-4-55-1-2" />
    <path
       id="path4-6-2-8-3-7-1-01-9-64"
       style="fill:#333333;stroke-width:0.151363"
       d="m 186.91133,76.184798 a 14.258592,15.051412 79.229201 0 0 -0.0284,0.1049 l -0.0434,-0.10614 z m 0,0 29.33293,0.54291 a 14.258592,15.051412 79.229201 0 1 0.001,0.01 c -29.81584,2.84036 -29.20147,-0.0485 -29.20147,-0.0485 l -0.16113,-0.39621 a 14.258592,15.051412 79.229201 0 1 0.0283,-0.10478 z m 29.33407,0.54955 a 14.258592,15.051412 79.229201 0 0 -10e-4,-0.01 l 0.0613,10e-4 c -0.0205,0.002 -0.0393,0.002 -0.0601,0.005 z m -23.90348,-8.49008 a 14.258592,15.051412 79.229201 0 1 21.06223,2.266 14.258592,15.051412 79.229201 0 1 2.84011,6.21744 l -29.33293,-0.54291 a 14.258592,15.051412 79.229201 0 1 5.43059,-7.94053 z" />
    <path
       d="m 218.62325,69.289828 -0.36527,-25.77202 a 7.0375639,7.0014621 82.310183 0 1 4.34455,6.38662 l 0.1827,12.88895 a 7.0375639,7.0014621 82.310183 0 1 -4.16197,6.49645 z"
       style="fill:#ffffff;stroke-width:0.151363"
       id="path10-5-3-2-9-4-9-7-0-7-8" />
    <path
       d="m 180.94296,50.443678 a 7.0375639,7.0014621 82.310183 0 1 6.90178,-7.12706 l 11.53814,-0.14934 0.38211,26.96152 -11.53812,0.14934 a 7.0375639,7.0014621 82.310183 0 1 -7.10123,-6.94551 z"
       style="fill:#ffffff;stroke-width:0.151363"
       id="path7-7-10-3-2-0-6-8-7-8-0" />
    <path
       d="m 211.32498,69.979158 -0.38215,-26.96152 4.55847,-0.059 a 7.0375639,7.0014621 82.310183 0 1 2.75668,0.55918 l 0.36527,25.77201 a 7.0375639,7.0014621 82.310183 0 1 -2.73984,0.63033 z"
       style="fill:#ffffff;stroke-width:0.151363"
       id="path14-2-23-7-6-6-4-0-1-1-9" />
    <path
       d="m 199.38288,43.167258 7.30668,-0.0946 0.38214,26.96152 -7.30671,0.0946 z"
       style="fill:#ffffff;stroke-width:0.151363"
       id="path11-8-38-2-8-4-6-2-1-6-0" />
    <path
       d="m 207.0717,70.034218 -0.38214,-26.96153 4.25327,-0.055 0.38215,26.96152 z"
       style="fill:#ffffff;stroke-width:0.151363"
       id="path13-5-5-2-5-8-1-5-4-4-7" />
    <path
       d="m 186.44832,55.748688 0.16115,0.39619 c 0,0 -0.61438,2.88892 29.20104,0.0488 a 14.258592,15.051412 79.229201 0 1 -5.64349,13.85336 14.258592,15.051412 79.229201 0 1 -21.06222,-2.266 14.258592,15.051412 79.229201 0 1 -2.65648,-12.03219 z"
       style="fill:#ffffff;stroke-width:0.151363"
       id="path6-2-16-4-6-4-4-55-1-2-3" />
    <path
       id="path4-6-2-8-3-7-1-01-9-64-6"
       style="fill:#333333;stroke-width:0.151363"
       d="m 186.47644,55.643968 a 14.258592,15.051412 79.229201 0 0 -0.0284,0.1049 l -0.0434,-0.10614 z m 0,0 29.33294,0.54289 a 14.258592,15.051412 79.229201 0 1 0.001,0.01 c -29.81583,2.84036 -29.20147,-0.0485 -29.20147,-0.0485 l -0.16098,-0.39621 a 14.258592,15.051412 79.229201 0 1 0.0283,-0.10478 z m 29.33408,0.54955 a 14.258592,15.051412 79.229201 0 0 -0.001,-0.01 l 0.0611,10e-4 c -0.0205,0.002 -0.0393,0.002 -0.0602,0.005 z m -23.90345,-8.4901 a 14.258592,15.051412 79.229201 0 1 21.06221,2.26602 14.258592,15.051412 79.229201 0 1 2.8401,6.21742 l -29.33294,-0.54289 a 14.258592,15.051412 79.229201 0 1 5.43063,-7.94055 z" />
  </g>
</svg>
