<?xml version="1.0" encoding="UTF-8" standalone="no"?>
<!-- Created with Inkscape (http://www.inkscape.org/) -->

<svg
   width="400mm"
   height="400mm"
   viewBox="0 0 400 400"
   version="1.1"
   id="svg1"
   inkscape:export-filename="..\..\..\..\..\..\Projects\puntal\assets\images\2d7.png"
   inkscape:export-xdpi="96"
   inkscape:export-ydpi="96"
   inkscape:version="1.3.2 (091e20e, 2023-11-25, custom)"
   sodipodi:docname="2d6 draft.svg"
   xmlns:inkscape="http://www.inkscape.org/namespaces/inkscape"
   xmlns:sodipodi="http://sodipodi.sourceforge.net/DTD/sodipodi-0.dtd"
   xmlns="http://www.w3.org/2000/svg"
   xmlns:svg="http://www.w3.org/2000/svg">
  <sodipodi:namedview
     id="namedview1"
     pagecolor="#505050"
     bordercolor="#eeeeee"
     borderopacity="1"
     inkscape:showpageshadow="0"
     inkscape:pageopacity="0"
     inkscape:pagecheckerboard="0"
     inkscape:deskcolor="#505050"
     inkscape:document-units="mm"
     inkscape:zoom="0.69219277"
     inkscape:cx="630.60468"
     inkscape:cy="374.89557"
     inkscape:window-width="1920"
     inkscape:window-height="1009"
     inkscape:window-x="1912"
     inkscape:window-y="-8"
     inkscape:window-maximized="1"
     inkscape:current-layer="layer1"
     showguides="false" />
  <defs
     id="defs1" />
  <g
     inkscape:label="Capa 1"
     inkscape:groupmode="layer"
     id="layer1">
    <path
       d="M 0,0 V 400 M 2.6458333,0 V 400 M 5.2916666,0 V 400 M 7.9374999,0 V 400 M 10.583333,0 V 400 M 13.229167,0 V 400 M 15.875,0 V 400 M 18.520833,0 V 400 M 21.166667,0 V 400 M 23.8125,0 V 400 M 26.458333,0 V 400 M 29.104166,0 V 400 M 31.75,0 V 400 M 34.395833,0 V 400 M 37.041666,0 V 400 M 39.6875,0 V 400 M 42.333333,0 V 400 M 44.979166,0 V 400 M 47.625,0 V 400 M 50.270833,0 V 400 M 52.916666,0 V 400 M 55.5625,0 V 400 M 58.208333,0 V 400 M 60.854166,0 V 400 M 63.5,0 V 400 M 66.145833,0 V 400 M 68.791666,0 V 400 M 71.437499,0 V 400 M 74.083333,0 V 400 M 76.729166,0 V 400 M 79.374999,0 V 400 M 82.020833,0 V 400 M 84.666666,0 V 400 M 87.312499,0 V 400 M 89.958333,0 V 400 M 92.604166,0 V 400 M 95.249999,0 V 400 M 97.895833,0 V 400 M 100.54167,0 V 400 M 103.1875,0 V 400 M 105.83333,0 V 400 M 108.47917,0 V 400 M 111.125,0 V 400 M 113.77083,0 V 400 M 116.41667,0 V 400 M 119.0625,0 V 400 M 121.70833,0 V 400 M 124.35417,0 V 400 M 127,0 V 400 M 129.64583,0 V 400 M 132.29167,0 V 400 M 134.9375,0 V 400 M 137.58333,0 V 400 M 140.22917,0 V 400 M 142.875,0 V 400 M 145.52083,0 V 400 M 148.16667,0 V 400 M 150.8125,0 V 400 M 153.45833,0 V 400 M 156.10417,0 V 400 M 158.75,0 V 400 M 161.39583,0 V 400 M 164.04167,0 V 400 M 166.6875,0 V 400 M 169.33333,0 V 400 M 171.97917,0 V 400 M 174.625,0 V 400 M 177.27083,0 V 400 M 179.91667,0 V 400 M 182.5625,0 V 400 M 185.20833,0 V 400 M 187.85417,0 V 400 M 190.5,0 V 400 M 193.14583,0 V 400 M 195.79167,0 V 400 M 198.4375,0 V 400 M 201.08333,0 V 400 M 203.72917,0 V 400 M 206.375,0 V 400 M 209.02083,0 V 400 M 211.66667,0 V 400 M 214.3125,0 V 400 M 216.95833,0 V 400 M 219.60416,0 V 400 M 222.25,0 V 400 M 224.89583,0 V 400 M 227.54166,0 V 400 M 230.1875,0 V 400 M 232.83333,0 V 400 M 235.47916,0 V 400 M 238.125,0 V 400 M 240.77083,0 V 400 M 243.41666,0 V 400 M 246.0625,0 V 400 M 248.70833,0 V 400 M 251.35416,0 V 400 M 254,0 V 400 M 256.64583,0 V 400 M 259.29166,0 V 400 M 261.9375,0 V 400 M 264.58333,0 V 400 M 267.22916,0 V 400 M 269.875,0 V 400 M 272.52083,0 V 400 M 275.16666,0 V 400 M 277.8125,0 V 400 M 280.45833,0 V 400 M 283.10416,0 V 400 M 285.75,0 V 400 M 288.39583,0 V 400 M 291.04166,0 V 400 M 293.6875,0 V 400 M 296.33333,0 V 400 M 298.97916,0 V 400 M 301.625,0 V 400 M 304.27083,0 V 400 M 306.91666,0 V 400 M 309.5625,0 V 400 M 312.20833,0 V 400 M 314.85416,0 V 400 M 317.5,0 V 400 M 320.14583,0 V 400 M 322.79166,0 V 400 M 325.4375,0 V 400 M 328.08333,0 V 400 M 330.72916,0 V 400 M 333.375,0 V 400 M 336.02083,0 V 400 M 338.66666,0 V 400 M 341.3125,0 V 400 M 343.95833,0 V 400 M 346.60416,0 V 400 M 349.25,0 V 400 M 351.89583,0 V 400 M 354.54166,0 V 400 M 357.1875,0 V 400 M 359.83333,0 V 400 M 362.47916,0 V 400 M 365.125,0 V 400 M 367.77083,0 V 400 M 370.41666,0 V 400 M 373.0625,0 V 400 M 375.70833,0 V 400 M 378.35416,0 V 400 M 381,0 V 400 M 383.64583,0 V 400 M 386.29166,0 V 400 M 388.9375,0 V 400 M 391.58333,0 V 400 M 394.22916,0 V 400 M 396.875,0 V 400 M 399.52083,0 V 400 M 0,0 H 400 M 0,2.6458333 H 400 M 0,5.2916666 H 400 M 0,7.9374999 H 400 M 0,10.583333 H 400 M 0,13.229167 H 400 M 0,15.875 H 400 M 0,18.520833 H 400 M 0,21.166667 H 400 M 0,23.8125 H 400 M 0,26.458333 H 400 M 0,29.104166 H 400 M 0,31.75 H 400 M 0,34.395833 H 400 M 0,37.041666 H 400 M 0,39.6875 H 400 M 0,42.333333 H 400 M 0,44.979166 H 400 M 0,47.625 H 400 M 0,50.270833 H 400 M 0,52.916666 H 400 M 0,55.5625 H 400 M 0,58.208333 H 400 M 0,60.854166 H 400 M 0,63.5 H 400 M 0,66.145833 H 400 M 0,68.791666 H 400 M 0,71.437499 H 400 M 0,74.083333 H 400 M 0,76.729166 H 400 M 0,79.374999 H 400 M 0,82.020833 H 400 M 0,84.666666 H 400 M 0,87.312499 H 400 M 0,89.958333 H 400 M 0,92.604166 H 400 M 0,95.249999 H 400 M 0,97.895833 H 400 M 0,100.54167 H 400 M 0,103.1875 H 400 M 0,105.83333 H 400 M 0,108.47917 H 400 M 0,111.125 H 400 M 0,113.77083 H 400 M 0,116.41667 H 400 M 0,119.0625 H 400 M 0,121.70833 H 400 M 0,124.35417 H 400 M 0,127 H 400 M 0,129.64583 H 400 M 0,132.29167 H 400 M 0,134.9375 H 400 M 0,137.58333 H 400 M 0,140.22917 H 400 M 0,142.875 H 400 M 0,145.52083 H 400 M 0,148.16667 H 400 M 0,150.8125 H 400 M 0,153.45833 H 400 M 0,156.10417 H 400 M 0,158.75 H 400 M 0,161.39583 H 400 M 0,164.04167 H 400 M 0,166.6875 H 400 M 0,169.33333 H 400 M 0,171.97917 H 400 M 0,174.625 H 400 M 0,177.27083 H 400 M 0,179.91667 H 400 M 0,182.5625 H 400 M 0,185.20833 H 400 M 0,187.85417 H 400 M 0,190.5 H 400 M 0,193.14583 H 400 M 0,195.79167 H 400 M 0,198.4375 H 400 M 0,201.08333 H 400 M 0,203.72917 H 400 M 0,206.375 H 400 M 0,209.02083 H 400 M 0,211.66667 H 400 M 0,214.3125 H 400 M 0,216.95833 H 400 M 0,219.60416 H 400 M 0,222.25 H 400 M 0,224.89583 H 400 M 0,227.54166 H 400 M 0,230.1875 H 400 M 0,232.83333 H 400 M 0,235.47916 H 400 M 0,238.125 H 400 M 0,240.77083 H 400 M 0,243.41666 H 400 M 0,246.0625 H 400 M 0,248.70833 H 400 M 0,251.35416 H 400 M 0,254 H 400 M 0,256.64583 H 400 M 0,259.29166 H 400 M 0,261.9375 H 400 M 0,264.58333 H 400 M 0,267.22916 H 400 M 0,269.875 H 400 M 0,272.52083 H 400 M 0,275.16666 H 400 M 0,277.8125 H 400 M 0,280.45833 H 400 M 0,283.10416 H 400 M 0,285.75 H 400 M 0,288.39583 H 400 M 0,291.04166 H 400 M 0,293.6875 H 400 M 0,296.33333 H 400 M 0,298.97916 H 400 M 0,301.625 H 400 M 0,304.27083 H 400 M 0,306.91666 H 400 M 0,309.5625 H 400 M 0,312.20833 H 400 M 0,314.85416 H 400 M 0,317.5 H 400 M 0,320.14583 H 400 M 0,322.79166 H 400 M 0,325.4375 H 400 M 0,328.08333 H 400 M 0,330.72916 H 400 M 0,333.375 H 400 M 0,336.02083 H 400 M 0,338.66666 H 400 M 0,341.3125 H 400 M 0,343.95833 H 400 M 0,346.60416 H 400 M 0,349.25 H 400 M 0,351.89583 H 400 M 0,354.54166 H 400 M 0,357.1875 H 400 M 0,359.83333 H 400 M 0,362.47916 H 400 M 0,365.125 H 400 M 0,367.77083 H 400 M 0,370.41666 H 400 M 0,373.0625 H 400 M 0,375.70833 H 400 M 0,378.35416 H 400 M 0,381 H 400 M 0,383.64583 H 400 M 0,386.29166 H 400 M 0,388.9375 H 400 M 0,391.58333 H 400 M 0,394.22916 H 400 M 0,396.875 H 400 M 0,399.52083 h 400"
       style="display:none;fill:none;stroke:#000000;stroke-width:0.264583px"
       id="path1" />
    <path
       d="m 211.96415,342.46985 h 21.95069 a 5.9930213,5.390219 0 0 1 -5.48657,3.27448 h -10.97782 a 5.9930213,5.390219 0 0 1 -5.4863,-3.27448 z"
       style="fill:#ffffff;stroke-width:0.122558"
       id="path10-5-3-2-9-4-9-2" />
    <path
       d="m 228.42827,313.67157 a 5.9930213,5.390219 0 0 1 5.9931,5.39029 v 8.88295 h -22.96379 v -8.88295 a 5.9930213,5.390219 0 0 1 5.99287,-5.39029 z"
       style="fill:#ffffff;stroke-width:0.122558"
       id="path7-7-10-3-2-0-6-6" />
    <path
       d="m 214.51528,294.81702 -0.10447,0.32778 c 0,0 -1.90848,1.54295 18.70497,13.86735 a 12.3221,11.418533 0 0 1 -10.88194,6.12083 12.3221,11.418533 0 0 1 -12.32218,-11.4185 12.3221,11.418533 0 0 1 4.60339,-8.89746 z"
       style="fill:#ffffff;stroke-width:0.122558"
       id="path6-2-16-4-6-4-4-5" />
    <path
       id="path4-6-2-8-3-7-1-0"
       style="fill:#aa0000;stroke-width:0.122558"
       d="m 214.58824,294.76386 a 12.3221,11.418533 0 0 0 -0.0731,0.0533 l 0.0279,-0.0878 z m 0,0 18.53054,14.24352 a 12.3221,11.418533 0 0 1 -0.005,0.006 c -20.61353,-12.32392 -18.70503,-13.86687 -18.70503,-13.86687 l 0.10446,-0.32779 a 12.3221,11.418533 0 0 1 0.0731,-0.0533 z m 18.52779,14.24829 a 12.3221,11.418533 0 0 0 0.005,-0.006 l 0.0386,0.0296 c -0.0145,-0.008 -0.0266,-0.017 -0.0416,-0.0251 z m -10.88195,-16.71618 a 12.3221,11.418533 0 0 1 12.32215,11.41851 12.3221,11.418533 0 0 1 -1.43745,5.2929 l -18.53054,-14.24352 a 12.3221,11.418533 0 0 1 7.64584,-2.46789 z" />
    <path
       d="m 211.45758,336.84457 h 22.96379 v 3.50946 a 5.9930213,5.390219 0 0 1 -0.50653,2.11582 h -21.95069 a 5.9930213,5.390219 0 0 1 -0.50657,-2.11582 z"
       style="fill:#333333;stroke-width:0.122558"
       id="path14-2-23-7-6-6-4-8" />
    <path
       d="m 234.42137,327.94481 v 5.62528 h -22.96379 v -5.62528 z"
       style="fill:#333333;stroke-width:0.122558"
       id="path11-8-38-2-8-4-6-8" />
    <path
       d="m 211.45758,333.57009 h 22.96379 v 3.27448 h -22.96379 z"
       style="fill:#aa0000;stroke-width:0.122558"
       id="path13-5-5-2-5-8-1-9" />
    <path
       d="m 229.90197,375.30725 c -0.48307,-0.39051 -14.25423,-11.67459 -14.93582,-28.63003 v -1.97957 h 14.93582 z"
       style="fill:#ffffff;stroke-width:0.102444"
       id="path21-0-72-1-8-9-0-6" />
    <path
       d="m 211.32764,285.13685 h 21.95065 a 5.9930213,5.390219 0 0 1 -5.48654,3.27449 h -10.97782 a 5.9930213,5.390219 0 0 1 -5.48629,-3.27449 z"
       style="fill:#ffffff;stroke-width:0.122558"
       id="path10-5-3-2-9-4-9-3" />
    <path
       d="m 227.79175,256.33859 a 5.9930213,5.390219 0 0 1 5.99312,5.39029 v 8.88296 h -22.96383 v -8.88296 a 5.9930213,5.390219 0 0 1 5.99289,-5.39029 z"
       style="fill:#ffffff;stroke-width:0.122558"
       id="path7-7-10-3-2-0-6-2" />
    <path
       d="m 213.87876,237.48404 -0.10446,0.3278 c 0,0 -1.90848,1.54294 18.70495,13.86734 a 12.3221,11.418533 0 0 1 -10.88193,6.12084 12.3221,11.418533 0 0 1 -12.32218,-11.41851 12.3221,11.418533 0 0 1 4.60337,-8.89747 z"
       style="fill:#ffffff;stroke-width:0.122558"
       id="path6-2-16-4-6-4-4-3" />
    <path
       id="path4-6-2-8-3-7-1-8"
       style="fill:#aa0000;stroke-width:0.122558"
       d="m 213.9517,237.43088 a 12.3221,11.418533 0 0 0 -0.0731,0.0532 l 0.0279,-0.0878 z m 0,0 18.53054,14.24352 a 12.3221,11.418533 0 0 1 -0.005,0.006 c -20.61308,-12.32373 -18.70463,-13.86668 -18.70463,-13.86668 l 0.10447,-0.32782 a 12.3221,11.418533 0 0 1 0.0728,-0.0533 z m 18.52779,14.2483 a 12.3221,11.418533 0 0 0 0.005,-0.006 l 0.0386,0.0296 c -0.0145,-0.008 -0.0266,-0.017 -0.0413,-0.0251 z M 221.59754,234.963 a 12.3221,11.418533 0 0 1 12.32216,11.41851 12.3221,11.418533 0 0 1 -1.43746,5.29289 L 213.9517,237.43088 a 12.3221,11.418533 0 0 1 7.64584,-2.46788 z" />
    <path
       d="m 210.82104,279.51159 h 22.96383 v 3.50946 a 5.9930213,5.390219 0 0 1 -0.50658,2.1158 h -21.95065 a 5.9930213,5.390219 0 0 1 -0.5066,-2.1158 z"
       style="fill:#333333;stroke-width:0.122558"
       id="path14-2-23-7-6-6-4-5" />
    <path
       d="m 233.78487,270.61184 v 5.62528 h -22.96383 v -5.62528 z"
       style="fill:#333333;stroke-width:0.122558"
       id="path11-8-38-2-8-4-6-87" />
    <path
       d="m 210.82104,276.23712 h 22.96383 v 3.27447 h -22.96383 z"
       style="fill:#aa0000;stroke-width:0.122558"
       id="path13-5-5-2-5-8-1-0" />
    <path
       d="m 229.26545,317.97429 c -0.48309,-0.39054 -14.25426,-11.67461 -14.93584,-28.63004 v -1.9796 h 14.93584 z"
       style="fill:#ffffff;stroke-width:0.102444"
       id="path21-0-72-1-8-9-0-3" />
    <path
       d="m 211.98144,230.17049 h 21.95067 a 5.9930213,5.390219 0 0 1 -5.48655,3.27451 h -10.97784 a 5.9930213,5.390219 0 0 1 -5.48628,-3.27451 z"
       style="fill:#ffffff;stroke-width:0.122558"
       id="path10-5-3-2-9-4-9-6" />
    <path
       d="m 228.44556,201.37223 a 5.9930213,5.390219 0 0 1 5.9931,5.39029 v 8.88297 h -22.96379 v -8.88297 a 5.9930213,5.390219 0 0 1 5.99285,-5.39029 z"
       style="fill:#ffffff;stroke-width:0.122558"
       id="path7-7-10-3-2-0-6-7" />
    <path
       d="m 214.53254,182.51768 -0.10447,0.32777 c 0,0 -1.90847,1.54294 18.70497,13.86733 a 12.3221,11.418533 0 0 1 -10.88193,6.12086 12.3221,11.418533 0 0 1 -12.32218,-11.41851 12.3221,11.418533 0 0 1 4.60337,-8.89745 z"
       style="fill:#ffffff;stroke-width:0.122558"
       id="path6-2-16-4-6-4-4-4" />
    <path
       id="path4-6-2-8-3-7-1-09"
       style="fill:#aa0000;stroke-width:0.122558"
       d="m 214.60548,182.46451 a 12.3221,11.418533 0 0 0 -0.073,0.0533 l 0.0277,-0.0878 z m 0,0 18.53056,14.24353 a 12.3221,11.418533 0 0 1 -0.005,0.007 C 212.5179,184.39082 214.42636,182.84785 214.42636,182.84785 l 0.10447,-0.32779 a 12.3221,11.418533 0 0 1 0.0728,-0.0533 z m 18.52781,14.24827 a 12.3221,11.418533 0 0 0 0.005,-0.006 l 0.0386,0.0296 c -0.0145,-0.008 -0.0266,-0.017 -0.0416,-0.0251 z m -10.88195,-16.71617 a 12.3221,11.418533 0 0 1 12.32215,11.41852 12.3221,11.418533 0 0 1 -1.43745,5.29291 l -18.53056,-14.24353 a 12.3221,11.418533 0 0 1 7.64586,-2.4679 z" />
    <path
       d="m 211.47487,224.54523 h 22.96379 v 3.50945 a 5.9930213,5.390219 0 0 1 -0.50655,2.11581 h -21.95067 a 5.9930213,5.390219 0 0 1 -0.50657,-2.11581 z"
       style="fill:#333333;stroke-width:0.122558"
       id="path14-2-23-7-6-6-4-82" />
    <path
       d="m 234.43866,215.64549 v 5.62526 h -22.96379 v -5.62526 z"
       style="fill:#333333;stroke-width:0.122558"
       id="path11-8-38-2-8-4-6-4" />
    <path
       d="m 211.47487,221.27075 h 22.96379 v 3.27448 h -22.96379 z"
       style="fill:#aa0000;stroke-width:0.122558"
       id="path13-5-5-2-5-8-1-02" />
    <path
       d="m 229.91923,263.00792 c -0.48306,-0.39054 -14.25424,-11.6746 -14.93583,-28.63005 v -1.97957 h 14.93583 z"
       style="fill:#ffffff;stroke-width:0.102444"
       id="path21-0-72-1-8-9-0-60" />
    <path
       d="m 211.47522,171.92734 h 21.95068 a 5.9930213,5.390219 0 0 1 -5.48654,3.27452 h -10.97783 a 5.9930213,5.390219 0 0 1 -5.48631,-3.27452 z"
       style="fill:#ffffff;stroke-width:0.122558"
       id="path10-5-3-2-9-4-9-7" />
    <path
       d="m 227.93936,143.12909 a 5.9930213,5.390219 0 0 1 5.9931,5.39027 v 8.88296 h -22.96382 v -8.88296 a 5.9930213,5.390219 0 0 1 5.99289,-5.39027 z"
       style="fill:#ffffff;stroke-width:0.122558"
       id="path7-7-10-3-2-0-6-8" />
    <path
       d="m 214.02636,124.27453 -0.10447,0.32781 c 0,0 -1.90848,1.54292 18.70498,13.86732 a 12.3221,11.418533 0 0 1 -10.88194,6.12084 12.3221,11.418533 0 0 1 -12.32217,-11.41852 12.3221,11.418533 0 0 1 4.60336,-8.89745 z"
       style="fill:#ffffff;stroke-width:0.122558"
       id="path6-2-16-4-6-4-4-55" />
    <path
       id="path4-6-2-8-3-7-1-01"
       style="fill:#aa0000;stroke-width:0.122558"
       d="m 214.0993,124.22139 a 12.3221,11.418533 0 0 0 -0.0731,0.0532 l 0.0279,-0.0878 z m 0,0 18.53055,14.2435 a 12.3221,11.418533 0 0 1 -0.005,0.008 C 212.01178,126.14866 213.92023,124.6057 213.92023,124.6057 l 0.10447,-0.3278 a 12.3221,11.418533 0 0 1 0.0728,-0.0533 z m 18.52777,14.24827 a 12.3221,11.418533 0 0 0 0.005,-0.008 l 0.0386,0.0296 c -0.0145,-0.008 -0.0264,-0.017 -0.0413,-0.0249 z m -10.88194,-16.71619 a 12.3221,11.418533 0 0 1 12.32217,11.41851 12.3221,11.418533 0 0 1 -1.43745,5.29291 l -18.53055,-14.2435 a 12.3221,11.418533 0 0 1 7.64583,-2.46792 z" />
    <path
       d="m 210.96864,166.30208 h 22.96382 v 3.50945 a 5.9930213,5.390219 0 0 1 -0.50656,2.11581 h -21.95068 a 5.9930213,5.390219 0 0 1 -0.50658,-2.11581 z"
       style="fill:#333333;stroke-width:0.122558"
       id="path14-2-23-7-6-6-4-0" />
    <path
       d="m 233.93246,157.40232 v 5.62528 h -22.96382 v -5.62528 z"
       style="fill:#333333;stroke-width:0.122558"
       id="path11-8-38-2-8-4-6-2" />
    <path
       d="m 210.96864,163.0276 h 22.96382 v 3.27448 h -22.96382 z"
       style="fill:#aa0000;stroke-width:0.122558"
       id="path13-5-5-2-5-8-1-5" />
    <path
       d="m 229.41304,204.76477 c -0.48308,-0.39053 -14.25424,-11.67461 -14.93582,-28.63001 v -1.97959 h 14.93582 z"
       style="fill:#ffffff;stroke-width:0.102444"
       id="path21-0-72-1-8-9-0-9" />
    <path
       d="m 215.14724,135.43373 c 0.25785,-2.4639 1.89235,-14.25893 9.82598,-17.31723 l 0.25941,0.0317 -0.5296,26.0029 -9.7092,-1.182 z"
       style="fill:#ffffff;stroke-width:0.122558"
       id="path18-7-6-5-2-1-0-5-5" />
    <path
       d="m 211.4736,116.00455 h 21.95064 a 5.9930213,5.390219 0 0 1 -5.48653,3.2745 h -10.97784 a 5.9930213,5.390219 0 0 1 -5.48627,-3.2745 z"
       style="fill:#ffffff;stroke-width:0.122558"
       id="path10-5-3-2-9-4-9-7-0" />
    <path
       d="m 227.93771,87.2063 a 5.9930213,5.390219 0 0 1 5.99311,5.390292 v 8.882958 h -22.9638 v -8.882958 a 5.9930213,5.390219 0 0 1 5.99285,-5.390292 z"
       style="fill:#ffffff;stroke-width:0.122558"
       id="path7-7-10-3-2-0-6-8-7" />
    <path
       d="m 214.0247,68.351751 -0.10446,0.327786 c 0,0 -1.90846,1.542934 18.70498,13.867333 a 12.3221,11.418533 0 0 1 -10.88193,6.120843 12.3221,11.418533 0 0 1 -12.32218,-11.418515 12.3221,11.418533 0 0 1 4.60337,-8.897447 z"
       style="fill:#ffffff;stroke-width:0.122558"
       id="path6-2-16-4-6-4-4-55-1" />
    <path
       id="path4-6-2-8-3-7-1-01-9"
       style="fill:#333333;stroke-width:0.122558"
       d="m 214.09765,68.298595 a 12.3221,11.418533 0 0 0 -0.0733,0.0532 l 0.0279,-0.08794 z m 0,0 18.53054,14.243512 a 12.3221,11.418533 0 0 1 -0.005,0.0068 C 212.01063,70.224529 213.91909,68.68157 213.91909,68.68157 l 0.10447,-0.327801 a 12.3221,11.418533 0 0 1 0.073,-0.0532 z m 18.5278,14.248275 a 12.3221,11.418533 0 0 0 0.005,-0.0068 l 0.0386,0.02972 c -0.0145,-0.0083 -0.0266,-0.01696 -0.0416,-0.02497 z M 221.74351,65.830683 a 12.3221,11.418533 0 0 1 12.32214,11.418515 12.3221,11.418533 0 0 1 -1.43746,5.292909 L 214.09765,68.298595 a 12.3221,11.418533 0 0 1 7.64586,-2.467912 z" />
    <path
       d="m 210.96702,110.37929 h 22.9638 v 3.50944 a 5.9930213,5.390219 0 0 1 -0.50658,2.11582 H 211.4736 a 5.9930213,5.390219 0 0 1 -0.50658,-2.11582 z"
       style="fill:#333333;stroke-width:0.122558"
       id="path14-2-23-7-6-6-4-0-1" />
    <path
       d="m 233.93082,101.47955 v 5.62525 h -22.9638 v -5.62525 z"
       style="fill:#333333;stroke-width:0.122558"
       id="path11-8-38-2-8-4-6-2-1" />
    <path
       d="m 210.96702,107.1048 h 22.9638 v 3.27449 h -22.9638 z"
       style="fill:#aa0000;stroke-width:0.122558"
       id="path13-5-5-2-5-8-1-5-4" />
    <path
       d="m 229.41138,148.842 c -0.48305,-0.39054 -14.25424,-11.67462 -14.93582,-28.63006 v -1.97957 h 14.93582 z"
       style="fill:#ffffff;stroke-width:0.102444"
       id="path21-0-72-1-8-9-0-9-7" />
    <path
       d="m 244.8376,342.73342 h 21.95065 a 5.9930213,5.390219 0 0 1 -5.48652,3.27451 h -10.97785 a 5.9930213,5.390219 0 0 1 -5.48628,-3.27451 z"
       style="fill:#ffffff;stroke-width:0.122558"
       id="path10-5-3-2-9-4-9-32-4-4" />
    <path
       d="m 261.30173,313.93517 a 5.9930213,5.390219 0 0 1 5.9931,5.39027 v 8.88296 h -22.96381 v -8.88296 a 5.9930213,5.390219 0 0 1 5.99286,-5.39027 z"
       style="fill:#ffffff;stroke-width:0.122558"
       id="path7-7-10-3-2-0-6-67-4-9" />
    <path
       d="m 247.38871,295.08062 -0.10447,0.32779 c 0,0 -1.90846,1.54292 18.70498,13.86733 a 12.3221,11.418533 0 0 1 -10.88192,6.12085 12.3221,11.418533 0 0 1 -12.32219,-11.41854 12.3221,11.418533 0 0 1 4.60337,-8.89743 z"
       style="fill:#ffffff;stroke-width:0.122558"
       id="path6-2-16-4-6-4-4-43-7-8" />
    <path
       id="path4-6-2-8-3-7-1-9-7-7"
       style="fill:#aa0000;stroke-width:0.122558"
       d="m 247.46166,295.02745 a 12.3221,11.418533 0 0 0 -0.073,0.0533 l 0.0277,-0.0878 z m 0,0 18.53055,14.24353 a 12.3221,11.418533 0 0 1 -0.005,0.006 c -20.61447,-12.32325 -18.70599,-13.86619 -18.70599,-13.86619 l 0.10446,-0.3278 a 12.3221,11.418533 0 0 1 0.0728,-0.0533 z m 18.52779,14.24829 a 12.3221,11.418533 0 0 0 0.005,-0.006 l 0.0386,0.0296 c -0.0145,-0.008 -0.0265,-0.017 -0.0416,-0.0251 z M 255.1075,292.55956 a 12.3221,11.418533 0 0 1 12.32216,11.41849 12.3221,11.418533 0 0 1 -1.43745,5.29293 l -18.53055,-14.24353 a 12.3221,11.418533 0 0 1 7.64584,-2.46789 z" />
    <path
       d="m 244.33102,337.10817 h 22.96381 v 3.50944 a 5.9930213,5.390219 0 0 1 -0.50658,2.11581 H 244.8376 a 5.9930213,5.390219 0 0 1 -0.50658,-2.11581 z"
       style="fill:#333333;stroke-width:0.122558"
       id="path14-2-23-7-6-6-4-9-7-9" />
    <path
       d="m 267.29483,328.2084 v 5.62528 h -22.96381 v -5.62528 z"
       style="fill:#333333;stroke-width:0.122558"
       id="path11-8-38-2-8-4-6-5-7-7" />
    <path
       d="m 244.33102,333.83368 h 22.96381 v 3.27449 h -22.96381 z"
       style="fill:#aa0000;stroke-width:0.122558"
       id="path13-5-5-2-5-8-1-8-4-2" />
    <path
       d="m 262.77539,375.57085 c -0.48303,-0.39053 -14.25423,-11.6746 -14.93582,-28.63002 v -1.9796 h 14.93582 z"
       style="fill:#ffffff;stroke-width:0.102444"
       id="path21-0-72-1-8-9-0-33-8-1" />
    <path
       d="m 240.65919,311.77737 c -1.28123,-2.1176 -7.09618,-12.49806 -2.62712,-19.75319 l 0.22546,-0.13267 15.26566,21.01651 -8.44028,4.95943 z"
       style="fill:#ffffff;stroke-width:0.122558"
       id="path18-7-6-5-2-1-0-5-1-0-6" />
    <path
       d="m 280.21592,343.05614 h 21.95065 a 5.9930213,5.390219 0 0 1 -5.48652,3.27451 H 285.7022 a 5.9930213,5.390219 0 0 1 -5.48628,-3.27451 z"
       style="fill:#ffffff;stroke-width:0.122558"
       id="path10-5-3-2-9-4-9-32-4-4-3" />
    <path
       d="m 296.68005,314.25789 a 5.9930213,5.390219 0 0 1 5.9931,5.39027 v 8.88296 h -22.96381 v -8.88296 a 5.9930213,5.390219 0 0 1 5.99286,-5.39027 z"
       style="fill:#ffffff;stroke-width:0.122558"
       id="path7-7-10-3-2-0-6-67-4-9-2" />
    <path
       d="m 282.76703,295.40334 -0.10447,0.32779 c 0,0 -1.90846,1.54292 18.70498,13.86733 a 12.3221,11.418533 0 0 1 -10.88192,6.12085 12.3221,11.418533 0 0 1 -12.32219,-11.41854 12.3221,11.418533 0 0 1 4.60337,-8.89743 z"
       style="fill:#ffffff;stroke-width:0.122558"
       id="path6-2-16-4-6-4-4-43-7-8-1" />
    <path
       id="path4-6-2-8-3-7-1-9-7-7-0"
       style="fill:#aa0000;stroke-width:0.122558"
       d="m 282.83998,295.35017 a 12.3221,11.418533 0 0 0 -0.073,0.0533 l 0.0277,-0.0878 z m 0,0 18.53055,14.24353 a 12.3221,11.418533 0 0 1 -0.005,0.006 c -20.61447,-12.32325 -18.70599,-13.86619 -18.70599,-13.86619 l 0.10446,-0.3278 a 12.3221,11.418533 0 0 1 0.0728,-0.0533 z m 18.52779,14.24829 a 12.3221,11.418533 0 0 0 0.005,-0.006 l 0.0386,0.0296 c -0.0145,-0.008 -0.0265,-0.017 -0.0416,-0.0251 z m -10.88195,-16.71618 a 12.3221,11.418533 0 0 1 12.32216,11.41849 12.3221,11.418533 0 0 1 -1.43745,5.29293 l -18.53055,-14.24353 a 12.3221,11.418533 0 0 1 7.64584,-2.46789 z" />
    <path
       d="m 279.70934,337.43089 h 22.96381 v 3.50944 a 5.9930213,5.390219 0 0 1 -0.50658,2.11581 h -21.95065 a 5.9930213,5.390219 0 0 1 -0.50658,-2.11581 z"
       style="fill:#333333;stroke-width:0.122558"
       id="path14-2-23-7-6-6-4-9-7-9-55" />
    <path
       d="m 302.67315,328.53112 v 5.62528 h -22.96381 v -5.62528 z"
       style="fill:#333333;stroke-width:0.122558"
       id="path11-8-38-2-8-4-6-5-7-7-3" />
    <path
       d="m 279.70934,334.1564 h 22.96381 v 3.27449 h -22.96381 z"
       style="fill:#aa0000;stroke-width:0.122558"
       id="path13-5-5-2-5-8-1-8-4-2-5" />
    <path
       d="m 298.15371,375.89357 c -0.48303,-0.39053 -14.25423,-11.6746 -14.93582,-28.63002 v -1.9796 h 14.93582 z"
       style="fill:#ffffff;stroke-width:0.102444"
       id="path21-0-72-1-8-9-0-33-8-1-4" />
    <path
       d="m 276.03751,312.10009 c -1.28123,-2.1176 -7.09618,-12.49806 -2.62712,-19.75319 l 0.22546,-0.13267 15.26566,21.01651 -8.44028,4.95943 z"
       style="fill:#ffffff;stroke-width:0.122558"
       id="path18-7-6-5-2-1-0-5-1-0-6-4" />
    <path
       d="m 315.90653,342.26524 h 21.95065 a 5.9930213,5.390219 0 0 1 -5.48652,3.27451 h -10.97785 a 5.9930213,5.390219 0 0 1 -5.48628,-3.27451 z"
       style="fill:#ffffff;stroke-width:0.122558"
       id="path10-5-3-2-9-4-9-32-4-4-35" />
    <path
       d="m 332.37066,313.46699 a 5.9930213,5.390219 0 0 1 5.9931,5.39027 v 8.88296 h -22.96381 v -8.88296 a 5.9930213,5.390219 0 0 1 5.99286,-5.39027 z"
       style="fill:#ffffff;stroke-width:0.122558"
       id="path7-7-10-3-2-0-6-67-4-9-5" />
    <path
       d="m 318.45764,294.61244 -0.10447,0.32779 c 0,0 -1.90846,1.54292 18.70498,13.86733 a 12.3221,11.418533 0 0 1 -10.88192,6.12085 12.3221,11.418533 0 0 1 -12.32219,-11.41854 12.3221,11.418533 0 0 1 4.60337,-8.89743 z"
       style="fill:#ffffff;stroke-width:0.122558"
       id="path6-2-16-4-6-4-4-43-7-8-2" />
    <path
       id="path4-6-2-8-3-7-1-9-7-7-5"
       style="fill:#aa0000;stroke-width:0.122558"
       d="m 318.53059,294.55927 a 12.3221,11.418533 0 0 0 -0.073,0.0533 l 0.0277,-0.0878 z m 0,0 18.53055,14.24353 a 12.3221,11.418533 0 0 1 -0.005,0.006 c -20.61447,-12.32325 -18.70599,-13.86619 -18.70599,-13.86619 l 0.10446,-0.3278 a 12.3221,11.418533 0 0 1 0.0728,-0.0533 z m 18.52779,14.24829 a 12.3221,11.418533 0 0 0 0.005,-0.006 l 0.0386,0.0296 c -0.0145,-0.008 -0.0265,-0.017 -0.0416,-0.0251 z m -10.88195,-16.71618 a 12.3221,11.418533 0 0 1 12.32216,11.41849 12.3221,11.418533 0 0 1 -1.43745,5.29293 l -18.53055,-14.24353 a 12.3221,11.418533 0 0 1 7.64584,-2.46789 z" />
    <path
       d="m 315.39995,336.63999 h 22.96381 v 3.50944 a 5.9930213,5.390219 0 0 1 -0.50658,2.11581 h -21.95065 a 5.9930213,5.390219 0 0 1 -0.50658,-2.11581 z"
       style="fill:#333333;stroke-width:0.122558"
       id="path14-2-23-7-6-6-4-9-7-9-9" />
    <path
       d="m 338.36376,327.74022 v 5.62528 h -22.96381 v -5.62528 z"
       style="fill:#333333;stroke-width:0.122558"
       id="path11-8-38-2-8-4-6-5-7-7-7" />
    <path
       d="m 315.39995,333.3655 h 22.96381 v 3.27449 h -22.96381 z"
       style="fill:#aa0000;stroke-width:0.122558"
       id="path13-5-5-2-5-8-1-8-4-2-0" />
    <path
       d="m 333.84432,375.10267 c -0.48303,-0.39053 -14.25423,-11.6746 -14.93582,-28.63002 v -1.9796 h 14.93582 z"
       style="fill:#ffffff;stroke-width:0.102444"
       id="path21-0-72-1-8-9-0-33-8-1-5" />
    <path
       d="m 311.72812,311.30919 c -1.28123,-2.1176 -7.09618,-12.49806 -2.62712,-19.75319 l 0.22546,-0.13267 15.26566,21.01651 -8.44028,4.95943 z"
       style="fill:#ffffff;stroke-width:0.122558"
       id="path18-7-6-5-2-1-0-5-1-0-6-2" />
    <path
       d="m 222.2771,66.962743 c 1.11339,2.200856 6.10699,12.957055 1.08694,19.882315 l -0.23517,0.116576 -13.59332,-22.019746 8.80239,-4.360013 z"
       style="fill:#ffffff;stroke-width:0.122558"
       id="path18-7-6-5-2-1-0-5-1-0-6-8" />
    <path
       d="m 187.03642,47.905006 c 0.27646,-2.42578 2.00851,-14.058527 10.12845,-17.452401 l 0.26483,0.01778 -0.67883,25.490523 -9.91109,-0.669236 z"
       style="fill:#ffffff;stroke-width:0.122558"
       id="path18-7-6-5-2-1-0-5-1-0-6-8-9" />
    <path
       d="m 222.10426,49.341165 c 1.39688,2.05112 7.77959,12.128724 3.71912,19.595633 l -0.21781,0.143594 -16.41032,-20.230053 8.15354,-5.37142 z"
       style="fill:#ffffff;stroke-width:0.122558"
       id="path18-7-6-5-2-1-0-5-1-0-6-8-9-9" />
    <path
       d="m 194.9033,343.23417 h -21.95067 a 5.9930213,5.390219 0 0 0 5.48657,3.27449 h 10.97784 a 5.9930213,5.390219 0 0 0 5.48626,-3.27449 z"
       style="fill:#ffffff;stroke-width:0.122558"
       id="path10-5-3-2-9-4-9-2-8" />
    <path
       d="m 178.4392,314.43588 a 5.9930213,5.390219 0 0 0 -5.99312,5.39031 v 8.88296 h 22.96381 v -8.88296 a 5.9930213,5.390219 0 0 0 -5.99285,-5.39031 z"
       style="fill:#ffffff;stroke-width:0.122558"
       id="path7-7-10-3-2-0-6-6-2" />
    <path
       d="m 192.35219,295.58134 0.10447,0.3278 c 0,0 1.90848,1.54293 -18.70498,13.86733 a 12.3221,11.418533 0 0 0 10.88194,6.12085 12.3221,11.418533 0 0 0 12.32216,-11.41852 12.3221,11.418533 0 0 0 -4.60337,-8.89746 z"
       style="fill:#ffffff;stroke-width:0.122558"
       id="path6-2-16-4-6-4-4-5-9" />
    <path
       id="path4-6-2-8-3-7-1-0-4"
       style="fill:#aa0000;stroke-width:0.122558"
       d="m 192.27923,295.52819 a 12.3221,11.418533 0 0 1 0.073,0.0533 l -0.0279,-0.0878 z m 0,0 -18.53054,14.24351 a 12.3221,11.418533 0 0 0 0.005,0.006 c 20.61342,-12.32423 18.70494,-13.86715 18.70494,-13.86715 l -0.10447,-0.32782 a 12.3221,11.418533 0 0 0 -0.073,-0.0533 z m -18.52779,14.24828 a 12.3221,11.418533 0 0 1 -0.005,-0.006 l -0.0386,0.0296 c 0.0145,-0.008 0.0266,-0.017 0.0415,-0.0251 z m 10.88195,-16.71618 a 12.3221,11.418533 0 0 0 -12.32213,11.41851 12.3221,11.418533 0 0 0 1.43743,5.2929 l 18.53054,-14.24351 a 12.3221,11.418533 0 0 0 -7.64584,-2.4679 z" />
    <path
       d="m 195.40989,337.60889 h -22.96381 v 3.50946 a 5.9930213,5.390219 0 0 0 0.50655,2.11582 h 21.95067 a 5.9930213,5.390219 0 0 0 0.50659,-2.11582 z"
       style="fill:#333333;stroke-width:0.122558"
       id="path14-2-23-7-6-6-4-8-9" />
    <path
       d="m 172.44608,328.70915 v 5.62527 h 22.96381 v -5.62527 z"
       style="fill:#333333;stroke-width:0.122558"
       id="path11-8-38-2-8-4-6-8-2" />
    <path
       d="m 195.40989,334.33442 h -22.96381 v 3.27447 h 22.96381 z"
       style="fill:#aa0000;stroke-width:0.122558"
       id="path13-5-5-2-5-8-1-9-4" />
    <path
       d="m 176.9655,376.0716 c 0.48307,-0.39054 14.25423,-11.67459 14.93582,-28.63006 v -1.97957 H 176.9655 Z"
       style="fill:#ffffff;stroke-width:0.102444"
       id="path21-0-72-1-8-9-0-6-2" />
    <path
       d="m 195.53984,285.90118 h -21.95067 a 5.9930213,5.390219 0 0 0 5.48655,3.2745 h 10.97782 a 5.9930213,5.390219 0 0 0 5.4863,-3.2745 z"
       style="fill:#ffffff;stroke-width:0.122558"
       id="path10-5-3-2-9-4-9-3-4" />
    <path
       d="m 179.07572,257.10292 a 5.9930213,5.390219 0 0 0 -5.99311,5.3903 v 8.88294 h 22.96382 v -8.88294 a 5.9930213,5.390219 0 0 0 -5.99289,-5.3903 z"
       style="fill:#ffffff;stroke-width:0.122558"
       id="path7-7-10-3-2-0-6-2-1" />
    <path
       d="m 192.98872,238.24835 0.10447,0.32782 c 0,0 1.90847,1.54293 -18.70497,13.86733 a 12.3221,11.418533 0 0 0 10.88194,6.12084 12.3221,11.418533 0 0 0 12.32218,-11.4185 12.3221,11.418533 0 0 0 -4.60337,-8.89749 z"
       style="fill:#ffffff;stroke-width:0.122558"
       id="path6-2-16-4-6-4-4-3-6" />
    <path
       id="path4-6-2-8-3-7-1-8-5"
       style="fill:#aa0000;stroke-width:0.122558"
       d="m 192.91578,238.19521 a 12.3221,11.418533 0 0 1 0.0731,0.0533 l -0.0279,-0.0878 z m 0,0 -18.53054,14.24353 a 12.3221,11.418533 0 0 0 0.005,0.006 c 20.61362,-12.3231 18.70515,-13.86605 18.70515,-13.86605 l -0.10446,-0.3278 a 12.3221,11.418533 0 0 0 -0.0728,-0.0533 z m -18.5278,14.24829 a 12.3221,11.418533 0 0 1 -0.005,-0.006 l -0.0386,0.0296 c 0.0145,-0.008 0.0266,-0.017 0.0415,-0.0251 z m 10.88195,-16.71618 a 12.3221,11.418533 0 0 0 -12.32216,11.41852 12.3221,11.418533 0 0 0 1.43747,5.2929 l 18.53054,-14.24353 a 12.3221,11.418533 0 0 0 -7.64585,-2.46789 z" />
    <path
       d="m 196.04643,280.27592 h -22.96382 v 3.50946 a 5.9930213,5.390219 0 0 0 0.50656,2.1158 h 21.95067 a 5.9930213,5.390219 0 0 0 0.50659,-2.1158 z"
       style="fill:#333333;stroke-width:0.122558"
       id="path14-2-23-7-6-6-4-5-5" />
    <path
       d="m 173.08261,271.37616 v 5.62528 h 22.96382 v -5.62528 z"
       style="fill:#333333;stroke-width:0.122558"
       id="path11-8-38-2-8-4-6-87-4" />
    <path
       d="m 196.04643,277.00144 h -22.96382 v 3.27448 h 22.96382 z"
       style="fill:#aa0000;stroke-width:0.122558"
       id="path13-5-5-2-5-8-1-0-9" />
    <path
       d="m 177.60202,318.73862 c 0.48309,-0.39053 14.25428,-11.67461 14.93584,-28.63005 v -1.97958 h -14.93584 z"
       style="fill:#ffffff;stroke-width:0.102444"
       id="path21-0-72-1-8-9-0-3-3" />
    <path
       d="m 194.88604,230.93482 h -21.95067 a 5.9930213,5.390219 0 0 0 5.48656,3.2745 h 10.97782 a 5.9930213,5.390219 0 0 0 5.48629,-3.2745 z"
       style="fill:#ffffff;stroke-width:0.122558"
       id="path10-5-3-2-9-4-9-6-1" />
    <path
       d="m 178.42193,202.13657 a 5.9930213,5.390219 0 0 0 -5.99312,5.39027 v 8.88297 h 22.96379 v -8.88297 a 5.9930213,5.390219 0 0 0 -5.99285,-5.39027 z"
       style="fill:#ffffff;stroke-width:0.122558"
       id="path7-7-10-3-2-0-6-7-1" />
    <path
       d="m 192.33493,183.28199 0.10447,0.32778 c 0,0 1.90847,1.54294 -18.70497,13.86737 a 12.3221,11.418533 0 0 0 10.88193,6.12084 12.3221,11.418533 0 0 0 12.32218,-11.41852 12.3221,11.418533 0 0 0 -4.60338,-8.89747 z"
       style="fill:#ffffff;stroke-width:0.122558"
       id="path6-2-16-4-6-4-4-4-7" />
    <path
       id="path4-6-2-8-3-7-1-09-3"
       style="fill:#aa0000;stroke-width:0.122558"
       d="m 192.26197,183.22885 a 12.3221,11.418533 0 0 1 0.0731,0.0533 l -0.0277,-0.0878 z m 0,0 -18.53055,14.24352 a 12.3221,11.418533 0 0 0 0.005,0.006 c 20.61361,-12.32406 18.70515,-13.86702 18.70515,-13.86702 l -0.10447,-0.3278 a 12.3221,11.418533 0 0 0 -0.0728,-0.0533 z m -18.52779,14.24829 a 12.3221,11.418533 0 0 1 -0.005,-0.006 l -0.0386,0.0296 c 0.0145,-0.008 0.0266,-0.017 0.0416,-0.0251 z m 10.88195,-16.71621 a 12.3221,11.418533 0 0 0 -12.32215,11.41853 12.3221,11.418533 0 0 0 1.43744,5.29291 l 18.53055,-14.24352 a 12.3221,11.418533 0 0 0 -7.64584,-2.46792 z" />
    <path
       d="m 195.3926,225.30957 h -22.96379 v 3.50943 a 5.9930213,5.390219 0 0 0 0.50656,2.11582 h 21.95067 a 5.9930213,5.390219 0 0 0 0.50656,-2.11582 z"
       style="fill:#333333;stroke-width:0.122558"
       id="path14-2-23-7-6-6-4-82-4" />
    <path
       d="m 172.42881,216.40981 v 5.62527 h 22.96379 v -5.62527 z"
       style="fill:#333333;stroke-width:0.122558"
       id="path11-8-38-2-8-4-6-4-8" />
    <path
       d="m 195.3926,222.03508 h -22.96379 v 3.27449 h 22.96379 z"
       style="fill:#aa0000;stroke-width:0.122558"
       id="path13-5-5-2-5-8-1-02-2" />
    <path
       d="m 176.94824,263.77225 c 0.48306,-0.39053 14.25423,-11.67461 14.93583,-28.63004 v -1.97959 h -14.93583 z"
       style="fill:#ffffff;stroke-width:0.102444"
       id="path21-0-72-1-8-9-0-60-3" />
    <path
       d="m 195.39223,172.69166 h -21.95066 a 5.9930213,5.390219 0 0 0 5.48656,3.27452 h 10.97781 a 5.9930213,5.390219 0 0 0 5.48629,-3.27452 z"
       style="fill:#ffffff;stroke-width:0.122558"
       id="path10-5-3-2-9-4-9-7-7" />
    <path
       d="m 178.92813,143.89341 a 5.9930213,5.390219 0 0 0 -5.99313,5.39029 v 8.88297 h 22.96383 v -8.88297 a 5.9930213,5.390219 0 0 0 -5.99289,-5.39029 z"
       style="fill:#ffffff;stroke-width:0.122558"
       id="path7-7-10-3-2-0-6-8-4" />
    <path
       d="m 192.84111,125.03887 0.10447,0.32779 c 0,0 1.90849,1.54292 -18.70498,13.86732 a 12.3221,11.418533 0 0 0 10.88192,6.12086 12.3221,11.418533 0 0 0 12.32219,-11.41852 12.3221,11.418533 0 0 0 -4.60336,-8.89745 z"
       style="fill:#ffffff;stroke-width:0.122558"
       id="path6-2-16-4-6-4-4-55-9" />
    <path
       id="path4-6-2-8-3-7-1-01-4"
       style="fill:#aa0000;stroke-width:0.122558"
       d="m 192.76817,124.9857 a 12.3221,11.418533 0 0 1 0.0731,0.0532 l -0.0279,-0.0878 z m 0,0 -18.53055,14.24352 a 12.3221,11.418533 0 0 0 0.005,0.008 c 20.61308,-12.32425 18.70462,-13.86718 18.70462,-13.86718 l -0.10447,-0.32782 a 12.3221,11.418533 0 0 0 -0.0728,-0.0532 z m -18.52777,14.24828 a 12.3221,11.418533 0 0 1 -0.005,-0.008 l -0.0386,0.0296 c 0.0145,-0.008 0.0266,-0.017 0.0416,-0.0249 z m 10.88193,-16.71619 a 12.3221,11.418533 0 0 0 -12.32216,11.41853 12.3221,11.418533 0 0 0 1.43745,5.2929 l 18.53055,-14.24352 a 12.3221,11.418533 0 0 0 -7.64584,-2.46791 z" />
    <path
       d="M 195.89883,167.06641 H 172.935 v 3.50947 a 5.9930213,5.390219 0 0 0 0.50657,2.11578 h 21.95066 a 5.9930213,5.390219 0 0 0 0.5066,-2.11578 z"
       style="fill:#333333;stroke-width:0.122558"
       id="path14-2-23-7-6-6-4-0-8" />
    <path
       d="m 172.935,158.16667 v 5.62525 h 22.96383 v -5.62525 z"
       style="fill:#333333;stroke-width:0.122558"
       id="path11-8-38-2-8-4-6-2-3" />
    <path
       d="M 195.89883,163.79192 H 172.935 v 3.27449 h 22.96383 z"
       style="fill:#aa0000;stroke-width:0.122558"
       id="path13-5-5-2-5-8-1-5-7" />
    <path
       d="m 177.45443,205.5291 c 0.48308,-0.39053 14.25424,-11.6746 14.93582,-28.63002 v -1.9796 h -14.93582 z"
       style="fill:#ffffff;stroke-width:0.102444"
       id="path21-0-72-1-8-9-0-9-1" />
    <path
       d="m 191.72022,136.19805 c -0.25784,-2.46388 -1.89235,-14.25893 -9.82598,-17.31723 l -0.2594,0.0317 0.52958,26.00291 9.70922,-1.18202 z"
       style="fill:#ffffff;stroke-width:0.122558"
       id="path18-7-6-5-2-1-0-5-5-5" />
    <path
       d="m 195.39389,116.76888 h -21.95066 a 5.9930213,5.390219 0 0 0 5.48652,3.27448 h 10.97783 a 5.9930213,5.390219 0 0 0 5.48631,-3.27448 z"
       style="fill:#ffffff;stroke-width:0.122558"
       id="path10-5-3-2-9-4-9-7-0-5" />
    <path
       d="m 178.92975,87.97063 a 5.9930213,5.390219 0 0 0 -5.9931,5.39029 v 8.88296 h 22.9638 v -8.88296 a 5.9930213,5.390219 0 0 0 -5.99287,-5.39029 z"
       style="fill:#ffffff;stroke-width:0.122558"
       id="path7-7-10-3-2-0-6-8-7-1" />
    <path
       d="m 192.84278,69.116081 0.10446,0.327786 c 0,0 1.90847,1.542934 -18.70497,13.867334 a 12.3221,11.418533 0 0 0 10.88192,6.120844 12.3221,11.418533 0 0 0 12.32219,-11.418515 12.3221,11.418533 0 0 0 -4.60336,-8.897449 z"
       style="fill:#ffffff;stroke-width:0.122558"
       id="path6-2-16-4-6-4-4-55-1-1" />
    <path
       id="path4-6-2-8-3-7-1-01-9-6"
       style="fill:#333333;stroke-width:0.122558"
       d="m 192.76982,69.062924 a 12.3221,11.418533 0 0 1 0.0733,0.0532 l -0.0279,-0.08794 z m 0,0 -18.53054,14.243514 a 12.3221,11.418533 0 0 0 0.005,0.0068 c 20.61388,-12.32452 18.70543,-13.867481 18.70543,-13.867481 l -0.10446,-0.3278 a 12.3221,11.418533 0 0 0 -0.073,-0.0532 z m -18.5278,14.248277 a 12.3221,11.418533 0 0 1 -0.005,-0.0068 l -0.0386,0.02972 c 0.0145,-0.0083 0.0266,-0.01696 0.0413,-0.02497 z m 10.88195,-16.716187 a 12.3221,11.418533 0 0 0 -12.32217,11.418516 12.3221,11.418533 0 0 0 1.43748,5.292908 l 18.53054,-14.243514 a 12.3221,11.418533 0 0 0 -7.64585,-2.46791 z" />
    <path
       d="m 195.90045,111.14361 h -22.9638 v 3.50947 a 5.9930213,5.390219 0 0 0 0.50658,2.1158 h 21.95066 a 5.9930213,5.390219 0 0 0 0.50656,-2.1158 z"
       style="fill:#333333;stroke-width:0.122558"
       id="path14-2-23-7-6-6-4-0-1-8" />
    <path
       d="m 172.93665,102.24388 v 5.62525 h 22.9638 v -5.62525 z"
       style="fill:#333333;stroke-width:0.122558"
       id="path11-8-38-2-8-4-6-2-1-1" />
    <path
       d="m 195.90045,107.86913 h -22.9638 v 3.27448 h 22.9638 z"
       style="fill:#aa0000;stroke-width:0.122558"
       id="path13-5-5-2-5-8-1-5-4-1" />
    <path
       d="m 177.45609,149.60633 c 0.48304,-0.39055 14.25424,-11.67461 14.93582,-28.63005 v -1.97959 h -14.93582 z"
       style="fill:#ffffff;stroke-width:0.102444"
       id="path21-0-72-1-8-9-0-9-7-1" />
    <path
       d="m 162.02987,343.49775 h -21.95065 a 5.9930213,5.390219 0 0 0 5.48652,3.27449 h 10.97784 a 5.9930213,5.390219 0 0 0 5.48629,-3.27449 z"
       style="fill:#ffffff;stroke-width:0.122558"
       id="path10-5-3-2-9-4-9-32-4-4-7" />
    <path
       d="m 145.56574,314.69949 a 5.9930213,5.390219 0 0 0 -5.9931,5.39029 v 8.88296 h 22.96381 v -8.88296 a 5.9930213,5.390219 0 0 0 -5.99287,-5.39029 z"
       style="fill:#ffffff;stroke-width:0.122558"
       id="path7-7-10-3-2-0-6-67-4-9-7" />
    <path
       d="m 159.47875,295.84494 0.10447,0.3278 c 0,0 1.90847,1.54291 -18.70498,13.86733 a 12.3221,11.418533 0 0 0 10.88193,6.12085 12.3221,11.418533 0 0 0 12.32219,-11.41854 12.3221,11.418533 0 0 0 -4.60336,-8.89744 z"
       style="fill:#ffffff;stroke-width:0.122558"
       id="path6-2-16-4-6-4-4-43-7-8-7" />
    <path
       id="path4-6-2-8-3-7-1-9-7-7-6"
       style="fill:#aa0000;stroke-width:0.122558"
       d="m 159.40581,295.79179 a 12.3221,11.418533 0 0 1 0.073,0.0533 l -0.0279,-0.0878 z m 0,0 -18.53055,14.24351 a 12.3221,11.418533 0 0 0 0.005,0.006 c 20.61417,-12.32359 18.7057,-13.86653 18.7057,-13.86653 l -0.10447,-0.3278 a 12.3221,11.418533 0 0 0 -0.0728,-0.0533 z m -18.52779,14.24828 a 12.3221,11.418533 0 0 1 -0.005,-0.006 l -0.0386,0.0296 c 0.0145,-0.008 0.0266,-0.017 0.0415,-0.0251 z m 10.88195,-16.71618 a 12.3221,11.418533 0 0 0 -12.32217,11.41849 12.3221,11.418533 0 0 0 1.43746,5.29292 l 18.53055,-14.24351 a 12.3221,11.418533 0 0 0 -7.64584,-2.4679 z" />
    <path
       d="m 162.53645,337.87249 h -22.96381 v 3.50943 a 5.9930213,5.390219 0 0 0 0.50658,2.11583 h 21.95065 a 5.9930213,5.390219 0 0 0 0.50658,-2.11583 z"
       style="fill:#333333;stroke-width:0.122558"
       id="path14-2-23-7-6-6-4-9-7-9-5" />
    <path
       d="m 139.57264,328.97274 v 5.62527 h 22.96381 v -5.62527 z"
       style="fill:#333333;stroke-width:0.122558"
       id="path11-8-38-2-8-4-6-5-7-7-8" />
    <path
       d="m 162.53645,334.59801 h -22.96381 v 3.27448 h 22.96381 z"
       style="fill:#aa0000;stroke-width:0.122558"
       id="path13-5-5-2-5-8-1-8-4-2-7" />
    <path
       d="m 144.09208,376.33519 c 0.48306,-0.39054 14.25423,-11.67461 14.93582,-28.63005 v -1.97959 h -14.93582 z"
       style="fill:#ffffff;stroke-width:0.102444"
       id="path21-0-72-1-8-9-0-33-8-1-3" />
    <path
       d="m 166.20828,312.5417 c 1.28121,-2.11762 7.09618,-12.49807 2.62712,-19.75321 l -0.22546,-0.13265 -15.26566,21.01649 8.44027,4.95943 z"
       style="fill:#ffffff;stroke-width:0.122558"
       id="path18-7-6-5-2-1-0-5-1-0-6-5" />
    <path
       d="m 127.761,343.35513 h -21.95065 a 5.9930213,5.390219 0 0 0 5.48652,3.27449 h 10.97784 a 5.9930213,5.390219 0 0 0 5.48629,-3.27449 z"
       style="fill:#ffffff;stroke-width:0.122558"
       id="path10-5-3-2-9-4-9-32-4-4-7-1" />
    <path
       d="m 111.29687,314.55687 a 5.9930213,5.390219 0 0 0 -5.9931,5.39029 v 8.88296 h 22.96381 v -8.88296 a 5.9930213,5.390219 0 0 0 -5.99287,-5.39029 z"
       style="fill:#ffffff;stroke-width:0.122558"
       id="path7-7-10-3-2-0-6-67-4-9-7-6" />
    <path
       d="m 125.20988,295.70232 0.10447,0.3278 c 0,0 1.90847,1.54291 -18.70498,13.86733 a 12.3221,11.418533 0 0 0 10.88193,6.12085 12.3221,11.418533 0 0 0 12.32219,-11.41854 12.3221,11.418533 0 0 0 -4.60336,-8.89744 z"
       style="fill:#ffffff;stroke-width:0.122558"
       id="path6-2-16-4-6-4-4-43-7-8-7-4" />
    <path
       id="path4-6-2-8-3-7-1-9-7-7-6-0"
       style="fill:#aa0000;stroke-width:0.122558"
       d="m 125.13694,295.64917 a 12.3221,11.418533 0 0 1 0.073,0.0533 l -0.0279,-0.0878 z m 0,0 -18.53055,14.24351 a 12.3221,11.418533 0 0 0 0.005,0.006 c 20.61417,-12.32359 18.7057,-13.86653 18.7057,-13.86653 l -0.10447,-0.3278 a 12.3221,11.418533 0 0 0 -0.0728,-0.0533 z m -18.52779,14.24828 a 12.3221,11.418533 0 0 1 -0.005,-0.006 l -0.0386,0.0296 c 0.0145,-0.008 0.0266,-0.017 0.0415,-0.0251 z m 10.88195,-16.71618 a 12.3221,11.418533 0 0 0 -12.32217,11.41849 12.3221,11.418533 0 0 0 1.43746,5.29292 l 18.53055,-14.24351 a 12.3221,11.418533 0 0 0 -7.64584,-2.4679 z" />
    <path
       d="m 128.26758,337.72987 h -22.96381 v 3.50943 a 5.9930213,5.390219 0 0 0 0.50658,2.11583 H 127.761 a 5.9930213,5.390219 0 0 0 0.50658,-2.11583 z"
       style="fill:#333333;stroke-width:0.122558"
       id="path14-2-23-7-6-6-4-9-7-9-5-3" />
    <path
       d="m 105.30377,328.83012 v 5.62527 h 22.96381 v -5.62527 z"
       style="fill:#333333;stroke-width:0.122558"
       id="path11-8-38-2-8-4-6-5-7-7-8-7" />
    <path
       d="m 128.26758,334.45539 h -22.96381 v 3.27448 h 22.96381 z"
       style="fill:#aa0000;stroke-width:0.122558"
       id="path13-5-5-2-5-8-1-8-4-2-7-6" />
    <path
       d="m 109.82321,376.19257 c 0.48306,-0.39054 14.25423,-11.67461 14.93582,-28.63005 v -1.97959 h -14.93582 z"
       style="fill:#ffffff;stroke-width:0.102444"
       id="path21-0-72-1-8-9-0-33-8-1-3-5" />
    <path
       d="m 131.93941,312.39908 c 1.28121,-2.11762 7.09618,-12.49807 2.62712,-19.75321 l -0.22546,-0.13265 -15.26566,21.01649 8.44027,4.95943 z"
       style="fill:#ffffff;stroke-width:0.122558"
       id="path18-7-6-5-2-1-0-5-1-0-6-5-8" />
    <path
       d="M 93.65902,343.35228 H 71.708366 a 5.9930213,5.390219 0 0 0 5.48652,3.27449 H 88.17273 a 5.9930213,5.390219 0 0 0 5.48629,-3.27449 z"
       style="fill:#ffffff;stroke-width:0.122558"
       id="path10-5-3-2-9-4-9-32-4-4-7-0" />
    <path
       d="m 77.194886,314.55402 a 5.9930213,5.390219 0 0 0 -5.9931,5.39029 v 8.88296 H 94.1656 v -8.88296 a 5.9930213,5.390219 0 0 0 -5.99287,-5.39029 z"
       style="fill:#ffffff;stroke-width:0.122558"
       id="path7-7-10-3-2-0-6-67-4-9-7-8" />
    <path
       d="m 91.1079,295.69947 0.10447,0.3278 c 0,0 1.90847,1.54291 -18.704984,13.86733 a 12.3221,11.418533 0 0 0 10.881934,6.12085 12.3221,11.418533 0 0 0 12.32219,-11.41854 12.3221,11.418533 0 0 0 -4.60336,-8.89744 z"
       style="fill:#ffffff;stroke-width:0.122558"
       id="path6-2-16-4-6-4-4-43-7-8-7-0" />
    <path
       id="path4-6-2-8-3-7-1-9-7-7-6-6"
       style="fill:#aa0000;stroke-width:0.122558"
       d="m 91.03496,295.64632 a 12.3221,11.418533 0 0 1 0.073,0.0533 l -0.0279,-0.0878 z m 0,0 -18.530554,14.24351 a 12.3221,11.418533 0 0 0 0.005,0.006 C 93.12358,297.57224 91.21511,296.0293 91.21511,296.0293 l -0.10447,-0.3278 a 12.3221,11.418533 0 0 0 -0.0728,-0.0533 z M 72.507166,309.8946 a 12.3221,11.418533 0 0 1 -0.005,-0.006 l -0.0386,0.0296 c 0.0145,-0.008 0.0266,-0.017 0.0415,-0.0251 z M 83.38912,293.17842 a 12.3221,11.418533 0 0 0 -12.322174,11.41849 12.3221,11.418533 0 0 0 1.43746,5.29292 L 91.03496,295.64632 a 12.3221,11.418533 0 0 0 -7.64584,-2.4679 z" />
    <path
       d="M 94.1656,337.72702 H 71.201786 v 3.50943 a 5.9930213,5.390219 0 0 0 0.50658,2.11583 H 93.65902 a 5.9930213,5.390219 0 0 0 0.50658,-2.11583 z"
       style="fill:#333333;stroke-width:0.122558"
       id="path14-2-23-7-6-6-4-9-7-9-5-9" />
    <path
       d="m 71.201786,328.82727 v 5.62527 H 94.1656 v -5.62527 z"
       style="fill:#333333;stroke-width:0.122558"
       id="path11-8-38-2-8-4-6-5-7-7-8-6" />
    <path
       d="M 94.1656,334.45254 H 71.201786 v 3.27448 H 94.1656 Z"
       style="fill:#aa0000;stroke-width:0.122558"
       id="path13-5-5-2-5-8-1-8-4-2-7-7" />
    <path
       d="m 75.721226,376.18972 c 0.48306,-0.39054 14.254234,-11.67461 14.935824,-28.63005 v -1.97959 H 75.721226 Z"
       style="fill:#ffffff;stroke-width:0.102444"
       id="path21-0-72-1-8-9-0-33-8-1-3-3" />
    <path
       d="m 97.83743,312.39623 c 1.28121,-2.11762 7.09618,-12.49807 2.62712,-19.75321 l -0.22546,-0.13265 -15.26566,21.01649 8.44027,4.95943 z"
       style="fill:#ffffff;stroke-width:0.122558"
       id="path18-7-6-5-2-1-0-5-1-0-6-5-5" />
    <path
       d="M 217.40557,80.438848 217.10829,59.67868 a 5.6993384,5.6679729 7.1550029 0 1 3.53593,5.144621 l 0.14868,10.382459 a 5.6993384,5.6679729 7.1550029 0 1 -3.38733,5.233088 z"
       style="fill:#ffffff;stroke-width:0.122558"
       id="path10-5-3-2-9-4-9-7-0-7" />
    <path
       d="m 186.73849,65.257678 a 5.6993384,5.6679729 7.1550029 0 1 5.61721,-5.741069 l 9.3906,-0.120298 0.311,21.718362 -9.39061,0.120297 a 5.6993384,5.6679729 7.1550029 0 1 -5.77951,-5.594832 z"
       style="fill:#ffffff;stroke-width:0.122558"
       id="path7-7-10-3-2-0-6-8-7-8" />
    <path
       d="m 211.46567,80.99413 -0.311,-21.718362 3.71001,-0.04753 a 5.6993384,5.6679729 7.1550029 0 1 2.24361,0.450442 l 0.29728,20.760167 a 5.6993384,5.6679729 7.1550029 0 1 -2.22987,0.507752 z"
       style="fill:#ffffff;stroke-width:0.122558"
       id="path14-2-23-7-6-6-4-0-1-1" />
    <path
       d="m 201.7463,59.396303 5.94674,-0.07619 0.311,21.718361 -5.94674,0.07619 z"
       style="fill:#ffffff;stroke-width:0.122558"
       id="path11-8-38-2-8-4-6-2-1-6" />
    <path
       d="m 208.00404,81.038477 -0.311,-21.71836 3.46163,-0.04435 0.311,21.718362 z"
       style="fill:#ffffff;stroke-width:0.122558"
       id="path13-5-5-2-5-8-1-5-4-4" />
    <path
       d="m 185.66463,66.774367 c -1.11339,2.200855 -6.107,12.957056 -1.08694,19.882314 l 0.23515,0.116576 13.59332,-22.019748 -8.80238,-4.360011 z"
       style="fill:#ffffff;stroke-width:0.122558"
       id="path18-7-6-5-2-1-0-5-1-0-6-8-0" />
    <path
       d="m 191.21917,69.531038 0.13087,0.319145 c 0,0 -0.50003,2.327114 23.76606,0.03931 a 11.489236,12.246271 80.930925 0 1 -4.59311,11.159319 11.489236,12.246271 80.930925 0 1 -17.14205,-1.825331 11.489236,12.246271 80.930925 0 1 -2.16205,-9.692307 z"
       style="fill:#ffffff;stroke-width:0.122558"
       id="path6-2-16-4-6-4-4-55-1-2" />
    <path
       id="path4-6-2-8-3-7-1-01-9-64"
       style="fill:#333333;stroke-width:0.122558"
       d="m 191.24206,69.446677 a 11.489236,12.246271 80.930925 0 0 -0.0231,0.08454 l -0.0353,-0.08551 z m 0,0 23.87338,0.437323 a 11.489236,12.246271 80.930925 0 1 0.001,0.0078 c -24.26641,2.288003 -23.76639,-0.03912 -23.76639,-0.03912 l -0.13114,-0.319157 a 11.489236,12.246271 80.930925 0 1 0.023,-0.08444 z m 23.87431,0.442679 a 11.489236,12.246271 80.930925 0 0 -10e-4,-0.0079 l 0.0499,9.54e-4 c -0.0167,0.002 -0.032,0.0022 -0.0489,0.0045 z M 195.66189,63.05032 a 11.489236,12.246271 80.930925 0 1 17.14205,1.825349 11.489236,12.246271 80.930925 0 1 2.3115,5.008331 l -23.87338,-0.437323 a 11.489236,12.246271 80.930925 0 1 4.41983,-6.396357 z" />
    <path
       d="m 217.05164,63.892553 -0.29728,-20.76017 a 5.6993384,5.6679729 7.1550029 0 1 3.53593,5.144623 l 0.14869,10.382459 a 5.6993384,5.6679729 7.1550029 0 1 -3.38733,5.233088 z"
       style="fill:#ffffff;stroke-width:0.122558"
       id="path10-5-3-2-9-4-9-7-0-7-8" />
    <path
       d="m 186.38454,48.711383 a 5.6993384,5.6679729 7.1550029 0 1 5.6172,-5.741069 l 9.39062,-0.120298 0.31099,21.718361 -9.39061,0.120297 a 5.6993384,5.6679729 7.1550029 0 1 -5.77952,-5.594831 z"
       style="fill:#ffffff;stroke-width:0.122558"
       id="path7-7-10-3-2-0-6-8-7-8-0" />
    <path
       d="m 211.11175,64.447835 -0.31102,-21.718363 3.71003,-0.04752 a 5.6993384,5.6679729 7.1550029 0 1 2.2436,0.450442 l 0.29728,20.760166 a 5.6993384,5.6679729 7.1550029 0 1 -2.22989,0.507752 z"
       style="fill:#ffffff;stroke-width:0.122558"
       id="path14-2-23-7-6-6-4-0-1-1-9" />
    <path
       d="m 201.39236,42.850006 5.94673,-0.07619 0.31102,21.71836 -5.94676,0.07619 z"
       style="fill:#ffffff;stroke-width:0.122558"
       id="path11-8-38-2-8-4-6-2-1-6-0" />
    <path
       d="m 207.65011,64.492181 -0.31102,-21.71836 3.46164,-0.04435 0.31102,21.71836 z"
       style="fill:#ffffff;stroke-width:0.122558"
       id="path13-5-5-2-5-8-1-5-4-4-7" />
    <path
       d="m 190.86522,52.984742 0.13116,0.319145 c 0,0 -0.50003,2.327114 23.76604,0.03931 a 11.489236,12.246271 80.930925 0 1 -4.5931,11.159319 11.489236,12.246271 80.930925 0 1 -17.14205,-1.825331 11.489236,12.246271 80.930925 0 1 -2.16205,-9.692307 z"
       style="fill:#ffffff;stroke-width:0.122558"
       id="path6-2-16-4-6-4-4-55-1-2-3" />
    <path
       id="path4-6-2-8-3-7-1-01-9-64-6"
       style="fill:#333333;stroke-width:0.122558"
       d="m 190.88811,52.900381 a 11.489236,12.246271 80.930925 0 0 -0.0231,0.08453 l -0.0353,-0.08551 z m 0,0 23.87339,0.437322 a 11.489236,12.246271 80.930925 0 1 10e-4,0.0078 c -24.2664,2.288001 -23.76639,-0.03912 -23.76639,-0.03912 l -0.13102,-0.319158 a 11.489236,12.246271 80.930925 0 1 0.023,-0.08444 z m 23.87432,0.44268 a 11.489236,12.246271 80.930925 0 0 -0.001,-0.0078 l 0.0497,9.54e-4 c -0.0167,0.002 -0.032,0.0022 -0.049,0.0045 z m -19.45446,-6.839038 a 11.489236,12.246271 80.930925 0 1 17.14204,1.825349 11.489236,12.246271 80.930925 0 1 2.31149,5.008331 l -23.87339,-0.437322 a 11.489236,12.246271 80.930925 0 1 4.41986,-6.396358 z" />
  </g>
</svg>
