<?xml version="1.0" encoding="UTF-8" standalone="no"?>
<!-- Created with Inkscape (http://www.inkscape.org/) -->

<svg
   width="400mm"
   height="400mm"
   viewBox="0 0 400 400"
   version="1.1"
   id="svg1"
   inkscape:export-filename="..\..\..\..\..\..\Projects\puntal\assets\images\2d9fm.svg"
   inkscape:export-xdpi="96"
   inkscape:export-ydpi="96"
   inkscape:version="1.3.2 (091e20e, 2023-11-25, custom)"
   sodipodi:docname="2d6 draft.svg"
   xmlns:inkscape="http://www.inkscape.org/namespaces/inkscape"
   xmlns:sodipodi="http://sodipodi.sourceforge.net/DTD/sodipodi-0.dtd"
   xmlns="http://www.w3.org/2000/svg"
   xmlns:svg="http://www.w3.org/2000/svg">
  <sodipodi:namedview
     id="namedview1"
     pagecolor="#505050"
     bordercolor="#eeeeee"
     borderopacity="1"
     inkscape:showpageshadow="0"
     inkscape:pageopacity="0"
     inkscape:pagecheckerboard="0"
     inkscape:deskcolor="#505050"
     inkscape:document-units="mm"
     inkscape:zoom="0.69219277"
     inkscape:cx="630.60468"
     inkscape:cy="374.89557"
     inkscape:window-width="1920"
     inkscape:window-height="1009"
     inkscape:window-x="1912"
     inkscape:window-y="-8"
     inkscape:window-maximized="1"
     inkscape:current-layer="layer1"
     showguides="false" />
  <defs
     id="defs1" />
  <g
     inkscape:label="Capa 1"
     inkscape:groupmode="layer"
     id="layer1">
    <path
       d="M 0,0 V 400 M 2.6458333,0 V 400 M 5.2916666,0 V 400 M 7.9374999,0 V 400 M 10.583333,0 V 400 M 13.229167,0 V 400 M 15.875,0 V 400 M 18.520833,0 V 400 M 21.166667,0 V 400 M 23.8125,0 V 400 M 26.458333,0 V 400 M 29.104166,0 V 400 M 31.75,0 V 400 M 34.395833,0 V 400 M 37.041666,0 V 400 M 39.6875,0 V 400 M 42.333333,0 V 400 M 44.979166,0 V 400 M 47.625,0 V 400 M 50.270833,0 V 400 M 52.916666,0 V 400 M 55.5625,0 V 400 M 58.208333,0 V 400 M 60.854166,0 V 400 M 63.5,0 V 400 M 66.145833,0 V 400 M 68.791666,0 V 400 M 71.437499,0 V 400 M 74.083333,0 V 400 M 76.729166,0 V 400 M 79.374999,0 V 400 M 82.020833,0 V 400 M 84.666666,0 V 400 M 87.312499,0 V 400 M 89.958333,0 V 400 M 92.604166,0 V 400 M 95.249999,0 V 400 M 97.895833,0 V 400 M 100.54167,0 V 400 M 103.1875,0 V 400 M 105.83333,0 V 400 M 108.47917,0 V 400 M 111.125,0 V 400 M 113.77083,0 V 400 M 116.41667,0 V 400 M 119.0625,0 V 400 M 121.70833,0 V 400 M 124.35417,0 V 400 M 127,0 V 400 M 129.64583,0 V 400 M 132.29167,0 V 400 M 134.9375,0 V 400 M 137.58333,0 V 400 M 140.22917,0 V 400 M 142.875,0 V 400 M 145.52083,0 V 400 M 148.16667,0 V 400 M 150.8125,0 V 400 M 153.45833,0 V 400 M 156.10417,0 V 400 M 158.75,0 V 400 M 161.39583,0 V 400 M 164.04167,0 V 400 M 166.6875,0 V 400 M 169.33333,0 V 400 M 171.97917,0 V 400 M 174.625,0 V 400 M 177.27083,0 V 400 M 179.91667,0 V 400 M 182.5625,0 V 400 M 185.20833,0 V 400 M 187.85417,0 V 400 M 190.5,0 V 400 M 193.14583,0 V 400 M 195.79167,0 V 400 M 198.4375,0 V 400 M 201.08333,0 V 400 M 203.72917,0 V 400 M 206.375,0 V 400 M 209.02083,0 V 400 M 211.66667,0 V 400 M 214.3125,0 V 400 M 216.95833,0 V 400 M 219.60416,0 V 400 M 222.25,0 V 400 M 224.89583,0 V 400 M 227.54166,0 V 400 M 230.1875,0 V 400 M 232.83333,0 V 400 M 235.47916,0 V 400 M 238.125,0 V 400 M 240.77083,0 V 400 M 243.41666,0 V 400 M 246.0625,0 V 400 M 248.70833,0 V 400 M 251.35416,0 V 400 M 254,0 V 400 M 256.64583,0 V 400 M 259.29166,0 V 400 M 261.9375,0 V 400 M 264.58333,0 V 400 M 267.22916,0 V 400 M 269.875,0 V 400 M 272.52083,0 V 400 M 275.16666,0 V 400 M 277.8125,0 V 400 M 280.45833,0 V 400 M 283.10416,0 V 400 M 285.75,0 V 400 M 288.39583,0 V 400 M 291.04166,0 V 400 M 293.6875,0 V 400 M 296.33333,0 V 400 M 298.97916,0 V 400 M 301.625,0 V 400 M 304.27083,0 V 400 M 306.91666,0 V 400 M 309.5625,0 V 400 M 312.20833,0 V 400 M 314.85416,0 V 400 M 317.5,0 V 400 M 320.14583,0 V 400 M 322.79166,0 V 400 M 325.4375,0 V 400 M 328.08333,0 V 400 M 330.72916,0 V 400 M 333.375,0 V 400 M 336.02083,0 V 400 M 338.66666,0 V 400 M 341.3125,0 V 400 M 343.95833,0 V 400 M 346.60416,0 V 400 M 349.25,0 V 400 M 351.89583,0 V 400 M 354.54166,0 V 400 M 357.1875,0 V 400 M 359.83333,0 V 400 M 362.47916,0 V 400 M 365.125,0 V 400 M 367.77083,0 V 400 M 370.41666,0 V 400 M 373.0625,0 V 400 M 375.70833,0 V 400 M 378.35416,0 V 400 M 381,0 V 400 M 383.64583,0 V 400 M 386.29166,0 V 400 M 388.9375,0 V 400 M 391.58333,0 V 400 M 394.22916,0 V 400 M 396.875,0 V 400 M 399.52083,0 V 400 M 0,0 H 400 M 0,2.6458333 H 400 M 0,5.2916666 H 400 M 0,7.9374999 H 400 M 0,10.583333 H 400 M 0,13.229167 H 400 M 0,15.875 H 400 M 0,18.520833 H 400 M 0,21.166667 H 400 M 0,23.8125 H 400 M 0,26.458333 H 400 M 0,29.104166 H 400 M 0,31.75 H 400 M 0,34.395833 H 400 M 0,37.041666 H 400 M 0,39.6875 H 400 M 0,42.333333 H 400 M 0,44.979166 H 400 M 0,47.625 H 400 M 0,50.270833 H 400 M 0,52.916666 H 400 M 0,55.5625 H 400 M 0,58.208333 H 400 M 0,60.854166 H 400 M 0,63.5 H 400 M 0,66.145833 H 400 M 0,68.791666 H 400 M 0,71.437499 H 400 M 0,74.083333 H 400 M 0,76.729166 H 400 M 0,79.374999 H 400 M 0,82.020833 H 400 M 0,84.666666 H 400 M 0,87.312499 H 400 M 0,89.958333 H 400 M 0,92.604166 H 400 M 0,95.249999 H 400 M 0,97.895833 H 400 M 0,100.54167 H 400 M 0,103.1875 H 400 M 0,105.83333 H 400 M 0,108.47917 H 400 M 0,111.125 H 400 M 0,113.77083 H 400 M 0,116.41667 H 400 M 0,119.0625 H 400 M 0,121.70833 H 400 M 0,124.35417 H 400 M 0,127 H 400 M 0,129.64583 H 400 M 0,132.29167 H 400 M 0,134.9375 H 400 M 0,137.58333 H 400 M 0,140.22917 H 400 M 0,142.875 H 400 M 0,145.52083 H 400 M 0,148.16667 H 400 M 0,150.8125 H 400 M 0,153.45833 H 400 M 0,156.10417 H 400 M 0,158.75 H 400 M 0,161.39583 H 400 M 0,164.04167 H 400 M 0,166.6875 H 400 M 0,169.33333 H 400 M 0,171.97917 H 400 M 0,174.625 H 400 M 0,177.27083 H 400 M 0,179.91667 H 400 M 0,182.5625 H 400 M 0,185.20833 H 400 M 0,187.85417 H 400 M 0,190.5 H 400 M 0,193.14583 H 400 M 0,195.79167 H 400 M 0,198.4375 H 400 M 0,201.08333 H 400 M 0,203.72917 H 400 M 0,206.375 H 400 M 0,209.02083 H 400 M 0,211.66667 H 400 M 0,214.3125 H 400 M 0,216.95833 H 400 M 0,219.60416 H 400 M 0,222.25 H 400 M 0,224.89583 H 400 M 0,227.54166 H 400 M 0,230.1875 H 400 M 0,232.83333 H 400 M 0,235.47916 H 400 M 0,238.125 H 400 M 0,240.77083 H 400 M 0,243.41666 H 400 M 0,246.0625 H 400 M 0,248.70833 H 400 M 0,251.35416 H 400 M 0,254 H 400 M 0,256.64583 H 400 M 0,259.29166 H 400 M 0,261.9375 H 400 M 0,264.58333 H 400 M 0,267.22916 H 400 M 0,269.875 H 400 M 0,272.52083 H 400 M 0,275.16666 H 400 M 0,277.8125 H 400 M 0,280.45833 H 400 M 0,283.10416 H 400 M 0,285.75 H 400 M 0,288.39583 H 400 M 0,291.04166 H 400 M 0,293.6875 H 400 M 0,296.33333 H 400 M 0,298.97916 H 400 M 0,301.625 H 400 M 0,304.27083 H 400 M 0,306.91666 H 400 M 0,309.5625 H 400 M 0,312.20833 H 400 M 0,314.85416 H 400 M 0,317.5 H 400 M 0,320.14583 H 400 M 0,322.79166 H 400 M 0,325.4375 H 400 M 0,328.08333 H 400 M 0,330.72916 H 400 M 0,333.375 H 400 M 0,336.02083 H 400 M 0,338.66666 H 400 M 0,341.3125 H 400 M 0,343.95833 H 400 M 0,346.60416 H 400 M 0,349.25 H 400 M 0,351.89583 H 400 M 0,354.54166 H 400 M 0,357.1875 H 400 M 0,359.83333 H 400 M 0,362.47916 H 400 M 0,365.125 H 400 M 0,367.77083 H 400 M 0,370.41666 H 400 M 0,373.0625 H 400 M 0,375.70833 H 400 M 0,378.35416 H 400 M 0,381 H 400 M 0,383.64583 H 400 M 0,386.29166 H 400 M 0,388.9375 H 400 M 0,391.58333 H 400 M 0,394.22916 H 400 M 0,396.875 H 400 M 0,399.52083 h 400"
       style="display:none;fill:none;stroke:#000000;stroke-width:0.264583px"
       id="path1" />
    <path
       d="m 217.51737,355.42771 h 18.42777 a 5.0311931,4.7499806 0 0 1 -4.60601,2.88557 h -9.21597 a 5.0311931,4.7499806 0 0 1 -4.60579,-2.88557 z"
       style="fill:#ffffff;stroke-width:0.105414"
       id="path10-5-3-2-9-4-9" />
    <path
       d="m 231.33913,330.05005 a 5.0311931,4.7499806 0 0 1 5.03126,4.75006 v 7.82785 h -19.2783 v -7.82785 a 5.0311931,4.7499806 0 0 1 5.03107,-4.75006 z"
       style="fill:#ffffff;stroke-width:0.105414"
       id="path7-7-10-3-2-0-6" />
    <path
       d="m 219.65904,313.435 -0.0877,0.28884 c 0,0 -1.60218,1.35967 15.70299,12.22022 a 10.344509,10.062265 0 0 1 -9.13547,5.39383 10.344509,10.062265 0 0 1 -10.34456,-10.06226 10.344509,10.062265 0 0 1 3.86456,-7.84063 z"
       style="fill:#ffffff;stroke-width:0.105414"
       id="path6-2-16-4-6-4-4" />
    <path
       id="path4-6-2-8-3-7-1"
       style="fill:#aa0000;stroke-width:0.105414"
       d="m 219.72029,313.38814 a 10.344509,10.062265 0 0 0 -0.0614,0.047 l 0.0234,-0.0774 z m 0,0 15.55657,12.55172 a 10.344509,10.062265 0 0 1 -0.004,0.005 C 217.96792,315.08519 219.5701,313.72548 219.5701,313.72548 l 0.0877,-0.28886 a 10.344509,10.062265 0 0 1 0.0614,-0.047 z m 15.55423,12.55592 a 10.344509,10.062265 0 0 0 0.004,-0.007 l 0.0324,0.0261 c -0.0122,-0.007 -0.0223,-0.015 -0.0349,-0.0221 z m -9.13548,-14.73067 a 10.344509,10.062265 0 0 1 10.34455,10.06224 10.344509,10.062265 0 0 1 -1.20673,4.66423 l -15.55657,-12.55172 a 10.344509,10.062265 0 0 1 6.41875,-2.17475 z" />
    <path
       d="m 217.09209,350.4706 h 19.2783 v 3.09261 a 5.0311931,4.7499806 0 0 1 -0.42525,1.8645 h -18.42777 a 5.0311931,4.7499806 0 0 1 -0.42528,-1.8645 z"
       style="fill:#333333;stroke-width:0.105414"
       id="path14-2-23-7-6-6-4" />
    <path
       d="m 236.37039,342.62796 v 4.9571 h -19.2783 v -4.9571 z"
       style="fill:#333333;stroke-width:0.105414"
       id="path11-8-38-2-8-4-6" />
    <path
       d="m 217.09209,347.58506 h 19.2783 v 2.88554 h -19.2783 z"
       style="fill:#aa0000;stroke-width:0.105414"
       id="path13-5-5-2-5-8-1" />
    <path
       d="m 232.57631,384.36479 c -0.40554,-0.34414 -11.96657,-10.28791 -12.53877,-25.22941 v -1.74448 h 12.53877 z"
       style="fill:#ffffff;stroke-width:0.0881135"
       id="path21-0-72-1-8-9-0" />
    <path
       d="m 215.65646,338.69017 c -2.06581,-0.17251 -11.96374,-1.35218 -14.69113,-8.29782 l 0.0209,-0.23007 21.7547,-0.11702 -0.78019,8.61095 z"
       style="fill:#ffffff;stroke-width:0.105414"
       id="path18-7-6-5-2-1-0-5" />
    <path
       d="m 217.62248,305.40912 h 18.42779 a 5.0311931,4.7499806 0 0 1 -4.60602,2.88555 h -9.21598 a 5.0311931,4.7499806 0 0 1 -4.60579,-2.88555 z"
       style="fill:#ffffff;stroke-width:0.105414"
       id="path10-5-3-2-9-4-9-2" />
    <path
       d="m 231.44425,280.03144 a 5.0311931,4.7499806 0 0 1 5.03126,4.75004 v 7.82786 h -19.2783 v -7.82786 a 5.0311931,4.7499806 0 0 1 5.03106,-4.75004 z"
       style="fill:#ffffff;stroke-width:0.105414"
       id="path7-7-10-3-2-0-6-6" />
    <path
       d="m 219.76417,263.41639 -0.0877,0.28885 c 0,0 -1.60219,1.35968 15.70298,12.22022 a 10.344509,10.062265 0 0 1 -9.13548,5.39381 10.344509,10.062265 0 0 1 -10.34458,-10.06224 10.344509,10.062265 0 0 1 3.86459,-7.84064 z"
       style="fill:#ffffff;stroke-width:0.105414"
       id="path6-2-16-4-6-4-4-5" />
    <path
       id="path4-6-2-8-3-7-1-0"
       style="fill:#aa0000;stroke-width:0.105414"
       d="m 219.82542,263.36955 a 10.344509,10.062265 0 0 0 -0.0614,0.047 l 0.0234,-0.0774 z m 0,0 15.55655,12.5517 a 10.344509,10.062265 0 0 1 -0.004,0.005 c -17.30524,-10.86011 -15.70304,-12.21979 -15.70304,-12.21979 l 0.0877,-0.28886 a 10.344509,10.062265 0 0 1 0.0614,-0.047 z m 15.55424,12.55591 a 10.344509,10.062265 0 0 0 0.004,-0.005 l 0.0324,0.0261 c -0.0122,-0.007 -0.0223,-0.015 -0.0349,-0.0221 z m -9.13549,-14.73067 a 10.344509,10.062265 0 0 1 10.34455,10.06224 10.344509,10.062265 0 0 1 -1.20675,4.66422 l -15.55655,-12.5517 a 10.344509,10.062265 0 0 1 6.41875,-2.17476 z" />
    <path
       d="m 217.19721,300.452 h 19.2783 v 3.09262 a 5.0311931,4.7499806 0 0 1 -0.42524,1.8645 h -18.42779 a 5.0311931,4.7499806 0 0 1 -0.42527,-1.8645 z"
       style="fill:#333333;stroke-width:0.105414"
       id="path14-2-23-7-6-6-4-8" />
    <path
       d="m 236.47551,292.60934 v 4.95712 h -19.2783 v -4.95712 z"
       style="fill:#333333;stroke-width:0.105414"
       id="path11-8-38-2-8-4-6-8" />
    <path
       d="m 217.19721,297.56646 h 19.2783 v 2.88554 h -19.2783 z"
       style="fill:#aa0000;stroke-width:0.105414"
       id="path13-5-5-2-5-8-1-9" />
    <path
       d="m 232.68143,334.34617 c -0.40554,-0.34413 -11.96655,-10.28791 -12.53875,-25.22942 v -1.74444 h 12.53875 z"
       style="fill:#ffffff;stroke-width:0.0881135"
       id="path21-0-72-1-8-9-0-6" />
    <path
       d="m 217.08812,254.88601 h 18.42776 a 5.0311931,4.7499806 0 0 1 -4.606,2.88556 h -9.21597 a 5.0311931,4.7499806 0 0 1 -4.60579,-2.88556 z"
       style="fill:#ffffff;stroke-width:0.105414"
       id="path10-5-3-2-9-4-9-3" />
    <path
       d="m 230.90988,229.50835 a 5.0311931,4.7499806 0 0 1 5.03128,4.75004 v 7.82786 h -19.27833 v -7.82786 a 5.0311931,4.7499806 0 0 1 5.03108,-4.75004 z"
       style="fill:#ffffff;stroke-width:0.105414"
       id="path7-7-10-3-2-0-6-2" />
    <path
       d="m 219.22981,212.8933 -0.0877,0.28886 c 0,0 -1.60218,1.35968 15.70297,12.22021 a 10.344509,10.062265 0 0 1 -9.13547,5.39382 10.344509,10.062265 0 0 1 -10.34458,-10.06224 10.344509,10.062265 0 0 1 3.86457,-7.84065 z"
       style="fill:#ffffff;stroke-width:0.105414"
       id="path6-2-16-4-6-4-4-3" />
    <path
       id="path4-6-2-8-3-7-1-8"
       style="fill:#aa0000;stroke-width:0.105414"
       d="m 219.29104,212.84645 a 10.344509,10.062265 0 0 0 -0.0614,0.0469 l 0.0234,-0.0774 z m 0,0 15.55655,12.55171 a 10.344509,10.062265 0 0 1 -0.004,0.005 c -17.30486,-10.85995 -15.7027,-12.21963 -15.7027,-12.21963 l 0.0877,-0.28888 a 10.344509,10.062265 0 0 1 0.0611,-0.047 z m 15.55424,12.55592 a 10.344509,10.062265 0 0 0 0.004,-0.005 l 0.0324,0.0261 c -0.0122,-0.007 -0.0223,-0.015 -0.0347,-0.0221 z m -9.13549,-14.73067 a 10.344509,10.062265 0 0 1 10.34456,10.06225 10.344509,10.062265 0 0 1 -1.20676,4.66421 l -15.55655,-12.55171 a 10.344509,10.062265 0 0 1 6.41875,-2.17475 z" />
    <path
       d="m 216.66283,249.92891 h 19.27833 v 3.09261 a 5.0311931,4.7499806 0 0 1 -0.42528,1.86449 h -18.42776 a 5.0311931,4.7499806 0 0 1 -0.42529,-1.86449 z"
       style="fill:#333333;stroke-width:0.105414"
       id="path14-2-23-7-6-6-4-5" />
    <path
       d="m 235.94116,242.08625 v 4.95712 h -19.27833 v -4.95712 z"
       style="fill:#333333;stroke-width:0.105414"
       id="path11-8-38-2-8-4-6-87" />
    <path
       d="m 216.66283,247.04337 h 19.27833 v 2.88554 h -19.27833 z"
       style="fill:#aa0000;stroke-width:0.105414"
       id="path13-5-5-2-5-8-1-0" />
    <path
       d="m 232.14707,283.82309 c -0.40556,-0.34415 -11.96658,-10.28792 -12.53877,-25.22942 v -1.74447 h 12.53877 z"
       style="fill:#ffffff;stroke-width:0.0881135"
       id="path21-0-72-1-8-9-0-3" />
    <path
       d="m 217.63699,206.44844 h 18.42778 a 5.0311931,4.7499806 0 0 1 -4.60601,2.88557 h -9.21599 a 5.0311931,4.7499806 0 0 1 -4.60578,-2.88557 z"
       style="fill:#ffffff;stroke-width:0.105414"
       id="path10-5-3-2-9-4-9-6" />
    <path
       d="m 231.45876,181.07077 a 5.0311931,4.7499806 0 0 1 5.03126,4.75004 v 7.82787 h -19.2783 v -7.82787 a 5.0311931,4.7499806 0 0 1 5.03105,-4.75004 z"
       style="fill:#ffffff;stroke-width:0.105414"
       id="path7-7-10-3-2-0-6-7" />
    <path
       d="m 219.77866,164.45572 -0.0877,0.28884 c 0,0 -1.60218,1.35967 15.70298,12.2202 a 10.344509,10.062265 0 0 1 -9.13547,5.39384 10.344509,10.062265 0 0 1 -10.34458,-10.06225 10.344509,10.062265 0 0 1 3.86457,-7.84063 z"
       style="fill:#ffffff;stroke-width:0.105414"
       id="path6-2-16-4-6-4-4-4" />
    <path
       id="path4-6-2-8-3-7-1-09"
       style="fill:#aa0000;stroke-width:0.105414"
       d="m 219.8399,164.40887 a 10.344509,10.062265 0 0 0 -0.0613,0.047 l 0.0233,-0.0774 z m 0,0 15.55656,12.55171 a 10.344509,10.062265 0 0 1 -0.004,0.006 c -17.30491,-10.86037 -15.70274,-12.22007 -15.70274,-12.22007 l 0.0877,-0.28886 a 10.344509,10.062265 0 0 1 0.0611,-0.047 z m 15.55425,12.55589 a 10.344509,10.062265 0 0 0 0.004,-0.005 l 0.0324,0.0261 c -0.0122,-0.007 -0.0223,-0.015 -0.0349,-0.0221 z m -9.13549,-14.73066 a 10.344509,10.062265 0 0 1 10.34455,10.06225 10.344509,10.062265 0 0 1 -1.20675,4.66423 L 219.8399,164.40887 a 10.344509,10.062265 0 0 1 6.41876,-2.17477 z" />
    <path
       d="m 217.21172,201.49133 h 19.2783 v 3.09261 a 5.0311931,4.7499806 0 0 1 -0.42525,1.8645 h -18.42778 a 5.0311931,4.7499806 0 0 1 -0.42527,-1.8645 z"
       style="fill:#333333;stroke-width:0.105414"
       id="path14-2-23-7-6-6-4-82" />
    <path
       d="m 236.49002,193.64868 v 4.95711 h -19.2783 v -4.95711 z"
       style="fill:#333333;stroke-width:0.105414"
       id="path11-8-38-2-8-4-6-4" />
    <path
       d="m 217.21172,198.60579 h 19.2783 v 2.88554 h -19.2783 z"
       style="fill:#aa0000;stroke-width:0.105414"
       id="path13-5-5-2-5-8-1-02" />
    <path
       d="m 232.69592,235.38551 c -0.40553,-0.34415 -11.96656,-10.28792 -12.53876,-25.22944 v -1.74444 h 12.53876 z"
       style="fill:#ffffff;stroke-width:0.0881135"
       id="path21-0-72-1-8-9-0-60" />
    <path
       d="m 217.21202,155.12328 h 18.42778 a 5.0311931,4.7499806 0 0 1 -4.606,2.88558 h -9.21598 a 5.0311931,4.7499806 0 0 1 -4.6058,-2.88558 z"
       style="fill:#ffffff;stroke-width:0.105414"
       id="path10-5-3-2-9-4-9-7" />
    <path
       d="m 231.0338,129.74562 a 5.0311931,4.7499806 0 0 1 5.03126,4.75003 v 7.82786 h -19.27832 v -7.82786 a 5.0311931,4.7499806 0 0 1 5.03108,-4.75003 z"
       style="fill:#ffffff;stroke-width:0.105414"
       id="path7-7-10-3-2-0-6-8" />
    <path
       d="m 219.35372,113.13057 -0.0877,0.28887 c 0,0 -1.60219,1.35966 15.70299,12.22019 a 10.344509,10.062265 0 0 1 -9.13548,5.39382 10.344509,10.062265 0 0 1 -10.34457,-10.06225 10.344509,10.062265 0 0 1 3.86456,-7.84063 z"
       style="fill:#ffffff;stroke-width:0.105414"
       id="path6-2-16-4-6-4-4-55" />
    <path
       id="path4-6-2-8-3-7-1-01"
       style="fill:#aa0000;stroke-width:0.105414"
       d="m 219.41495,113.08374 a 10.344509,10.062265 0 0 0 -0.0614,0.0469 l 0.0234,-0.0774 z m 0,0 15.55656,12.55169 a 10.344509,10.062265 0 0 1 -0.004,0.007 c -17.30485,-10.86038 -15.70269,-12.22007 -15.70269,-12.22007 l 0.0877,-0.28887 a 10.344509,10.062265 0 0 1 0.0611,-0.047 z m 15.55423,12.55589 a 10.344509,10.062265 0 0 0 0.004,-0.007 l 0.0324,0.0261 c -0.0122,-0.007 -0.0222,-0.015 -0.0347,-0.0219 z m -9.13549,-14.73068 a 10.344509,10.062265 0 0 1 10.34457,10.06225 10.344509,10.062265 0 0 1 -1.20675,4.66423 l -15.55656,-12.55169 a 10.344509,10.062265 0 0 1 6.41874,-2.17479 z" />
    <path
       d="m 216.78674,150.16618 h 19.27832 v 3.0926 a 5.0311931,4.7499806 0 0 1 -0.42526,1.8645 h -18.42778 a 5.0311931,4.7499806 0 0 1 -0.42528,-1.8645 z"
       style="fill:#333333;stroke-width:0.105414"
       id="path14-2-23-7-6-6-4-0" />
    <path
       d="m 236.06506,142.32351 v 4.95712 h -19.27832 v -4.95712 z"
       style="fill:#333333;stroke-width:0.105414"
       id="path11-8-38-2-8-4-6-2" />
    <path
       d="m 216.78674,147.28063 h 19.27832 v 2.88555 h -19.27832 z"
       style="fill:#aa0000;stroke-width:0.105414"
       id="path13-5-5-2-5-8-1-5" />
    <path
       d="m 232.27097,184.06035 c -0.40555,-0.34414 -11.96656,-10.28792 -12.53875,-25.2294 v -1.74446 h 12.53875 z"
       style="fill:#ffffff;stroke-width:0.0881135"
       id="path21-0-72-1-8-9-0-9" />
    <path
       d="m 220.29471,122.9643 c 0.21647,-2.17124 1.58864,-12.56528 8.24899,-15.26033 l 0.21778,0.0279 -0.4446,22.91434 -8.15096,-1.04161 z"
       style="fill:#ffffff;stroke-width:0.105414"
       id="path18-7-6-5-2-1-0-5-5" />
    <path
       d="m 217.21066,105.84288 h 18.42775 a 5.0311931,4.7499806 0 0 1 -4.60599,2.88556 h -9.21599 a 5.0311931,4.7499806 0 0 1 -4.60577,-2.88556 z"
       style="fill:#ffffff;stroke-width:0.105414"
       id="path10-5-3-2-9-4-9-7-0" />
    <path
       d="m 231.03242,80.46522 a 5.0311931,4.7499806 0 0 1 5.03127,4.750045 v 7.827856 h -19.27831 v -7.827856 a 5.0311931,4.7499806 0 0 1 5.03105,-4.750045 z"
       style="fill:#ffffff;stroke-width:0.105414"
       id="path7-7-10-3-2-0-6-8-7" />
    <path
       d="m 219.35233,63.850173 -0.0877,0.288853 c 0,0 -1.60217,1.359667 15.70299,12.220201 a 10.344509,10.062265 0 0 1 -9.13547,5.393823 10.344509,10.062265 0 0 1 -10.34458,-10.062249 10.344509,10.062265 0 0 1 3.86457,-7.840628 z"
       style="fill:#ffffff;stroke-width:0.105414"
       id="path6-2-16-4-6-4-4-55-1" />
    <path
       id="path4-6-2-8-3-7-1-01-9"
       style="fill:#333333;stroke-width:0.105414"
       d="m 219.41357,63.803331 a 10.344509,10.062265 0 0 0 -0.0615,0.04688 l 0.0234,-0.07749 z m 0,0 15.55655,12.551699 a 10.344509,10.062265 0 0 1 -0.004,0.006 C 217.6615,65.500507 219.26367,64.140817 219.26367,64.140817 l 0.0877,-0.288865 a 10.344509,10.062265 0 0 1 0.0613,-0.04688 z m 15.55425,12.555896 a 10.344509,10.062265 0 0 0 0.004,-0.006 l 0.0324,0.02619 c -0.0122,-0.0073 -0.0223,-0.01495 -0.0349,-0.022 z m -9.13549,-14.730675 a 10.344509,10.062265 0 0 1 10.34455,10.062249 10.344509,10.062265 0 0 1 -1.20676,4.664229 L 219.41357,63.803331 a 10.344509,10.062265 0 0 1 6.41876,-2.174779 z" />
    <path
       d="m 216.78538,100.88577 h 19.27831 v 3.0926 a 5.0311931,4.7499806 0 0 1 -0.42528,1.86451 h -18.42775 a 5.0311931,4.7499806 0 0 1 -0.42528,-1.86451 z"
       style="fill:#333333;stroke-width:0.105414"
       id="path14-2-23-7-6-6-4-0-1" />
    <path
       d="m 236.06369,93.043121 v 4.957097 h -19.27831 v -4.957097 z"
       style="fill:#333333;stroke-width:0.105414"
       id="path11-8-38-2-8-4-6-2-1" />
    <path
       d="m 216.78538,98.000218 h 19.27831 v 2.885552 h -19.27831 z"
       style="fill:#aa0000;stroke-width:0.105414"
       id="path13-5-5-2-5-8-1-5-4" />
    <path
       d="m 232.26958,134.77997 c -0.40553,-0.34416 -11.96656,-10.28794 -12.53875,-25.22945 v -1.74444 h 12.53875 z"
       style="fill:#ffffff;stroke-width:0.0881135"
       id="path21-0-72-1-8-9-0-9-7" />
    <path
       d="m 246.03251,355.43684 h 18.42775 a 5.0311931,4.7499806 0 0 1 -4.60599,2.88556 h -9.21597 a 5.0311931,4.7499806 0 0 1 -4.60579,-2.88556 z"
       style="fill:#ffffff;stroke-width:0.105414"
       id="path10-5-3-2-9-4-9-31-9" />
    <path
       d="m 259.85427,330.05917 a 5.0311931,4.7499806 0 0 1 5.03127,4.75006 v 7.82785 h -19.27831 v -7.82785 a 5.0311931,4.7499806 0 0 1 5.03107,-4.75006 z"
       style="fill:#ffffff;stroke-width:0.105414"
       id="path7-7-10-3-2-0-6-9-7" />
    <path
       d="m 248.17419,313.44413 -0.0877,0.28885 c 0,0 -1.60219,1.35968 15.70298,12.2202 a 10.344509,10.062265 0 0 1 -9.13548,5.39384 10.344509,10.062265 0 0 1 -10.34458,-10.06226 10.344509,10.062265 0 0 1 3.86457,-7.84063 z"
       style="fill:#ffffff;stroke-width:0.105414"
       id="path6-2-16-4-6-4-4-57-8" />
    <path
       id="path4-6-2-8-3-7-1-7-6"
       style="fill:#aa0000;stroke-width:0.105414"
       d="m 248.23542,313.39728 a 10.344509,10.062265 0 0 0 -0.0613,0.0468 l 0.0234,-0.0774 z m 0,0 15.55657,12.55171 a 10.344509,10.062265 0 0 1 -0.004,0.005 C 246.48282,315.09361 248.085,313.73393 248.085,313.73393 l 0.0877,-0.28888 a 10.344509,10.062265 0 0 1 0.0613,-0.047 z m 15.55424,12.5559 a 10.344509,10.062265 0 0 0 0.004,-0.005 l 0.0324,0.0261 c -0.0122,-0.007 -0.0223,-0.015 -0.0347,-0.0221 z m -9.13548,-14.73067 a 10.344509,10.062265 0 0 1 10.34455,10.06225 10.344509,10.062265 0 0 1 -1.20674,4.66423 l -15.55657,-12.55171 a 10.344509,10.062265 0 0 1 6.41876,-2.17477 z" />
    <path
       d="m 245.60723,350.47973 h 19.27831 v 3.0926 a 5.0311931,4.7499806 0 0 1 -0.42528,1.86451 h -18.42775 a 5.0311931,4.7499806 0 0 1 -0.42528,-1.86451 z"
       style="fill:#333333;stroke-width:0.105414"
       id="path14-2-23-7-6-6-4-1-4" />
    <path
       d="m 264.88554,342.63708 v 4.95709 h -19.27831 v -4.95709 z"
       style="fill:#333333;stroke-width:0.105414"
       id="path11-8-38-2-8-4-6-1-0" />
    <path
       d="m 245.60723,347.59417 h 19.27831 v 2.88556 h -19.27831 z"
       style="fill:#aa0000;stroke-width:0.105414"
       id="path13-5-5-2-5-8-1-4-1" />
    <path
       d="m 261.09145,384.37393 c -0.40555,-0.34415 -11.96656,-10.28792 -12.53878,-25.22943 v -1.74446 h 12.53878 z"
       style="fill:#ffffff;stroke-width:0.0881135"
       id="path21-0-72-1-8-9-0-1-2" />
    <path
       d="m 273.79234,355.55805 h 18.42774 a 5.0311931,4.7499806 0 0 1 -4.60599,2.88558 h -9.21598 a 5.0311931,4.7499806 0 0 1 -4.60577,-2.88558 z"
       style="fill:#ffffff;stroke-width:0.105414"
       id="path10-5-3-2-9-4-9-32-4" />
    <path
       d="m 287.61409,330.1804 a 5.0311931,4.7499806 0 0 1 5.03127,4.75005 v 7.82784 h -19.27831 v -7.82784 a 5.0311931,4.7499806 0 0 1 5.03106,-4.75005 z"
       style="fill:#ffffff;stroke-width:0.105414"
       id="path7-7-10-3-2-0-6-67-4" />
    <path
       d="m 275.934,313.56535 -0.0877,0.28884 c 0,0 -1.60219,1.35968 15.70299,12.22022 a 10.344509,10.062265 0 0 1 -9.13547,5.39383 10.344509,10.062265 0 0 1 -10.34458,-10.06227 10.344509,10.062265 0 0 1 3.86456,-7.84062 z"
       style="fill:#ffffff;stroke-width:0.105414"
       id="path6-2-16-4-6-4-4-43-7" />
    <path
       id="path4-6-2-8-3-7-1-9-7"
       style="fill:#aa0000;stroke-width:0.105414"
       d="m 275.99525,313.51849 a 10.344509,10.062265 0 0 0 -0.0614,0.047 l 0.0234,-0.0774 z m 0,0 15.55655,12.55171 a 10.344509,10.062265 0 0 1 -0.004,0.005 c -17.30515,-10.86038 -15.70299,-12.22006 -15.70299,-12.22006 l 0.0877,-0.28889 a 10.344509,10.062265 0 0 1 0.0614,-0.0469 z m 15.55424,12.55592 a 10.344509,10.062265 0 0 0 0.004,-0.005 l 0.0324,0.0261 c -0.0122,-0.007 -0.0223,-0.015 -0.0349,-0.0221 z m -9.13548,-14.73067 a 10.344509,10.062265 0 0 1 10.34454,10.06223 10.344509,10.062265 0 0 1 -1.20675,4.66423 l -15.55655,-12.55171 a 10.344509,10.062265 0 0 1 6.41876,-2.17475 z" />
    <path
       d="m 273.36705,350.60096 h 19.27831 v 3.0926 a 5.0311931,4.7499806 0 0 1 -0.42528,1.86449 h -18.42774 a 5.0311931,4.7499806 0 0 1 -0.42529,-1.86449 z"
       style="fill:#333333;stroke-width:0.105414"
       id="path14-2-23-7-6-6-4-9-7" />
    <path
       d="m 292.64536,342.75829 v 4.9571 h -19.27831 v -4.9571 z"
       style="fill:#333333;stroke-width:0.105414"
       id="path11-8-38-2-8-4-6-5-7" />
    <path
       d="m 273.36705,347.71539 h 19.27831 v 2.88557 h -19.27831 z"
       style="fill:#aa0000;stroke-width:0.105414"
       id="path13-5-5-2-5-8-1-8-4" />
    <path
       d="m 288.85126,384.49514 c -0.40555,-0.34415 -11.96656,-10.28792 -12.53876,-25.22941 v -1.74448 h 12.53876 z"
       style="fill:#ffffff;stroke-width:0.0881135"
       id="path21-0-72-1-8-9-0-33-8" />
    <path
       d="m 245.22002,305.64139 h 18.42776 a 5.0311931,4.7499806 0 0 1 -4.60598,2.88557 h -9.216 a 5.0311931,4.7499806 0 0 1 -4.60578,-2.88557 z"
       style="fill:#ffffff;stroke-width:0.105414"
       id="path10-5-3-2-9-4-9-32-4-4" />
    <path
       d="m 259.0418,280.26373 a 5.0311931,4.7499806 0 0 1 5.03126,4.75003 v 7.82786 h -19.27832 v -7.82786 a 5.0311931,4.7499806 0 0 1 5.03106,-4.75003 z"
       style="fill:#ffffff;stroke-width:0.105414"
       id="path7-7-10-3-2-0-6-67-4-9" />
    <path
       d="m 247.3617,263.64868 -0.0877,0.28886 c 0,0 -1.60217,1.35965 15.70299,12.2202 a 10.344509,10.062265 0 0 1 -9.13547,5.39383 10.344509,10.062265 0 0 1 -10.34458,-10.06227 10.344509,10.062265 0 0 1 3.86457,-7.84062 z"
       style="fill:#ffffff;stroke-width:0.105414"
       id="path6-2-16-4-6-4-4-43-7-8" />
    <path
       id="path4-6-2-8-3-7-1-9-7-7"
       style="fill:#aa0000;stroke-width:0.105414"
       d="m 247.42294,263.60183 a 10.344509,10.062265 0 0 0 -0.0613,0.047 l 0.0233,-0.0774 z m 0,0 15.55656,12.55171 a 10.344509,10.062265 0 0 1 -0.004,0.005 c -17.30622,-10.85923 -15.70404,-12.2189 -15.70404,-12.2189 l 0.0877,-0.28887 a 10.344509,10.062265 0 0 1 0.0611,-0.047 z m 15.55424,12.55591 a 10.344509,10.062265 0 0 0 0.004,-0.005 l 0.0324,0.0261 c -0.0122,-0.007 -0.0222,-0.015 -0.0349,-0.0221 z m -9.13549,-14.73067 a 10.344509,10.062265 0 0 1 10.34456,10.06223 10.344509,10.062265 0 0 1 -1.20675,4.66424 l -15.55656,-12.55171 a 10.344509,10.062265 0 0 1 6.41875,-2.17476 z" />
    <path
       d="m 244.79474,300.68429 h 19.27832 v 3.0926 a 5.0311931,4.7499806 0 0 1 -0.42528,1.8645 h -18.42776 a 5.0311931,4.7499806 0 0 1 -0.42528,-1.8645 z"
       style="fill:#333333;stroke-width:0.105414"
       id="path14-2-23-7-6-6-4-9-7-9" />
    <path
       d="m 264.07306,292.84162 v 4.95712 h -19.27832 v -4.95712 z"
       style="fill:#333333;stroke-width:0.105414"
       id="path11-8-38-2-8-4-6-5-7-7" />
    <path
       d="m 244.79474,297.79874 h 19.27832 v 2.88555 h -19.27832 z"
       style="fill:#aa0000;stroke-width:0.105414"
       id="path13-5-5-2-5-8-1-8-4-2" />
    <path
       d="m 260.27895,334.57846 c -0.40551,-0.34414 -11.96655,-10.28792 -12.53875,-25.22941 v -1.74447 h 12.53875 z"
       style="fill:#ffffff;stroke-width:0.0881135"
       id="path21-0-72-1-8-9-0-33-8-1" />
    <path
       d="m 241.71221,278.36223 c -1.0756,-1.86608 -5.9573,-11.01357 -2.20549,-17.40695 l 0.18928,-0.11691 12.81565,18.52021 -7.08569,4.37036 z"
       style="fill:#ffffff;stroke-width:0.105414"
       id="path18-7-6-5-2-1-0-5-1-0-6" />
    <path
       d="m 226.28029,62.626149 c 0.9347,1.939443 5.12687,11.418044 0.91249,17.520737 l -0.19742,0.102729 -11.41171,-19.404289 7.38968,-3.84214 z"
       style="fill:#ffffff;stroke-width:0.105414"
       id="path18-7-6-5-2-1-0-5-1-0-6-8" />
    <path
       d="m 196.69543,45.832048 c 0.23209,-2.137651 1.68616,-12.388686 8.50292,-15.379443 l 0.22233,0.01567 -0.56988,22.462814 -8.32045,-0.589745 z"
       style="fill:#ffffff;stroke-width:0.105414"
       id="path18-7-6-5-2-1-0-5-1-0-6-8-9" />
    <path
       d="m 226.13519,47.097623 c 1.17269,1.807493 6.53103,10.688101 3.12223,17.268107 l -0.18285,0.126538 -13.77661,-17.827172 6.84497,-4.733414 z"
       style="fill:#ffffff;stroke-width:0.105414"
       id="path18-7-6-5-2-1-0-5-1-0-6-8-9-9" />
    <path
       d="m 276.59941,342.35676 c -1.53929,1.49534 -9.17589,8.4403 -16.18308,6.23182 l -0.15618,-0.15942 14.77772,-16.9515 5.84383,5.96678 z"
       style="fill:#ffffff;stroke-width:0.105414"
       id="path18-7-6-5-2-1-0-5-9-0-38" />
    <path
       d="m 248.96577,342.54264 c -1.53928,1.49538 -9.17588,8.44033 -16.18309,6.23183 l -0.15616,-0.15941 14.77772,-16.9515 5.84384,5.96678 z"
       style="fill:#ffffff;stroke-width:0.105414"
       id="path18-7-6-5-2-1-0-5-9-0-9" />
    <path
       d="m 203.40486,356.10126 h -18.42775 a 5.0311931,4.7499806 0 0 0 4.606,2.88556 h 9.21598 a 5.0311931,4.7499806 0 0 0 4.60577,-2.88556 z"
       style="fill:#ffffff;stroke-width:0.105414"
       id="path10-5-3-2-9-4-9-61" />
    <path
       d="m 189.58311,330.7236 a 5.0311931,4.7499806 0 0 0 -5.03126,4.75004 v 7.82786 h 19.2783 v -7.82786 a 5.0311931,4.7499806 0 0 0 -5.03106,-4.75004 z"
       style="fill:#ffffff;stroke-width:0.105414"
       id="path7-7-10-3-2-0-6-23" />
    <path
       d="m 201.2632,314.10853 0.0877,0.28886 c 0,0 1.60218,1.35966 -15.70299,12.22022 a 10.344509,10.062265 0 0 0 9.13548,5.39382 10.344509,10.062265 0 0 0 10.34455,-10.06226 10.344509,10.062265 0 0 0 -3.86456,-7.84064 z"
       style="fill:#ffffff;stroke-width:0.105414"
       id="path6-2-16-4-6-4-4-48" />
    <path
       id="path4-6-2-8-3-7-1-9"
       style="fill:#aa0000;stroke-width:0.105414"
       d="m 201.20195,314.06169 a 10.344509,10.062265 0 0 1 0.0614,0.0469 l -0.0234,-0.0774 z m 0,0 -15.55657,12.55172 a 10.344509,10.062265 0 0 0 0.004,0.005 c 17.30486,-10.85994 15.70268,-12.21963 15.70268,-12.21963 l -0.0877,-0.28887 a 10.344509,10.062265 0 0 0 -0.0614,-0.0469 z m -15.55423,12.55592 a 10.344509,10.062265 0 0 1 -0.004,-0.007 l -0.0324,0.0261 c 0.0122,-0.007 0.0223,-0.015 0.0349,-0.022 z m 9.13547,-14.73068 a 10.344509,10.062265 0 0 0 -10.34454,10.06224 10.344509,10.062265 0 0 0 1.20673,4.66424 l 15.55657,-12.55172 a 10.344509,10.062265 0 0 0 -6.41876,-2.17476 z" />
    <path
       d="m 203.83015,351.14414 h -19.2783 v 3.0926 a 5.0311931,4.7499806 0 0 0 0.42526,1.86452 h 18.42775 a 5.0311931,4.7499806 0 0 0 0.42529,-1.86452 z"
       style="fill:#333333;stroke-width:0.105414"
       id="path14-2-23-7-6-6-4-1" />
    <path
       d="m 184.55185,343.3015 v 4.95711 h 19.2783 v -4.95711 z"
       style="fill:#333333;stroke-width:0.105414"
       id="path11-8-38-2-8-4-6-9" />
    <path
       d="m 203.83015,348.25861 h -19.2783 v 2.88553 h 19.2783 z"
       style="fill:#aa0000;stroke-width:0.105414"
       id="path13-5-5-2-5-8-1-1" />
    <path
       d="m 188.34594,385.03833 c 0.40553,-0.34414 11.96656,-10.28791 12.53876,-25.22941 v -1.74447 h -12.53876 z"
       style="fill:#ffffff;stroke-width:0.0881135"
       id="path21-0-72-1-8-9-0-7" />
    <path
       d="m 205.26577,339.36371 c 2.06582,-0.17251 11.96375,-1.35219 14.69114,-8.29781 l -0.0209,-0.23008 -21.7547,-0.11691 0.78021,8.61094 z"
       style="fill:#ffffff;stroke-width:0.105414"
       id="path18-7-6-5-2-1-0-5-8" />
    <path
       d="m 203.29975,306.08266 h -18.42778 a 5.0311931,4.7499806 0 0 0 4.60602,2.88555 h 9.21599 a 5.0311931,4.7499806 0 0 0 4.60577,-2.88555 z"
       style="fill:#ffffff;stroke-width:0.105414"
       id="path10-5-3-2-9-4-9-2-8" />
    <path
       d="m 189.47799,280.70497 a 5.0311931,4.7499806 0 0 0 -5.03127,4.75006 v 7.82786 h 19.27831 v -7.82786 a 5.0311931,4.7499806 0 0 0 -5.03105,-4.75006 z"
       style="fill:#ffffff;stroke-width:0.105414"
       id="path7-7-10-3-2-0-6-6-2" />
    <path
       d="m 201.15807,264.08993 0.0877,0.28886 c 0,0 1.60219,1.35967 -15.70299,12.2202 a 10.344509,10.062265 0 0 0 9.13548,5.39383 10.344509,10.062265 0 0 0 10.34456,-10.06225 10.344509,10.062265 0 0 0 -3.86457,-7.84064 z"
       style="fill:#ffffff;stroke-width:0.105414"
       id="path6-2-16-4-6-4-4-5-9" />
    <path
       id="path4-6-2-8-3-7-1-0-4"
       style="fill:#aa0000;stroke-width:0.105414"
       d="m 201.09682,264.04309 a 10.344509,10.062265 0 0 1 0.0613,0.047 l -0.0234,-0.0774 z m 0,0 -15.55655,12.5517 a 10.344509,10.062265 0 0 0 0.004,0.005 c 17.30515,-10.86038 15.70296,-12.22004 15.70296,-12.22004 l -0.0877,-0.28888 a 10.344509,10.062265 0 0 0 -0.0613,-0.047 z m -15.55424,12.5559 a 10.344509,10.062265 0 0 1 -0.004,-0.005 l -0.0324,0.0261 c 0.0122,-0.007 0.0223,-0.015 0.0348,-0.0221 z m 9.13549,-14.73067 a 10.344509,10.062265 0 0 0 -10.34454,10.06225 10.344509,10.062265 0 0 0 1.20674,4.66422 l 15.55655,-12.5517 a 10.344509,10.062265 0 0 0 -6.41875,-2.17477 z" />
    <path
       d="m 203.72503,301.12554 h -19.27831 v 3.09261 a 5.0311931,4.7499806 0 0 0 0.42525,1.86451 h 18.42778 a 5.0311931,4.7499806 0 0 0 0.42528,-1.86451 z"
       style="fill:#333333;stroke-width:0.105414"
       id="path14-2-23-7-6-6-4-8-9" />
    <path
       d="M 184.44672,293.28289 V 298.24 h 19.27831 v -4.95711 z"
       style="fill:#333333;stroke-width:0.105414"
       id="path11-8-38-2-8-4-6-8-2" />
    <path
       d="m 203.72503,298.24 h -19.27831 v 2.88554 h 19.27831 z"
       style="fill:#aa0000;stroke-width:0.105414"
       id="path13-5-5-2-5-8-1-9-4" />
    <path
       d="m 188.24081,335.01973 c 0.40554,-0.34415 11.96655,-10.28791 12.53875,-25.22944 v -1.74444 h -12.53875 z"
       style="fill:#ffffff;stroke-width:0.0881135"
       id="path21-0-72-1-8-9-0-6-2" />
    <path
       d="m 203.83413,255.55956 h -18.42778 a 5.0311931,4.7499806 0 0 0 4.60601,2.88556 h 9.21597 a 5.0311931,4.7499806 0 0 0 4.6058,-2.88556 z"
       style="fill:#ffffff;stroke-width:0.105414"
       id="path10-5-3-2-9-4-9-3-4" />
    <path
       d="m 190.01236,230.18189 a 5.0311931,4.7499806 0 0 0 -5.03127,4.75005 v 7.82785 h 19.27832 v -7.82785 a 5.0311931,4.7499806 0 0 0 -5.03108,-4.75005 z"
       style="fill:#ffffff;stroke-width:0.105414"
       id="path7-7-10-3-2-0-6-2-1" />
    <path
       d="m 201.69244,213.56683 0.0877,0.28888 c 0,0 1.60218,1.35966 -15.70298,12.2202 a 10.344509,10.062265 0 0 0 9.13548,5.39382 10.344509,10.062265 0 0 0 10.34458,-10.06224 10.344509,10.062265 0 0 0 -3.86457,-7.84066 z"
       style="fill:#ffffff;stroke-width:0.105414"
       id="path6-2-16-4-6-4-4-3-6" />
    <path
       id="path4-6-2-8-3-7-1-8-5"
       style="fill:#aa0000;stroke-width:0.105414"
       d="m 201.63121,213.52 a 10.344509,10.062265 0 0 1 0.0614,0.047 l -0.0234,-0.0774 z m 0,0 -15.55655,12.55171 a 10.344509,10.062265 0 0 0 0.004,0.005 c 17.30531,-10.85939 15.70314,-12.21907 15.70314,-12.21907 l -0.0877,-0.28887 a 10.344509,10.062265 0 0 0 -0.0611,-0.047 z m -15.55425,12.55591 a 10.344509,10.062265 0 0 1 -0.004,-0.005 l -0.0324,0.0261 c 0.0122,-0.007 0.0223,-0.015 0.0348,-0.0221 z m 9.13549,-14.73067 a 10.344509,10.062265 0 0 0 -10.34456,10.06225 10.344509,10.062265 0 0 0 1.20677,4.66422 L 201.63121,213.52 a 10.344509,10.062265 0 0 0 -6.41876,-2.17476 z" />
    <path
       d="m 204.25941,250.60245 h -19.27832 v 3.09262 a 5.0311931,4.7499806 0 0 0 0.42526,1.86449 h 18.42778 a 5.0311931,4.7499806 0 0 0 0.42528,-1.86449 z"
       style="fill:#333333;stroke-width:0.105414"
       id="path14-2-23-7-6-6-4-5-5" />
    <path
       d="m 184.98109,242.75979 v 4.95712 h 19.27832 v -4.95712 z"
       style="fill:#333333;stroke-width:0.105414"
       id="path11-8-38-2-8-4-6-87-4" />
    <path
       d="m 204.25941,247.71691 h -19.27832 v 2.88554 h 19.27832 z"
       style="fill:#aa0000;stroke-width:0.105414"
       id="path13-5-5-2-5-8-1-0-9" />
    <path
       d="m 188.77517,284.49664 c 0.40556,-0.34415 11.96659,-10.28793 12.53877,-25.22944 v -1.74445 h -12.53877 z"
       style="fill:#ffffff;stroke-width:0.0881135"
       id="path21-0-72-1-8-9-0-3-3" />
    <path
       d="m 203.28526,207.12198 h -18.42778 a 5.0311931,4.7499806 0 0 0 4.60601,2.88556 h 9.21598 a 5.0311931,4.7499806 0 0 0 4.60579,-2.88556 z"
       style="fill:#ffffff;stroke-width:0.105414"
       id="path10-5-3-2-9-4-9-6-1" />
    <path
       d="m 189.46349,181.74432 a 5.0311931,4.7499806 0 0 0 -5.03127,4.75003 v 7.82787 h 19.2783 v -7.82787 a 5.0311931,4.7499806 0 0 0 -5.03105,-4.75003 z"
       style="fill:#ffffff;stroke-width:0.105414"
       id="path7-7-10-3-2-0-6-7-1" />
    <path
       d="m 201.14358,165.12925 0.0877,0.28885 c 0,0 1.60218,1.35967 -15.70298,12.22023 a 10.344509,10.062265 0 0 0 9.13547,5.39382 10.344509,10.062265 0 0 0 10.34458,-10.06225 10.344509,10.062265 0 0 0 -3.86458,-7.84065 z"
       style="fill:#ffffff;stroke-width:0.105414"
       id="path6-2-16-4-6-4-4-4-7" />
    <path
       id="path4-6-2-8-3-7-1-09-3"
       style="fill:#aa0000;stroke-width:0.105414"
       d="m 201.08233,165.08242 a 10.344509,10.062265 0 0 1 0.0614,0.047 l -0.0233,-0.0774 z m 0,0 -15.55656,12.55171 a 10.344509,10.062265 0 0 0 0.004,0.005 c 17.3053,-10.86023 15.70313,-12.21992 15.70313,-12.21992 l -0.0877,-0.28887 a 10.344509,10.062265 0 0 0 -0.0611,-0.047 z m -15.55424,12.55591 a 10.344509,10.062265 0 0 1 -0.004,-0.005 l -0.0324,0.0261 c 0.0122,-0.007 0.0223,-0.015 0.0349,-0.0221 z m 9.13549,-14.73069 a 10.344509,10.062265 0 0 0 -10.34455,10.06226 10.344509,10.062265 0 0 0 1.20674,4.66423 l 15.55656,-12.55171 a 10.344509,10.062265 0 0 0 -6.41875,-2.17478 z" />
    <path
       d="m 203.71052,202.16489 h -19.2783 v 3.09258 a 5.0311931,4.7499806 0 0 0 0.42526,1.86451 h 18.42778 a 5.0311931,4.7499806 0 0 0 0.42526,-1.86451 z"
       style="fill:#333333;stroke-width:0.105414"
       id="path14-2-23-7-6-6-4-82-4" />
    <path
       d="m 184.43222,194.32222 v 4.95711 h 19.2783 v -4.95711 z"
       style="fill:#333333;stroke-width:0.105414"
       id="path11-8-38-2-8-4-6-4-8" />
    <path
       d="m 203.71052,199.27933 h -19.2783 v 2.88556 h 19.2783 z"
       style="fill:#aa0000;stroke-width:0.105414"
       id="path13-5-5-2-5-8-1-02-2" />
    <path
       d="m 188.22632,236.05905 c 0.40553,-0.34414 11.96655,-10.28792 12.53876,-25.22942 v -1.74446 h -12.53876 z"
       style="fill:#ffffff;stroke-width:0.0881135"
       id="path21-0-72-1-8-9-0-60-3" />
    <path
       d="m 203.71021,155.79682 h -18.42777 a 5.0311931,4.7499806 0 0 0 4.60601,2.88558 h 9.21597 a 5.0311931,4.7499806 0 0 0 4.60579,-2.88558 z"
       style="fill:#ffffff;stroke-width:0.105414"
       id="path10-5-3-2-9-4-9-7-7" />
    <path
       d="m 189.88845,130.41916 a 5.0311931,4.7499806 0 0 0 -5.03128,4.75004 v 7.82787 h 19.27833 v -7.82787 a 5.0311931,4.7499806 0 0 0 -5.03108,-4.75004 z"
       style="fill:#ffffff;stroke-width:0.105414"
       id="path7-7-10-3-2-0-6-8-4" />
    <path
       d="m 201.56852,113.80412 0.0877,0.28886 c 0,0 1.6022,1.35965 -15.70299,12.22019 a 10.344509,10.062265 0 0 0 9.13547,5.39383 10.344509,10.062265 0 0 0 10.34458,-10.06225 10.344509,10.062265 0 0 0 -3.86456,-7.84063 z"
       style="fill:#ffffff;stroke-width:0.105414"
       id="path6-2-16-4-6-4-4-55-9" />
    <path
       id="path4-6-2-8-3-7-1-01-4"
       style="fill:#aa0000;stroke-width:0.105414"
       d="m 201.50729,113.75727 a 10.344509,10.062265 0 0 1 0.0614,0.0469 l -0.0234,-0.0774 z m 0,0 -15.55656,12.5517 a 10.344509,10.062265 0 0 0 0.004,0.007 c 17.30486,-10.8604 15.70269,-12.22007 15.70269,-12.22007 l -0.0877,-0.28888 a 10.344509,10.062265 0 0 0 -0.0611,-0.0469 z m -15.55423,12.5559 a 10.344509,10.062265 0 0 1 -0.004,-0.007 l -0.0324,0.0261 c 0.0122,-0.007 0.0223,-0.015 0.0349,-0.0219 z m 9.13548,-14.73068 a 10.344509,10.062265 0 0 0 -10.34456,10.06226 10.344509,10.062265 0 0 0 1.20675,4.66422 l 15.55656,-12.5517 a 10.344509,10.062265 0 0 0 -6.41875,-2.17478 z" />
    <path
       d="m 204.1355,150.83972 h -19.27833 v 3.09262 a 5.0311931,4.7499806 0 0 0 0.42527,1.86448 h 18.42777 a 5.0311931,4.7499806 0 0 0 0.42529,-1.86448 z"
       style="fill:#333333;stroke-width:0.105414"
       id="path14-2-23-7-6-6-4-0-8" />
    <path
       d="m 184.85717,142.99707 v 4.9571 h 19.27833 v -4.9571 z"
       style="fill:#333333;stroke-width:0.105414"
       id="path11-8-38-2-8-4-6-2-3" />
    <path
       d="m 204.1355,147.95417 h -19.27833 v 2.88555 h 19.27833 z"
       style="fill:#aa0000;stroke-width:0.105414"
       id="path13-5-5-2-5-8-1-5-7" />
    <path
       d="m 188.65127,184.7339 c 0.40555,-0.34415 11.96656,-10.28792 12.53875,-25.22941 v -1.74447 h -12.53875 z"
       style="fill:#ffffff;stroke-width:0.0881135"
       id="path21-0-72-1-8-9-0-9-1" />
    <path
       d="m 200.62752,123.63784 c -0.21646,-2.17123 -1.58864,-12.56529 -8.24899,-15.26033 l -0.21777,0.0279 0.44459,22.91434 8.15097,-1.04162 z"
       style="fill:#ffffff;stroke-width:0.105414"
       id="path18-7-6-5-2-1-0-5-5-5" />
    <path
       d="m 203.7116,106.51642 h -18.42777 a 5.0311931,4.7499806 0 0 0 4.60598,2.88555 h 9.21599 a 5.0311931,4.7499806 0 0 0 4.6058,-2.88555 z"
       style="fill:#ffffff;stroke-width:0.105414"
       id="path10-5-3-2-9-4-9-7-0-5" />
    <path
       d="m 189.88981,81.138765 a 5.0311931,4.7499806 0 0 0 -5.03126,4.750043 v 7.827858 h 19.27831 v -7.827858 a 5.0311931,4.7499806 0 0 0 -5.03106,-4.750043 z"
       style="fill:#ffffff;stroke-width:0.105414"
       id="path7-7-10-3-2-0-6-8-7-1" />
    <path
       d="m 201.56992,64.523718 0.0877,0.288852 c 0,0 1.60217,1.359668 -15.70299,12.220203 a 10.344509,10.062265 0 0 0 9.13547,5.393823 10.344509,10.062265 0 0 0 10.34458,-10.062249 10.344509,10.062265 0 0 0 -3.86456,-7.840629 z"
       style="fill:#ffffff;stroke-width:0.105414"
       id="path6-2-16-4-6-4-4-55-1-1" />
    <path
       id="path4-6-2-8-3-7-1-01-9-6"
       style="fill:#333333;stroke-width:0.105414"
       d="m 201.50867,64.476875 a 10.344509,10.062265 0 0 1 0.0615,0.04688 l -0.0234,-0.07749 z m 0,0 -15.55655,12.5517 a 10.344509,10.062265 0 0 0 0.004,0.006 c 17.30553,-10.860641 15.70337,-12.220332 15.70337,-12.220332 l -0.0877,-0.288865 a 10.344509,10.062265 0 0 0 -0.0613,-0.04688 z m -15.55425,12.555898 a 10.344509,10.062265 0 0 1 -0.004,-0.006 l -0.0324,0.02619 c 0.0122,-0.0073 0.0223,-0.01495 0.0347,-0.022 z m 9.13549,-14.730675 a 10.344509,10.062265 0 0 0 -10.34456,10.062249 10.344509,10.062265 0 0 0 1.20677,4.664228 l 15.55655,-12.5517 a 10.344509,10.062265 0 0 0 -6.41876,-2.174777 z" />
    <path
       d="m 204.13686,101.55931 h -19.27831 v 3.09262 a 5.0311931,4.7499806 0 0 0 0.42528,1.86449 h 18.42777 a 5.0311931,4.7499806 0 0 0 0.42526,-1.86449 z"
       style="fill:#333333;stroke-width:0.105414"
       id="path14-2-23-7-6-6-4-0-1-8" />
    <path
       d="m 184.85855,93.716666 v 4.957095 h 19.27831 v -4.957095 z"
       style="fill:#333333;stroke-width:0.105414"
       id="path11-8-38-2-8-4-6-2-1-1" />
    <path
       d="m 204.13686,98.673761 h -19.27831 v 2.885549 h 19.27831 z"
       style="fill:#aa0000;stroke-width:0.105414"
       id="path13-5-5-2-5-8-1-5-4-1" />
    <path
       d="m 188.65266,135.45351 c 0.40552,-0.34416 11.96656,-10.28792 12.53875,-25.22943 v -1.74446 h -12.53875 z"
       style="fill:#ffffff;stroke-width:0.0881135"
       id="path21-0-72-1-8-9-0-9-7-1" />
    <path
       d="m 174.88972,356.11037 h -18.42774 a 5.0311931,4.7499806 0 0 0 4.60599,2.88558 h 9.21598 a 5.0311931,4.7499806 0 0 0 4.60577,-2.88558 z"
       style="fill:#ffffff;stroke-width:0.105414"
       id="path10-5-3-2-9-4-9-31-9-3" />
    <path
       d="m 161.06797,330.73272 a 5.0311931,4.7499806 0 0 0 -5.03128,4.75005 v 7.82784 h 19.27832 v -7.82784 a 5.0311931,4.7499806 0 0 0 -5.03106,-4.75005 z"
       style="fill:#ffffff;stroke-width:0.105414"
       id="path7-7-10-3-2-0-6-9-7-6" />
    <path
       d="m 172.74806,314.11767 0.0877,0.28885 c 0,0 1.60219,1.35968 -15.70298,12.22021 a 10.344509,10.062265 0 0 0 9.13548,5.39383 10.344509,10.062265 0 0 0 10.34458,-10.06227 10.344509,10.062265 0 0 0 -3.86458,-7.84062 z"
       style="fill:#ffffff;stroke-width:0.105414"
       id="path6-2-16-4-6-4-4-57-8-5" />
    <path
       id="path4-6-2-8-3-7-1-7-6-8"
       style="fill:#aa0000;stroke-width:0.105414"
       d="m 172.68681,314.07084 a 10.344509,10.062265 0 0 1 0.0614,0.0469 l -0.0234,-0.0774 z m 0,0 -15.55655,12.5517 a 10.344509,10.062265 0 0 0 0.004,0.005 c 17.30517,-10.86038 15.70299,-12.22006 15.70299,-12.22006 l -0.0877,-0.28887 a 10.344509,10.062265 0 0 0 -0.0614,-0.047 z m -15.55423,12.55589 a 10.344509,10.062265 0 0 1 -0.004,-0.005 l -0.0324,0.0261 c 0.0122,-0.007 0.0223,-0.015 0.0349,-0.0221 z m 9.13548,-14.73068 a 10.344509,10.062265 0 0 0 -10.34455,10.06224 10.344509,10.062265 0 0 0 1.20675,4.66425 l 15.55655,-12.5517 a 10.344509,10.062265 0 0 0 -6.41875,-2.17479 z" />
    <path
       d="m 175.31501,351.15329 h -19.27832 v 3.09258 a 5.0311931,4.7499806 0 0 0 0.42529,1.8645 h 18.42774 a 5.0311931,4.7499806 0 0 0 0.42529,-1.8645 z"
       style="fill:#333333;stroke-width:0.105414"
       id="path14-2-23-7-6-6-4-1-4-9" />
    <path
       d="m 156.03669,343.31061 v 4.95711 h 19.27832 v -4.95711 z"
       style="fill:#333333;stroke-width:0.105414"
       id="path11-8-38-2-8-4-6-1-0-6" />
    <path
       d="m 175.31501,348.26772 h -19.27832 v 2.88557 h 19.27832 z"
       style="fill:#aa0000;stroke-width:0.105414"
       id="path13-5-5-2-5-8-1-4-1-1" />
    <path
       d="m 159.83079,385.04747 c 0.40555,-0.34415 11.96657,-10.28793 12.53878,-25.22942 v -1.74447 h -12.53878 z"
       style="fill:#ffffff;stroke-width:0.0881135"
       id="path21-0-72-1-8-9-0-1-2-9" />
    <path
       d="m 147.1299,356.23159 h -18.42774 a 5.0311931,4.7499806 0 0 0 4.60598,2.88557 h 9.21598 a 5.0311931,4.7499806 0 0 0 4.60578,-2.88557 z"
       style="fill:#ffffff;stroke-width:0.105414"
       id="path10-5-3-2-9-4-9-32-4-7" />
    <path
       d="m 133.30814,330.85395 a 5.0311931,4.7499806 0 0 0 -5.03126,4.75003 v 7.82785 h 19.27831 v -7.82785 a 5.0311931,4.7499806 0 0 0 -5.03107,-4.75003 z"
       style="fill:#ffffff;stroke-width:0.105414"
       id="path7-7-10-3-2-0-6-67-4-0" />
    <path
       d="m 144.98824,314.23888 0.0877,0.28886 c 0,0 1.60218,1.35967 -15.703,12.22022 a 10.344509,10.062265 0 0 0 9.13548,5.39382 10.344509,10.062265 0 0 0 10.34458,-10.06227 10.344509,10.062265 0 0 0 -3.86456,-7.84063 z"
       style="fill:#ffffff;stroke-width:0.105414"
       id="path6-2-16-4-6-4-4-43-7-6" />
    <path
       id="path4-6-2-8-3-7-1-9-7-1"
       style="fill:#aa0000;stroke-width:0.105414"
       d="m 144.92699,314.19205 a 10.344509,10.062265 0 0 1 0.0613,0.0469 l -0.0234,-0.0774 z m 0,0 -15.55655,12.5517 a 10.344509,10.062265 0 0 0 0.004,0.005 c 17.30515,-10.86038 15.70299,-12.22006 15.70299,-12.22006 l -0.0877,-0.28887 a 10.344509,10.062265 0 0 0 -0.0614,-0.0469 z m -15.55424,12.55591 a 10.344509,10.062265 0 0 1 -0.004,-0.005 l -0.0324,0.0261 c 0.0122,-0.007 0.0223,-0.015 0.0347,-0.0221 z m 9.13548,-14.73068 a 10.344509,10.062265 0 0 0 -10.34454,10.06223 10.344509,10.062265 0 0 0 1.20675,4.66424 l 15.55655,-12.5517 a 10.344509,10.062265 0 0 0 -6.41876,-2.17477 z" />
    <path
       d="m 147.55519,351.2745 h -19.27831 v 3.09259 a 5.0311931,4.7499806 0 0 0 0.42528,1.8645 h 18.42774 a 5.0311931,4.7499806 0 0 0 0.42529,-1.8645 z"
       style="fill:#333333;stroke-width:0.105414"
       id="path14-2-23-7-6-6-4-9-7-1" />
    <path
       d="m 128.27688,343.43183 v 4.95711 h 19.27831 v -4.95711 z"
       style="fill:#333333;stroke-width:0.105414"
       id="path11-8-38-2-8-4-6-5-7-4" />
    <path
       d="m 147.55519,348.38894 h -19.27831 v 2.88556 h 19.27831 z"
       style="fill:#aa0000;stroke-width:0.105414"
       id="path13-5-5-2-5-8-1-8-4-5" />
    <path
       d="m 132.07098,385.16868 c 0.40554,-0.34415 11.96656,-10.28792 12.53876,-25.22941 v -1.74448 h -12.53876 z"
       style="fill:#ffffff;stroke-width:0.0881135"
       id="path21-0-72-1-8-9-0-33-8-8" />
    <path
       d="m 175.70222,306.31493 h -18.42776 a 5.0311931,4.7499806 0 0 0 4.60598,2.88556 h 9.21599 a 5.0311931,4.7499806 0 0 0 4.60579,-2.88556 z"
       style="fill:#ffffff;stroke-width:0.105414"
       id="path10-5-3-2-9-4-9-32-4-4-7" />
    <path
       d="m 161.88044,280.93727 a 5.0311931,4.7499806 0 0 0 -5.03126,4.75004 v 7.82786 h 19.27832 v -7.82786 a 5.0311931,4.7499806 0 0 0 -5.03107,-4.75004 z"
       style="fill:#ffffff;stroke-width:0.105414"
       id="path7-7-10-3-2-0-6-67-4-9-7" />
    <path
       d="m 173.56053,264.32222 0.0877,0.28886 c 0,0 1.60218,1.35965 -15.70299,12.2202 a 10.344509,10.062265 0 0 0 9.13548,5.39383 10.344509,10.062265 0 0 0 10.34458,-10.06227 10.344509,10.062265 0 0 0 -3.86456,-7.84062 z"
       style="fill:#ffffff;stroke-width:0.105414"
       id="path6-2-16-4-6-4-4-43-7-8-7" />
    <path
       id="path4-6-2-8-3-7-1-9-7-7-6"
       style="fill:#aa0000;stroke-width:0.105414"
       d="m 173.4993,264.27538 a 10.344509,10.062265 0 0 1 0.0613,0.047 l -0.0234,-0.0774 z m 0,0 -15.55656,12.5517 a 10.344509,10.062265 0 0 0 0.004,0.005 c 17.30577,-10.85982 15.70359,-12.21949 15.70359,-12.21949 l -0.0877,-0.28886 a 10.344509,10.062265 0 0 0 -0.0611,-0.047 z m -15.55424,12.5559 a 10.344509,10.062265 0 0 1 -0.004,-0.005 l -0.0324,0.0261 c 0.0122,-0.007 0.0223,-0.015 0.0348,-0.0221 z m 9.13549,-14.73067 a 10.344509,10.062265 0 0 0 -10.34457,10.06223 10.344509,10.062265 0 0 0 1.20676,4.66424 l 15.55656,-12.5517 a 10.344509,10.062265 0 0 0 -6.41875,-2.17477 z" />
    <path
       d="m 176.1275,301.35783 h -19.27832 v 3.09259 a 5.0311931,4.7499806 0 0 0 0.42528,1.86451 h 18.42776 a 5.0311931,4.7499806 0 0 0 0.42528,-1.86451 z"
       style="fill:#333333;stroke-width:0.105414"
       id="path14-2-23-7-6-6-4-9-7-9-5" />
    <path
       d="m 156.84918,293.51517 v 4.95711 h 19.27832 v -4.95711 z"
       style="fill:#333333;stroke-width:0.105414"
       id="path11-8-38-2-8-4-6-5-7-7-8" />
    <path
       d="m 176.1275,298.47228 h -19.27832 v 2.88555 h 19.27832 z"
       style="fill:#aa0000;stroke-width:0.105414"
       id="path13-5-5-2-5-8-1-8-4-2-7" />
    <path
       d="m 160.64329,335.25201 c 0.40553,-0.34415 11.96655,-10.28792 12.53875,-25.22943 v -1.74446 h -12.53875 z"
       style="fill:#ffffff;stroke-width:0.0881135"
       id="path21-0-72-1-8-9-0-33-8-1-3" />
    <path
       d="m 179.21003,279.03577 c 1.07559,-1.86609 5.9573,-11.01357 2.20549,-17.40696 l -0.18928,-0.1169 -12.81565,18.5202 7.08568,4.37036 z"
       style="fill:#ffffff;stroke-width:0.105414"
       id="path18-7-6-5-2-1-0-5-1-0-6-5" />
    <path
       d="m 144.32283,343.03029 c 1.53929,1.49537 9.17588,8.44032 16.18308,6.23183 l 0.15618,-0.15942 -14.77772,-16.95149 -5.84383,5.96677 z"
       style="fill:#ffffff;stroke-width:0.105414"
       id="path18-7-6-5-2-1-0-5-9-0-38-03" />
    <path
       d="m 171.95647,343.21618 c 1.53928,1.49538 9.17587,8.44033 16.18308,6.23184 l 0.15617,-0.15941 -14.77772,-16.95151 -5.84383,5.96677 z"
       style="fill:#ffffff;stroke-width:0.105414"
       id="path18-7-6-5-2-1-0-5-9-0-9-6" />
    <path
       d="m 222.1906,74.501591 -0.24957,-18.29432 a 4.995225,4.7841826 89.094901 0 1 2.96844,4.533554 l 0.12482,9.149253 a 4.995225,4.7841826 89.094901 0 1 -2.84369,4.611513 z"
       style="fill:#ffffff;stroke-width:0.105414"
       id="path10-5-3-2-9-4-9-7-0-7" />
    <path
       d="m 196.44532,61.123608 a 4.995225,4.7841826 89.094901 0 1 4.71569,-5.059158 l 7.88349,-0.106009 0.26109,19.138702 -7.8835,0.106009 a 4.995225,4.7841826 89.094901 0 1 -4.85195,-4.93029 z"
       style="fill:#ffffff;stroke-width:0.105414"
       id="path7-7-10-3-2-0-6-8-7-8" />
    <path
       d="m 217.204,74.990918 -0.26109,-19.138702 3.11459,-0.04188 a 4.995225,4.7841826 89.094901 0 1 1.88353,0.396939 l 0.24957,18.29432 a 4.995225,4.7841826 89.094901 0 1 -1.872,0.447442 z"
       style="fill:#ffffff;stroke-width:0.105414"
       id="path14-2-23-7-6-6-4-0-1-1" />
    <path
       d="m 209.0445,55.958434 4.99234,-0.06714 0.26109,19.138702 -4.99234,0.06714 z"
       style="fill:#ffffff;stroke-width:0.105414"
       id="path11-8-38-2-8-4-6-2-1-6" />
    <path
       d="m 214.29793,75.029998 -0.26109,-19.138701 2.90607,-0.03908 0.26109,19.138702 z"
       style="fill:#ffffff;stroke-width:0.105414"
       id="path13-5-5-2-5-8-1-5-4-4" />
    <path
       d="m 195.5438,62.460148 c -0.9347,1.939442 -5.12688,11.418045 -0.91249,17.520736 l 0.19741,0.102729 11.41171,-19.40429 -7.38968,-3.842139 z"
       style="fill:#ffffff;stroke-width:0.105414"
       id="path18-7-6-5-2-1-0-5-1-0-6-8-0" />
    <path
       d="m 200.20689,64.889387 0.10986,0.281238 c 0,0 -0.41978,2.050704 19.95182,0.03464 a 10.084287,10.321918 60.708337 0 1 -3.85596,9.833839 10.084287,10.321918 60.708337 0 1 -14.3909,-1.608522 10.084287,10.321918 60.708337 0 1 -1.81506,-8.541076 z"
       style="fill:#ffffff;stroke-width:0.105414"
       id="path6-2-16-4-6-4-4-55-1-2" />
    <path
       id="path4-6-2-8-3-7-1-01-9-64"
       style="fill:#333333;stroke-width:0.105414"
       d="m 200.2261,64.815046 a 10.084287,10.321918 60.708337 0 0 -0.0194,0.0745 l -0.0296,-0.07535 z m 0,0 20.04191,0.385379 a 10.084287,10.321918 60.708337 0 1 8.7e-4,0.0069 c -20.37186,2.016239 -19.95209,-0.03447 -19.95209,-0.03447 l -0.1101,-0.281248 a 10.084287,10.321918 60.708337 0 1 0.0193,-0.07441 z m 20.04269,0.390099 a 10.084287,10.321918 60.708337 0 0 -8.6e-4,-0.007 l 0.0419,8.41e-4 c -0.014,0.0018 -0.0269,0.0019 -0.0411,0.004 z m -16.3322,-6.02671 a 10.084287,10.321918 60.708337 0 1 14.3909,1.608538 10.084287,10.321918 60.708337 0 1 1.94052,4.413452 L 200.2261,64.815046 a 10.084287,10.321918 60.708337 0 1 3.71049,-5.636611 z" />
    <path
       d="M 221.89347,59.920629 221.6439,41.626307 a 4.995225,4.7841826 89.094901 0 1 2.96844,4.533556 l 0.12483,9.149253 a 4.995225,4.7841826 89.094901 0 1 -2.84369,4.611513 z"
       style="fill:#ffffff;stroke-width:0.105414"
       id="path10-5-3-2-9-4-9-7-0-7-8" />
    <path
       d="m 196.14817,46.542645 a 4.995225,4.7841826 89.094901 0 1 4.71569,-5.059157 l 7.88351,-0.106009 0.26108,19.138701 -7.8835,0.106009 a 4.995225,4.7841826 89.094901 0 1 -4.85196,-4.93029 z"
       style="fill:#ffffff;stroke-width:0.105414"
       id="path7-7-10-3-2-0-6-8-7-8-0" />
    <path
       d="m 216.90688,60.409956 -0.2611,-19.138703 3.1146,-0.04188 a 4.995225,4.7841826 89.094901 0 1 1.88352,0.39694 l 0.24957,18.294319 a 4.995225,4.7841826 89.094901 0 1 -1.87201,0.447442 z"
       style="fill:#ffffff;stroke-width:0.105414"
       id="path14-2-23-7-6-6-4-0-1-1-9" />
    <path
       d="m 208.74737,41.37747 4.99233,-0.06714 0.2611,19.138701 -4.99235,0.06714 z"
       style="fill:#ffffff;stroke-width:0.105414"
       id="path11-8-38-2-8-4-6-2-1-6-0" />
    <path
       d="m 214.0008,60.449035 -0.2611,-19.138701 2.90608,-0.03908 0.2611,19.138701 z"
       style="fill:#ffffff;stroke-width:0.105414"
       id="path13-5-5-2-5-8-1-5-4-4-7" />
    <path
       d="m 199.90974,50.308424 0.11011,0.281238 c 0,0 -0.41978,2.050704 19.9518,0.03464 a 10.084287,10.321918 60.708337 0 1 -3.85595,9.833839 10.084287,10.321918 60.708337 0 1 -14.3909,-1.608522 10.084287,10.321918 60.708337 0 1 -1.81506,-8.541076 z"
       style="fill:#ffffff;stroke-width:0.105414"
       id="path6-2-16-4-6-4-4-55-1-2-3" />
    <path
       id="path4-6-2-8-3-7-1-01-9-64-6"
       style="fill:#333333;stroke-width:0.105414"
       d="m 199.92896,50.234083 a 10.084287,10.321918 60.708337 0 0 -0.0194,0.07449 l -0.0296,-0.07535 z m 0,0 20.04192,0.385378 a 10.084287,10.321918 60.708337 0 1 8.7e-4,0.0069 c -20.37185,2.016237 -19.95209,-0.03447 -19.95209,-0.03447 l -0.10999,-0.281249 a 10.084287,10.321918 60.708337 0 1 0.0193,-0.07441 z m 20.0427,0.3901 a 10.084287,10.321918 60.708337 0 0 -8.5e-4,-0.0069 l 0.0417,8.4e-4 c -0.014,0.0018 -0.0269,0.0019 -0.0411,0.004 z m -16.33219,-6.026712 a 10.084287,10.321918 60.708337 0 1 14.39089,1.608538 10.084287,10.321918 60.708337 0 1 1.94052,4.413452 l -20.04192,-0.385378 a 10.084287,10.321918 60.708337 0 1 3.71051,-5.636612 z" />
  </g>
</svg>
