<?xml version="1.0" encoding="UTF-8" standalone="no"?>
<!-- Created with Inkscape (http://www.inkscape.org/) -->

<svg
   width="400mm"
   height="400mm"
   viewBox="0 0 400 400"
   version="1.1"
   id="svg1"
   inkscape:export-filename="..\..\..\..\..\..\Projects\puntal\assets\images\2d9fm.png"
   inkscape:export-xdpi="96"
   inkscape:export-ydpi="96"
   inkscape:version="1.3.2 (091e20e, 2023-11-25, custom)"
   sodipodi:docname="2d6 draft.svg"
   xmlns:inkscape="http://www.inkscape.org/namespaces/inkscape"
   xmlns:sodipodi="http://sodipodi.sourceforge.net/DTD/sodipodi-0.dtd"
   xmlns="http://www.w3.org/2000/svg"
   xmlns:svg="http://www.w3.org/2000/svg">
  <sodipodi:namedview
     id="namedview1"
     pagecolor="#505050"
     bordercolor="#eeeeee"
     borderopacity="1"
     inkscape:showpageshadow="0"
     inkscape:pageopacity="0"
     inkscape:pagecheckerboard="0"
     inkscape:deskcolor="#505050"
     inkscape:document-units="mm"
     inkscape:zoom="0.69219277"
     inkscape:cx="630.60468"
     inkscape:cy="374.89557"
     inkscape:window-width="1920"
     inkscape:window-height="1009"
     inkscape:window-x="1912"
     inkscape:window-y="-8"
     inkscape:window-maximized="1"
     inkscape:current-layer="layer1"
     showguides="false" />
  <defs
     id="defs1" />
  <g
     inkscape:label="Capa 1"
     inkscape:groupmode="layer"
     id="layer1">
    <path
       d="m 208.366,352.6412 h 15.28066 a 4.171965,4.0550641 0 0 1 -3.81937,2.4634 h -7.64208 a 4.171965,4.0550641 0 0 1 -3.81921,-2.4634 z"
       style="fill:#ffffff;stroke-width:0.0886927"
       id="path10-5-3-2-9-4-9-34" />
    <path
       d="m 219.82729,330.97625 a 4.171965,4.0550641 0 0 1 4.17201,4.05513 v 6.68265 h -15.98595 v -6.68265 a 4.171965,4.0550641 0 0 1 4.17186,-4.05513 z"
       style="fill:#ffffff;stroke-width:0.0886927"
       id="path7-7-10-3-2-0-6-0" />
    <path
       d="m 210.14191,316.79197 -0.0727,0.24659 c 0,0 -1.32857,1.16075 13.02122,10.43241 a 8.5778719,8.5901673 0 0 1 -7.5753,4.60471 8.5778719,8.5901673 0 0 1 -8.57793,-8.59015 8.5778719,8.5901673 0 0 1 3.20457,-6.69356 z"
       style="fill:#ffffff;stroke-width:0.0886927"
       id="path6-2-16-4-6-4-4-61" />
    <path
       id="path4-6-2-8-3-7-1-94"
       style="fill:#aa0000;stroke-width:0.0886927"
       d="m 210.1927,316.75196 a 8.5778719,8.5901673 0 0 0 -0.0508,0.0401 l 0.0193,-0.0661 z m 0,0 12.89981,10.71542 a 8.5778719,8.5901673 0 0 1 -0.003,0.004 c -14.34954,-9.27114 -13.02099,-10.43191 -13.02099,-10.43191 l 0.0727,-0.24661 a 8.5778719,8.5901673 0 0 1 0.0509,-0.04 z m 12.89789,10.71901 a 8.5778719,8.5901673 0 0 0 0.003,-0.006 l 0.0269,0.0223 c -0.0101,-0.006 -0.0185,-0.0128 -0.0289,-0.0188 z m -7.57533,-12.57559 a 8.5778719,8.5901673 0 0 1 8.5779,8.59015 8.5778719,8.5901673 0 0 1 -1.00065,3.98185 L 210.1927,316.75196 a 8.5778719,8.5901673 0 0 1 5.32256,-1.85658 z" />
    <path
       d="m 208.01335,348.4093 h 15.98595 v 2.64017 a 4.171965,4.0550641 0 0 1 -0.35264,1.59173 H 208.366 a 4.171965,4.0550641 0 0 1 -0.35265,-1.59173 z"
       style="fill:#333333;stroke-width:0.0886927"
       id="path14-2-23-7-6-6-4-3" />
    <path
       d="m 223.9993,341.71403 v 4.23189 h -15.98595 v -4.23189 z"
       style="fill:#333333;stroke-width:0.0886927"
       id="path11-8-38-2-8-4-6-31" />
    <path
       d="m 208.01335,345.94592 h 15.98595 v 2.46338 h -15.98595 z"
       style="fill:#aa0000;stroke-width:0.0886927"
       id="path13-5-5-2-5-8-1-95" />
    <path
       d="m 220.85316,377.34481 c -0.33627,-0.29379 -9.92291,-8.7828 -10.39738,-21.53838 v -1.48926 h 10.39738 z"
       style="fill:#ffffff;stroke-width:0.0741362"
       id="path21-0-72-1-8-9-0-5" />
    <path
       d="m 206.82289,338.35233 c -1.713,-0.14727 -9.92055,-1.15435 -12.18218,-7.08385 l 0.0173,-0.19642 18.03944,-0.0998 -0.64697,7.35118 z"
       style="fill:#ffffff;stroke-width:0.0886927"
       id="path18-7-6-5-2-1-0-5-90" />
    <path
       d="m 232.01132,352.64899 h 15.28066 a 4.171965,4.0550641 0 0 1 -3.81939,2.4634 h -7.64206 a 4.171965,4.0550641 0 0 1 -3.81921,-2.4634 z"
       style="fill:#ffffff;stroke-width:0.0886927"
       id="path10-5-3-2-9-4-9-31-9-9" />
    <path
       d="m 243.47259,330.98404 a 4.171965,4.0550641 0 0 1 4.17204,4.05513 v 6.68264 h -15.98597 v -6.68264 a 4.171965,4.0550641 0 0 1 4.17187,-4.05513 z"
       style="fill:#ffffff;stroke-width:0.0886927"
       id="path7-7-10-3-2-0-6-9-7-3" />
    <path
       d="m 233.78722,316.79976 -0.0727,0.2466 c 0,0 -1.32858,1.16075 13.02122,10.43239 a 8.5778719,8.5901673 0 0 1 -7.57531,4.60473 8.5778719,8.5901673 0 0 1 -8.57792,-8.59015 8.5778719,8.5901673 0 0 1 3.20458,-6.69357 z"
       style="fill:#ffffff;stroke-width:0.0886927"
       id="path6-2-16-4-6-4-4-57-8-7" />
    <path
       id="path4-6-2-8-3-7-1-7-6-7"
       style="fill:#aa0000;stroke-width:0.0886927"
       d="m 233.83802,316.75976 a 8.5778719,8.5901673 0 0 0 -0.0508,0.0401 l 0.0194,-0.0661 z m 0,0 12.8998,10.71541 a 8.5778719,8.5901673 0 0 1 -0.003,0.004 c -14.35017,-9.27116 -13.02161,-10.43194 -13.02161,-10.43194 l 0.0727,-0.2466 a 8.5778719,8.5901673 0 0 1 0.0509,-0.04 z m 12.89787,10.71899 a 8.5778719,8.5901673 0 0 0 0.003,-0.004 l 0.0269,0.0223 c -0.0101,-0.006 -0.0185,-0.0128 -0.0289,-0.0189 z m -7.57531,-12.57559 a 8.5778719,8.5901673 0 0 1 8.5779,8.59017 8.5778719,8.5901673 0 0 1 -1.00066,3.98184 l -12.8998,-10.71541 a 8.5778719,8.5901673 0 0 1 5.32256,-1.8566 z" />
    <path
       d="m 231.65866,348.4171 h 15.98597 v 2.64016 a 4.171965,4.0550641 0 0 1 -0.35265,1.59173 h -15.28066 a 4.171965,4.0550641 0 0 1 -0.35266,-1.59173 z"
       style="fill:#333333;stroke-width:0.0886927"
       id="path14-2-23-7-6-6-4-1-4-7" />
    <path
       d="m 247.64463,341.72181 v 4.23189 h -15.98597 v -4.23189 z"
       style="fill:#333333;stroke-width:0.0886927"
       id="path11-8-38-2-8-4-6-1-0-2" />
    <path
       d="m 231.65866,345.9537 h 15.98597 v 2.4634 h -15.98597 z"
       style="fill:#aa0000;stroke-width:0.0886927"
       id="path13-5-5-2-5-8-1-4-1-2" />
    <path
       d="m 244.49848,377.35261 c -0.33627,-0.2938 -9.9229,-8.78281 -10.39739,-21.53839 v -1.48925 h 10.39739 z"
       style="fill:#ffffff;stroke-width:0.0741362"
       id="path21-0-72-1-8-9-0-1-2-3" />
    <path
       d="m 255.03031,352.75247 h 15.28067 a 4.171965,4.0550641 0 0 1 -3.81939,2.46341 h -7.64207 a 4.171965,4.0550641 0 0 1 -3.81921,-2.46341 z"
       style="fill:#ffffff;stroke-width:0.0886927"
       id="path10-5-3-2-9-4-9-32-4-2" />
    <path
       d="m 266.49159,331.08753 a 4.171965,4.0550641 0 0 1 4.17202,4.05512 v 6.68264 h -15.98595 v -6.68264 a 4.171965,4.0550641 0 0 1 4.17186,-4.05512 z"
       style="fill:#ffffff;stroke-width:0.0886927"
       id="path7-7-10-3-2-0-6-67-4-7" />
    <path
       d="m 256.80622,316.90324 -0.0727,0.2466 c 0,0 -1.32857,1.16075 13.02123,10.4324 a 8.5778719,8.5901673 0 0 1 -7.57531,4.60472 8.5778719,8.5901673 0 0 1 -8.57793,-8.59015 8.5778719,8.5901673 0 0 1 3.20457,-6.69357 z"
       style="fill:#ffffff;stroke-width:0.0886927"
       id="path6-2-16-4-6-4-4-43-7-4" />
    <path
       id="path4-6-2-8-3-7-1-9-7-49"
       style="fill:#aa0000;stroke-width:0.0886927"
       d="m 256.85701,316.86324 a 8.5778719,8.5901673 0 0 0 -0.0508,0.0401 l 0.0193,-0.0661 z m 0,0 12.8998,10.71541 a 8.5778719,8.5901673 0 0 1 -0.003,0.004 C 255.40404,318.31113 256.7326,317.15037 256.7326,317.15037 l 0.0727,-0.24661 a 8.5778719,8.5901673 0 0 1 0.0509,-0.04 z m 12.89788,10.719 a 8.5778719,8.5901673 0 0 0 0.003,-0.004 l 0.0269,0.0223 c -0.0101,-0.006 -0.0185,-0.0128 -0.0289,-0.0189 z m -7.57532,-12.57559 a 8.5778719,8.5901673 0 0 1 8.57791,8.59016 8.5778719,8.5901673 0 0 1 -1.00067,3.98184 l -12.8998,-10.71541 a 8.5778719,8.5901673 0 0 1 5.32256,-1.85659 z" />
    <path
       d="m 254.67766,348.52058 h 15.98595 v 2.64018 a 4.171965,4.0550641 0 0 1 -0.35263,1.59171 h -15.28067 a 4.171965,4.0550641 0 0 1 -0.35265,-1.59171 z"
       style="fill:#333333;stroke-width:0.0886927"
       id="path14-2-23-7-6-6-4-9-7-2" />
    <path
       d="m 270.66361,341.82529 v 4.23189 h -15.98595 v -4.23189 z"
       style="fill:#333333;stroke-width:0.0886927"
       id="path11-8-38-2-8-4-6-5-7-8" />
    <path
       d="m 254.67766,346.05718 h 15.98595 v 2.4634 h -15.98595 z"
       style="fill:#aa0000;stroke-width:0.0886927"
       id="path13-5-5-2-5-8-1-8-4-7" />
    <path
       d="m 267.51747,377.45609 c -0.33627,-0.2938 -9.92289,-8.78281 -10.39739,-21.53839 v -1.48925 h 10.39739 z"
       style="fill:#ffffff;stroke-width:0.0741362"
       id="path21-0-72-1-8-9-0-33-8-12" />
    <path
       d="m 278.46535,352.7701 h 15.28067 a 4.171965,4.0550641 0 0 1 -3.81939,2.4634 h -7.64207 a 4.171965,4.0550641 0 0 1 -3.81921,-2.4634 z"
       style="fill:#ffffff;stroke-width:0.0886927"
       id="path10-5-3-2-9-4-9-9-2-5" />
    <path
       d="m 289.92663,331.10515 a 4.171965,4.0550641 0 0 1 4.17202,4.05513 v 6.68264 H 278.1127 v -6.68264 a 4.171965,4.0550641 0 0 1 4.17186,-4.05513 z"
       style="fill:#ffffff;stroke-width:0.0886927"
       id="path7-7-10-3-2-0-6-3-9-5" />
    <path
       d="m 280.24127,316.92086 -0.0727,0.24661 c 0,0 -1.32857,1.16073 13.02123,10.43239 a 8.5778719,8.5901673 0 0 1 -7.57531,4.60471 8.5778719,8.5901673 0 0 1 -8.57793,-8.59015 8.5778719,8.5901673 0 0 1 3.20458,-6.69356 z"
       style="fill:#ffffff;stroke-width:0.0886927"
       id="path6-2-16-4-6-4-4-6-0-7" />
    <path
       id="path4-6-2-8-3-7-1-2-1-0"
       style="fill:#aa0000;stroke-width:0.0886927"
       d="m 280.29206,316.88087 a 8.5778719,8.5901673 0 0 0 -0.0509,0.04 l 0.0193,-0.0661 z m 0,0 12.8998,10.71541 a 8.5778719,8.5901673 0 0 1 -0.003,0.004 c -14.34987,-9.27139 -13.02132,-10.43215 -13.02132,-10.43215 l 0.0727,-0.24661 a 8.5778719,8.5901673 0 0 1 0.0507,-0.0401 z m 12.89787,10.71899 a 8.5778719,8.5901673 0 0 0 0.003,-0.004 l 0.0269,0.0223 c -0.0101,-0.006 -0.0185,-0.0128 -0.0289,-0.0189 z m -7.57532,-12.57559 a 8.5778719,8.5901673 0 0 1 8.57791,8.59015 8.5778719,8.5901673 0 0 1 -1.00066,3.98186 l -12.8998,-10.71541 a 8.5778719,8.5901673 0 0 1 5.32255,-1.8566 z" />
    <path
       d="m 278.1127,348.5382 h 15.98595 v 2.64016 a 4.171965,4.0550641 0 0 1 -0.35263,1.59174 h -15.28067 a 4.171965,4.0550641 0 0 1 -0.35265,-1.59174 z"
       style="fill:#333333;stroke-width:0.0886927"
       id="path14-2-23-7-6-6-4-7-0-8" />
    <path
       d="m 294.09865,341.84292 v 4.23188 H 278.1127 v -4.23188 z"
       style="fill:#333333;stroke-width:0.0886927"
       id="path11-8-38-2-8-4-6-3-6-8" />
    <path
       d="m 278.1127,346.0748 h 15.98595 v 2.4634 H 278.1127 Z"
       style="fill:#aa0000;stroke-width:0.0886927"
       id="path13-5-5-2-5-8-1-7-1-9" />
    <path
       d="m 290.95251,377.47372 c -0.33627,-0.29381 -9.92289,-8.78282 -10.39739,-21.5384 v -1.48924 h 10.39739 z"
       style="fill:#ffffff;stroke-width:0.0741362"
       id="path21-0-72-1-8-9-0-601-8-2" />
    <path
       d="m 281.75175,340.52409 c -1.2764,1.27661 -7.60881,7.20551 -13.41933,5.32012 l -0.12951,-0.13608 12.25398,-14.47153 4.84583,5.09384 z"
       style="fill:#ffffff;stroke-width:0.0886927"
       id="path18-7-6-5-2-1-0-5-9-0-70" />
    <path
       d="m 257.35799,341.4825 c -1.27641,1.2766 -7.60881,7.2055 -13.41933,5.32012 l -0.1295,-0.13609 12.25398,-14.47152 4.84583,5.09384 z"
       style="fill:#ffffff;stroke-width:0.0886927"
       id="path18-7-6-5-2-1-0-5-9-0-38-0" />
    <path
       d="m 234.44364,341.6412 c -1.27641,1.2766 -7.60882,7.20551 -13.41934,5.32012 l -0.1295,-0.1361 12.25399,-14.47151 4.84582,5.09384 z"
       style="fill:#ffffff;stroke-width:0.0886927"
       id="path18-7-6-5-2-1-0-5-9-0-9-0" />
    <path
       d="M 0,0 V 400 M 2.6458333,0 V 400 M 5.2916666,0 V 400 M 7.9374999,0 V 400 M 10.583333,0 V 400 M 13.229167,0 V 400 M 15.875,0 V 400 M 18.520833,0 V 400 M 21.166667,0 V 400 M 23.8125,0 V 400 M 26.458333,0 V 400 M 29.104166,0 V 400 M 31.75,0 V 400 M 34.395833,0 V 400 M 37.041666,0 V 400 M 39.6875,0 V 400 M 42.333333,0 V 400 M 44.979166,0 V 400 M 47.625,0 V 400 M 50.270833,0 V 400 M 52.916666,0 V 400 M 55.5625,0 V 400 M 58.208333,0 V 400 M 60.854166,0 V 400 M 63.5,0 V 400 M 66.145833,0 V 400 M 68.791666,0 V 400 M 71.437499,0 V 400 M 74.083333,0 V 400 M 76.729166,0 V 400 M 79.374999,0 V 400 M 82.020833,0 V 400 M 84.666666,0 V 400 M 87.312499,0 V 400 M 89.958333,0 V 400 M 92.604166,0 V 400 M 95.249999,0 V 400 M 97.895833,0 V 400 M 100.54167,0 V 400 M 103.1875,0 V 400 M 105.83333,0 V 400 M 108.47917,0 V 400 M 111.125,0 V 400 M 113.77083,0 V 400 M 116.41667,0 V 400 M 119.0625,0 V 400 M 121.70833,0 V 400 M 124.35417,0 V 400 M 127,0 V 400 M 129.64583,0 V 400 M 132.29167,0 V 400 M 134.9375,0 V 400 M 137.58333,0 V 400 M 140.22917,0 V 400 M 142.875,0 V 400 M 145.52083,0 V 400 M 148.16667,0 V 400 M 150.8125,0 V 400 M 153.45833,0 V 400 M 156.10417,0 V 400 M 158.75,0 V 400 M 161.39583,0 V 400 M 164.04167,0 V 400 M 166.6875,0 V 400 M 169.33333,0 V 400 M 171.97917,0 V 400 M 174.625,0 V 400 M 177.27083,0 V 400 M 179.91667,0 V 400 M 182.5625,0 V 400 M 185.20833,0 V 400 M 187.85417,0 V 400 M 190.5,0 V 400 M 193.14583,0 V 400 M 195.79167,0 V 400 M 198.4375,0 V 400 M 201.08333,0 V 400 M 203.72917,0 V 400 M 206.375,0 V 400 M 209.02083,0 V 400 M 211.66667,0 V 400 M 214.3125,0 V 400 M 216.95833,0 V 400 M 219.60416,0 V 400 M 222.25,0 V 400 M 224.89583,0 V 400 M 227.54166,0 V 400 M 230.1875,0 V 400 M 232.83333,0 V 400 M 235.47916,0 V 400 M 238.125,0 V 400 M 240.77083,0 V 400 M 243.41666,0 V 400 M 246.0625,0 V 400 M 248.70833,0 V 400 M 251.35416,0 V 400 M 254,0 V 400 M 256.64583,0 V 400 M 259.29166,0 V 400 M 261.9375,0 V 400 M 264.58333,0 V 400 M 267.22916,0 V 400 M 269.875,0 V 400 M 272.52083,0 V 400 M 275.16666,0 V 400 M 277.8125,0 V 400 M 280.45833,0 V 400 M 283.10416,0 V 400 M 285.75,0 V 400 M 288.39583,0 V 400 M 291.04166,0 V 400 M 293.6875,0 V 400 M 296.33333,0 V 400 M 298.97916,0 V 400 M 301.625,0 V 400 M 304.27083,0 V 400 M 306.91666,0 V 400 M 309.5625,0 V 400 M 312.20833,0 V 400 M 314.85416,0 V 400 M 317.5,0 V 400 M 320.14583,0 V 400 M 322.79166,0 V 400 M 325.4375,0 V 400 M 328.08333,0 V 400 M 330.72916,0 V 400 M 333.375,0 V 400 M 336.02083,0 V 400 M 338.66666,0 V 400 M 341.3125,0 V 400 M 343.95833,0 V 400 M 346.60416,0 V 400 M 349.25,0 V 400 M 351.89583,0 V 400 M 354.54166,0 V 400 M 357.1875,0 V 400 M 359.83333,0 V 400 M 362.47916,0 V 400 M 365.125,0 V 400 M 367.77083,0 V 400 M 370.41666,0 V 400 M 373.0625,0 V 400 M 375.70833,0 V 400 M 378.35416,0 V 400 M 381,0 V 400 M 383.64583,0 V 400 M 386.29166,0 V 400 M 388.9375,0 V 400 M 391.58333,0 V 400 M 394.22916,0 V 400 M 396.875,0 V 400 M 399.52083,0 V 400 M 0,0 H 400 M 0,2.6458333 H 400 M 0,5.2916666 H 400 M 0,7.9374999 H 400 M 0,10.583333 H 400 M 0,13.229167 H 400 M 0,15.875 H 400 M 0,18.520833 H 400 M 0,21.166667 H 400 M 0,23.8125 H 400 M 0,26.458333 H 400 M 0,29.104166 H 400 M 0,31.75 H 400 M 0,34.395833 H 400 M 0,37.041666 H 400 M 0,39.6875 H 400 M 0,42.333333 H 400 M 0,44.979166 H 400 M 0,47.625 H 400 M 0,50.270833 H 400 M 0,52.916666 H 400 M 0,55.5625 H 400 M 0,58.208333 H 400 M 0,60.854166 H 400 M 0,63.5 H 400 M 0,66.145833 H 400 M 0,68.791666 H 400 M 0,71.437499 H 400 M 0,74.083333 H 400 M 0,76.729166 H 400 M 0,79.374999 H 400 M 0,82.020833 H 400 M 0,84.666666 H 400 M 0,87.312499 H 400 M 0,89.958333 H 400 M 0,92.604166 H 400 M 0,95.249999 H 400 M 0,97.895833 H 400 M 0,100.54167 H 400 M 0,103.1875 H 400 M 0,105.83333 H 400 M 0,108.47917 H 400 M 0,111.125 H 400 M 0,113.77083 H 400 M 0,116.41667 H 400 M 0,119.0625 H 400 M 0,121.70833 H 400 M 0,124.35417 H 400 M 0,127 H 400 M 0,129.64583 H 400 M 0,132.29167 H 400 M 0,134.9375 H 400 M 0,137.58333 H 400 M 0,140.22917 H 400 M 0,142.875 H 400 M 0,145.52083 H 400 M 0,148.16667 H 400 M 0,150.8125 H 400 M 0,153.45833 H 400 M 0,156.10417 H 400 M 0,158.75 H 400 M 0,161.39583 H 400 M 0,164.04167 H 400 M 0,166.6875 H 400 M 0,169.33333 H 400 M 0,171.97917 H 400 M 0,174.625 H 400 M 0,177.27083 H 400 M 0,179.91667 H 400 M 0,182.5625 H 400 M 0,185.20833 H 400 M 0,187.85417 H 400 M 0,190.5 H 400 M 0,193.14583 H 400 M 0,195.79167 H 400 M 0,198.4375 H 400 M 0,201.08333 H 400 M 0,203.72917 H 400 M 0,206.375 H 400 M 0,209.02083 H 400 M 0,211.66667 H 400 M 0,214.3125 H 400 M 0,216.95833 H 400 M 0,219.60416 H 400 M 0,222.25 H 400 M 0,224.89583 H 400 M 0,227.54166 H 400 M 0,230.1875 H 400 M 0,232.83333 H 400 M 0,235.47916 H 400 M 0,238.125 H 400 M 0,240.77083 H 400 M 0,243.41666 H 400 M 0,246.0625 H 400 M 0,248.70833 H 400 M 0,251.35416 H 400 M 0,254 H 400 M 0,256.64583 H 400 M 0,259.29166 H 400 M 0,261.9375 H 400 M 0,264.58333 H 400 M 0,267.22916 H 400 M 0,269.875 H 400 M 0,272.52083 H 400 M 0,275.16666 H 400 M 0,277.8125 H 400 M 0,280.45833 H 400 M 0,283.10416 H 400 M 0,285.75 H 400 M 0,288.39583 H 400 M 0,291.04166 H 400 M 0,293.6875 H 400 M 0,296.33333 H 400 M 0,298.97916 H 400 M 0,301.625 H 400 M 0,304.27083 H 400 M 0,306.91666 H 400 M 0,309.5625 H 400 M 0,312.20833 H 400 M 0,314.85416 H 400 M 0,317.5 H 400 M 0,320.14583 H 400 M 0,322.79166 H 400 M 0,325.4375 H 400 M 0,328.08333 H 400 M 0,330.72916 H 400 M 0,333.375 H 400 M 0,336.02083 H 400 M 0,338.66666 H 400 M 0,341.3125 H 400 M 0,343.95833 H 400 M 0,346.60416 H 400 M 0,349.25 H 400 M 0,351.89583 H 400 M 0,354.54166 H 400 M 0,357.1875 H 400 M 0,359.83333 H 400 M 0,362.47916 H 400 M 0,365.125 H 400 M 0,367.77083 H 400 M 0,370.41666 H 400 M 0,373.0625 H 400 M 0,375.70833 H 400 M 0,378.35416 H 400 M 0,381 H 400 M 0,383.64583 H 400 M 0,386.29166 H 400 M 0,388.9375 H 400 M 0,391.58333 H 400 M 0,394.22916 H 400 M 0,396.875 H 400 M 0,399.52083 h 400"
       style="display:none;fill:none;stroke:#000000;stroke-width:0.264583px"
       id="path1" />
    <path
       d="m 207.66321,308.96538 h 15.28067 a 4.171965,4.0550641 0 0 1 -3.81939,2.46341 h -7.64207 a 4.171965,4.0550641 0 0 1 -3.81921,-2.46341 z"
       style="fill:#ffffff;stroke-width:0.0886927"
       id="path10-5-3-2-9-4-9" />
    <path
       d="m 219.12449,287.30044 a 4.171965,4.0550641 0 0 1 4.17202,4.05513 v 6.68265 h -15.98595 v -6.68265 a 4.171965,4.0550641 0 0 1 4.17186,-4.05513 z"
       style="fill:#ffffff;stroke-width:0.0886927"
       id="path7-7-10-3-2-0-6" />
    <path
       d="m 209.43913,273.11615 -0.0727,0.24659 c 0,0 -1.32856,1.16075 13.02123,10.43241 a 8.5778719,8.5901673 0 0 1 -7.57531,4.60472 8.5778719,8.5901673 0 0 1 -8.57792,-8.59016 8.5778719,8.5901673 0 0 1 3.20457,-6.69356 z"
       style="fill:#ffffff;stroke-width:0.0886927"
       id="path6-2-16-4-6-4-4" />
    <path
       id="path4-6-2-8-3-7-1"
       style="fill:#aa0000;stroke-width:0.0886927"
       d="m 209.48992,273.07615 a 8.5778719,8.5901673 0 0 0 -0.0509,0.0401 l 0.0194,-0.0661 z m 0,0 12.89981,10.71542 a 8.5778719,8.5901673 0 0 1 -0.003,0.004 c -14.34991,-9.27065 -13.02135,-10.43143 -13.02135,-10.43143 l 0.0727,-0.2466 a 8.5778719,8.5901673 0 0 1 0.0509,-0.0401 z m 12.89787,10.719 a 8.5778719,8.5901673 0 0 0 0.003,-0.006 l 0.0269,0.0223 c -0.0101,-0.006 -0.0185,-0.0128 -0.0289,-0.0189 z m -7.57532,-12.57559 a 8.5778719,8.5901673 0 0 1 8.57791,8.59015 8.5778719,8.5901673 0 0 1 -1.00065,3.98186 l -12.89981,-10.71542 a 8.5778719,8.5901673 0 0 1 5.32255,-1.85659 z" />
    <path
       d="m 207.31056,304.73349 h 15.98595 v 2.64016 a 4.171965,4.0550641 0 0 1 -0.35263,1.59173 h -15.28067 a 4.171965,4.0550641 0 0 1 -0.35265,-1.59173 z"
       style="fill:#333333;stroke-width:0.0886927"
       id="path14-2-23-7-6-6-4" />
    <path
       d="m 223.29651,298.03822 v 4.23188 h -15.98595 v -4.23188 z"
       style="fill:#333333;stroke-width:0.0886927"
       id="path11-8-38-2-8-4-6" />
    <path
       d="m 207.31056,302.2701 h 15.98595 v 2.46339 h -15.98595 z"
       style="fill:#aa0000;stroke-width:0.0886927"
       id="path13-5-5-2-5-8-1" />
    <path
       d="m 220.15038,333.669 c -0.33628,-0.29379 -9.92291,-8.7828 -10.39739,-21.53838 v -1.48926 h 10.39739 z"
       style="fill:#ffffff;stroke-width:0.0741362"
       id="path21-0-72-1-8-9-0" />
    <path
       d="m 206.12011,294.67652 c -1.71301,-0.14727 -9.92057,-1.15436 -12.18218,-7.08386 l 0.0173,-0.19641 18.03943,-0.0999 -0.64695,7.35118 z"
       style="fill:#ffffff;stroke-width:0.0886927"
       id="path18-7-6-5-2-1-0-5" />
    <path
       d="m 207.75037,266.26445 h 15.28069 a 4.171965,4.0550641 0 0 1 -3.8194,2.4634 h -7.64208 a 4.171965,4.0550641 0 0 1 -3.81921,-2.4634 z"
       style="fill:#ffffff;stroke-width:0.0886927"
       id="path10-5-3-2-9-4-9-2" />
    <path
       d="m 219.21166,244.59949 a 4.171965,4.0550641 0 0 1 4.17202,4.05512 v 6.68265 h -15.98595 v -6.68265 a 4.171965,4.0550641 0 0 1 4.17185,-4.05512 z"
       style="fill:#ffffff;stroke-width:0.0886927"
       id="path7-7-10-3-2-0-6-6" />
    <path
       d="m 209.5263,230.41521 -0.0727,0.24659 c 0,0 -1.32857,1.16076 13.02122,10.43241 a 8.5778719,8.5901673 0 0 1 -7.57532,4.60471 8.5778719,8.5901673 0 0 1 -8.57793,-8.59015 8.5778719,8.5901673 0 0 1 3.20459,-6.69356 z"
       style="fill:#ffffff;stroke-width:0.0886927"
       id="path6-2-16-4-6-4-4-5" />
    <path
       id="path4-6-2-8-3-7-1-0"
       style="fill:#aa0000;stroke-width:0.0886927"
       d="m 209.57709,230.37522 a 8.5778719,8.5901673 0 0 0 -0.0509,0.0401 l 0.0194,-0.0661 z m 0,0 12.8998,10.7154 a 8.5778719,8.5901673 0 0 1 -0.003,0.004 C 208.12373,231.8236 209.4523,230.66284 209.4523,230.66284 l 0.0727,-0.2466 a 8.5778719,8.5901673 0 0 1 0.0509,-0.0401 z m 12.89789,10.71899 a 8.5778719,8.5901673 0 0 0 0.003,-0.004 l 0.0269,0.0223 c -0.0101,-0.006 -0.0185,-0.0128 -0.0289,-0.0189 z m -7.57533,-12.57559 a 8.5778719,8.5901673 0 0 1 8.5779,8.59015 8.5778719,8.5901673 0 0 1 -1.00066,3.98185 l -12.8998,-10.7154 a 8.5778719,8.5901673 0 0 1 5.32256,-1.8566 z" />
    <path
       d="m 207.39773,262.03255 h 15.98595 v 2.64017 a 4.171965,4.0550641 0 0 1 -0.35262,1.59173 h -15.28069 a 4.171965,4.0550641 0 0 1 -0.35264,-1.59173 z"
       style="fill:#333333;stroke-width:0.0886927"
       id="path14-2-23-7-6-6-4-8" />
    <path
       d="m 223.38368,255.33726 v 4.2319 h -15.98595 v -4.2319 z"
       style="fill:#333333;stroke-width:0.0886927"
       id="path11-8-38-2-8-4-6-8" />
    <path
       d="m 207.39773,259.56916 h 15.98595 v 2.46339 h -15.98595 z"
       style="fill:#aa0000;stroke-width:0.0886927"
       id="path13-5-5-2-5-8-1-9" />
    <path
       d="m 220.23755,290.96804 c -0.33628,-0.29378 -9.9229,-8.7828 -10.39738,-21.53838 v -1.48923 h 10.39738 z"
       style="fill:#ffffff;stroke-width:0.0741362"
       id="path21-0-72-1-8-9-0-6" />
    <path
       d="m 207.30727,223.13281 h 15.28066 a 4.171965,4.0550641 0 0 1 -3.81938,2.46341 h -7.64207 a 4.171965,4.0550641 0 0 1 -3.81921,-2.46341 z"
       style="fill:#ffffff;stroke-width:0.0886927"
       id="path10-5-3-2-9-4-9-3" />
    <path
       d="m 218.76855,201.46787 a 4.171965,4.0550641 0 0 1 4.17203,4.05512 v 6.68265 h -15.98597 v -6.68265 a 4.171965,4.0550641 0 0 1 4.17187,-4.05512 z"
       style="fill:#ffffff;stroke-width:0.0886927"
       id="path7-7-10-3-2-0-6-2" />
    <path
       d="m 209.0832,187.28358 -0.0727,0.2466 c 0,0 -1.32856,1.16076 13.02122,10.43241 a 8.5778719,8.5901673 0 0 1 -7.57532,4.60471 8.5778719,8.5901673 0 0 1 -8.57793,-8.59014 8.5778719,8.5901673 0 0 1 3.20458,-6.69358 z"
       style="fill:#ffffff;stroke-width:0.0886927"
       id="path6-2-16-4-6-4-4-3" />
    <path
       id="path4-6-2-8-3-7-1-8"
       style="fill:#aa0000;stroke-width:0.0886927"
       d="m 209.13397,187.24359 a 8.5778719,8.5901673 0 0 0 -0.0509,0.04 l 0.0194,-0.0661 z m 0,0 12.8998,10.71541 a 8.5778719,8.5901673 0 0 1 -0.003,0.004 c -14.34953,-9.27115 -13.02099,-10.43191 -13.02099,-10.43191 l 0.0727,-0.24662 a 8.5778719,8.5901673 0 0 1 0.0507,-0.0401 z m 12.89789,10.719 a 8.5778719,8.5901673 0 0 0 0.003,-0.004 l 0.0269,0.0223 c -0.0101,-0.006 -0.0185,-0.0128 -0.0288,-0.0189 z M 214.45653,185.387 a 8.5778719,8.5901673 0 0 1 8.57791,8.59016 8.5778719,8.5901673 0 0 1 -1.00067,3.98184 l -12.8998,-10.71541 a 8.5778719,8.5901673 0 0 1 5.32256,-1.85659 z" />
    <path
       d="m 206.95461,218.90093 h 15.98597 v 2.64016 a 4.171965,4.0550641 0 0 1 -0.35265,1.59172 h -15.28066 a 4.171965,4.0550641 0 0 1 -0.35266,-1.59172 z"
       style="fill:#333333;stroke-width:0.0886927"
       id="path14-2-23-7-6-6-4-5" />
    <path
       d="m 222.94058,212.20564 v 4.2319 h -15.98597 v -4.2319 z"
       style="fill:#333333;stroke-width:0.0886927"
       id="path11-8-38-2-8-4-6-87" />
    <path
       d="m 206.95461,216.43754 h 15.98597 v 2.46339 h -15.98597 z"
       style="fill:#aa0000;stroke-width:0.0886927"
       id="path13-5-5-2-5-8-1-0" />
    <path
       d="m 219.79445,247.83643 c -0.3363,-0.2938 -9.92293,-8.78281 -10.3974,-21.53839 v -1.48925 h 10.3974 z"
       style="fill:#ffffff;stroke-width:0.0741362"
       id="path21-0-72-1-8-9-0-3" />
    <path
       d="m 207.7624,181.7816 h 15.28068 a 4.171965,4.0550641 0 0 1 -3.81939,2.46341 h -7.64208 a 4.171965,4.0550641 0 0 1 -3.81921,-2.46341 z"
       style="fill:#ffffff;stroke-width:0.0886927"
       id="path10-5-3-2-9-4-9-6" />
    <path
       d="m 219.22369,160.11665 a 4.171965,4.0550641 0 0 1 4.17202,4.05512 v 6.68266 h -15.98595 v -6.68266 a 4.171965,4.0550641 0 0 1 4.17185,-4.05512 z"
       style="fill:#ffffff;stroke-width:0.0886927"
       id="path7-7-10-3-2-0-6-7" />
    <path
       d="m 209.53832,145.93236 -0.0727,0.24659 c 0,0 -1.32856,1.16075 13.02122,10.4324 a 8.5778719,8.5901673 0 0 1 -7.57531,4.60472 8.5778719,8.5901673 0 0 1 -8.57793,-8.59015 8.5778719,8.5901673 0 0 1 3.20458,-6.69356 z"
       style="fill:#ffffff;stroke-width:0.0886927"
       id="path6-2-16-4-6-4-4-4" />
    <path
       id="path4-6-2-8-3-7-1-09"
       style="fill:#aa0000;stroke-width:0.0886927"
       d="m 209.5891,145.89237 a 8.5778719,8.5901673 0 0 0 -0.0508,0.0401 l 0.0193,-0.0661 z m 0,0 12.89981,10.71541 a 8.5778719,8.5901673 0 0 1 -0.003,0.005 c -14.34989,-9.27139 -13.02134,-10.43217 -13.02134,-10.43217 l 0.0727,-0.2466 a 8.5778719,8.5901673 0 0 1 0.0507,-0.0401 z m 12.89789,10.71898 a 8.5778719,8.5901673 0 0 0 0.003,-0.004 l 0.0269,0.0223 c -0.0101,-0.006 -0.0185,-0.0128 -0.0289,-0.0189 z m -7.57533,-12.57559 a 8.5778719,8.5901673 0 0 1 8.57791,8.59016 8.5778719,8.5901673 0 0 1 -1.00066,3.98186 L 209.5891,145.89237 a 8.5778719,8.5901673 0 0 1 5.32256,-1.85661 z" />
    <path
       d="m 207.40976,177.54971 h 15.98595 v 2.64016 a 4.171965,4.0550641 0 0 1 -0.35263,1.59173 H 207.7624 a 4.171965,4.0550641 0 0 1 -0.35264,-1.59173 z"
       style="fill:#333333;stroke-width:0.0886927"
       id="path14-2-23-7-6-6-4-82" />
    <path
       d="m 223.39571,170.85443 v 4.23189 h -15.98595 v -4.23189 z"
       style="fill:#333333;stroke-width:0.0886927"
       id="path11-8-38-2-8-4-6-4" />
    <path
       d="m 207.40976,175.08632 h 15.98595 v 2.46339 h -15.98595 z"
       style="fill:#aa0000;stroke-width:0.0886927"
       id="path13-5-5-2-5-8-1-02" />
    <path
       d="m 220.24957,206.48521 c -0.33628,-0.2938 -9.92291,-8.78281 -10.39739,-21.5384 v -1.48923 h 10.39739 z"
       style="fill:#ffffff;stroke-width:0.0741362"
       id="path21-0-72-1-8-9-0-60" />
    <path
       d="m 207.41001,137.96525 h 15.28068 a 4.171965,4.0550641 0 0 1 -3.81939,2.46342 h -7.64207 a 4.171965,4.0550641 0 0 1 -3.81922,-2.46342 z"
       style="fill:#ffffff;stroke-width:0.0886927"
       id="path10-5-3-2-9-4-9-7" />
    <path
       d="m 218.8713,116.30031 a 4.171965,4.0550641 0 0 1 4.17202,4.05511 v 6.68265 h -15.98596 v -6.68265 a 4.171965,4.0550641 0 0 1 4.17187,-4.05511 z"
       style="fill:#ffffff;stroke-width:0.0886927"
       id="path7-7-10-3-2-0-6-8" />
    <path
       d="m 209.18595,102.11602 -0.0727,0.24661 c 0,0 -1.32857,1.16074 13.02123,10.43239 a 8.5778719,8.5901673 0 0 1 -7.57532,4.60471 8.5778719,8.5901673 0 0 1 -8.57792,-8.59015 8.5778719,8.5901673 0 0 1 3.20457,-6.69356 z"
       style="fill:#ffffff;stroke-width:0.0886927"
       id="path6-2-16-4-6-4-4-55" />
    <path
       id="path4-6-2-8-3-7-1-01"
       style="fill:#aa0000;stroke-width:0.0886927"
       d="m 209.23672,102.07604 a 8.5778719,8.5901673 0 0 0 -0.0509,0.04 l 0.0194,-0.0661 z m 0,0 12.89981,10.7154 a 8.5778719,8.5901673 0 0 1 -0.003,0.006 C 207.784,103.52592 209.11255,102.36515 209.11255,102.36515 l 0.0727,-0.24661 a 8.5778719,8.5901673 0 0 1 0.0507,-0.0401 z m 12.89788,10.71898 a 8.5778719,8.5901673 0 0 0 0.003,-0.006 l 0.0269,0.0223 c -0.0101,-0.006 -0.0184,-0.0128 -0.0288,-0.0187 z m -7.57533,-12.5756 a 8.5778719,8.5901673 0 0 1 8.57792,8.59016 8.5778719,8.5901673 0 0 1 -1.00066,3.98186 l -12.89981,-10.7154 a 8.5778719,8.5901673 0 0 1 5.32255,-1.85662 z" />
    <path
       d="m 207.05736,133.73337 h 15.98596 v 2.64015 a 4.171965,4.0550641 0 0 1 -0.35263,1.59173 h -15.28068 a 4.171965,4.0550641 0 0 1 -0.35265,-1.59173 z"
       style="fill:#333333;stroke-width:0.0886927"
       id="path14-2-23-7-6-6-4-0" />
    <path
       d="m 223.04332,127.03807 v 4.2319 h -15.98596 v -4.2319 z"
       style="fill:#333333;stroke-width:0.0886927"
       id="path11-8-38-2-8-4-6-2" />
    <path
       d="m 207.05736,131.26997 h 15.98596 v 2.4634 h -15.98596 z"
       style="fill:#aa0000;stroke-width:0.0886927"
       id="path13-5-5-2-5-8-1-5" />
    <path
       d="m 219.89719,162.66886 c -0.33629,-0.29379 -9.92291,-8.78281 -10.39738,-21.53837 v -1.48925 h 10.39738 z"
       style="fill:#ffffff;stroke-width:0.0741362"
       id="path21-0-72-1-8-9-0-9" />
    <path
       d="m 209.96624,110.51109 c 0.1795,-1.85359 1.31733,-10.726996 6.84022,-13.027759 l 0.18059,0.0238 -0.36867,19.561999 -6.75894,-0.88923 z"
       style="fill:#ffffff;stroke-width:0.0886927"
       id="path18-7-6-5-2-1-0-5-5" />
    <path
       d="m 207.40888,95.894511 h 15.28066 a 4.171965,4.0550641 0 0 1 -3.81938,2.463406 h -7.64208 a 4.171965,4.0550641 0 0 1 -3.8192,-2.463406 z"
       style="fill:#ffffff;stroke-width:0.0886927"
       id="path10-5-3-2-9-4-9-7-0" />
    <path
       d="m 218.87016,74.22957 a 4.171965,4.0550641 0 0 1 4.17203,4.055119 v 6.68265 h -15.98596 v -6.68265 a 4.171965,4.0550641 0 0 1 4.17185,-4.055119 z"
       style="fill:#ffffff;stroke-width:0.0886927"
       id="path7-7-10-3-2-0-6-8-7" />
    <path
       d="m 209.1848,60.045285 -0.0727,0.246594 c 0,0 -1.32855,1.160749 13.02123,10.4324 a 8.5778719,8.5901673 0 0 1 -7.57531,4.604713 8.5778719,8.5901673 0 0 1 -8.57793,-8.590154 8.5778719,8.5901673 0 0 1 3.20457,-6.693553 z"
       style="fill:#ffffff;stroke-width:0.0886927"
       id="path6-2-16-4-6-4-4-55-1" />
    <path
       id="path4-6-2-8-3-7-1-01-9"
       style="fill:#333333;stroke-width:0.0886927"
       d="m 209.23558,60.005296 a 8.5778719,8.5901673 0 0 0 -0.051,0.04002 l 0.0194,-0.06615 z m 0,0 12.8998,10.7154 a 8.5778719,8.5901673 0 0 1 -0.003,0.0051 c -14.34965,-9.271619 -13.0211,-10.432388 -13.0211,-10.432388 l 0.0727,-0.246605 a 8.5778719,8.5901673 0 0 1 0.0508,-0.04002 z m 12.89789,10.718983 a 8.5778719,8.5901673 0 0 0 0.003,-0.0051 l 0.0269,0.02236 c -0.0101,-0.0062 -0.0185,-0.01276 -0.0289,-0.01878 z m -7.57533,-12.575595 a 8.5778719,8.5901673 0 0 1 8.57791,8.590154 8.5778719,8.5901673 0 0 1 -1.00067,3.981858 l -12.8998,-10.7154 a 8.5778719,8.5901673 0 0 1 5.32256,-1.856612 z" />
    <path
       d="m 207.05623,91.662625 h 15.98596 v 2.640157 a 4.171965,4.0550641 0 0 1 -0.35265,1.591729 h -15.28066 a 4.171965,4.0550641 0 0 1 -0.35265,-1.591729 z"
       style="fill:#333333;stroke-width:0.0886927"
       id="path14-2-23-7-6-6-4-0-1" />
    <path
       d="m 223.04219,84.967339 v 4.23188 h -15.98596 v -4.23188 z"
       style="fill:#333333;stroke-width:0.0886927"
       id="path11-8-38-2-8-4-6-2-1" />
    <path
       d="m 207.05623,89.199219 h 15.98596 v 2.463406 h -15.98596 z"
       style="fill:#aa0000;stroke-width:0.0886927"
       id="path13-5-5-2-5-8-1-5-4" />
    <path
       d="m 219.89604,120.59814 c -0.33628,-0.29381 -9.92291,-8.78283 -10.39738,-21.538407 V 97.5705 h 10.39738 z"
       style="fill:#ffffff;stroke-width:0.0741362"
       id="path21-0-72-1-8-9-0-9-7" />
    <path
       d="m 231.30853,308.97317 h 15.28066 a 4.171965,4.0550641 0 0 1 -3.81938,2.46341 h -7.64207 a 4.171965,4.0550641 0 0 1 -3.81921,-2.46341 z"
       style="fill:#ffffff;stroke-width:0.0886927"
       id="path10-5-3-2-9-4-9-31-9" />
    <path
       d="m 242.76981,287.30823 a 4.171965,4.0550641 0 0 1 4.17203,4.05513 v 6.68264 h -15.98596 v -6.68264 a 4.171965,4.0550641 0 0 1 4.17186,-4.05513 z"
       style="fill:#ffffff;stroke-width:0.0886927"
       id="path7-7-10-3-2-0-6-9-7" />
    <path
       d="m 233.08445,273.12395 -0.0727,0.24659 c 0,0 -1.32857,1.16076 13.02122,10.4324 a 8.5778719,8.5901673 0 0 1 -7.57532,4.60473 8.5778719,8.5901673 0 0 1 -8.57793,-8.59017 8.5778719,8.5901673 0 0 1 3.20458,-6.69355 z"
       style="fill:#ffffff;stroke-width:0.0886927"
       id="path6-2-16-4-6-4-4-57-8" />
    <path
       id="path4-6-2-8-3-7-1-7-6"
       style="fill:#aa0000;stroke-width:0.0886927"
       d="m 233.13523,273.08395 a 8.5778719,8.5901673 0 0 0 -0.0508,0.04 l 0.0194,-0.0661 z m 0,0 12.89981,10.71541 a 8.5778719,8.5901673 0 0 1 -0.003,0.004 c -14.34979,-9.27152 -13.02123,-10.43228 -13.02123,-10.43228 l 0.0727,-0.24662 a 8.5778719,8.5901673 0 0 1 0.0508,-0.0401 z m 12.89788,10.71899 a 8.5778719,8.5901673 0 0 0 0.003,-0.004 l 0.0269,0.0223 c -0.0101,-0.006 -0.0185,-0.0128 -0.0288,-0.0189 z m -7.57532,-12.57559 a 8.5778719,8.5901673 0 0 1 8.57791,8.59015 8.5778719,8.5901673 0 0 1 -1.00066,3.98186 l -12.89981,-10.71541 a 8.5778719,8.5901673 0 0 1 5.32256,-1.8566 z" />
    <path
       d="m 230.95588,304.74128 h 15.98596 v 2.64016 a 4.171965,4.0550641 0 0 1 -0.35265,1.59173 h -15.28066 a 4.171965,4.0550641 0 0 1 -0.35265,-1.59173 z"
       style="fill:#333333;stroke-width:0.0886927"
       id="path14-2-23-7-6-6-4-1-4" />
    <path
       d="m 246.94184,298.046 v 4.23188 H 230.95588 V 298.046 Z"
       style="fill:#333333;stroke-width:0.0886927"
       id="path11-8-38-2-8-4-6-1-0" />
    <path
       d="m 230.95588,302.27788 h 15.98596 v 2.4634 h -15.98596 z"
       style="fill:#aa0000;stroke-width:0.0886927"
       id="path13-5-5-2-5-8-1-4-1" />
    <path
       d="m 243.7957,333.6768 c -0.33629,-0.2938 -9.92291,-8.78281 -10.3974,-21.53839 v -1.48925 h 10.3974 z"
       style="fill:#ffffff;stroke-width:0.0741362"
       id="path21-0-72-1-8-9-0-1-2" />
    <path
       d="m 254.32753,309.07665 h 15.28065 a 4.171965,4.0550641 0 0 1 -3.81938,2.46342 h -7.64207 a 4.171965,4.0550641 0 0 1 -3.8192,-2.46342 z"
       style="fill:#ffffff;stroke-width:0.0886927"
       id="path10-5-3-2-9-4-9-32-4" />
    <path
       d="m 265.7888,287.41172 a 4.171965,4.0550641 0 0 1 4.17203,4.05512 v 6.68264 h -15.98596 v -6.68264 a 4.171965,4.0550641 0 0 1 4.17186,-4.05512 z"
       style="fill:#ffffff;stroke-width:0.0886927"
       id="path7-7-10-3-2-0-6-67-4" />
    <path
       d="m 256.10344,273.22743 -0.0727,0.24659 c 0,0 -1.32857,1.16076 13.02123,10.43241 a 8.5778719,8.5901673 0 0 1 -7.57531,4.60472 8.5778719,8.5901673 0 0 1 -8.57793,-8.59017 8.5778719,8.5901673 0 0 1 3.20457,-6.69355 z"
       style="fill:#ffffff;stroke-width:0.0886927"
       id="path6-2-16-4-6-4-4-43-7" />
    <path
       id="path4-6-2-8-3-7-1-9-7"
       style="fill:#aa0000;stroke-width:0.0886927"
       d="m 256.15423,273.18743 a 8.5778719,8.5901673 0 0 0 -0.0509,0.0401 l 0.0194,-0.0661 z m 0,0 12.8998,10.71541 a 8.5778719,8.5901673 0 0 1 -0.003,0.004 C 254.70126,274.63532 256.0298,273.47456 256.0298,273.47456 l 0.0727,-0.24662 a 8.5778719,8.5901673 0 0 1 0.0509,-0.04 z m 12.89788,10.719 a 8.5778719,8.5901673 0 0 0 0.003,-0.004 l 0.0269,0.0223 c -0.0101,-0.006 -0.0185,-0.0128 -0.0289,-0.0189 z m -7.57532,-12.57559 a 8.5778719,8.5901673 0 0 1 8.5779,8.59014 8.5778719,8.5901673 0 0 1 -1.00066,3.98186 l -12.8998,-10.71541 a 8.5778719,8.5901673 0 0 1 5.32256,-1.85659 z" />
    <path
       d="m 253.97487,304.84478 h 15.98596 v 2.64015 a 4.171965,4.0550641 0 0 1 -0.35265,1.59172 h -15.28065 a 4.171965,4.0550641 0 0 1 -0.35266,-1.59172 z"
       style="fill:#333333;stroke-width:0.0886927"
       id="path14-2-23-7-6-6-4-9-7" />
    <path
       d="m 269.96083,298.14948 v 4.23188 h -15.98596 v -4.23188 z"
       style="fill:#333333;stroke-width:0.0886927"
       id="path11-8-38-2-8-4-6-5-7" />
    <path
       d="m 253.97487,302.38136 h 15.98596 v 2.46342 h -15.98596 z"
       style="fill:#aa0000;stroke-width:0.0886927"
       id="path13-5-5-2-5-8-1-8-4" />
    <path
       d="m 266.81469,333.78028 c -0.33629,-0.2938 -9.92291,-8.78281 -10.39739,-21.53838 v -1.48926 h 10.39739 z"
       style="fill:#ffffff;stroke-width:0.0741362"
       id="path21-0-72-1-8-9-0-33-8" />
    <path
       d="m 230.6348,266.46274 h 15.28066 a 4.171965,4.0550641 0 0 1 -3.81937,2.46341 H 234.454 a 4.171965,4.0550641 0 0 1 -3.8192,-2.46341 z"
       style="fill:#ffffff;stroke-width:0.0886927"
       id="path10-5-3-2-9-4-9-32-4-4" />
    <path
       d="m 242.09609,244.7978 a 4.171965,4.0550641 0 0 1 4.17202,4.05511 v 6.68265 h -15.98596 v -6.68265 a 4.171965,4.0550641 0 0 1 4.17185,-4.05511 z"
       style="fill:#ffffff;stroke-width:0.0886927"
       id="path7-7-10-3-2-0-6-67-4-9" />
    <path
       d="m 232.41072,230.61351 -0.0727,0.2466 c 0,0 -1.32855,1.16074 13.02123,10.4324 a 8.5778719,8.5901673 0 0 1 -7.57531,4.60472 8.5778719,8.5901673 0 0 1 -8.57793,-8.59017 8.5778719,8.5901673 0 0 1 3.20458,-6.69355 z"
       style="fill:#ffffff;stroke-width:0.0886927"
       id="path6-2-16-4-6-4-4-43-7-8" />
    <path
       id="path4-6-2-8-3-7-1-9-7-7"
       style="fill:#aa0000;stroke-width:0.0886927"
       d="m 232.4615,230.57352 a 8.5778719,8.5901673 0 0 0 -0.0508,0.0401 l 0.0193,-0.0661 z m 0,0 12.89981,10.71541 a 8.5778719,8.5901673 0 0 1 -0.003,0.004 c -14.35066,-9.27054 -13.0221,-10.43129 -13.0221,-10.43129 l 0.0727,-0.24661 a 8.5778719,8.5901673 0 0 1 0.0507,-0.0401 z m 12.89789,10.71899 a 8.5778719,8.5901673 0 0 0 0.003,-0.004 l 0.0269,0.0223 c -0.0101,-0.006 -0.0184,-0.0128 -0.0289,-0.0189 z m -7.57533,-12.57559 a 8.5778719,8.5901673 0 0 1 8.57791,8.59014 8.5778719,8.5901673 0 0 1 -1.00066,3.98187 L 232.4615,230.57352 a 8.5778719,8.5901673 0 0 1 5.32256,-1.8566 z" />
    <path
       d="m 230.28215,262.23086 h 15.98596 v 2.64015 a 4.171965,4.0550641 0 0 1 -0.35265,1.59173 H 230.6348 a 4.171965,4.0550641 0 0 1 -0.35265,-1.59173 z"
       style="fill:#333333;stroke-width:0.0886927"
       id="path14-2-23-7-6-6-4-9-7-9" />
    <path
       d="m 246.26811,255.53556 v 4.2319 h -15.98596 v -4.2319 z"
       style="fill:#333333;stroke-width:0.0886927"
       id="path11-8-38-2-8-4-6-5-7-7" />
    <path
       d="m 230.28215,259.76746 h 15.98596 v 2.4634 h -15.98596 z"
       style="fill:#aa0000;stroke-width:0.0886927"
       id="path13-5-5-2-5-8-1-8-4-2" />
    <path
       d="m 243.12196,291.16635 c -0.33626,-0.29379 -9.9229,-8.78281 -10.39738,-21.53838 v -1.48925 h 10.39738 z"
       style="fill:#ffffff;stroke-width:0.0741362"
       id="path21-0-72-1-8-9-0-33-8-1" />
    <path
       d="m 227.72605,243.17449 c -0.89191,-1.59308 -4.93991,-9.4023 -1.82883,-14.86034 l 0.15695,-0.0998 10.62699,15.81072 -5.87559,3.73098 z"
       style="fill:#ffffff;stroke-width:0.0886927"
       id="path18-7-6-5-2-1-0-5-1-0-6" />
    <path
       d="m 214.9296,59.000334 c 0.77507,1.655705 4.2513,9.747598 0.75665,14.957474 l -0.1637,0.0877 -9.46282,-16.565465 6.12767,-3.280039 z"
       style="fill:#ffffff;stroke-width:0.0886927"
       id="path18-7-6-5-2-1-0-5-1-0-6-8" />
    <path
       d="m 190.39725,44.66319 c 0.19245,-1.824915 1.39819,-10.576236 7.05079,-13.129449 l 0.18436,0.01338 -0.47256,19.176531 -6.89948,-0.503466 z"
       style="fill:#ffffff;stroke-width:0.0886927"
       id="path18-7-6-5-2-1-0-5-1-0-6-8-9" />
    <path
       d="m 214.80928,45.743613 c 0.97242,1.543059 5.41566,9.124444 2.58901,14.741803 l -0.15162,0.108026 -11.42384,-15.219078 5.67599,-4.040921 z"
       style="fill:#ffffff;stroke-width:0.0886927"
       id="path18-7-6-5-2-1-0-5-1-0-6-8-9-9" />
    <path
       d="m 256.65521,297.80669 c -1.27641,1.27658 -7.60883,7.2055 -13.41933,5.32012 l -0.12951,-0.1361 12.25398,-14.47152 4.84582,5.09385 z"
       style="fill:#ffffff;stroke-width:0.0886927"
       id="path18-7-6-5-2-1-0-5-9-0-38" />
    <path
       d="m 233.74085,297.96538 c -1.2764,1.27661 -7.60882,7.20552 -13.41934,5.32012 l -0.12949,-0.13609 12.25398,-14.47151 4.84582,5.09384 z"
       style="fill:#ffffff;stroke-width:0.0886927"
       id="path18-7-6-5-2-1-0-5-9-0-9" />
    <path
       d="M 195.25806,353.2162 H 179.9774 a 4.171965,4.0550641 0 0 0 3.81937,2.46341 h 7.64208 a 4.171965,4.0550641 0 0 0 3.81921,-2.46341 z"
       style="fill:#ffffff;stroke-width:0.0886927"
       id="path10-5-3-2-9-4-9-34-2" />
    <path
       d="m 183.79677,331.55126 a 4.171965,4.0550641 0 0 0 -4.17201,4.05512 v 6.68266 h 15.98595 v -6.68266 a 4.171965,4.0550641 0 0 0 -4.17186,-4.05512 z"
       style="fill:#ffffff;stroke-width:0.0886927"
       id="path7-7-10-3-2-0-6-0-5" />
    <path
       d="m 193.48214,317.36697 0.0727,0.2466 c 0,0 1.32856,1.16075 -13.02123,10.43241 a 8.5778719,8.5901673 0 0 0 7.57531,4.6047 8.5778719,8.5901673 0 0 0 8.57793,-8.59014 8.5778719,8.5901673 0 0 0 -3.20457,-6.69357 z"
       style="fill:#ffffff;stroke-width:0.0886927"
       id="path6-2-16-4-6-4-4-61-6" />
    <path
       id="path4-6-2-8-3-7-1-94-1"
       style="fill:#aa0000;stroke-width:0.0886927"
       d="m 193.43136,317.32697 a 8.5778719,8.5901673 0 0 1 0.0508,0.0401 l -0.0193,-0.0661 z m 0,0 -12.89981,10.71542 a 8.5778719,8.5901673 0 0 0 0.003,0.004 c 14.34954,-9.27114 13.02098,-10.43189 13.02098,-10.43189 l -0.0727,-0.24663 a 8.5778719,8.5901673 0 0 0 -0.0508,-0.04 z m -12.89789,10.71901 a 8.5778719,8.5901673 0 0 1 -0.003,-0.006 l -0.0269,0.0223 c 0.0101,-0.006 0.0185,-0.0128 0.0289,-0.0189 z m 7.57533,-12.5756 a 8.5778719,8.5901673 0 0 0 -8.57791,8.59016 8.5778719,8.5901673 0 0 0 1.00066,3.98185 l 12.89981,-10.71542 a 8.5778719,8.5901673 0 0 0 -5.32256,-1.85659 z" />
    <path
       d="m 195.61071,348.9843 h -15.98595 v 2.64017 a 4.171965,4.0550641 0 0 0 0.35264,1.59173 h 15.28066 a 4.171965,4.0550641 0 0 0 0.35265,-1.59173 z"
       style="fill:#333333;stroke-width:0.0886927"
       id="path14-2-23-7-6-6-4-3-1" />
    <path
       d="m 179.62476,342.28904 v 4.23189 h 15.98595 v -4.23189 z"
       style="fill:#333333;stroke-width:0.0886927"
       id="path11-8-38-2-8-4-6-31-6" />
    <path
       d="m 195.61071,346.52093 h -15.98595 v 2.46337 h 15.98595 z"
       style="fill:#aa0000;stroke-width:0.0886927"
       id="path13-5-5-2-5-8-1-95-5" />
    <path
       d="m 182.77089,377.91981 c 0.33628,-0.29379 9.92292,-8.7828 10.39739,-21.53838 v -1.48925 h -10.39739 z"
       style="fill:#ffffff;stroke-width:0.0741362"
       id="path21-0-72-1-8-9-0-5-7" />
    <path
       d="m 196.80117,338.92733 c 1.713,-0.14726 9.92055,-1.15435 12.18218,-7.08385 l -0.0173,-0.19641 -18.03944,-0.0998 0.64697,7.35118 z"
       style="fill:#ffffff;stroke-width:0.0886927"
       id="path18-7-6-5-2-1-0-5-90-8" />
    <path
       d="m 171.61274,353.22399 h -15.28065 a 4.171965,4.0550641 0 0 0 3.81937,2.4634 h 7.64207 a 4.171965,4.0550641 0 0 0 3.81921,-2.4634 z"
       style="fill:#ffffff;stroke-width:0.0886927"
       id="path10-5-3-2-9-4-9-31-9-9-5" />
    <path
       d="m 160.15146,331.55905 a 4.171965,4.0550641 0 0 0 -4.17203,4.05512 v 6.68264 h 15.98597 v -6.68264 a 4.171965,4.0550641 0 0 0 -4.17187,-4.05512 z"
       style="fill:#ffffff;stroke-width:0.0886927"
       id="path7-7-10-3-2-0-6-9-7-3-0" />
    <path
       d="m 169.83684,317.37477 0.0727,0.24659 c 0,0 1.32858,1.16076 -13.02122,10.4324 a 8.5778719,8.5901673 0 0 0 7.5753,4.60472 8.5778719,8.5901673 0 0 0 8.57793,-8.59015 8.5778719,8.5901673 0 0 0 -3.20458,-6.69356 z"
       style="fill:#ffffff;stroke-width:0.0886927"
       id="path6-2-16-4-6-4-4-57-8-7-0" />
    <path
       id="path4-6-2-8-3-7-1-7-6-7-8"
       style="fill:#aa0000;stroke-width:0.0886927"
       d="m 169.78604,317.33478 a 8.5778719,8.5901673 0 0 1 0.0508,0.04 l -0.0194,-0.0661 z m 0,0 -12.8998,10.71539 a 8.5778719,8.5901673 0 0 0 0.003,0.004 c 14.35017,-9.27116 13.02162,-10.43193 13.02162,-10.43193 l -0.0727,-0.24661 a 8.5778719,8.5901673 0 0 0 -0.0509,-0.0401 z m -12.89787,10.71898 a 8.5778719,8.5901673 0 0 1 -0.003,-0.004 l -0.0269,0.0223 c 0.0101,-0.006 0.0185,-0.0128 0.0289,-0.0189 z m 7.57531,-12.57559 a 8.5778719,8.5901673 0 0 0 -8.5779,8.59016 8.5778719,8.5901673 0 0 0 1.00066,3.98184 l 12.8998,-10.71539 a 8.5778719,8.5901673 0 0 0 -5.32256,-1.85661 z" />
    <path
       d="m 171.9654,348.99211 h -15.98597 v 2.64015 a 4.171965,4.0550641 0 0 0 0.35266,1.59173 h 15.28065 a 4.171965,4.0550641 0 0 0 0.35266,-1.59173 z"
       style="fill:#333333;stroke-width:0.0886927"
       id="path14-2-23-7-6-6-4-1-4-7-2" />
    <path
       d="m 155.97943,342.29681 v 4.2319 h 15.98597 v -4.2319 z"
       style="fill:#333333;stroke-width:0.0886927"
       id="path11-8-38-2-8-4-6-1-0-2-0" />
    <path
       d="m 171.9654,346.52871 h -15.98597 v 2.4634 h 15.98597 z"
       style="fill:#aa0000;stroke-width:0.0886927"
       id="path13-5-5-2-5-8-1-4-1-2-6" />
    <path
       d="m 159.12558,377.92761 c 0.33627,-0.2938 9.9229,-8.78281 10.3974,-21.53838 v -1.48926 h -10.3974 z"
       style="fill:#ffffff;stroke-width:0.0741362"
       id="path21-0-72-1-8-9-0-1-2-3-25" />
    <path
       d="m 148.59374,353.32747 h -15.28065 a 4.171965,4.0550641 0 0 0 3.81938,2.46341 h 7.64207 a 4.171965,4.0550641 0 0 0 3.8192,-2.46341 z"
       style="fill:#ffffff;stroke-width:0.0886927"
       id="path10-5-3-2-9-4-9-32-4-2-0" />
    <path
       d="m 137.13247,331.66254 a 4.171965,4.0550641 0 0 0 -4.17202,4.05511 v 6.68264 h 15.98595 v -6.68264 a 4.171965,4.0550641 0 0 0 -4.17186,-4.05511 z"
       style="fill:#ffffff;stroke-width:0.0886927"
       id="path7-7-10-3-2-0-6-67-4-7-1" />
    <path
       d="m 146.81784,317.47825 0.0727,0.24659 c 0,0 1.32857,1.16076 -13.02123,10.43241 a 8.5778719,8.5901673 0 0 0 7.57531,4.60471 8.5778719,8.5901673 0 0 0 8.57793,-8.59015 8.5778719,8.5901673 0 0 0 -3.20458,-6.69356 z"
       style="fill:#ffffff;stroke-width:0.0886927"
       id="path6-2-16-4-6-4-4-43-7-4-4" />
    <path
       id="path4-6-2-8-3-7-1-9-7-49-3"
       style="fill:#aa0000;stroke-width:0.0886927"
       d="m 146.76704,317.43826 a 8.5778719,8.5901673 0 0 1 0.0509,0.0401 l -0.0193,-0.0661 z m 0,0 -12.8998,10.7154 a 8.5778719,8.5901673 0 0 0 0.003,0.004 c 14.34976,-9.27152 13.02122,-10.43228 13.02122,-10.43228 l -0.0727,-0.24661 a 8.5778719,8.5901673 0 0 0 -0.0509,-0.04 z m -12.89787,10.71899 a 8.5778719,8.5901673 0 0 1 -0.003,-0.004 l -0.0269,0.0223 c 0.0101,-0.006 0.0185,-0.0128 0.0289,-0.0189 z m 7.57532,-12.57559 a 8.5778719,8.5901673 0 0 0 -8.57791,8.59015 8.5778719,8.5901673 0 0 0 1.00066,3.98185 l 12.8998,-10.7154 a 8.5778719,8.5901673 0 0 0 -5.32255,-1.8566 z" />
    <path
       d="m 148.9464,349.09559 h -15.98595 v 2.64017 a 4.171965,4.0550641 0 0 0 0.35264,1.59171 h 15.28065 a 4.171965,4.0550641 0 0 0 0.35266,-1.59171 z"
       style="fill:#333333;stroke-width:0.0886927"
       id="path14-2-23-7-6-6-4-9-7-2-17" />
    <path
       d="m 132.96045,342.40029 v 4.2319 h 15.98595 v -4.2319 z"
       style="fill:#333333;stroke-width:0.0886927"
       id="path11-8-38-2-8-4-6-5-7-8-8" />
    <path
       d="m 148.9464,346.63219 h -15.98595 v 2.4634 h 15.98595 z"
       style="fill:#aa0000;stroke-width:0.0886927"
       id="path13-5-5-2-5-8-1-8-4-7-0" />
    <path
       d="m 136.10659,378.03109 c 0.33627,-0.2938 9.92289,-8.78281 10.3974,-21.53838 v -1.48926 h -10.3974 z"
       style="fill:#ffffff;stroke-width:0.0741362"
       id="path21-0-72-1-8-9-0-33-8-12-7" />
    <path
       d="m 125.1587,353.3451 h -15.28066 a 4.171965,4.0550641 0 0 0 3.81939,2.4634 h 7.64207 a 4.171965,4.0550641 0 0 0 3.8192,-2.4634 z"
       style="fill:#ffffff;stroke-width:0.0886927"
       id="path10-5-3-2-9-4-9-9-2-5-2" />
    <path
       d="m 113.69743,331.68016 a 4.171965,4.0550641 0 0 0 -4.17202,4.05512 v 6.68265 h 15.98595 v -6.68265 a 4.171965,4.0550641 0 0 0 -4.17186,-4.05512 z"
       style="fill:#ffffff;stroke-width:0.0886927"
       id="path7-7-10-3-2-0-6-3-9-5-1" />
    <path
       d="m 123.38279,317.49587 0.0727,0.2466 c 0,0 1.32857,1.16074 -13.02123,10.43239 a 8.5778719,8.5901673 0 0 0 7.57531,4.60472 8.5778719,8.5901673 0 0 0 8.57792,-8.59015 8.5778719,8.5901673 0 0 0 -3.20457,-6.69356 z"
       style="fill:#ffffff;stroke-width:0.0886927"
       id="path6-2-16-4-6-4-4-6-0-7-2" />
    <path
       id="path4-6-2-8-3-7-1-2-1-0-8"
       style="fill:#aa0000;stroke-width:0.0886927"
       d="m 123.332,317.45587 a 8.5778719,8.5901673 0 0 1 0.0509,0.04 l -0.0194,-0.0661 z m 0,0 -12.8998,10.71541 a 8.5778719,8.5901673 0 0 0 0.003,0.004 c 14.34988,-9.27138 13.02133,-10.43215 13.02133,-10.43215 l -0.0727,-0.24661 a 8.5778719,8.5901673 0 0 0 -0.0507,-0.0401 z m -12.89787,10.71899 a 8.5778719,8.5901673 0 0 1 -0.003,-0.004 l -0.0269,0.0223 c 0.0101,-0.006 0.0185,-0.0128 0.0289,-0.0189 z m 7.57532,-12.57558 a 8.5778719,8.5901673 0 0 0 -8.57791,8.59015 8.5778719,8.5901673 0 0 0 1.00066,3.98185 l 12.8998,-10.71541 a 8.5778719,8.5901673 0 0 0 -5.32255,-1.85659 z" />
    <path
       d="m 125.51136,349.1132 h -15.98595 v 2.64017 a 4.171965,4.0550641 0 0 0 0.35263,1.59173 h 15.28066 a 4.171965,4.0550641 0 0 0 0.35266,-1.59173 z"
       style="fill:#333333;stroke-width:0.0886927"
       id="path14-2-23-7-6-6-4-7-0-8-2" />
    <path
       d="m 109.52541,342.41793 v 4.23188 h 15.98595 v -4.23188 z"
       style="fill:#333333;stroke-width:0.0886927"
       id="path11-8-38-2-8-4-6-3-6-8-5" />
    <path
       d="m 125.51136,346.64981 h -15.98595 v 2.46339 h 15.98595 z"
       style="fill:#aa0000;stroke-width:0.0886927"
       id="path13-5-5-2-5-8-1-7-1-9-3" />
    <path
       d="m 112.67155,378.04873 c 0.33627,-0.29382 9.92289,-8.78281 10.39739,-21.5384 v -1.48925 h -10.39739 z"
       style="fill:#ffffff;stroke-width:0.0741362"
       id="path21-0-72-1-8-9-0-601-8-2-35" />
    <path
       d="m 121.87231,341.0991 c 1.27639,1.2766 7.60881,7.2055 13.41933,5.32013 l 0.1295,-0.1361 -12.25397,-14.47153 -4.84583,5.09385 z"
       style="fill:#ffffff;stroke-width:0.0886927"
       id="path18-7-6-5-2-1-0-5-9-0-70-7" />
    <path
       d="m 146.26607,342.0575 c 1.27641,1.27661 7.60882,7.20551 13.41933,5.32012 l 0.12949,-0.13609 -12.25397,-14.47151 -4.84582,5.09383 z"
       style="fill:#ffffff;stroke-width:0.0886927"
       id="path18-7-6-5-2-1-0-5-9-0-38-0-2" />
    <path
       d="m 169.18043,342.2162 c 1.2764,1.2766 7.60881,7.20551 13.41933,5.32012 l 0.1295,-0.13609 -12.25399,-14.47152 -4.84581,5.09384 z"
       style="fill:#ffffff;stroke-width:0.0886927"
       id="path18-7-6-5-2-1-0-5-9-0-9-0-7" />
    <path
       d="m 195.96084,309.54039 h -15.28066 a 4.171965,4.0550641 0 0 0 3.81939,2.46341 h 7.64207 a 4.171965,4.0550641 0 0 0 3.8192,-2.46341 z"
       style="fill:#ffffff;stroke-width:0.0886927"
       id="path10-5-3-2-9-4-9-61" />
    <path
       d="m 184.49957,287.87545 a 4.171965,4.0550641 0 0 0 -4.17202,4.05512 v 6.68265 h 15.98595 v -6.68265 a 4.171965,4.0550641 0 0 0 -4.17186,-4.05512 z"
       style="fill:#ffffff;stroke-width:0.0886927"
       id="path7-7-10-3-2-0-6-23" />
    <path
       d="m 194.18493,273.69115 0.0727,0.2466 c 0,0 1.32856,1.16074 -13.02123,10.43241 a 8.5778719,8.5901673 0 0 0 7.57532,4.60471 8.5778719,8.5901673 0 0 0 8.57791,-8.59016 8.5778719,8.5901673 0 0 0 -3.20457,-6.69356 z"
       style="fill:#ffffff;stroke-width:0.0886927"
       id="path6-2-16-4-6-4-4-48" />
    <path
       id="path4-6-2-8-3-7-1-9"
       style="fill:#aa0000;stroke-width:0.0886927"
       d="m 194.13414,273.65116 a 8.5778719,8.5901673 0 0 1 0.0509,0.04 l -0.0194,-0.0661 z m 0,0 -12.89981,10.71542 a 8.5778719,8.5901673 0 0 0 0.003,0.004 c 14.34953,-9.27114 13.02097,-10.43191 13.02097,-10.43191 l -0.0727,-0.24661 a 8.5778719,8.5901673 0 0 0 -0.0509,-0.04 z m -12.89787,10.719 a 8.5778719,8.5901673 0 0 1 -0.003,-0.006 l -0.0269,0.0223 c 0.0101,-0.006 0.0185,-0.0128 0.0289,-0.0188 z m 7.57531,-12.5756 a 8.5778719,8.5901673 0 0 0 -8.5779,8.59015 8.5778719,8.5901673 0 0 0 1.00065,3.98187 l 12.89981,-10.71542 a 8.5778719,8.5901673 0 0 0 -5.32256,-1.8566 z" />
    <path
       d="m 196.3135,305.30849 h -15.98595 v 2.64016 a 4.171965,4.0550641 0 0 0 0.35263,1.59174 h 15.28066 a 4.171965,4.0550641 0 0 0 0.35266,-1.59174 z"
       style="fill:#333333;stroke-width:0.0886927"
       id="path14-2-23-7-6-6-4-1" />
    <path
       d="m 180.32755,298.61322 v 4.23189 h 15.98595 v -4.23189 z"
       style="fill:#333333;stroke-width:0.0886927"
       id="path11-8-38-2-8-4-6-9" />
    <path
       d="m 196.3135,302.84511 h -15.98595 v 2.46338 h 15.98595 z"
       style="fill:#aa0000;stroke-width:0.0886927"
       id="path13-5-5-2-5-8-1-1" />
    <path
       d="m 183.47368,334.244 c 0.33628,-0.29379 9.92291,-8.7828 10.39739,-21.53838 v -1.48925 h -10.39739 z"
       style="fill:#ffffff;stroke-width:0.0741362"
       id="path21-0-72-1-8-9-0-7" />
    <path
       d="m 197.50394,295.25152 c 1.71302,-0.14727 9.92058,-1.15436 12.18219,-7.08385 l -0.0173,-0.19642 -18.03943,-0.0998 0.64697,7.35117 z"
       style="fill:#ffffff;stroke-width:0.0886927"
       id="path18-7-6-5-2-1-0-5-8" />
    <path
       d="M 195.87368,266.83945 H 180.593 a 4.171965,4.0550641 0 0 0 3.8194,2.4634 h 7.64208 a 4.171965,4.0550641 0 0 0 3.8192,-2.4634 z"
       style="fill:#ffffff;stroke-width:0.0886927"
       id="path10-5-3-2-9-4-9-2-8" />
    <path
       d="m 184.4124,245.17449 a 4.171965,4.0550641 0 0 0 -4.17203,4.05513 v 6.68265 h 15.98596 v -6.68265 a 4.171965,4.0550641 0 0 0 -4.17185,-4.05513 z"
       style="fill:#ffffff;stroke-width:0.0886927"
       id="path7-7-10-3-2-0-6-6-2" />
    <path
       d="m 194.09776,230.99021 0.0727,0.2466 c 0,0 1.32857,1.16075 -13.02123,10.4324 a 8.5778719,8.5901673 0 0 0 7.57532,4.60472 8.5778719,8.5901673 0 0 0 8.57792,-8.59016 8.5778719,8.5901673 0 0 0 -3.20458,-6.69356 z"
       style="fill:#ffffff;stroke-width:0.0886927"
       id="path6-2-16-4-6-4-4-5-9" />
    <path
       id="path4-6-2-8-3-7-1-0-4"
       style="fill:#aa0000;stroke-width:0.0886927"
       d="m 194.04697,230.95022 a 8.5778719,8.5901673 0 0 1 0.0508,0.0401 l -0.0194,-0.0661 z m 0,0 -12.8998,10.7154 a 8.5778719,8.5901673 0 0 0 0.003,0.004 c 14.34977,-9.27152 13.0212,-10.43227 13.0212,-10.43227 l -0.0727,-0.24661 a 8.5778719,8.5901673 0 0 0 -0.0508,-0.0401 z m -12.89789,10.71899 a 8.5778719,8.5901673 0 0 1 -0.003,-0.004 l -0.0269,0.0223 c 0.0101,-0.006 0.0185,-0.0128 0.0289,-0.0189 z m 7.57533,-12.57559 a 8.5778719,8.5901673 0 0 0 -8.5779,8.59015 8.5778719,8.5901673 0 0 0 1.00066,3.98185 l 12.8998,-10.7154 a 8.5778719,8.5901673 0 0 0 -5.32256,-1.8566 z" />
    <path
       d="m 196.22633,262.60755 h -15.98596 v 2.64017 a 4.171965,4.0550641 0 0 0 0.35263,1.59173 h 15.28068 a 4.171965,4.0550641 0 0 0 0.35265,-1.59173 z"
       style="fill:#333333;stroke-width:0.0886927"
       id="path14-2-23-7-6-6-4-8-9" />
    <path
       d="m 180.24037,255.91227 v 4.23189 h 15.98596 v -4.23189 z"
       style="fill:#333333;stroke-width:0.0886927"
       id="path11-8-38-2-8-4-6-8-2" />
    <path
       d="m 196.22633,260.14416 h -15.98596 v 2.46339 h 15.98596 z"
       style="fill:#aa0000;stroke-width:0.0886927"
       id="path13-5-5-2-5-8-1-9-4" />
    <path
       d="m 183.38651,291.54306 c 0.33628,-0.2938 9.9229,-8.7828 10.39738,-21.5384 v -1.48923 h -10.39738 z"
       style="fill:#ffffff;stroke-width:0.0741362"
       id="path21-0-72-1-8-9-0-6-2" />
    <path
       d="m 196.3168,223.70782 h -15.28068 a 4.171965,4.0550641 0 0 0 3.81939,2.46341 h 7.64207 a 4.171965,4.0550641 0 0 0 3.81922,-2.46341 z"
       style="fill:#ffffff;stroke-width:0.0886927"
       id="path10-5-3-2-9-4-9-3-4" />
    <path
       d="m 184.85551,202.04287 a 4.171965,4.0550641 0 0 0 -4.17203,4.05513 v 6.68264 h 15.98597 V 206.098 a 4.171965,4.0550641 0 0 0 -4.17187,-4.05513 z"
       style="fill:#ffffff;stroke-width:0.0886927"
       id="path7-7-10-3-2-0-6-2-1" />
    <path
       d="m 194.54087,187.85858 0.0727,0.24661 c 0,0 1.32856,1.16075 -13.02122,10.4324 a 8.5778719,8.5901673 0 0 0 7.57532,4.60471 8.5778719,8.5901673 0 0 0 8.57793,-8.59014 8.5778719,8.5901673 0 0 0 -3.20458,-6.69358 z"
       style="fill:#ffffff;stroke-width:0.0886927"
       id="path6-2-16-4-6-4-4-3-6" />
    <path
       id="path4-6-2-8-3-7-1-8-5"
       style="fill:#aa0000;stroke-width:0.0886927"
       d="m 194.49009,187.8186 a 8.5778719,8.5901673 0 0 1 0.0509,0.0401 l -0.0194,-0.0661 z m 0,0 -12.8998,10.71541 a 8.5778719,8.5901673 0 0 0 0.003,0.004 c 14.3499,-9.27067 13.02135,-10.43143 13.02135,-10.43143 l -0.0727,-0.24661 a 8.5778719,8.5901673 0 0 0 -0.0507,-0.0401 z m -12.89789,10.71899 a 8.5778719,8.5901673 0 0 1 -0.003,-0.004 l -0.0269,0.0223 c 0.0101,-0.006 0.0185,-0.0128 0.0289,-0.0189 z m 7.57533,-12.57559 a 8.5778719,8.5901673 0 0 0 -8.57791,8.59016 8.5778719,8.5901673 0 0 0 1.00067,3.98185 l 12.8998,-10.71541 a 8.5778719,8.5901673 0 0 0 -5.32256,-1.8566 z" />
    <path
       d="m 196.66945,219.47593 h -15.98597 v 2.64017 a 4.171965,4.0550641 0 0 0 0.35264,1.59172 h 15.28068 a 4.171965,4.0550641 0 0 0 0.35265,-1.59172 z"
       style="fill:#333333;stroke-width:0.0886927"
       id="path14-2-23-7-6-6-4-5-5" />
    <path
       d="m 180.68348,212.78064 v 4.2319 h 15.98597 v -4.2319 z"
       style="fill:#333333;stroke-width:0.0886927"
       id="path11-8-38-2-8-4-6-87-4" />
    <path
       d="m 196.66945,217.01254 h -15.98597 v 2.46339 h 15.98597 z"
       style="fill:#aa0000;stroke-width:0.0886927"
       id="path13-5-5-2-5-8-1-0-9" />
    <path
       d="m 183.82961,248.41144 c 0.3363,-0.2938 9.92293,-8.78282 10.3974,-21.5384 v -1.48924 h -10.3974 z"
       style="fill:#ffffff;stroke-width:0.0741362"
       id="path21-0-72-1-8-9-0-3-3" />
    <path
       d="m 195.86166,182.3566 h -15.28068 a 4.171965,4.0550641 0 0 0 3.8194,2.46341 h 7.64207 a 4.171965,4.0550641 0 0 0 3.81921,-2.46341 z"
       style="fill:#ffffff;stroke-width:0.0886927"
       id="path10-5-3-2-9-4-9-6-1" />
    <path
       d="m 184.40038,160.69166 a 4.171965,4.0550641 0 0 0 -4.17203,4.05511 v 6.68266 h 15.98595 v -6.68266 a 4.171965,4.0550641 0 0 0 -4.17185,-4.05511 z"
       style="fill:#ffffff;stroke-width:0.0886927"
       id="path7-7-10-3-2-0-6-7-1" />
    <path
       d="m 194.08574,146.50736 0.0727,0.24659 c 0,0 1.32856,1.16075 -13.02122,10.43242 a 8.5778719,8.5901673 0 0 0 7.57531,4.60471 8.5778719,8.5901673 0 0 0 8.57793,-8.59015 8.5778719,8.5901673 0 0 0 -3.20459,-6.69357 z"
       style="fill:#ffffff;stroke-width:0.0886927"
       id="path6-2-16-4-6-4-4-4-7" />
    <path
       id="path4-6-2-8-3-7-1-09-3"
       style="fill:#aa0000;stroke-width:0.0886927"
       d="m 194.03495,146.46738 a 8.5778719,8.5901673 0 0 1 0.0509,0.0401 l -0.0193,-0.0661 z m 0,0 -12.89981,10.71541 a 8.5778719,8.5901673 0 0 0 0.003,0.004 c 14.34989,-9.27139 13.02134,-10.43216 13.02134,-10.43216 l -0.0727,-0.24661 a 8.5778719,8.5901673 0 0 0 -0.0507,-0.0401 z m -12.89788,10.71899 a 8.5778719,8.5901673 0 0 1 -0.003,-0.004 l -0.0269,0.0223 c 0.0101,-0.006 0.0185,-0.0128 0.0289,-0.0189 z m 7.57533,-12.5756 a 8.5778719,8.5901673 0 0 0 -8.57791,8.59016 8.5778719,8.5901673 0 0 0 1.00065,3.98186 l 12.89981,-10.71541 a 8.5778719,8.5901673 0 0 0 -5.32255,-1.85661 z" />
    <path
       d="m 196.2143,178.12473 h -15.98595 v 2.64014 a 4.171965,4.0550641 0 0 0 0.35263,1.59173 h 15.28068 a 4.171965,4.0550641 0 0 0 0.35264,-1.59173 z"
       style="fill:#333333;stroke-width:0.0886927"
       id="path14-2-23-7-6-6-4-82-4" />
    <path
       d="m 180.22835,171.42943 v 4.23189 h 15.98595 v -4.23189 z"
       style="fill:#333333;stroke-width:0.0886927"
       id="path11-8-38-2-8-4-6-4-8" />
    <path
       d="m 196.2143,175.66132 h -15.98595 v 2.46341 h 15.98595 z"
       style="fill:#aa0000;stroke-width:0.0886927"
       id="path13-5-5-2-5-8-1-02-2" />
    <path
       d="m 183.37449,207.06021 c 0.33628,-0.29379 9.9229,-8.78281 10.39739,-21.53838 v -1.48925 h -10.39739 z"
       style="fill:#ffffff;stroke-width:0.0741362"
       id="path21-0-72-1-8-9-0-60-3" />
    <path
       d="m 196.21404,138.54025 h -15.28067 a 4.171965,4.0550641 0 0 0 3.81939,2.46342 h 7.64207 a 4.171965,4.0550641 0 0 0 3.81921,-2.46342 z"
       style="fill:#ffffff;stroke-width:0.0886927"
       id="path10-5-3-2-9-4-9-7-7" />
    <path
       d="m 184.75276,116.87531 a 4.171965,4.0550641 0 0 0 -4.17203,4.05512 v 6.68266 h 15.98597 v -6.68266 a 4.171965,4.0550641 0 0 0 -4.17187,-4.05512 z"
       style="fill:#ffffff;stroke-width:0.0886927"
       id="path7-7-10-3-2-0-6-8-4" />
    <path
       d="m 194.43811,102.69103 0.0727,0.2466 c 0,0 1.32857,1.16074 -13.02123,10.43239 a 8.5778719,8.5901673 0 0 0 7.57531,4.60472 8.5778719,8.5901673 0 0 0 8.57793,-8.59015 8.5778719,8.5901673 0 0 0 -3.20457,-6.69356 z"
       style="fill:#ffffff;stroke-width:0.0886927"
       id="path6-2-16-4-6-4-4-55-9" />
    <path
       id="path4-6-2-8-3-7-1-01-4"
       style="fill:#aa0000;stroke-width:0.0886927"
       d="m 194.38734,102.65104 a 8.5778719,8.5901673 0 0 1 0.0509,0.04 l -0.0194,-0.0661 z m 0,0 -12.89981,10.7154 a 8.5778719,8.5901673 0 0 0 0.003,0.006 c 14.34953,-9.27154 13.02098,-10.43229 13.02098,-10.43229 l -0.0727,-0.24662 a 8.5778719,8.5901673 0 0 0 -0.0507,-0.04 z m -12.89788,10.71898 a 8.5778719,8.5901673 0 0 1 -0.003,-0.006 l -0.0269,0.0223 c 0.0101,-0.006 0.0185,-0.0128 0.0289,-0.0187 z m 7.57532,-12.5756 a 8.5778719,8.5901673 0 0 0 -8.57791,8.59017 8.5778719,8.5901673 0 0 0 1.00066,3.98185 l 12.89981,-10.7154 a 8.5778719,8.5901673 0 0 0 -5.32256,-1.85662 z" />
    <path
       d="m 196.5667,134.30837 h -15.98597 v 2.64017 a 4.171965,4.0550641 0 0 0 0.35264,1.59171 h 15.28067 a 4.171965,4.0550641 0 0 0 0.35266,-1.59171 z"
       style="fill:#333333;stroke-width:0.0886927"
       id="path14-2-23-7-6-6-4-0-8" />
    <path
       d="m 180.58073,127.61309 v 4.23188 h 15.98597 v -4.23188 z"
       style="fill:#333333;stroke-width:0.0886927"
       id="path11-8-38-2-8-4-6-2-3" />
    <path
       d="m 196.5667,131.84497 h -15.98597 v 2.4634 h 15.98597 z"
       style="fill:#aa0000;stroke-width:0.0886927"
       id="path13-5-5-2-5-8-1-5-7" />
    <path
       d="m 183.72687,163.24387 c 0.33629,-0.2938 9.92291,-8.78281 10.39738,-21.53838 v -1.48925 h -10.39738 z"
       style="fill:#ffffff;stroke-width:0.0741362"
       id="path21-0-72-1-8-9-0-9-1" />
    <path
       d="m 193.65781,111.08609 c -0.17949,-1.85358 -1.31733,-10.727 -6.84022,-13.027758 l -0.18058,0.0238 0.36866,19.561998 6.75895,-0.88923 z"
       style="fill:#ffffff;stroke-width:0.0886927"
       id="path18-7-6-5-2-1-0-5-5-5" />
    <path
       d="m 196.21519,96.469511 h -15.28067 a 4.171965,4.0550641 0 0 0 3.81937,2.463403 h 7.64208 a 4.171965,4.0550641 0 0 0 3.81922,-2.463403 z"
       style="fill:#ffffff;stroke-width:0.0886927"
       id="path10-5-3-2-9-4-9-7-0-5" />
    <path
       d="m 184.75389,74.804576 a 4.171965,4.0550641 0 0 0 -4.17202,4.055118 v 6.682651 h 15.98596 v -6.682651 a 4.171965,4.0550641 0 0 0 -4.17186,-4.055118 z"
       style="fill:#ffffff;stroke-width:0.0886927"
       id="path7-7-10-3-2-0-6-8-7-1" />
    <path
       d="m 194.43927,60.620291 0.0727,0.246593 c 0,0 1.32855,1.16075 -13.02123,10.432402 a 8.5778719,8.5901673 0 0 0 7.57531,4.604713 8.5778719,8.5901673 0 0 0 8.57793,-8.590154 8.5778719,8.5901673 0 0 0 -3.20457,-6.693554 z"
       style="fill:#ffffff;stroke-width:0.0886927"
       id="path6-2-16-4-6-4-4-55-1-1" />
    <path
       id="path4-6-2-8-3-7-1-01-9-6"
       style="fill:#333333;stroke-width:0.0886927"
       d="m 194.38848,60.580301 a 8.5778719,8.5901673 0 0 1 0.051,0.04002 l -0.0194,-0.06615 z m 0,0 -12.8998,10.715401 a 8.5778719,8.5901673 0 0 0 0.003,0.0051 c 14.35041,-9.27172 13.02186,-10.43249 13.02186,-10.43249 l -0.0727,-0.246604 a 8.5778719,8.5901673 0 0 0 -0.0508,-0.04002 z m -12.89789,10.718985 a 8.5778719,8.5901673 0 0 1 -0.003,-0.0051 l -0.0269,0.02236 c 0.0101,-0.0062 0.0185,-0.01276 0.0288,-0.01878 z m 7.57533,-12.575595 a 8.5778719,8.5901673 0 0 0 -8.57792,8.590154 8.5778719,8.5901673 0 0 0 1.00068,3.981857 l 12.8998,-10.715401 a 8.5778719,8.5901673 0 0 0 -5.32256,-1.85661 z" />
    <path
       d="m 196.56783,92.237625 h -15.98596 v 2.640169 a 4.171965,4.0550641 0 0 0 0.35265,1.591717 h 15.28067 a 4.171965,4.0550641 0 0 0 0.35264,-1.591717 z"
       style="fill:#333333;stroke-width:0.0886927"
       id="path14-2-23-7-6-6-4-0-1-8" />
    <path
       d="m 180.58187,85.542345 v 4.231878 h 15.98596 v -4.231878 z"
       style="fill:#333333;stroke-width:0.0886927"
       id="path11-8-38-2-8-4-6-2-1-1" />
    <path
       d="m 196.56783,89.774223 h -15.98596 v 2.463402 h 15.98596 z"
       style="fill:#aa0000;stroke-width:0.0886927"
       id="path13-5-5-2-5-8-1-5-4-1" />
    <path
       d="m 183.72802,121.17314 c 0.33627,-0.29381 9.92291,-8.78281 10.39738,-21.538395 v -1.489244 h -10.39738 z"
       style="fill:#ffffff;stroke-width:0.0741362"
       id="path21-0-72-1-8-9-0-9-7-1" />
    <path
       d="m 172.31552,309.54817 h -15.28065 a 4.171965,4.0550641 0 0 0 3.81938,2.46342 h 7.64207 a 4.171965,4.0550641 0 0 0 3.8192,-2.46342 z"
       style="fill:#ffffff;stroke-width:0.0886927"
       id="path10-5-3-2-9-4-9-31-9-3" />
    <path
       d="m 160.85425,287.88324 a 4.171965,4.0550641 0 0 0 -4.17204,4.05512 v 6.68264 h 15.98597 v -6.68264 a 4.171965,4.0550641 0 0 0 -4.17186,-4.05512 z"
       style="fill:#ffffff;stroke-width:0.0886927"
       id="path7-7-10-3-2-0-6-9-7-6" />
    <path
       d="m 170.53961,273.69895 0.0727,0.24659 c 0,0 1.32857,1.16076 -13.02122,10.43241 a 8.5778719,8.5901673 0 0 0 7.57532,4.60472 8.5778719,8.5901673 0 0 0 8.57793,-8.59017 8.5778719,8.5901673 0 0 0 -3.20459,-6.69355 z"
       style="fill:#ffffff;stroke-width:0.0886927"
       id="path6-2-16-4-6-4-4-57-8-5" />
    <path
       id="path4-6-2-8-3-7-1-7-6-8"
       style="fill:#aa0000;stroke-width:0.0886927"
       d="m 170.48882,273.65897 a 8.5778719,8.5901673 0 0 1 0.0509,0.04 l -0.0194,-0.0661 z m 0,0 -12.8998,10.7154 a 8.5778719,8.5901673 0 0 0 0.003,0.004 c 14.34979,-9.27152 13.02123,-10.43228 13.02123,-10.43228 l -0.0727,-0.24661 a 8.5778719,8.5901673 0 0 0 -0.0509,-0.0401 z m -12.89787,10.71898 a 8.5778719,8.5901673 0 0 1 -0.003,-0.004 l -0.0269,0.0223 c 0.0101,-0.006 0.0185,-0.0128 0.0289,-0.0189 z m 7.57532,-12.5756 a 8.5778719,8.5901673 0 0 0 -8.57791,8.59015 8.5778719,8.5901673 0 0 0 1.00066,3.98187 l 12.8998,-10.7154 a 8.5778719,8.5901673 0 0 0 -5.32255,-1.85662 z" />
    <path
       d="m 172.66818,305.3163 h -15.98597 v 2.64014 a 4.171965,4.0550641 0 0 0 0.35266,1.59173 h 15.28065 a 4.171965,4.0550641 0 0 0 0.35266,-1.59173 z"
       style="fill:#333333;stroke-width:0.0886927"
       id="path14-2-23-7-6-6-4-1-4-9" />
    <path
       d="m 156.68221,298.621 v 4.23189 h 15.98597 V 298.621 Z"
       style="fill:#333333;stroke-width:0.0886927"
       id="path11-8-38-2-8-4-6-1-0-6" />
    <path
       d="m 172.66818,302.85289 h -15.98597 v 2.46341 h 15.98597 z"
       style="fill:#aa0000;stroke-width:0.0886927"
       id="path13-5-5-2-5-8-1-4-1-1" />
    <path
       d="m 159.82836,334.2518 c 0.33629,-0.2938 9.92291,-8.78281 10.3974,-21.53838 v -1.48926 h -10.3974 z"
       style="fill:#ffffff;stroke-width:0.0741362"
       id="path21-0-72-1-8-9-0-1-2-9" />
    <path
       d="m 149.29653,309.65165 h -15.28065 a 4.171965,4.0550641 0 0 0 3.81937,2.46342 h 7.64207 a 4.171965,4.0550641 0 0 0 3.81921,-2.46342 z"
       style="fill:#ffffff;stroke-width:0.0886927"
       id="path10-5-3-2-9-4-9-32-4-7" />
    <path
       d="m 137.83525,287.98673 a 4.171965,4.0550641 0 0 0 -4.17202,4.05511 v 6.68264 h 15.98596 v -6.68264 a 4.171965,4.0550641 0 0 0 -4.17187,-4.05511 z"
       style="fill:#ffffff;stroke-width:0.0886927"
       id="path7-7-10-3-2-0-6-67-4-0" />
    <path
       d="m 147.52062,273.80243 0.0727,0.2466 c 0,0 1.32856,1.16075 -13.02124,10.43241 a 8.5778719,8.5901673 0 0 0 7.57532,4.60471 8.5778719,8.5901673 0 0 0 8.57793,-8.59017 8.5778719,8.5901673 0 0 0 -3.20457,-6.69355 z"
       style="fill:#ffffff;stroke-width:0.0886927"
       id="path6-2-16-4-6-4-4-43-7-6" />
    <path
       id="path4-6-2-8-3-7-1-9-7-1"
       style="fill:#aa0000;stroke-width:0.0886927"
       d="m 147.46983,273.76245 a 8.5778719,8.5901673 0 0 1 0.0508,0.04 l -0.0194,-0.0661 z m 0,0 -12.8998,10.7154 a 8.5778719,8.5901673 0 0 0 0.003,0.004 c 14.34978,-9.27152 13.02123,-10.43228 13.02123,-10.43228 l -0.0727,-0.24661 a 8.5778719,8.5901673 0 0 0 -0.0509,-0.04 z m -12.89788,10.71899 a 8.5778719,8.5901673 0 0 1 -0.003,-0.004 l -0.0269,0.0223 c 0.0101,-0.006 0.0185,-0.0128 0.0288,-0.0189 z m 7.57532,-12.5756 a 8.5778719,8.5901673 0 0 0 -8.5779,8.59014 8.5778719,8.5901673 0 0 0 1.00066,3.98187 l 12.8998,-10.7154 a 8.5778719,8.5901673 0 0 0 -5.32256,-1.85661 z" />
    <path
       d="m 149.64919,305.41978 h -15.98596 v 2.64015 a 4.171965,4.0550641 0 0 0 0.35265,1.59172 h 15.28065 a 4.171965,4.0550641 0 0 0 0.35266,-1.59172 z"
       style="fill:#333333;stroke-width:0.0886927"
       id="path14-2-23-7-6-6-4-9-7-1" />
    <path
       d="m 133.66323,298.72448 v 4.23189 h 15.98596 v -4.23189 z"
       style="fill:#333333;stroke-width:0.0886927"
       id="path11-8-38-2-8-4-6-5-7-4" />
    <path
       d="m 149.64919,302.95637 h -15.98596 v 2.46341 h 15.98596 z"
       style="fill:#aa0000;stroke-width:0.0886927"
       id="path13-5-5-2-5-8-1-8-4-5" />
    <path
       d="m 136.80937,334.35528 c 0.33628,-0.2938 9.92291,-8.78281 10.39739,-21.53838 v -1.48926 h -10.39739 z"
       style="fill:#ffffff;stroke-width:0.0741362"
       id="path21-0-72-1-8-9-0-33-8-8" />
    <path
       d="M 172.98926,267.03774 H 157.7086 a 4.171965,4.0550641 0 0 0 3.81937,2.46341 h 7.64208 a 4.171965,4.0550641 0 0 0 3.81921,-2.46341 z"
       style="fill:#ffffff;stroke-width:0.0886927"
       id="path10-5-3-2-9-4-9-32-4-4-7" />
    <path
       d="m 161.52797,245.3728 a 4.171965,4.0550641 0 0 0 -4.17202,4.05512 v 6.68265 h 15.98596 v -6.68265 a 4.171965,4.0550641 0 0 0 -4.17186,-4.05512 z"
       style="fill:#ffffff;stroke-width:0.0886927"
       id="path7-7-10-3-2-0-6-67-4-9-7" />
    <path
       d="m 171.21333,231.18851 0.0727,0.2466 c 0,0 1.32856,1.16074 -13.02123,10.4324 a 8.5778719,8.5901673 0 0 0 7.57532,4.60472 8.5778719,8.5901673 0 0 0 8.57793,-8.59017 8.5778719,8.5901673 0 0 0 -3.20457,-6.69355 z"
       style="fill:#ffffff;stroke-width:0.0886927"
       id="path6-2-16-4-6-4-4-43-7-8-7" />
    <path
       id="path4-6-2-8-3-7-1-9-7-7-6"
       style="fill:#aa0000;stroke-width:0.0886927"
       d="m 171.16256,231.14853 a 8.5778719,8.5901673 0 0 1 0.0508,0.0401 l -0.0194,-0.0661 z m 0,0 -12.89981,10.7154 a 8.5778719,8.5901673 0 0 0 0.003,0.004 c 14.35029,-9.27104 13.02173,-10.43179 13.02173,-10.43179 l -0.0727,-0.2466 a 8.5778719,8.5901673 0 0 0 -0.0507,-0.0401 z m -12.89789,10.71898 a 8.5778719,8.5901673 0 0 1 -0.003,-0.004 l -0.0269,0.0223 c 0.0101,-0.006 0.0185,-0.0128 0.0289,-0.0189 z M 165.84,229.29192 a 8.5778719,8.5901673 0 0 0 -8.57792,8.59014 8.5778719,8.5901673 0 0 0 1.00067,3.98187 l 12.89981,-10.7154 A 8.5778719,8.5901673 0 0 0 165.84,229.29192 Z" />
    <path
       d="m 173.34191,262.80586 h -15.98596 v 2.64015 a 4.171965,4.0550641 0 0 0 0.35265,1.59173 h 15.28066 a 4.171965,4.0550641 0 0 0 0.35265,-1.59173 z"
       style="fill:#333333;stroke-width:0.0886927"
       id="path14-2-23-7-6-6-4-9-7-9-5" />
    <path
       d="m 157.35595,256.11057 v 4.23189 h 15.98596 v -4.23189 z"
       style="fill:#333333;stroke-width:0.0886927"
       id="path11-8-38-2-8-4-6-5-7-7-8" />
    <path
       d="m 173.34191,260.34246 h -15.98596 v 2.4634 h 15.98596 z"
       style="fill:#aa0000;stroke-width:0.0886927"
       id="path13-5-5-2-5-8-1-8-4-2-7" />
    <path
       d="m 160.5021,291.74136 c 0.33627,-0.2938 9.9229,-8.78281 10.39738,-21.53839 v -1.48925 H 160.5021 Z"
       style="fill:#ffffff;stroke-width:0.0741362"
       id="path21-0-72-1-8-9-0-33-8-1-3" />
    <path
       d="m 175.89801,243.74949 c 0.8919,-1.59308 4.93991,-9.4023 1.82883,-14.86034 l -0.15695,-0.0998 -10.62699,15.81072 5.87558,3.73098 z"
       style="fill:#ffffff;stroke-width:0.0886927"
       id="path18-7-6-5-2-1-0-5-1-0-6-5" />
    <path
       d="m 146.96885,298.38169 c 1.27641,1.2766 7.60882,7.20551 13.41933,5.32012 l 0.12951,-0.1361 -12.25398,-14.47151 -4.84582,5.09384 z"
       style="fill:#ffffff;stroke-width:0.0886927"
       id="path18-7-6-5-2-1-0-5-9-0-38-03" />
    <path
       d="m 169.88321,298.54038 c 1.2764,1.27661 7.60881,7.20552 13.41933,5.32013 l 0.1295,-0.13609 -12.25398,-14.47152 -4.84582,5.09384 z"
       style="fill:#ffffff;stroke-width:0.0886927"
       id="path18-7-6-5-2-1-0-5-9-0-9-6" />
    <path
       d="M 211.53835,69.138413 211.3314,53.52053 a 4.2644111,3.9671562 89.459624 0 1 2.46149,3.870301 l 0.1035,7.810728 a 4.2644111,3.9671562 89.459624 0 1 -2.35804,3.936854 z"
       style="fill:#ffffff;stroke-width:0.0886927"
       id="path10-5-3-2-9-4-9-7-0-7" />
    <path
       d="m 190.18985,57.717613 a 4.2644111,3.9671562 89.459624 0 1 3.91034,-4.319009 l 6.53715,-0.0905 0.2165,16.338732 -6.53715,0.0905 a 4.2644111,3.9671562 89.459624 0 1 -4.02334,-4.208994 z"
       style="fill:#ffffff;stroke-width:0.0886927"
       id="path7-7-10-3-2-0-6-8-7-8" />
    <path
       d="m 207.40336,69.556152 -0.2165,-16.338733 2.58268,-0.03575 a 4.2644111,3.9671562 89.459624 0 1 1.56186,0.338867 l 0.20695,15.617883 a 4.2644111,3.9671562 89.459624 0 1 -1.5523,0.381982 z"
       style="fill:#ffffff;stroke-width:0.0886927"
       id="path14-2-23-7-6-6-4-0-1-1" />
    <path
       d="m 200.63734,53.308098 4.13975,-0.05732 0.2165,16.338732 -4.13975,0.05732 z"
       style="fill:#ffffff;stroke-width:0.0886927"
       id="path11-8-38-2-8-4-6-2-1-6" />
    <path
       d="m 204.99359,69.589515 -0.2165,-16.338732 2.40977,-0.03336 0.2165,16.338732 z"
       style="fill:#ffffff;stroke-width:0.0886927"
       id="path13-5-5-2-5-8-1-5-4-4" />
    <path
       d="m 189.44229,58.858619 c -0.77507,1.655704 -4.25131,9.747598 -0.75665,14.957473 l 0.16369,0.0877 9.46282,-16.565466 -6.12767,-3.280038 z"
       style="fill:#ffffff;stroke-width:0.0886927"
       id="path18-7-6-5-2-1-0-5-1-0-6-8-0" />
    <path
       d="m 193.30902,60.932463 0.0911,0.240093 c 0,0 -0.34809,1.750689 16.54444,0.02957 a 8.472605,8.6968948 24.763959 0 1 -3.19744,8.39516 8.472605,8.6968948 24.763959 0 1 -11.93322,-1.373197 8.472605,8.6968948 24.763959 0 1 -1.50508,-7.291527 z"
       style="fill:#ffffff;stroke-width:0.0886927"
       id="path6-2-16-4-6-4-4-55-1-2" />
    <path
       id="path4-6-2-8-3-7-1-01-9-64"
       style="fill:#333333;stroke-width:0.0886927"
       d="m 193.32495,60.868998 a 8.472605,8.6968948 24.763959 0 0 -0.0161,0.0636 l -0.0245,-0.06433 z m 0,0 16.61915,0.328998 a 8.472605,8.6968948 24.763959 0 1 7.2e-4,0.0059 c -16.89275,1.721266 -16.54467,-0.02943 -16.54467,-0.02943 l -0.0913,-0.240102 a 8.472605,8.6968948 24.763959 0 1 0.016,-0.06352 z m 16.61979,0.333028 a 8.472605,8.6968948 24.763959 0 0 -7.1e-4,-0.006 l 0.0347,7.18e-4 c -0.0116,0.0015 -0.0223,0.0016 -0.0341,0.0034 z m -13.54298,-5.14501 a 8.472605,8.6968948 24.763959 0 1 11.93322,1.373211 8.472605,8.6968948 24.763959 0 1 1.60912,3.767769 l -16.61915,-0.328998 a 8.472605,8.6968948 24.763959 0 1 3.07681,-4.811982 z" />
    <path
       d="m 211.29196,56.690628 -0.20695,-15.617884 a 4.2644111,3.9671562 89.459624 0 1 2.46149,3.870302 l 0.10351,7.810728 a 4.2644111,3.9671562 89.459624 0 1 -2.35804,3.936854 z"
       style="fill:#ffffff;stroke-width:0.0886927"
       id="path10-5-3-2-9-4-9-7-0-7-8" />
    <path
       d="m 189.94345,45.269827 a 4.2644111,3.9671562 89.459624 0 1 3.91034,-4.319008 l 6.53716,-0.0905 0.2165,16.338732 -6.53716,0.0905 a 4.2644111,3.9671562 89.459624 0 1 -4.02334,-4.208995 z"
       style="fill:#ffffff;stroke-width:0.0886927"
       id="path7-7-10-3-2-0-6-8-7-8-0" />
    <path
       d="m 207.15698,57.108367 -0.21651,-16.338733 2.58269,-0.03575 a 4.2644111,3.9671562 89.459624 0 1 1.56185,0.338868 l 0.20695,15.617882 a 4.2644111,3.9671562 89.459624 0 1 -1.55231,0.381982 z"
       style="fill:#ffffff;stroke-width:0.0886927"
       id="path14-2-23-7-6-6-4-0-1-1-9" />
    <path
       d="m 200.39095,40.860311 4.13974,-0.05732 0.21651,16.338732 -4.13975,0.05732 z"
       style="fill:#ffffff;stroke-width:0.0886927"
       id="path11-8-38-2-8-4-6-2-1-6-0" />
    <path
       d="m 204.7472,57.141729 -0.21651,-16.338732 2.40978,-0.03336 0.21651,16.338732 z"
       style="fill:#ffffff;stroke-width:0.0886927"
       id="path13-5-5-2-5-8-1-5-4-4-7" />
    <path
       d="m 193.06262,48.484677 0.0913,0.240094 c 0,0 -0.34809,1.750688 16.54443,0.02957 a 8.472605,8.6968948 24.763959 0 1 -3.19743,8.39516 8.472605,8.6968948 24.763959 0 1 -11.93322,-1.373197 8.472605,8.6968948 24.763959 0 1 -1.50508,-7.291527 z"
       style="fill:#ffffff;stroke-width:0.0886927"
       id="path6-2-16-4-6-4-4-55-1-2-3" />
    <path
       id="path4-6-2-8-3-7-1-01-9-64-6"
       style="fill:#333333;stroke-width:0.0886927"
       d="m 193.07855,48.421212 a 8.472605,8.6968948 24.763959 0 0 -0.0161,0.06359 l -0.0245,-0.06433 z m 0,0 16.61916,0.328998 a 8.472605,8.6968948 24.763959 0 1 7.2e-4,0.0059 c -16.89274,1.721264 -16.54467,-0.02943 -16.54467,-0.02943 l -0.0912,-0.240102 a 8.472605,8.6968948 24.763959 0 1 0.016,-0.06352 z m 16.61981,0.333029 a 8.472605,8.6968948 24.763959 0 0 -7.1e-4,-0.0059 l 0.0346,7.17e-4 c -0.0116,0.0015 -0.0223,0.0016 -0.0341,0.0034 z M 196.15538,43.60923 a 8.472605,8.6968948 24.763959 0 1 11.93321,1.373211 8.472605,8.6968948 24.763959 0 1 1.60912,3.767769 l -16.61916,-0.328998 a 8.472605,8.6968948 24.763959 0 1 3.07683,-4.811982 z" />
  </g>
</svg>
