<?xml version="1.0" encoding="UTF-8" standalone="no"?>
<!-- Created with Inkscape (http://www.inkscape.org/) -->

<svg
   width="400mm"
   height="400mm"
   viewBox="0 0 400 400"
   version="1.1"
   id="svg1"
   inkscape:export-filename="2d6 draft.png"
   inkscape:export-xdpi="96"
   inkscape:export-ydpi="96"
   inkscape:version="1.3.2 (091e20e, 2023-11-25, custom)"
   sodipodi:docname="2d6 draft.svg"
   xmlns:inkscape="http://www.inkscape.org/namespaces/inkscape"
   xmlns:sodipodi="http://sodipodi.sourceforge.net/DTD/sodipodi-0.dtd"
   xmlns="http://www.w3.org/2000/svg"
   xmlns:svg="http://www.w3.org/2000/svg">
  <sodipodi:namedview
     id="namedview1"
     pagecolor="#505050"
     bordercolor="#eeeeee"
     borderopacity="1"
     inkscape:showpageshadow="0"
     inkscape:pageopacity="0"
     inkscape:pagecheckerboard="0"
     inkscape:deskcolor="#505050"
     inkscape:document-units="mm"
     inkscape:zoom="0.4894542"
     inkscape:cx="225.76168"
     inkscape:cy="587.38898"
     inkscape:window-width="1920"
     inkscape:window-height="991"
     inkscape:window-x="-9"
     inkscape:window-y="-9"
     inkscape:window-maximized="1"
     inkscape:current-layer="layer1"
     showguides="false" />
  <defs
     id="defs1" />
  <g
     inkscape:label="Capa 1"
     inkscape:groupmode="layer"
     id="layer1">
    <path
       d="M 0,0 V 400 M 2.6458333,0 V 400 M 5.2916666,0 V 400 M 7.9374999,0 V 400 M 10.583333,0 V 400 M 13.229167,0 V 400 M 15.875,0 V 400 M 18.520833,0 V 400 M 21.166667,0 V 400 M 23.8125,0 V 400 M 26.458333,0 V 400 M 29.104166,0 V 400 M 31.75,0 V 400 M 34.395833,0 V 400 M 37.041666,0 V 400 M 39.6875,0 V 400 M 42.333333,0 V 400 M 44.979166,0 V 400 M 47.625,0 V 400 M 50.270833,0 V 400 M 52.916666,0 V 400 M 55.5625,0 V 400 M 58.208333,0 V 400 M 60.854166,0 V 400 M 63.5,0 V 400 M 66.145833,0 V 400 M 68.791666,0 V 400 M 71.437499,0 V 400 M 74.083333,0 V 400 M 76.729166,0 V 400 M 79.374999,0 V 400 M 82.020833,0 V 400 M 84.666666,0 V 400 M 87.312499,0 V 400 M 89.958333,0 V 400 M 92.604166,0 V 400 M 95.249999,0 V 400 M 97.895833,0 V 400 M 100.54167,0 V 400 M 103.1875,0 V 400 M 105.83333,0 V 400 M 108.47917,0 V 400 M 111.125,0 V 400 M 113.77083,0 V 400 M 116.41667,0 V 400 M 119.0625,0 V 400 M 121.70833,0 V 400 M 124.35417,0 V 400 M 127,0 V 400 M 129.64583,0 V 400 M 132.29167,0 V 400 M 134.9375,0 V 400 M 137.58333,0 V 400 M 140.22917,0 V 400 M 142.875,0 V 400 M 145.52083,0 V 400 M 148.16667,0 V 400 M 150.8125,0 V 400 M 153.45833,0 V 400 M 156.10417,0 V 400 M 158.75,0 V 400 M 161.39583,0 V 400 M 164.04167,0 V 400 M 166.6875,0 V 400 M 169.33333,0 V 400 M 171.97917,0 V 400 M 174.625,0 V 400 M 177.27083,0 V 400 M 179.91667,0 V 400 M 182.5625,0 V 400 M 185.20833,0 V 400 M 187.85417,0 V 400 M 190.5,0 V 400 M 193.14583,0 V 400 M 195.79167,0 V 400 M 198.4375,0 V 400 M 201.08333,0 V 400 M 203.72917,0 V 400 M 206.375,0 V 400 M 209.02083,0 V 400 M 211.66667,0 V 400 M 214.3125,0 V 400 M 216.95833,0 V 400 M 219.60416,0 V 400 M 222.25,0 V 400 M 224.89583,0 V 400 M 227.54166,0 V 400 M 230.1875,0 V 400 M 232.83333,0 V 400 M 235.47916,0 V 400 M 238.125,0 V 400 M 240.77083,0 V 400 M 243.41666,0 V 400 M 246.0625,0 V 400 M 248.70833,0 V 400 M 251.35416,0 V 400 M 254,0 V 400 M 256.64583,0 V 400 M 259.29166,0 V 400 M 261.9375,0 V 400 M 264.58333,0 V 400 M 267.22916,0 V 400 M 269.875,0 V 400 M 272.52083,0 V 400 M 275.16666,0 V 400 M 277.8125,0 V 400 M 280.45833,0 V 400 M 283.10416,0 V 400 M 285.75,0 V 400 M 288.39583,0 V 400 M 291.04166,0 V 400 M 293.6875,0 V 400 M 296.33333,0 V 400 M 298.97916,0 V 400 M 301.625,0 V 400 M 304.27083,0 V 400 M 306.91666,0 V 400 M 309.5625,0 V 400 M 312.20833,0 V 400 M 314.85416,0 V 400 M 317.5,0 V 400 M 320.14583,0 V 400 M 322.79166,0 V 400 M 325.4375,0 V 400 M 328.08333,0 V 400 M 330.72916,0 V 400 M 333.375,0 V 400 M 336.02083,0 V 400 M 338.66666,0 V 400 M 341.3125,0 V 400 M 343.95833,0 V 400 M 346.60416,0 V 400 M 349.25,0 V 400 M 351.89583,0 V 400 M 354.54166,0 V 400 M 357.1875,0 V 400 M 359.83333,0 V 400 M 362.47916,0 V 400 M 365.125,0 V 400 M 367.77083,0 V 400 M 370.41666,0 V 400 M 373.0625,0 V 400 M 375.70833,0 V 400 M 378.35416,0 V 400 M 381,0 V 400 M 383.64583,0 V 400 M 386.29166,0 V 400 M 388.9375,0 V 400 M 391.58333,0 V 400 M 394.22916,0 V 400 M 396.875,0 V 400 M 399.52083,0 V 400 M 0,0 H 400 M 0,2.6458333 H 400 M 0,5.2916666 H 400 M 0,7.9374999 H 400 M 0,10.583333 H 400 M 0,13.229167 H 400 M 0,15.875 H 400 M 0,18.520833 H 400 M 0,21.166667 H 400 M 0,23.8125 H 400 M 0,26.458333 H 400 M 0,29.104166 H 400 M 0,31.75 H 400 M 0,34.395833 H 400 M 0,37.041666 H 400 M 0,39.6875 H 400 M 0,42.333333 H 400 M 0,44.979166 H 400 M 0,47.625 H 400 M 0,50.270833 H 400 M 0,52.916666 H 400 M 0,55.5625 H 400 M 0,58.208333 H 400 M 0,60.854166 H 400 M 0,63.5 H 400 M 0,66.145833 H 400 M 0,68.791666 H 400 M 0,71.437499 H 400 M 0,74.083333 H 400 M 0,76.729166 H 400 M 0,79.374999 H 400 M 0,82.020833 H 400 M 0,84.666666 H 400 M 0,87.312499 H 400 M 0,89.958333 H 400 M 0,92.604166 H 400 M 0,95.249999 H 400 M 0,97.895833 H 400 M 0,100.54167 H 400 M 0,103.1875 H 400 M 0,105.83333 H 400 M 0,108.47917 H 400 M 0,111.125 H 400 M 0,113.77083 H 400 M 0,116.41667 H 400 M 0,119.0625 H 400 M 0,121.70833 H 400 M 0,124.35417 H 400 M 0,127 H 400 M 0,129.64583 H 400 M 0,132.29167 H 400 M 0,134.9375 H 400 M 0,137.58333 H 400 M 0,140.22917 H 400 M 0,142.875 H 400 M 0,145.52083 H 400 M 0,148.16667 H 400 M 0,150.8125 H 400 M 0,153.45833 H 400 M 0,156.10417 H 400 M 0,158.75 H 400 M 0,161.39583 H 400 M 0,164.04167 H 400 M 0,166.6875 H 400 M 0,169.33333 H 400 M 0,171.97917 H 400 M 0,174.625 H 400 M 0,177.27083 H 400 M 0,179.91667 H 400 M 0,182.5625 H 400 M 0,185.20833 H 400 M 0,187.85417 H 400 M 0,190.5 H 400 M 0,193.14583 H 400 M 0,195.79167 H 400 M 0,198.4375 H 400 M 0,201.08333 H 400 M 0,203.72917 H 400 M 0,206.375 H 400 M 0,209.02083 H 400 M 0,211.66667 H 400 M 0,214.3125 H 400 M 0,216.95833 H 400 M 0,219.60416 H 400 M 0,222.25 H 400 M 0,224.89583 H 400 M 0,227.54166 H 400 M 0,230.1875 H 400 M 0,232.83333 H 400 M 0,235.47916 H 400 M 0,238.125 H 400 M 0,240.77083 H 400 M 0,243.41666 H 400 M 0,246.0625 H 400 M 0,248.70833 H 400 M 0,251.35416 H 400 M 0,254 H 400 M 0,256.64583 H 400 M 0,259.29166 H 400 M 0,261.9375 H 400 M 0,264.58333 H 400 M 0,267.22916 H 400 M 0,269.875 H 400 M 0,272.52083 H 400 M 0,275.16666 H 400 M 0,277.8125 H 400 M 0,280.45833 H 400 M 0,283.10416 H 400 M 0,285.75 H 400 M 0,288.39583 H 400 M 0,291.04166 H 400 M 0,293.6875 H 400 M 0,296.33333 H 400 M 0,298.97916 H 400 M 0,301.625 H 400 M 0,304.27083 H 400 M 0,306.91666 H 400 M 0,309.5625 H 400 M 0,312.20833 H 400 M 0,314.85416 H 400 M 0,317.5 H 400 M 0,320.14583 H 400 M 0,322.79166 H 400 M 0,325.4375 H 400 M 0,328.08333 H 400 M 0,330.72916 H 400 M 0,333.375 H 400 M 0,336.02083 H 400 M 0,338.66666 H 400 M 0,341.3125 H 400 M 0,343.95833 H 400 M 0,346.60416 H 400 M 0,349.25 H 400 M 0,351.89583 H 400 M 0,354.54166 H 400 M 0,357.1875 H 400 M 0,359.83333 H 400 M 0,362.47916 H 400 M 0,365.125 H 400 M 0,367.77083 H 400 M 0,370.41666 H 400 M 0,373.0625 H 400 M 0,375.70833 H 400 M 0,378.35416 H 400 M 0,381 H 400 M 0,383.64583 H 400 M 0,386.29166 H 400 M 0,388.9375 H 400 M 0,391.58333 H 400 M 0,394.22916 H 400 M 0,396.875 H 400 M 0,399.52083 h 400"
       style="display:none;fill:none;stroke:#000000;stroke-width:0.264583px"
       id="path1" />
    <path
       d="m 194.56007,325.92266 h 23.44061 a 6.399813,5.7352026 0 0 1 -5.85895,3.48407 h -11.72298 a 6.399813,5.7352026 0 0 1 -5.85868,-3.48407 z"
       style="fill:#ffffff;stroke-width:0.130641"
       id="path10-5-3-2-9-4-9" />
    <path
       d="m 212.14173,295.28126 a 6.399813,5.7352026 0 0 1 6.3999,5.73528 v 9.45148 H 194.0191 v -9.45148 a 6.399813,5.7352026 0 0 1 6.39965,-5.73528 z"
       style="fill:#ffffff;stroke-width:0.130641"
       id="path7-7-10-3-2-0-6" />
    <path
       d="m 197.28434,275.21998 -0.11148,0.34877 c 0,0 -2.03802,1.64168 19.97462,14.75487 a 13.158494,12.14934 0 0 1 -11.62056,6.51259 13.158494,12.14934 0 0 1 -13.15858,-12.14932 13.158494,12.14934 0 0 1 4.91583,-9.46691 z"
       style="fill:#ffffff;stroke-width:0.130641"
       id="path6-2-16-4-6-4-4" />
    <path
       id="path4-6-2-8-3-7-1"
       style="fill:#aa0000;stroke-width:0.130641"
       d="m 197.36224,275.16342 a 13.158494,12.14934 0 0 0 -0.0781,0.0566 l 0.0297,-0.0936 z m 0,0 19.78836,15.15513 a 13.158494,12.14934 0 0 1 -0.005,0.007 c -22.01262,-13.113 -19.97461,-14.7547 -19.97461,-14.7547 l 0.11148,-0.34879 a 13.158494,12.14934 0 0 1 0.078,-0.0566 z m 19.78541,15.1602 a 13.158494,12.14934 0 0 0 0.005,-0.007 l 0.0412,0.0316 c -0.0154,-0.008 -0.0284,-0.018 -0.0443,-0.0266 z m -11.62058,-17.78605 a 13.158494,12.14934 0 0 1 13.15855,12.14932 13.158494,12.14934 0 0 1 -1.53502,5.63166 l -19.78836,-15.15513 a 13.158494,12.14934 0 0 1 8.16483,-2.62585 z" />
    <path
       d="m 194.0191,319.93737 h 24.52253 v 3.73406 a 6.399813,5.7352026 0 0 1 -0.54095,2.25123 h -23.44061 a 6.399813,5.7352026 0 0 1 -0.54097,-2.25123 z"
       style="fill:#333333;stroke-width:0.130641"
       id="path14-2-23-7-6-6-4" />
    <path
       d="m 218.54163,310.46802 v 5.98529 H 194.0191 v -5.98529 z"
       style="fill:#333333;stroke-width:0.130641"
       id="path11-8-38-2-8-4-6" />
    <path
       d="m 194.0191,316.45331 h 24.52253 v 3.48406 H 194.0191 Z"
       style="fill:#aa0000;stroke-width:0.130641"
       id="path13-5-5-2-5-8-1" />
    <path
       d="m 213.71544,360.86175 c -0.51585,-0.41553 -15.22178,-12.4218 -15.94964,-30.46241 v -2.10629 h 15.94964 z"
       style="fill:#ffffff;stroke-width:0.109199"
       id="path21-0-72-1-8-9-0" />
    <path
       d="m 192.19295,305.71348 c -2.62776,-0.2083 -15.2182,-1.63266 -18.68753,-10.01893 l 0.0264,-0.27779 27.67256,-0.14125 -0.99244,10.39699 z"
       style="fill:#ffffff;stroke-width:0.130641"
       id="path18-7-6-5-2-1-0-5" />
    <path
       d="m 194.69379,265.52939 h 23.44061 a 6.399813,5.7352026 0 0 1 -5.85895,3.48407 h -11.72298 a 6.399813,5.7352026 0 0 1 -5.85868,-3.48407 z"
       style="fill:#ffffff;stroke-width:0.130641"
       id="path10-5-3-2-9-4-9-2" />
    <path
       d="m 212.27545,234.88799 a 6.399813,5.7352026 0 0 1 6.3999,5.73528 v 9.45148 h -24.52253 v -9.45148 a 6.399813,5.7352026 0 0 1 6.39965,-5.73528 z"
       style="fill:#ffffff;stroke-width:0.130641"
       id="path7-7-10-3-2-0-6-6" />
    <path
       d="m 197.41806,214.82671 -0.11148,0.34877 c 0,0 -2.03802,1.64168 19.97462,14.75487 a 13.158494,12.14934 0 0 1 -11.62056,6.51259 13.158494,12.14934 0 0 1 -13.15858,-12.14932 13.158494,12.14934 0 0 1 4.91583,-9.46691 z"
       style="fill:#ffffff;stroke-width:0.130641"
       id="path6-2-16-4-6-4-4-5" />
    <path
       id="path4-6-2-8-3-7-1-0"
       style="fill:#aa0000;stroke-width:0.130641"
       d="m 197.49596,214.77015 a 13.158494,12.14934 0 0 0 -0.0781,0.0566 l 0.0297,-0.0936 z m 0,0 19.78836,15.15513 a 13.158494,12.14934 0 0 1 -0.005,0.007 c -22.01262,-13.113 -19.97461,-14.7547 -19.97461,-14.7547 l 0.11148,-0.34879 a 13.158494,12.14934 0 0 1 0.078,-0.0566 z m 19.78541,15.1602 a 13.158494,12.14934 0 0 0 0.005,-0.007 l 0.0412,0.0316 c -0.0154,-0.008 -0.0284,-0.018 -0.0443,-0.0266 z M 205.66079,212.1443 a 13.158494,12.14934 0 0 1 13.15855,12.14932 13.158494,12.14934 0 0 1 -1.53502,5.63166 l -19.78836,-15.15513 a 13.158494,12.14934 0 0 1 8.16483,-2.62585 z" />
    <path
       d="m 194.15282,259.5441 h 24.52253 v 3.73406 a 6.399813,5.7352026 0 0 1 -0.54095,2.25123 h -23.44061 a 6.399813,5.7352026 0 0 1 -0.54097,-2.25123 z"
       style="fill:#333333;stroke-width:0.130641"
       id="path14-2-23-7-6-6-4-8" />
    <path
       d="m 218.67535,250.07475 v 5.98529 h -24.52253 v -5.98529 z"
       style="fill:#333333;stroke-width:0.130641"
       id="path11-8-38-2-8-4-6-8" />
    <path
       d="m 194.15282,256.06004 h 24.52253 v 3.48406 h -24.52253 z"
       style="fill:#aa0000;stroke-width:0.130641"
       id="path13-5-5-2-5-8-1-9" />
    <path
       d="m 213.84916,300.46848 c -0.51585,-0.41553 -15.22178,-12.4218 -15.94964,-30.46241 v -2.10629 h 15.94964 z"
       style="fill:#ffffff;stroke-width:0.109199"
       id="path21-0-72-1-8-9-0-6" />
    <path
       d="m 194.01405,204.527 h 23.44061 a 6.399813,5.7352026 0 0 1 -5.85895,3.48407 h -11.72298 a 6.399813,5.7352026 0 0 1 -5.85868,-3.48407 z"
       style="fill:#ffffff;stroke-width:0.130641"
       id="path10-5-3-2-9-4-9-3" />
    <path
       d="m 211.59571,173.8856 a 6.399813,5.7352026 0 0 1 6.3999,5.73528 v 9.45148 h -24.52253 v -9.45148 a 6.399813,5.7352026 0 0 1 6.39965,-5.73528 z"
       style="fill:#ffffff;stroke-width:0.130641"
       id="path7-7-10-3-2-0-6-2" />
    <path
       d="m 196.73832,153.82432 -0.11148,0.34877 c 0,0 -2.03802,1.64168 19.97462,14.75487 a 13.158494,12.14934 0 0 1 -11.62056,6.51259 13.158494,12.14934 0 0 1 -13.15858,-12.14932 13.158494,12.14934 0 0 1 4.91583,-9.46691 z"
       style="fill:#ffffff;stroke-width:0.130641"
       id="path6-2-16-4-6-4-4-3" />
    <path
       id="path4-6-2-8-3-7-1-8"
       style="fill:#aa0000;stroke-width:0.130641"
       d="m 196.81622,153.76776 a 13.158494,12.14934 0 0 0 -0.0781,0.0566 l 0.0297,-0.0936 z m 0,0 19.78836,15.15513 a 13.158494,12.14934 0 0 1 -0.005,0.007 c -22.01262,-13.113 -19.97461,-14.7547 -19.97461,-14.7547 l 0.11148,-0.34879 a 13.158494,12.14934 0 0 1 0.078,-0.0566 z m 19.78541,15.1602 a 13.158494,12.14934 0 0 0 0.005,-0.007 l 0.0412,0.0316 c -0.0154,-0.008 -0.0284,-0.018 -0.0443,-0.0266 z m -11.62058,-17.78605 a 13.158494,12.14934 0 0 1 13.15855,12.14932 13.158494,12.14934 0 0 1 -1.53502,5.63166 l -19.78836,-15.15513 a 13.158494,12.14934 0 0 1 8.16483,-2.62585 z" />
    <path
       d="m 193.47308,198.54171 h 24.52253 v 3.73406 a 6.399813,5.7352026 0 0 1 -0.54095,2.25123 h -23.44061 a 6.399813,5.7352026 0 0 1 -0.54097,-2.25123 z"
       style="fill:#333333;stroke-width:0.130641"
       id="path14-2-23-7-6-6-4-5" />
    <path
       d="m 217.99561,189.07236 v 5.98529 h -24.52253 v -5.98529 z"
       style="fill:#333333;stroke-width:0.130641"
       id="path11-8-38-2-8-4-6-87" />
    <path
       d="m 193.47308,195.05765 h 24.52253 v 3.48406 h -24.52253 z"
       style="fill:#aa0000;stroke-width:0.130641"
       id="path13-5-5-2-5-8-1-0" />
    <path
       d="m 213.16942,239.46609 c -0.51585,-0.41553 -15.22178,-12.4218 -15.94964,-30.46241 v -2.10629 h 15.94964 z"
       style="fill:#ffffff;stroke-width:0.109199"
       id="path21-0-72-1-8-9-0-3" />
    <path
       d="m 194.71223,146.04269 h 23.44061 a 6.399813,5.7352026 0 0 1 -5.85895,3.48407 h -11.72298 a 6.399813,5.7352026 0 0 1 -5.85868,-3.48407 z"
       style="fill:#ffffff;stroke-width:0.130641"
       id="path10-5-3-2-9-4-9-6" />
    <path
       d="m 212.29389,115.40128 a 6.399813,5.7352026 0 0 1 6.3999,5.73528 v 9.45149 h -24.52253 v -9.45149 a 6.399813,5.7352026 0 0 1 6.39965,-5.73528 z"
       style="fill:#ffffff;stroke-width:0.130641"
       id="path7-7-10-3-2-0-6-7" />
    <path
       d="m 197.4365,95.340001 -0.11148,0.34877 c 0,0 -2.03802,1.64168 19.97462,14.754869 a 13.158494,12.14934 0 0 1 -11.62056,6.51259 13.158494,12.14934 0 0 1 -13.15858,-12.14932 13.158494,12.14934 0 0 1 4.91583,-9.466909 z"
       style="fill:#ffffff;stroke-width:0.130641"
       id="path6-2-16-4-6-4-4-4" />
    <path
       id="path4-6-2-8-3-7-1-09"
       style="fill:#aa0000;stroke-width:0.130641"
       d="m 197.5144,95.283441 a 13.158494,12.14934 0 0 0 -0.0781,0.0566 l 0.0297,-0.0936 z m 0,0 19.78836,15.155129 a 13.158494,12.14934 0 0 1 -0.005,0.007 C 195.28514,97.332571 197.32315,95.690871 197.32315,95.690871 l 0.11148,-0.34879 a 13.158494,12.14934 0 0 1 0.078,-0.0566 z m 19.78541,15.160199 a 13.158494,12.14934 0 0 0 0.005,-0.007 l 0.0412,0.0316 c -0.0154,-0.008 -0.0284,-0.018 -0.0443,-0.0266 z M 205.67923,92.657591 a 13.158494,12.14934 0 0 1 13.15855,12.149319 13.158494,12.14934 0 0 1 -1.53502,5.63166 L 197.5144,95.283441 a 13.158494,12.14934 0 0 1 8.16483,-2.62585 z" />
    <path
       d="m 194.17126,140.0574 h 24.52253 v 3.73406 a 6.399813,5.7352026 0 0 1 -0.54095,2.25123 h -23.44061 a 6.399813,5.7352026 0 0 1 -0.54097,-2.25123 z"
       style="fill:#333333;stroke-width:0.130641"
       id="path14-2-23-7-6-6-4-82" />
    <path
       d="m 218.69379,130.58805 v 5.98529 h -24.52253 v -5.98529 z"
       style="fill:#333333;stroke-width:0.130641"
       id="path11-8-38-2-8-4-6-4" />
    <path
       d="m 194.17126,136.57334 h 24.52253 v 3.48406 h -24.52253 z"
       style="fill:#aa0000;stroke-width:0.130641"
       id="path13-5-5-2-5-8-1-02" />
    <path
       d="m 213.8676,180.98178 c -0.51585,-0.41553 -15.22178,-12.4218 -15.94964,-30.46241 v -2.10629 h 15.94964 z"
       style="fill:#ffffff;stroke-width:0.109199"
       id="path21-0-72-1-8-9-0-60" />
    <path
       d="m 194.17167,84.071874 h 23.44061 a 6.399813,5.7352026 0 0 1 -5.85895,3.48407 h -11.72298 a 6.399813,5.7352026 0 0 1 -5.85868,-3.48407 z"
       style="fill:#ffffff;stroke-width:0.130641"
       id="path10-5-3-2-9-4-9-7" />
    <path
       d="m 211.75333,53.430474 a 6.399813,5.7352026 0 0 1 6.3999,5.73528 v 9.45148 H 193.6307 v -9.45148 a 6.399813,5.7352026 0 0 1 6.39965,-5.73528 z"
       style="fill:#ffffff;stroke-width:0.130641"
       id="path7-7-10-3-2-0-6-8" />
    <path
       d="m 196.89594,33.369194 -0.11148,0.34877 c 0,0 -2.03802,1.64168 19.97462,14.75487 a 13.158494,12.14934 0 0 1 -11.62056,6.51259 13.158494,12.14934 0 0 1 -13.15858,-12.14932 13.158494,12.14934 0 0 1 4.91583,-9.46691 z"
       style="fill:#ffffff;stroke-width:0.130641"
       id="path6-2-16-4-6-4-4-55" />
    <path
       id="path4-6-2-8-3-7-1-01"
       style="fill:#333333;stroke-width:0.130641"
       d="m 196.97384,33.312634 a 13.158494,12.14934 0 0 0 -0.0781,0.0566 l 0.0297,-0.0936 z m 0,0 19.78836,15.15513 a 13.158494,12.14934 0 0 1 -0.005,0.007 c -22.01262,-13.113 -19.97461,-14.7547 -19.97461,-14.7547 l 0.11148,-0.34879 a 13.158494,12.14934 0 0 1 0.078,-0.0566 z m 19.78541,15.1602 a 13.158494,12.14934 0 0 0 0.005,-0.007 l 0.0412,0.0316 c -0.0154,-0.008 -0.0284,-0.018 -0.0443,-0.0266 z m -11.62058,-17.78605 a 13.158494,12.14934 0 0 1 13.15855,12.14932 13.158494,12.14934 0 0 1 -1.53502,5.63166 l -19.78836,-15.15513 a 13.158494,12.14934 0 0 1 8.16483,-2.62585 z" />
    <path
       d="m 193.6307,78.086584 h 24.52253 v 3.73406 a 6.399813,5.7352026 0 0 1 -0.54095,2.25123 h -23.44061 a 6.399813,5.7352026 0 0 1 -0.54097,-2.25123 z"
       style="fill:#333333;stroke-width:0.130641"
       id="path14-2-23-7-6-6-4-0" />
    <path
       d="m 218.15323,68.617234 v 5.98529 H 193.6307 v -5.98529 z"
       style="fill:#333333;stroke-width:0.130641"
       id="path11-8-38-2-8-4-6-2" />
    <path
       d="m 193.6307,74.602524 h 24.52253 v 3.48406 H 193.6307 Z"
       style="fill:#aa0000;stroke-width:0.130641"
       id="path13-5-5-2-5-8-1-5" />
    <path
       d="m 213.32704,119.01096 c -0.51585,-0.41553 -15.22178,-12.4218 -15.94964,-30.462406 v -2.10629 h 15.94964 z"
       style="fill:#ffffff;stroke-width:0.109199"
       id="path21-0-72-1-8-9-0-9" />
    <path
       d="m 198.09293,45.242603 c 0.27535,-2.621591 2.02078,-15.171536 10.49293,-18.425564 l 0.27702,0.03353 -0.56553,27.66714 -10.36825,-1.257651 z"
       style="fill:#ffffff;stroke-width:0.130641"
       id="path18-7-6-5-2-1-0-5-5" />
    <path
       d="m 181.8537,325.9658 h -23.44061 a 6.399813,5.7352026 0 0 0 5.85895,3.48407 h 11.72298 a 6.399813,5.7352026 0 0 0 5.85868,-3.48407 z"
       style="fill:#ffffff;stroke-width:0.130641"
       id="path10-5-3-2-9-4-9-31" />
    <path
       d="m 164.27204,295.3244 a 6.399813,5.7352026 0 0 0 -6.3999,5.73528 v 9.45148 h 24.52253 v -9.45148 a 6.399813,5.7352026 0 0 0 -6.39965,-5.73528 z"
       style="fill:#ffffff;stroke-width:0.130641"
       id="path7-7-10-3-2-0-6-9" />
    <path
       d="m 179.12943,275.26312 0.11148,0.34877 c 0,0 2.03802,1.64168 -19.97462,14.75487 a 13.158494,12.14934 0 0 0 11.62056,6.51259 13.158494,12.14934 0 0 0 13.15858,-12.14932 13.158494,12.14934 0 0 0 -4.91583,-9.46691 z"
       style="fill:#ffffff;stroke-width:0.130641"
       id="path6-2-16-4-6-4-4-57" />
    <path
       id="path4-6-2-8-3-7-1-7"
       style="fill:#aa0000;stroke-width:0.130641"
       d="m 179.05153,275.20656 a 13.158494,12.14934 0 0 1 0.0781,0.0566 l -0.0297,-0.0936 z m 0,0 -19.78836,15.15513 a 13.158494,12.14934 0 0 0 0.005,0.007 c 22.01262,-13.113 19.97461,-14.7547 19.97461,-14.7547 l -0.11148,-0.34879 a 13.158494,12.14934 0 0 0 -0.078,-0.0566 z m -19.78541,15.1602 a 13.158494,12.14934 0 0 1 -0.005,-0.007 l -0.0412,0.0316 c 0.0154,-0.008 0.0284,-0.018 0.0443,-0.0266 z m 11.62058,-17.78605 a 13.158494,12.14934 0 0 0 -13.15855,12.14932 13.158494,12.14934 0 0 0 1.53502,5.63166 l 19.78836,-15.15513 a 13.158494,12.14934 0 0 0 -8.16483,-2.62585 z" />
    <path
       d="m 182.39467,319.98051 h -24.52253 v 3.73406 a 6.399813,5.7352026 0 0 0 0.54095,2.25123 h 23.44061 a 6.399813,5.7352026 0 0 0 0.54097,-2.25123 z"
       style="fill:#333333;stroke-width:0.130641"
       id="path14-2-23-7-6-6-4-1" />
    <path
       d="m 157.87214,310.51116 v 5.98529 h 24.52253 v -5.98529 z"
       style="fill:#333333;stroke-width:0.130641"
       id="path11-8-38-2-8-4-6-1" />
    <path
       d="m 182.39467,316.49645 h -24.52253 v 3.48406 h 24.52253 z"
       style="fill:#aa0000;stroke-width:0.130641"
       id="path13-5-5-2-5-8-1-4" />
    <path
       d="m 162.69833,360.90489 c 0.51585,-0.41553 15.22178,-12.4218 15.94964,-30.46241 v -2.10629 h -15.94964 z"
       style="fill:#ffffff;stroke-width:0.109199"
       id="path21-0-72-1-8-9-0-1" />
    <path
       d="m 186.31575,293.0285 c 1.36818,-2.25314 7.57781,-13.29797 2.80542,-21.01744 l -0.24077,-0.14105 -16.30184,22.36159 9.01316,5.27686 z"
       style="fill:#ffffff;stroke-width:0.130641"
       id="path18-7-6-5-2-1-0-5-3" />
    <path
       d="m 146.54246,326.11216 h -23.44061 a 6.399813,5.7352026 0 0 0 5.85895,3.48407 h 11.72298 a 6.399813,5.7352026 0 0 0 5.85868,-3.48407 z"
       style="fill:#ffffff;stroke-width:0.130641"
       id="path10-5-3-2-9-4-9-32" />
    <path
       d="m 128.9608,295.47076 a 6.399813,5.7352026 0 0 0 -6.3999,5.73528 v 9.45148 h 24.52253 v -9.45148 a 6.399813,5.7352026 0 0 0 -6.39965,-5.73528 z"
       style="fill:#ffffff;stroke-width:0.130641"
       id="path7-7-10-3-2-0-6-67" />
    <path
       d="m 143.81819,275.40948 0.11148,0.34877 c 0,0 2.03802,1.64168 -19.97462,14.75487 a 13.158494,12.14934 0 0 0 11.62056,6.51259 13.158494,12.14934 0 0 0 13.15858,-12.14932 13.158494,12.14934 0 0 0 -4.91583,-9.46691 z"
       style="fill:#ffffff;stroke-width:0.130641"
       id="path6-2-16-4-6-4-4-43" />
    <path
       id="path4-6-2-8-3-7-1-9"
       style="fill:#aa0000;stroke-width:0.130641"
       d="m 143.74029,275.35292 a 13.158494,12.14934 0 0 1 0.0781,0.0566 l -0.0297,-0.0936 z m 0,0 -19.78836,15.15513 a 13.158494,12.14934 0 0 0 0.005,0.007 c 22.01262,-13.113 19.97461,-14.7547 19.97461,-14.7547 l -0.11148,-0.34879 a 13.158494,12.14934 0 0 0 -0.078,-0.0566 z m -19.78541,15.1602 a 13.158494,12.14934 0 0 1 -0.005,-0.007 l -0.0412,0.0316 c 0.0154,-0.008 0.0284,-0.018 0.0443,-0.0266 z m 11.62058,-17.78605 a 13.158494,12.14934 0 0 0 -13.15855,12.14932 13.158494,12.14934 0 0 0 1.53502,5.63166 l 19.78836,-15.15513 a 13.158494,12.14934 0 0 0 -8.16483,-2.62585 z" />
    <path
       d="M 147.08343,320.12687 H 122.5609 v 3.73406 a 6.399813,5.7352026 0 0 0 0.54095,2.25123 h 23.44061 a 6.399813,5.7352026 0 0 0 0.54097,-2.25123 z"
       style="fill:#333333;stroke-width:0.130641"
       id="path14-2-23-7-6-6-4-9" />
    <path
       d="m 122.5609,310.65752 v 5.98529 h 24.52253 v -5.98529 z"
       style="fill:#333333;stroke-width:0.130641"
       id="path11-8-38-2-8-4-6-5" />
    <path
       d="M 147.08343,316.64281 H 122.5609 v 3.48406 h 24.52253 z"
       style="fill:#aa0000;stroke-width:0.130641"
       id="path13-5-5-2-5-8-1-8" />
    <path
       d="m 127.38709,361.05125 c 0.51585,-0.41553 15.22178,-12.4218 15.94964,-30.46241 v -2.10629 h -15.94964 z"
       style="fill:#ffffff;stroke-width:0.109199"
       id="path21-0-72-1-8-9-0-33" />
    <path
       d="m 151.00451,293.17486 c 1.36818,-2.25314 7.57781,-13.29797 2.80542,-21.01744 l -0.24077,-0.14105 -16.30184,22.36159 9.01316,5.27686 z"
       style="fill:#ffffff;stroke-width:0.130641"
       id="path18-7-6-5-2-1-0-5-1" />
    <path
       d="M 110.593,326.13708 H 87.15238 a 6.399813,5.7352026 0 0 0 5.85895,3.48407 h 11.72299 a 6.399813,5.7352026 0 0 0 5.85868,-3.48407 z"
       style="fill:#ffffff;stroke-width:0.130641"
       id="path10-5-3-2-9-4-9-9" />
    <path
       d="m 93.01133,295.49568 a 6.399813,5.7352026 0 0 0 -6.3999,5.73528 v 9.45148 h 24.52254 v -9.45148 a 6.399813,5.7352026 0 0 0 -6.39965,-5.73528 z"
       style="fill:#ffffff;stroke-width:0.130641"
       id="path7-7-10-3-2-0-6-3" />
    <path
       d="m 107.86873,275.4344 0.11148,0.34877 c 0,0 2.03802,1.64168 -19.97463,14.75487 a 13.158494,12.14934 0 0 0 11.620566,6.51259 13.158494,12.14934 0 0 0 13.158584,-12.14932 13.158494,12.14934 0 0 0 -4.91583,-9.46691 z"
       style="fill:#ffffff;stroke-width:0.130641"
       id="path6-2-16-4-6-4-4-6" />
    <path
       id="path4-6-2-8-3-7-1-2"
       style="fill:#aa0000;stroke-width:0.130641"
       d="m 107.79083,275.37784 a 13.158494,12.14934 0 0 1 0.0781,0.0566 l -0.0297,-0.0936 z m 0,0 -19.78837,15.15513 a 13.158494,12.14934 0 0 0 0.005,0.007 c 22.01263,-13.113 19.97462,-14.7547 19.97462,-14.7547 l -0.11148,-0.34879 a 13.158494,12.14934 0 0 0 -0.078,-0.0566 z m -19.78542,15.1602 a 13.158494,12.14934 0 0 1 -0.005,-0.007 l -0.0412,0.0316 c 0.0154,-0.008 0.0284,-0.018 0.0443,-0.0266 z m 11.620586,-17.78605 a 13.158494,12.14934 0 0 0 -13.158556,12.14932 13.158494,12.14934 0 0 0 1.53502,5.63166 l 19.78837,-15.15513 a 13.158494,12.14934 0 0 0 -8.164834,-2.62585 z" />
    <path
       d="M 111.13397,320.15179 H 86.61143 v 3.73406 a 6.399813,5.7352026 0 0 0 0.54095,2.25123 H 110.593 a 6.399813,5.7352026 0 0 0 0.54097,-2.25123 z"
       style="fill:#333333;stroke-width:0.130641"
       id="path14-2-23-7-6-6-4-7" />
    <path
       d="m 86.61143,310.68244 v 5.98529 h 24.52254 v -5.98529 z"
       style="fill:#333333;stroke-width:0.130641"
       id="path11-8-38-2-8-4-6-3" />
    <path
       d="M 111.13397,316.66773 H 86.61143 v 3.48406 h 24.52254 z"
       style="fill:#aa0000;stroke-width:0.130641"
       id="path13-5-5-2-5-8-1-7" />
    <path
       d="m 91.43762,361.07617 c 0.51585,-0.41553 15.22179,-12.4218 15.94965,-30.46241 v -2.10629 H 91.43762 Z"
       style="fill:#ffffff;stroke-width:0.109199"
       id="path21-0-72-1-8-9-0-601" />
    <path
       d="m 115.05505,293.19978 c 1.36818,-2.25314 7.57781,-13.29797 2.80542,-21.01744 l -0.24077,-0.14105 -16.30184,22.36159 9.01316,5.27686 z"
       style="fill:#ffffff;stroke-width:0.130641"
       id="path18-7-6-5-2-1-0-5-9" />
    <path
       d="m 230.83209,325.93368 h 23.44061 a 6.399813,5.7352026 0 0 1 -5.85895,3.48407 h -11.72298 a 6.399813,5.7352026 0 0 1 -5.85868,-3.48407 z"
       style="fill:#ffffff;stroke-width:0.130641"
       id="path10-5-3-2-9-4-9-31-9" />
    <path
       d="m 248.41375,295.29228 a 6.399813,5.7352026 0 0 1 6.3999,5.73528 v 9.45148 h -24.52253 v -9.45148 a 6.399813,5.7352026 0 0 1 6.39965,-5.73528 z"
       style="fill:#ffffff;stroke-width:0.130641"
       id="path7-7-10-3-2-0-6-9-7" />
    <path
       d="m 233.55636,275.231 -0.11148,0.34877 c 0,0 -2.03802,1.64168 19.97462,14.75487 a 13.158494,12.14934 0 0 1 -11.62056,6.51259 13.158494,12.14934 0 0 1 -13.15858,-12.14932 13.158494,12.14934 0 0 1 4.91583,-9.46691 z"
       style="fill:#ffffff;stroke-width:0.130641"
       id="path6-2-16-4-6-4-4-57-8" />
    <path
       id="path4-6-2-8-3-7-1-7-6"
       style="fill:#aa0000;stroke-width:0.130641"
       d="m 233.63426,275.17444 a 13.158494,12.14934 0 0 0 -0.0781,0.0566 l 0.0297,-0.0936 z m 0,0 19.78836,15.15513 a 13.158494,12.14934 0 0 1 -0.005,0.007 c -22.01262,-13.113 -19.97461,-14.7547 -19.97461,-14.7547 l 0.11148,-0.34879 a 13.158494,12.14934 0 0 1 0.078,-0.0566 z m 19.78541,15.1602 a 13.158494,12.14934 0 0 0 0.005,-0.007 l 0.0412,0.0316 c -0.0154,-0.008 -0.0284,-0.018 -0.0443,-0.0266 z m -11.62058,-17.78605 a 13.158494,12.14934 0 0 1 13.15855,12.14932 13.158494,12.14934 0 0 1 -1.53502,5.63166 l -19.78836,-15.15513 a 13.158494,12.14934 0 0 1 8.16483,-2.62585 z" />
    <path
       d="m 230.29112,319.94839 h 24.52253 v 3.73406 a 6.399813,5.7352026 0 0 1 -0.54095,2.25123 h -23.44061 a 6.399813,5.7352026 0 0 1 -0.54097,-2.25123 z"
       style="fill:#333333;stroke-width:0.130641"
       id="path14-2-23-7-6-6-4-1-4" />
    <path
       d="m 254.81365,310.47904 v 5.98529 h -24.52253 v -5.98529 z"
       style="fill:#333333;stroke-width:0.130641"
       id="path11-8-38-2-8-4-6-1-0" />
    <path
       d="m 230.29112,316.46433 h 24.52253 v 3.48406 h -24.52253 z"
       style="fill:#aa0000;stroke-width:0.130641"
       id="path13-5-5-2-5-8-1-4-1" />
    <path
       d="m 249.98746,360.87277 c -0.51585,-0.41553 -15.22178,-12.4218 -15.94964,-30.46241 v -2.10629 h 15.94964 z"
       style="fill:#ffffff;stroke-width:0.109199"
       id="path21-0-72-1-8-9-0-1-2" />
    <path
       d="m 226.37004,292.99638 c -1.36818,-2.25314 -7.57781,-13.29797 -2.80542,-21.01744 l 0.24077,-0.14105 16.30184,22.36159 -9.01316,5.27686 z"
       style="fill:#ffffff;stroke-width:0.130641"
       id="path18-7-6-5-2-1-0-5-3-2" />
    <path
       d="m 266.14333,326.08004 h 23.44061 a 6.399813,5.7352026 0 0 1 -5.85895,3.48407 h -11.72298 a 6.399813,5.7352026 0 0 1 -5.85868,-3.48407 z"
       style="fill:#ffffff;stroke-width:0.130641"
       id="path10-5-3-2-9-4-9-32-4" />
    <path
       d="m 283.72499,295.43864 a 6.399813,5.7352026 0 0 1 6.3999,5.73528 v 9.45148 h -24.52253 v -9.45148 a 6.399813,5.7352026 0 0 1 6.39965,-5.73528 z"
       style="fill:#ffffff;stroke-width:0.130641"
       id="path7-7-10-3-2-0-6-67-4" />
    <path
       d="m 268.8676,275.37736 -0.11148,0.34877 c 0,0 -2.03802,1.64168 19.97462,14.75487 a 13.158494,12.14934 0 0 1 -11.62056,6.51259 13.158494,12.14934 0 0 1 -13.15858,-12.14932 13.158494,12.14934 0 0 1 4.91583,-9.46691 z"
       style="fill:#ffffff;stroke-width:0.130641"
       id="path6-2-16-4-6-4-4-43-7" />
    <path
       id="path4-6-2-8-3-7-1-9-7"
       style="fill:#aa0000;stroke-width:0.130641"
       d="m 268.9455,275.3208 a 13.158494,12.14934 0 0 0 -0.0781,0.0566 l 0.0297,-0.0936 z m 0,0 19.78836,15.15513 a 13.158494,12.14934 0 0 1 -0.005,0.007 c -22.01262,-13.113 -19.97461,-14.7547 -19.97461,-14.7547 l 0.11148,-0.34879 a 13.158494,12.14934 0 0 1 0.078,-0.0566 z m 19.78541,15.1602 a 13.158494,12.14934 0 0 0 0.005,-0.007 l 0.0412,0.0316 c -0.0154,-0.008 -0.0284,-0.018 -0.0443,-0.0266 z m -11.62058,-17.78605 a 13.158494,12.14934 0 0 1 13.15855,12.14932 13.158494,12.14934 0 0 1 -1.53502,5.63166 L 268.9455,275.3208 a 13.158494,12.14934 0 0 1 8.16483,-2.62585 z" />
    <path
       d="m 265.60236,320.09475 h 24.52253 v 3.73406 a 6.399813,5.7352026 0 0 1 -0.54095,2.25123 h -23.44061 a 6.399813,5.7352026 0 0 1 -0.54097,-2.25123 z"
       style="fill:#333333;stroke-width:0.130641"
       id="path14-2-23-7-6-6-4-9-7" />
    <path
       d="m 290.12489,310.6254 v 5.98529 h -24.52253 v -5.98529 z"
       style="fill:#333333;stroke-width:0.130641"
       id="path11-8-38-2-8-4-6-5-7" />
    <path
       d="m 265.60236,316.61069 h 24.52253 v 3.48406 h -24.52253 z"
       style="fill:#aa0000;stroke-width:0.130641"
       id="path13-5-5-2-5-8-1-8-4" />
    <path
       d="m 285.2987,361.01913 c -0.51585,-0.41553 -15.22178,-12.4218 -15.94964,-30.46241 v -2.10629 h 15.94964 z"
       style="fill:#ffffff;stroke-width:0.109199"
       id="path21-0-72-1-8-9-0-33-8" />
    <path
       d="m 261.68128,293.14274 c -1.36818,-2.25314 -7.57781,-13.29797 -2.80542,-21.01744 l 0.24077,-0.14105 16.30184,22.36159 -9.01316,5.27686 z"
       style="fill:#ffffff;stroke-width:0.130641"
       id="path18-7-6-5-2-1-0-5-1-0" />
    <path
       d="m 302.09279,326.10496 h 23.44061 a 6.399813,5.7352026 0 0 1 -5.85895,3.48407 h -11.72298 a 6.399813,5.7352026 0 0 1 -5.85868,-3.48407 z"
       style="fill:#ffffff;stroke-width:0.130641"
       id="path10-5-3-2-9-4-9-9-2" />
    <path
       d="m 319.67445,295.46356 a 6.399813,5.7352026 0 0 1 6.3999,5.73528 v 9.45148 h -24.52253 v -9.45148 a 6.399813,5.7352026 0 0 1 6.39965,-5.73528 z"
       style="fill:#ffffff;stroke-width:0.130641"
       id="path7-7-10-3-2-0-6-3-9" />
    <path
       d="m 304.81706,275.40228 -0.11148,0.34877 c 0,0 -2.03802,1.64168 19.97462,14.75487 a 13.158494,12.14934 0 0 1 -11.62056,6.51259 13.158494,12.14934 0 0 1 -13.15858,-12.14932 13.158494,12.14934 0 0 1 4.91583,-9.46691 z"
       style="fill:#ffffff;stroke-width:0.130641"
       id="path6-2-16-4-6-4-4-6-0" />
    <path
       id="path4-6-2-8-3-7-1-2-1"
       style="fill:#aa0000;stroke-width:0.130641"
       d="m 304.89496,275.34572 a 13.158494,12.14934 0 0 0 -0.0781,0.0566 l 0.0297,-0.0936 z m 0,0 19.78836,15.15513 a 13.158494,12.14934 0 0 1 -0.005,0.007 c -22.01262,-13.113 -19.97461,-14.7547 -19.97461,-14.7547 l 0.11148,-0.34879 a 13.158494,12.14934 0 0 1 0.078,-0.0566 z m 19.78541,15.1602 a 13.158494,12.14934 0 0 0 0.005,-0.007 l 0.0412,0.0316 c -0.0154,-0.008 -0.0284,-0.018 -0.0443,-0.0266 z m -11.62058,-17.78605 a 13.158494,12.14934 0 0 1 13.15855,12.14932 13.158494,12.14934 0 0 1 -1.53502,5.63166 l -19.78836,-15.15513 a 13.158494,12.14934 0 0 1 8.16483,-2.62585 z" />
    <path
       d="m 301.55182,320.11967 h 24.52253 v 3.73406 a 6.399813,5.7352026 0 0 1 -0.54095,2.25123 h -23.44061 a 6.399813,5.7352026 0 0 1 -0.54097,-2.25123 z"
       style="fill:#333333;stroke-width:0.130641"
       id="path14-2-23-7-6-6-4-7-0" />
    <path
       d="m 326.07435,310.65032 v 5.98529 h -24.52253 v -5.98529 z"
       style="fill:#333333;stroke-width:0.130641"
       id="path11-8-38-2-8-4-6-3-6" />
    <path
       d="m 301.55182,316.63561 h 24.52253 v 3.48406 h -24.52253 z"
       style="fill:#aa0000;stroke-width:0.130641"
       id="path13-5-5-2-5-8-1-7-1" />
    <path
       d="m 321.24816,361.04405 c -0.51585,-0.41553 -15.22178,-12.4218 -15.94964,-30.46241 v -2.10629 h 15.94964 z"
       style="fill:#ffffff;stroke-width:0.109199"
       id="path21-0-72-1-8-9-0-601-8" />
    <path
       d="m 297.63074,293.16766 c -1.36818,-2.25314 -7.57781,-13.29797 -2.80542,-21.01744 l 0.24077,-0.14105 16.30184,22.36159 -9.01316,5.27686 z"
       style="fill:#ffffff;stroke-width:0.130641"
       id="path18-7-6-5-2-1-0-5-9-0" />
  </g>
</svg>
