<?xml version="1.0" encoding="UTF-8" standalone="no"?>
<!-- Created with Inkscape (http://www.inkscape.org/) -->

<svg
   width="400mm"
   height="400mm"
   viewBox="0 0 400 400"
   version="1.1"
   id="svg1"
   inkscape:export-filename="..\..\..\..\..\..\Projects\puntal\assets\images\Pd6.png"
   inkscape:export-xdpi="96"
   inkscape:export-ydpi="96"
   inkscape:version="1.3.2 (091e20e, 2023-11-25, custom)"
   sodipodi:docname="2d6 draft.svg"
   xmlns:inkscape="http://www.inkscape.org/namespaces/inkscape"
   xmlns:sodipodi="http://sodipodi.sourceforge.net/DTD/sodipodi-0.dtd"
   xmlns="http://www.w3.org/2000/svg"
   xmlns:svg="http://www.w3.org/2000/svg">
  <sodipodi:namedview
     id="namedview1"
     pagecolor="#505050"
     bordercolor="#eeeeee"
     borderopacity="1"
     inkscape:showpageshadow="0"
     inkscape:pageopacity="0"
     inkscape:pagecheckerboard="0"
     inkscape:deskcolor="#505050"
     inkscape:document-units="mm"
     inkscape:zoom="0.4894542"
     inkscape:cx="225.76168"
     inkscape:cy="587.38898"
     inkscape:window-width="1920"
     inkscape:window-height="991"
     inkscape:window-x="-9"
     inkscape:window-y="-9"
     inkscape:window-maximized="1"
     inkscape:current-layer="layer1"
     showguides="false" />
  <defs
     id="defs1" />
  <g
     inkscape:label="Capa 1"
     inkscape:groupmode="layer"
     id="layer1">
    <path
       d="M 0,0 V 400 M 2.6458333,0 V 400 M 5.2916666,0 V 400 M 7.9374999,0 V 400 M 10.583333,0 V 400 M 13.229167,0 V 400 M 15.875,0 V 400 M 18.520833,0 V 400 M 21.166667,0 V 400 M 23.8125,0 V 400 M 26.458333,0 V 400 M 29.104166,0 V 400 M 31.75,0 V 400 M 34.395833,0 V 400 M 37.041666,0 V 400 M 39.6875,0 V 400 M 42.333333,0 V 400 M 44.979166,0 V 400 M 47.625,0 V 400 M 50.270833,0 V 400 M 52.916666,0 V 400 M 55.5625,0 V 400 M 58.208333,0 V 400 M 60.854166,0 V 400 M 63.5,0 V 400 M 66.145833,0 V 400 M 68.791666,0 V 400 M 71.437499,0 V 400 M 74.083333,0 V 400 M 76.729166,0 V 400 M 79.374999,0 V 400 M 82.020833,0 V 400 M 84.666666,0 V 400 M 87.312499,0 V 400 M 89.958333,0 V 400 M 92.604166,0 V 400 M 95.249999,0 V 400 M 97.895833,0 V 400 M 100.54167,0 V 400 M 103.1875,0 V 400 M 105.83333,0 V 400 M 108.47917,0 V 400 M 111.125,0 V 400 M 113.77083,0 V 400 M 116.41667,0 V 400 M 119.0625,0 V 400 M 121.70833,0 V 400 M 124.35417,0 V 400 M 127,0 V 400 M 129.64583,0 V 400 M 132.29167,0 V 400 M 134.9375,0 V 400 M 137.58333,0 V 400 M 140.22917,0 V 400 M 142.875,0 V 400 M 145.52083,0 V 400 M 148.16667,0 V 400 M 150.8125,0 V 400 M 153.45833,0 V 400 M 156.10417,0 V 400 M 158.75,0 V 400 M 161.39583,0 V 400 M 164.04167,0 V 400 M 166.6875,0 V 400 M 169.33333,0 V 400 M 171.97917,0 V 400 M 174.625,0 V 400 M 177.27083,0 V 400 M 179.91667,0 V 400 M 182.5625,0 V 400 M 185.20833,0 V 400 M 187.85417,0 V 400 M 190.5,0 V 400 M 193.14583,0 V 400 M 195.79167,0 V 400 M 198.4375,0 V 400 M 201.08333,0 V 400 M 203.72917,0 V 400 M 206.375,0 V 400 M 209.02083,0 V 400 M 211.66667,0 V 400 M 214.3125,0 V 400 M 216.95833,0 V 400 M 219.60416,0 V 400 M 222.25,0 V 400 M 224.89583,0 V 400 M 227.54166,0 V 400 M 230.1875,0 V 400 M 232.83333,0 V 400 M 235.47916,0 V 400 M 238.125,0 V 400 M 240.77083,0 V 400 M 243.41666,0 V 400 M 246.0625,0 V 400 M 248.70833,0 V 400 M 251.35416,0 V 400 M 254,0 V 400 M 256.64583,0 V 400 M 259.29166,0 V 400 M 261.9375,0 V 400 M 264.58333,0 V 400 M 267.22916,0 V 400 M 269.875,0 V 400 M 272.52083,0 V 400 M 275.16666,0 V 400 M 277.8125,0 V 400 M 280.45833,0 V 400 M 283.10416,0 V 400 M 285.75,0 V 400 M 288.39583,0 V 400 M 291.04166,0 V 400 M 293.6875,0 V 400 M 296.33333,0 V 400 M 298.97916,0 V 400 M 301.625,0 V 400 M 304.27083,0 V 400 M 306.91666,0 V 400 M 309.5625,0 V 400 M 312.20833,0 V 400 M 314.85416,0 V 400 M 317.5,0 V 400 M 320.14583,0 V 400 M 322.79166,0 V 400 M 325.4375,0 V 400 M 328.08333,0 V 400 M 330.72916,0 V 400 M 333.375,0 V 400 M 336.02083,0 V 400 M 338.66666,0 V 400 M 341.3125,0 V 400 M 343.95833,0 V 400 M 346.60416,0 V 400 M 349.25,0 V 400 M 351.89583,0 V 400 M 354.54166,0 V 400 M 357.1875,0 V 400 M 359.83333,0 V 400 M 362.47916,0 V 400 M 365.125,0 V 400 M 367.77083,0 V 400 M 370.41666,0 V 400 M 373.0625,0 V 400 M 375.70833,0 V 400 M 378.35416,0 V 400 M 381,0 V 400 M 383.64583,0 V 400 M 386.29166,0 V 400 M 388.9375,0 V 400 M 391.58333,0 V 400 M 394.22916,0 V 400 M 396.875,0 V 400 M 399.52083,0 V 400 M 0,0 H 400 M 0,2.6458333 H 400 M 0,5.2916666 H 400 M 0,7.9374999 H 400 M 0,10.583333 H 400 M 0,13.229167 H 400 M 0,15.875 H 400 M 0,18.520833 H 400 M 0,21.166667 H 400 M 0,23.8125 H 400 M 0,26.458333 H 400 M 0,29.104166 H 400 M 0,31.75 H 400 M 0,34.395833 H 400 M 0,37.041666 H 400 M 0,39.6875 H 400 M 0,42.333333 H 400 M 0,44.979166 H 400 M 0,47.625 H 400 M 0,50.270833 H 400 M 0,52.916666 H 400 M 0,55.5625 H 400 M 0,58.208333 H 400 M 0,60.854166 H 400 M 0,63.5 H 400 M 0,66.145833 H 400 M 0,68.791666 H 400 M 0,71.437499 H 400 M 0,74.083333 H 400 M 0,76.729166 H 400 M 0,79.374999 H 400 M 0,82.020833 H 400 M 0,84.666666 H 400 M 0,87.312499 H 400 M 0,89.958333 H 400 M 0,92.604166 H 400 M 0,95.249999 H 400 M 0,97.895833 H 400 M 0,100.54167 H 400 M 0,103.1875 H 400 M 0,105.83333 H 400 M 0,108.47917 H 400 M 0,111.125 H 400 M 0,113.77083 H 400 M 0,116.41667 H 400 M 0,119.0625 H 400 M 0,121.70833 H 400 M 0,124.35417 H 400 M 0,127 H 400 M 0,129.64583 H 400 M 0,132.29167 H 400 M 0,134.9375 H 400 M 0,137.58333 H 400 M 0,140.22917 H 400 M 0,142.875 H 400 M 0,145.52083 H 400 M 0,148.16667 H 400 M 0,150.8125 H 400 M 0,153.45833 H 400 M 0,156.10417 H 400 M 0,158.75 H 400 M 0,161.39583 H 400 M 0,164.04167 H 400 M 0,166.6875 H 400 M 0,169.33333 H 400 M 0,171.97917 H 400 M 0,174.625 H 400 M 0,177.27083 H 400 M 0,179.91667 H 400 M 0,182.5625 H 400 M 0,185.20833 H 400 M 0,187.85417 H 400 M 0,190.5 H 400 M 0,193.14583 H 400 M 0,195.79167 H 400 M 0,198.4375 H 400 M 0,201.08333 H 400 M 0,203.72917 H 400 M 0,206.375 H 400 M 0,209.02083 H 400 M 0,211.66667 H 400 M 0,214.3125 H 400 M 0,216.95833 H 400 M 0,219.60416 H 400 M 0,222.25 H 400 M 0,224.89583 H 400 M 0,227.54166 H 400 M 0,230.1875 H 400 M 0,232.83333 H 400 M 0,235.47916 H 400 M 0,238.125 H 400 M 0,240.77083 H 400 M 0,243.41666 H 400 M 0,246.0625 H 400 M 0,248.70833 H 400 M 0,251.35416 H 400 M 0,254 H 400 M 0,256.64583 H 400 M 0,259.29166 H 400 M 0,261.9375 H 400 M 0,264.58333 H 400 M 0,267.22916 H 400 M 0,269.875 H 400 M 0,272.52083 H 400 M 0,275.16666 H 400 M 0,277.8125 H 400 M 0,280.45833 H 400 M 0,283.10416 H 400 M 0,285.75 H 400 M 0,288.39583 H 400 M 0,291.04166 H 400 M 0,293.6875 H 400 M 0,296.33333 H 400 M 0,298.97916 H 400 M 0,301.625 H 400 M 0,304.27083 H 400 M 0,306.91666 H 400 M 0,309.5625 H 400 M 0,312.20833 H 400 M 0,314.85416 H 400 M 0,317.5 H 400 M 0,320.14583 H 400 M 0,322.79166 H 400 M 0,325.4375 H 400 M 0,328.08333 H 400 M 0,330.72916 H 400 M 0,333.375 H 400 M 0,336.02083 H 400 M 0,338.66666 H 400 M 0,341.3125 H 400 M 0,343.95833 H 400 M 0,346.60416 H 400 M 0,349.25 H 400 M 0,351.89583 H 400 M 0,354.54166 H 400 M 0,357.1875 H 400 M 0,359.83333 H 400 M 0,362.47916 H 400 M 0,365.125 H 400 M 0,367.77083 H 400 M 0,370.41666 H 400 M 0,373.0625 H 400 M 0,375.70833 H 400 M 0,378.35416 H 400 M 0,381 H 400 M 0,383.64583 H 400 M 0,386.29166 H 400 M 0,388.9375 H 400 M 0,391.58333 H 400 M 0,394.22916 H 400 M 0,396.875 H 400 M 0,399.52083 h 400"
       style="display:none;fill:none;stroke:#000000;stroke-width:0.264583px"
       id="path1" />
    <path
       d="m 193.49165,350.10315 h 21.8022 a 5.9524921,5.3179085 0 0 1 -5.44943,3.23057 h -10.90359 a 5.9524921,5.3179085 0 0 1 -5.44918,-3.23057 z"
       style="fill:#ffffff;stroke-width:0.121322"
       id="path10-5-3-2-9-4-9" />
    <path
       d="m 209.84442,321.69123 a 5.9524921,5.3179085 0 0 1 5.95257,5.31798 v 8.76379 h -22.8085 v -8.76379 a 5.9524921,5.3179085 0 0 1 5.95234,-5.31798 z"
       style="fill:#ffffff;stroke-width:0.121322"
       id="path7-7-10-3-2-0-6" />
    <path
       d="m 196.0255,303.08961 -0.10369,0.32339 c 0,0 -1.89557,1.52223 18.57848,13.68131 a 12.238769,11.265352 0 0 1 -10.80833,6.03873 12.238769,11.265352 0 0 1 -12.23885,-11.26534 12.238769,11.265352 0 0 1 4.57223,-8.77809 z"
       style="fill:#ffffff;stroke-width:0.121322"
       id="path6-2-16-4-6-4-4" />
    <path
       id="path4-6-2-8-3-7-1"
       style="fill:#aa0000;stroke-width:0.121322"
       d="m 196.09796,303.03716 a 12.238769,11.265352 0 0 0 -0.0726,0.0525 l 0.0276,-0.0868 z m 0,0 18.40523,14.05244 a 12.238769,11.265352 0 0 1 -0.005,0.006 c -20.47368,-12.1584 -18.57812,-13.68065 -18.57812,-13.68065 l 0.10369,-0.32341 a 12.238769,11.265352 0 0 1 0.0726,-0.0525 z m 18.40249,14.05715 a 12.238769,11.265352 0 0 0 0.005,-0.007 l 0.0383,0.0293 c -0.0143,-0.007 -0.0264,-0.0167 -0.0412,-0.0247 z M 203.6921,300.60237 a 12.238769,11.265352 0 0 1 12.23882,11.26533 12.238769,11.265352 0 0 1 -1.42773,5.2219 l -18.40523,-14.05244 a 12.238769,11.265352 0 0 1 7.59414,-2.43479 z" />
    <path
       d="m 192.98849,344.55335 h 22.8085 v 3.46237 a 5.9524921,5.3179085 0 0 1 -0.50314,2.08743 h -21.8022 a 5.9524921,5.3179085 0 0 1 -0.50316,-2.08743 z"
       style="fill:#333333;stroke-width:0.121322"
       id="path14-2-23-7-6-6-4" />
    <path
       d="m 215.79699,335.773 v 5.5498 h -22.8085 v -5.5498 z"
       style="fill:#333333;stroke-width:0.121322"
       id="path11-8-38-2-8-4-6" />
    <path
       d="m 192.98849,341.3228 h 22.8085 v 3.23055 h -22.8085 z"
       style="fill:#aa0000;stroke-width:0.121322"
       id="path13-5-5-2-5-8-1" />
    <path
       d="m 211.30813,382.50007 c -0.47979,-0.38529 -14.15784,-11.51799 -14.83482,-28.24596 v -1.95304 h 14.83482 z"
       style="fill:#ffffff;stroke-width:0.10141"
       id="path21-0-72-1-8-9-0" />
    <path
       d="m 191.28998,331.3644 c -2.44409,-0.19315 -14.15451,-1.51387 -17.38135,-9.28995 l 0.0246,-0.25758 25.73837,-0.13098 -0.92308,9.64051 z"
       style="fill:#ffffff;stroke-width:0.121322"
       id="path18-7-6-5-2-1-0-5" />
    <path
       d="m 193.61602,294.10411 h 21.80221 a 5.9524921,5.3179085 0 0 1 -5.44944,3.23057 H 199.0652 a 5.9524921,5.3179085 0 0 1 -5.44918,-3.23057 z"
       style="fill:#ffffff;stroke-width:0.121322"
       id="path10-5-3-2-9-4-9-2" />
    <path
       d="m 209.96879,265.69218 a 5.9524921,5.3179085 0 0 1 5.95258,5.31798 v 8.76379 h -22.80851 v -8.76379 a 5.9524921,5.3179085 0 0 1 5.95234,-5.31798 z"
       style="fill:#ffffff;stroke-width:0.121322"
       id="path7-7-10-3-2-0-6-6" />
    <path
       d="m 196.14987,247.09056 -0.10368,0.32339 c 0,0 -1.89558,1.52224 18.57847,13.68131 a 12.238769,11.265352 0 0 1 -10.80833,6.03873 12.238769,11.265352 0 0 1 -12.23885,-11.26533 12.238769,11.265352 0 0 1 4.57224,-8.7781 z"
       style="fill:#ffffff;stroke-width:0.121322"
       id="path6-2-16-4-6-4-4-5" />
    <path
       id="path4-6-2-8-3-7-1-0"
       style="fill:#aa0000;stroke-width:0.121322"
       d="m 196.22233,247.03812 a 12.238769,11.265352 0 0 0 -0.0726,0.0525 l 0.0276,-0.0868 z m 0,0 18.40523,14.05244 a 12.238769,11.265352 0 0 1 -0.005,0.006 C 194.14853,248.93766 196.0441,247.41541 196.0441,247.41541 l 0.10368,-0.32341 a 12.238769,11.265352 0 0 1 0.0726,-0.0525 z m 18.40249,14.05714 a 12.238769,11.265352 0 0 0 0.005,-0.006 l 0.0383,0.0293 c -0.0143,-0.007 -0.0264,-0.0167 -0.0412,-0.0247 z m -10.80835,-16.49194 a 12.238769,11.265352 0 0 1 12.23882,11.26534 12.238769,11.265352 0 0 1 -1.42773,5.2219 l -18.40523,-14.05244 a 12.238769,11.265352 0 0 1 7.59414,-2.4348 z" />
    <path
       d="m 193.11286,288.55431 h 22.80851 v 3.46237 a 5.9524921,5.3179085 0 0 1 -0.50314,2.08743 h -21.80221 a 5.9524921,5.3179085 0 0 1 -0.50316,-2.08743 z"
       style="fill:#333333;stroke-width:0.121322"
       id="path14-2-23-7-6-6-4-8" />
    <path
       d="m 215.92137,279.77395 v 5.5498 h -22.80851 v -5.5498 z"
       style="fill:#333333;stroke-width:0.121322"
       id="path11-8-38-2-8-4-6-8" />
    <path
       d="m 193.11286,285.32375 h 22.80851 v 3.23056 h -22.80851 z"
       style="fill:#aa0000;stroke-width:0.121322"
       id="path13-5-5-2-5-8-1-9" />
    <path
       d="m 211.43251,326.50102 c -0.4798,-0.38529 -14.15784,-11.51798 -14.83483,-28.24596 v -1.95303 h 14.83483 z"
       style="fill:#ffffff;stroke-width:0.10141"
       id="path21-0-72-1-8-9-0-6" />
    <path
       d="M 192.98379,237.54026 H 214.786 a 5.9524921,5.3179085 0 0 1 -5.44944,3.23057 h -10.90359 a 5.9524921,5.3179085 0 0 1 -5.44918,-3.23057 z"
       style="fill:#ffffff;stroke-width:0.121322"
       id="path10-5-3-2-9-4-9-3" />
    <path
       d="m 209.33656,209.12833 a 5.9524921,5.3179085 0 0 1 5.95258,5.31798 v 8.76379 h -22.80851 v -8.76379 a 5.9524921,5.3179085 0 0 1 5.95234,-5.31798 z"
       style="fill:#ffffff;stroke-width:0.121322"
       id="path7-7-10-3-2-0-6-2" />
    <path
       d="m 195.51764,190.52671 -0.10368,0.3234 c 0,0 -1.89557,1.52223 18.57847,13.6813 a 12.238769,11.265352 0 0 1 -10.80833,6.03873 12.238769,11.265352 0 0 1 -12.23885,-11.26533 12.238769,11.265352 0 0 1 4.57224,-8.7781 z"
       style="fill:#ffffff;stroke-width:0.121322"
       id="path6-2-16-4-6-4-4-3" />
    <path
       id="path4-6-2-8-3-7-1-8"
       style="fill:#aa0000;stroke-width:0.121322"
       d="m 195.5901,190.47427 a 12.238769,11.265352 0 0 0 -0.0726,0.0525 l 0.0276,-0.0868 z m 0,0 18.40523,14.05244 a 12.238769,11.265352 0 0 1 -0.005,0.006 C 193.51666,192.3743 195.41222,190.85205 195.41222,190.85205 l 0.10369,-0.32341 a 12.238769,11.265352 0 0 1 0.0725,-0.0525 z m 18.40249,14.05714 a 12.238769,11.265352 0 0 0 0.005,-0.006 l 0.0383,0.0293 c -0.0143,-0.007 -0.0264,-0.0167 -0.0412,-0.0247 z m -10.80835,-16.49193 a 12.238769,11.265352 0 0 1 12.23882,11.26533 12.238769,11.265352 0 0 1 -1.42773,5.2219 L 195.5901,190.47427 a 12.238769,11.265352 0 0 1 7.59414,-2.43479 z" />
    <path
       d="m 192.48063,231.99046 h 22.80851 v 3.46237 a 5.9524921,5.3179085 0 0 1 -0.50314,2.08743 h -21.80221 a 5.9524921,5.3179085 0 0 1 -0.50316,-2.08743 z"
       style="fill:#333333;stroke-width:0.121322"
       id="path14-2-23-7-6-6-4-5" />
    <path
       d="m 215.28914,223.2101 v 5.5498 h -22.80851 v -5.5498 z"
       style="fill:#333333;stroke-width:0.121322"
       id="path11-8-38-2-8-4-6-87" />
    <path
       d="m 192.48063,228.7599 h 22.80851 v 3.23056 h -22.80851 z"
       style="fill:#aa0000;stroke-width:0.121322"
       id="path13-5-5-2-5-8-1-0" />
    <path
       d="m 210.80028,269.93718 c -0.4798,-0.3853 -14.15784,-11.51799 -14.83483,-28.24597 v -1.95303 h 14.83483 z"
       style="fill:#ffffff;stroke-width:0.10141"
       id="path21-0-72-1-8-9-0-3" />
    <path
       d="m 193.63317,183.31128 h 21.80221 a 5.9524921,5.3179085 0 0 1 -5.44944,3.23056 h -10.90359 a 5.9524921,5.3179085 0 0 1 -5.44918,-3.23056 z"
       style="fill:#ffffff;stroke-width:0.121322"
       id="path10-5-3-2-9-4-9-6" />
    <path
       d="m 209.98594,154.89934 a 5.9524921,5.3179085 0 0 1 5.95258,5.31798 v 8.7638 h -22.80851 v -8.7638 a 5.9524921,5.3179085 0 0 1 5.95234,-5.31798 z"
       style="fill:#ffffff;stroke-width:0.121322"
       id="path7-7-10-3-2-0-6-7" />
    <path
       d="m 196.16702,136.29772 -0.10368,0.32339 c 0,0 -1.89557,1.52223 18.57847,13.68131 a 12.238769,11.265352 0 0 1 -10.80833,6.03873 12.238769,11.265352 0 0 1 -12.23885,-11.26533 12.238769,11.265352 0 0 1 4.57224,-8.7781 z"
       style="fill:#ffffff;stroke-width:0.121322"
       id="path6-2-16-4-6-4-4-4" />
    <path
       id="path4-6-2-8-3-7-1-09"
       style="fill:#aa0000;stroke-width:0.121322"
       d="m 196.23948,136.24528 a 12.238769,11.265352 0 0 0 -0.0726,0.0525 l 0.0276,-0.0868 z m 0,0 18.40523,14.05244 a 12.238769,11.265352 0 0 1 -0.005,0.006 c -20.47402,-12.1589 -18.57846,-13.68115 -18.57846,-13.68115 l 0.10369,-0.32341 a 12.238769,11.265352 0 0 1 0.0725,-0.0525 z m 18.40249,14.05714 a 12.238769,11.265352 0 0 0 0.005,-0.006 l 0.0383,0.0293 c -0.0143,-0.007 -0.0264,-0.0167 -0.0412,-0.0247 z m -10.80835,-16.49194 a 12.238769,11.265352 0 0 1 12.23882,11.26534 12.238769,11.265352 0 0 1 -1.42773,5.2219 l -18.40523,-14.05244 a 12.238769,11.265352 0 0 1 7.59414,-2.4348 z" />
    <path
       d="m 193.13001,177.76148 h 22.80851 v 3.46236 a 5.9524921,5.3179085 0 0 1 -0.50314,2.08744 h -21.80221 a 5.9524921,5.3179085 0 0 1 -0.50316,-2.08744 z"
       style="fill:#333333;stroke-width:0.121322"
       id="path14-2-23-7-6-6-4-82" />
    <path
       d="m 215.93852,168.98112 v 5.5498 h -22.80851 v -5.5498 z"
       style="fill:#333333;stroke-width:0.121322"
       id="path11-8-38-2-8-4-6-4" />
    <path
       d="m 193.13001,174.53092 h 22.80851 v 3.23056 h -22.80851 z"
       style="fill:#aa0000;stroke-width:0.121322"
       id="path13-5-5-2-5-8-1-02" />
    <path
       d="m 211.44966,215.70819 c -0.4798,-0.38529 -14.15784,-11.51799 -14.83483,-28.24596 v -1.95303 h 14.83483 z"
       style="fill:#ffffff;stroke-width:0.10141"
       id="path21-0-72-1-8-9-0-60" />
    <path
       d="m 193.13039,125.84947 h 21.80221 a 5.9524921,5.3179085 0 0 1 -5.44943,3.23057 h -10.90359 a 5.9524921,5.3179085 0 0 1 -5.44919,-3.23057 z"
       style="fill:#ffffff;stroke-width:0.121322"
       id="path10-5-3-2-9-4-9-7" />
    <path
       d="m 209.48317,97.43754 a 5.9524921,5.3179085 0 0 1 5.95257,5.31798 v 8.76379 h -22.80851 v -8.76379 a 5.9524921,5.3179085 0 0 1 5.95235,-5.31798 z"
       style="fill:#ffffff;stroke-width:0.121322"
       id="path7-7-10-3-2-0-6-8" />
    <path
       d="m 195.66425,78.835922 -0.10369,0.323393 c 0,0 -1.89557,1.522231 18.57848,13.681304 a 12.238769,11.265352 0 0 1 -10.80834,6.038733 12.238769,11.265352 0 0 1 -12.23884,-11.265334 12.238769,11.265352 0 0 1 4.57223,-8.778096 z"
       style="fill:#ffffff;stroke-width:0.121322"
       id="path6-2-16-4-6-4-4-55" />
    <path
       id="path4-6-2-8-3-7-1-01"
       style="fill:#aa0000;stroke-width:0.121322"
       d="m 195.7367,78.783477 a 12.238769,11.265352 0 0 0 -0.0726,0.05248 l 0.0276,-0.08679 z m 0,0 18.40524,14.052441 a 12.238769,11.265352 0 0 1 -0.005,0.0065 C 193.66326,80.683512 195.55882,79.161262 195.55882,79.161262 l 0.10369,-0.323412 a 12.238769,11.265352 0 0 1 0.0725,-0.05248 z m 18.40249,14.057142 a 12.238769,11.265352 0 0 0 0.005,-0.0065 l 0.0383,0.0293 c -0.0143,-0.0074 -0.0264,-0.01669 -0.0412,-0.02467 z M 203.33084,76.348684 a 12.238769,11.265352 0 0 1 12.23883,11.265334 12.238769,11.265352 0 0 1 -1.42773,5.2219 L 195.7367,78.783477 a 12.238769,11.265352 0 0 1 7.59414,-2.434793 z" />
    <path
       d="m 192.62723,120.29967 h 22.80851 v 3.46237 a 5.9524921,5.3179085 0 0 1 -0.50314,2.08743 h -21.80221 a 5.9524921,5.3179085 0 0 1 -0.50316,-2.08743 z"
       style="fill:#333333;stroke-width:0.121322"
       id="path14-2-23-7-6-6-4-0" />
    <path
       d="m 215.43574,111.51931 v 5.5498 h -22.80851 v -5.5498 z"
       style="fill:#333333;stroke-width:0.121322"
       id="path11-8-38-2-8-4-6-2" />
    <path
       d="m 192.62723,117.06911 h 22.80851 v 3.23056 h -22.80851 z"
       style="fill:#aa0000;stroke-width:0.121322"
       id="path13-5-5-2-5-8-1-5" />
    <path
       d="m 210.94688,158.24638 c -0.47979,-0.3853 -14.15784,-11.51799 -14.83482,-28.24595 v -1.95304 h 14.83482 z"
       style="fill:#ffffff;stroke-width:0.10141"
       id="path21-0-72-1-8-9-0-9" />
    <path
       d="m 196.77757,89.84542 c 0.25611,-2.430844 1.87954,-14.067653 9.75952,-17.084917 l 0.25766,0.03109 -0.526,25.654075 -9.64356,-1.166144 z"
       style="fill:#ffffff;stroke-width:0.121322"
       id="path18-7-6-5-2-1-0-5-5" />
    <path
       d="m 193.12877,70.67688 h 21.8022 a 5.9524921,5.3179085 0 0 1 -5.44943,3.230568 h -10.90359 a 5.9524921,5.3179085 0 0 1 -5.44918,-3.230568 z"
       style="fill:#ffffff;stroke-width:0.121322"
       id="path10-5-3-2-9-4-9-7-0" />
    <path
       d="m 209.48154,42.264954 a 5.9524921,5.3179085 0 0 1 5.95257,5.31798 v 8.763789 h -22.8085 v -8.763789 a 5.9524921,5.3179085 0 0 1 5.95234,-5.31798 z"
       style="fill:#ffffff;stroke-width:0.121322"
       id="path7-7-10-3-2-0-6-8-7" />
    <path
       d="m 195.66262,23.663335 -0.10369,0.323393 c 0,0 -1.89557,1.522231 18.57848,13.681303 a 12.238769,11.265352 0 0 1 -10.80833,6.038734 12.238769,11.265352 0 0 1 -12.23885,-11.265334 12.238769,11.265352 0 0 1 4.57223,-8.778096 z"
       style="fill:#ffffff;stroke-width:0.121322"
       id="path6-2-16-4-6-4-4-55-1" />
    <path
       id="path4-6-2-8-3-7-1-01-9"
       style="fill:#333333;stroke-width:0.121322"
       d="m 195.73508,23.61089 a 12.238769,11.265352 0 0 0 -0.0727,0.05248 l 0.0276,-0.08679 z m 0,0 18.40523,14.05244 a 12.238769,11.265352 0 0 1 -0.005,0.0065 C 193.66163,25.510925 195.55719,23.988675 195.55719,23.988675 l 0.10369,-0.323412 a 12.238769,11.265352 0 0 1 0.0726,-0.05248 z m 18.40249,14.057141 a 12.238769,11.265352 0 0 0 0.005,-0.0065 l 0.0383,0.0293 c -0.0143,-0.0074 -0.0264,-0.01669 -0.0412,-0.02466 z M 203.32922,21.176097 a 12.238769,11.265352 0 0 1 12.23882,11.265334 12.238769,11.265352 0 0 1 -1.42773,5.221899 L 195.73508,23.61089 a 12.238769,11.265352 0 0 1 7.59414,-2.434793 z" />
    <path
       d="m 192.62561,65.12708 h 22.8085 v 3.462369 a 5.9524921,5.3179085 0 0 1 -0.50314,2.087431 h -21.8022 a 5.9524921,5.3179085 0 0 1 -0.50316,-2.087431 z"
       style="fill:#333333;stroke-width:0.121322"
       id="path14-2-23-7-6-6-4-0-1" />
    <path
       d="m 215.43411,56.346723 v 5.549798 h -22.8085 v -5.549798 z"
       style="fill:#333333;stroke-width:0.121322"
       id="path11-8-38-2-8-4-6-2-1" />
    <path
       d="m 192.62561,61.896521 h 22.8085 v 3.230559 h -22.8085 z"
       style="fill:#aa0000;stroke-width:0.121322"
       id="path13-5-5-2-5-8-1-5-4" />
    <path
       d="M 210.94525,103.0738 C 210.46546,102.6885 196.78741,91.555808 196.11043,74.827836 V 72.8748 h 14.83482 z"
       style="fill:#ffffff;stroke-width:0.10141"
       id="path21-0-72-1-8-9-0-9-7" />
    <path
       d="m 196.77595,34.672832 c 0.2561,-2.430843 1.87953,-14.067652 9.75951,-17.084917 l 0.25766,0.03109 -0.526,25.654076 -9.64355,-1.166144 z"
       style="fill:#ffffff;stroke-width:0.121322"
       id="path18-7-6-5-2-1-0-5-5-0" />
    <path
       d="m 181.6734,350.14316 h -21.80221 a 5.9524921,5.3179085 0 0 0 5.44944,3.23056 h 10.90359 a 5.9524921,5.3179085 0 0 0 5.44918,-3.23056 z"
       style="fill:#ffffff;stroke-width:0.121322"
       id="path10-5-3-2-9-4-9-31" />
    <path
       d="m 165.32063,321.73123 a 5.9524921,5.3179085 0 0 0 -5.95258,5.31798 v 8.76379 h 22.80851 v -8.76379 a 5.9524921,5.3179085 0 0 0 -5.95234,-5.31798 z"
       style="fill:#ffffff;stroke-width:0.121322"
       id="path7-7-10-3-2-0-6-9" />
    <path
       d="m 179.13954,303.12961 0.10369,0.32339 c 0,0 1.89557,1.52223 -18.57847,13.68131 a 12.238769,11.265352 0 0 0 10.80833,6.03873 12.238769,11.265352 0 0 0 12.23885,-11.26533 12.238769,11.265352 0 0 0 -4.57224,-8.7781 z"
       style="fill:#ffffff;stroke-width:0.121322"
       id="path6-2-16-4-6-4-4-57" />
    <path
       id="path4-6-2-8-3-7-1-7"
       style="fill:#aa0000;stroke-width:0.121322"
       d="m 179.06709,303.07716 a 12.238769,11.265352 0 0 1 0.0726,0.0525 l -0.0276,-0.0868 z m 0,0 -18.40523,14.05245 a 12.238769,11.265352 0 0 0 0.005,0.006 c 20.47402,-12.1589 18.57846,-13.68115 18.57846,-13.68115 l -0.10369,-0.32341 a 12.238769,11.265352 0 0 0 -0.0725,-0.0525 z m -18.40249,14.05715 a 12.238769,11.265352 0 0 1 -0.005,-0.006 l -0.0383,0.0293 c 0.0143,-0.007 0.0264,-0.0167 0.0412,-0.0247 z m 10.80835,-16.49194 a 12.238769,11.265352 0 0 0 -12.23882,11.26534 12.238769,11.265352 0 0 0 1.42773,5.2219 l 18.40523,-14.05245 a 12.238769,11.265352 0 0 0 -7.59414,-2.43479 z" />
    <path
       d="m 182.17656,344.59336 h -22.80851 v 3.46237 a 5.9524921,5.3179085 0 0 0 0.50314,2.08743 h 21.80221 a 5.9524921,5.3179085 0 0 0 0.50316,-2.08743 z"
       style="fill:#333333;stroke-width:0.121322"
       id="path14-2-23-7-6-6-4-1" />
    <path
       d="m 159.36805,335.813 v 5.5498 h 22.80851 v -5.5498 z"
       style="fill:#333333;stroke-width:0.121322"
       id="path11-8-38-2-8-4-6-1" />
    <path
       d="m 182.17656,341.3628 h -22.80851 v 3.23056 h 22.80851 z"
       style="fill:#aa0000;stroke-width:0.121322"
       id="path13-5-5-2-5-8-1-4" />
    <path
       d="m 163.85691,382.54007 c 0.4798,-0.38529 14.15784,-11.51799 14.83483,-28.24596 v -1.95303 h -14.83483 z"
       style="fill:#ffffff;stroke-width:0.10141"
       id="path21-0-72-1-8-9-0-1" />
    <path
       d="m 185.82357,319.60238 c 1.27255,-2.0892 7.04815,-12.33041 2.60933,-19.48821 l -0.22394,-0.13079 -15.16241,20.73456 8.38318,4.89291 z"
       style="fill:#ffffff;stroke-width:0.121322"
       id="path18-7-6-5-2-1-0-5-3" />
    <path
       d="m 148.83027,350.27887 h -21.80221 a 5.9524921,5.3179085 0 0 0 5.44944,3.23056 h 10.90359 a 5.9524921,5.3179085 0 0 0 5.44918,-3.23056 z"
       style="fill:#ffffff;stroke-width:0.121322"
       id="path10-5-3-2-9-4-9-32" />
    <path
       d="m 132.4775,321.86694 a 5.9524921,5.3179085 0 0 0 -5.95258,5.31798 v 8.76379 h 22.80851 v -8.76379 a 5.9524921,5.3179085 0 0 0 -5.95234,-5.31798 z"
       style="fill:#ffffff;stroke-width:0.121322"
       id="path7-7-10-3-2-0-6-67" />
    <path
       d="m 146.29642,303.26532 0.10368,0.32339 c 0,0 1.89557,1.52223 -18.57847,13.68131 a 12.238769,11.265352 0 0 0 10.80833,6.03873 12.238769,11.265352 0 0 0 12.23885,-11.26533 12.238769,11.265352 0 0 0 -4.57224,-8.7781 z"
       style="fill:#ffffff;stroke-width:0.121322"
       id="path6-2-16-4-6-4-4-43" />
    <path
       id="path4-6-2-8-3-7-1-9"
       style="fill:#aa0000;stroke-width:0.121322"
       d="m 146.22396,303.21288 a 12.238769,11.265352 0 0 1 0.0726,0.0525 l -0.0276,-0.0868 z m 0,0 -18.40523,14.05244 a 12.238769,11.265352 0 0 0 0.005,0.006 c 20.47402,-12.1589 18.57846,-13.68115 18.57846,-13.68115 l -0.10368,-0.32341 a 12.238769,11.265352 0 0 0 -0.0726,-0.0525 z m -18.40249,14.05714 a 12.238769,11.265352 0 0 1 -0.005,-0.006 l -0.0383,0.0293 c 0.0143,-0.007 0.0264,-0.0167 0.0412,-0.0247 z m 10.80835,-16.49194 a 12.238769,11.265352 0 0 0 -12.23882,11.26534 12.238769,11.265352 0 0 0 1.42773,5.2219 l 18.40523,-14.05244 a 12.238769,11.265352 0 0 0 -7.59414,-2.4348 z" />
    <path
       d="m 149.33343,344.72907 h -22.80851 v 3.46237 a 5.9524921,5.3179085 0 0 0 0.50314,2.08743 h 21.80221 a 5.9524921,5.3179085 0 0 0 0.50316,-2.08743 z"
       style="fill:#333333;stroke-width:0.121322"
       id="path14-2-23-7-6-6-4-9" />
    <path
       d="m 126.52492,335.94871 v 5.5498 h 22.80851 v -5.5498 z"
       style="fill:#333333;stroke-width:0.121322"
       id="path11-8-38-2-8-4-6-5" />
    <path
       d="m 149.33343,341.49851 h -22.80851 v 3.23056 h 22.80851 z"
       style="fill:#aa0000;stroke-width:0.121322"
       id="path13-5-5-2-5-8-1-8" />
    <path
       d="m 131.01378,382.67578 c 0.4798,-0.38529 14.15784,-11.51798 14.83483,-28.24596 v -1.95303 h -14.83483 z"
       style="fill:#ffffff;stroke-width:0.10141"
       id="path21-0-72-1-8-9-0-33" />
    <path
       d="m 152.98044,319.73809 c 1.27255,-2.0892 7.04815,-12.33041 2.60933,-19.48821 l -0.22394,-0.13079 -15.1624,20.73456 8.38317,4.89292 z"
       style="fill:#ffffff;stroke-width:0.121322"
       id="path18-7-6-5-2-1-0-5-1" />
    <path
       d="M 115.39353,350.30197 H 93.591322 a 5.9524921,5.3179085 0 0 0 5.449434,3.23057 h 10.903594 a 5.9524921,5.3179085 0 0 0 5.44918,-3.23057 z"
       style="fill:#ffffff;stroke-width:0.121322"
       id="path10-5-3-2-9-4-9-9" />
    <path
       d="m 99.040756,321.89005 a 5.9524921,5.3179085 0 0 0 -5.952573,5.31798 v 8.76378 h 22.808507 v -8.76378 a 5.9524921,5.3179085 0 0 0 -5.95234,-5.31798 z"
       style="fill:#ffffff;stroke-width:0.121322"
       id="path7-7-10-3-2-0-6-3" />
    <path
       d="m 112.85968,303.28843 0.10369,0.32339 c 0,0 1.89557,1.52223 -18.578483,13.6813 a 12.238769,11.265352 0 0 0 10.808333,6.03874 12.238769,11.265352 0 0 0 12.23885,-11.26534 12.238769,11.265352 0 0 0 -4.57223,-8.77809 z"
       style="fill:#ffffff;stroke-width:0.121322"
       id="path6-2-16-4-6-4-4-6" />
    <path
       id="path4-6-2-8-3-7-1-2"
       style="fill:#aa0000;stroke-width:0.121322"
       d="m 112.78722,303.23598 a 12.238769,11.265352 0 0 1 0.0726,0.0525 l -0.0276,-0.0868 z m 0,0 -18.405235,14.05244 a 12.238769,11.265352 0 0 0 0.0047,0.006 c 20.474035,-12.15889 18.578465,-13.68114 18.578465,-13.68114 l -0.10368,-0.32341 a 12.238769,11.265352 0 0 0 -0.0725,-0.0525 z m -18.402491,14.05714 a 12.238769,11.265352 0 0 1 -0.0047,-0.006 l -0.03832,0.0293 c 0.01432,-0.007 0.02642,-0.0167 0.0412,-0.0247 z m 10.808351,-16.49193 a 12.238769,11.265352 0 0 0 -12.238823,11.26533 12.238769,11.265352 0 0 0 1.427728,5.2219 l 18.405235,-14.05244 a 12.238769,11.265352 0 0 0 -7.59414,-2.43479 z" />
    <path
       d="M 115.89669,344.75217 H 93.088183 v 3.46237 a 5.9524921,5.3179085 0 0 0 0.503139,2.08743 h 21.802208 a 5.9524921,5.3179085 0 0 0 0.50316,-2.08743 z"
       style="fill:#333333;stroke-width:0.121322"
       id="path14-2-23-7-6-6-4-7" />
    <path
       d="m 93.088183,335.97181 v 5.5498 h 22.808507 v -5.5498 z"
       style="fill:#333333;stroke-width:0.121322"
       id="path11-8-38-2-8-4-6-3" />
    <path
       d="M 115.89669,341.52161 H 93.088183 v 3.23056 h 22.808507 z"
       style="fill:#aa0000;stroke-width:0.121322"
       id="path13-5-5-2-5-8-1-7" />
    <path
       d="m 97.577042,382.69889 c 0.479794,-0.3853 14.157838,-11.51799 14.834828,-28.24596 v -1.95304 H 97.577042 Z"
       style="fill:#ffffff;stroke-width:0.10141"
       id="path21-0-72-1-8-9-0-601" />
    <path
       d="m 119.5437,319.7612 c 1.27255,-2.08921 7.04815,-12.33041 2.60934,-19.48821 l -0.22395,-0.13079 -15.1624,20.73456 8.38317,4.89291 z"
       style="fill:#ffffff;stroke-width:0.121322"
       id="path18-7-6-5-2-1-0-5-9" />
    <path
       d="m 227.2284,350.11337 h 21.80221 a 5.9524921,5.3179085 0 0 1 -5.44944,3.23057 h -10.90359 a 5.9524921,5.3179085 0 0 1 -5.44918,-3.23057 z"
       style="fill:#ffffff;stroke-width:0.121322"
       id="path10-5-3-2-9-4-9-31-9" />
    <path
       d="m 243.58117,321.70144 a 5.9524921,5.3179085 0 0 1 5.95258,5.31799 v 8.76378 h -22.80851 v -8.76378 a 5.9524921,5.3179085 0 0 1 5.95234,-5.31799 z"
       style="fill:#ffffff;stroke-width:0.121322"
       id="path7-7-10-3-2-0-6-9-7" />
    <path
       d="m 229.76225,303.09983 -0.10368,0.32339 c 0,0 -1.89558,1.52223 18.57847,13.6813 a 12.238769,11.265352 0 0 1 -10.80833,6.03874 12.238769,11.265352 0 0 1 -12.23885,-11.26534 12.238769,11.265352 0 0 1 4.57224,-8.77809 z"
       style="fill:#ffffff;stroke-width:0.121322"
       id="path6-2-16-4-6-4-4-57-8" />
    <path
       id="path4-6-2-8-3-7-1-7-6"
       style="fill:#aa0000;stroke-width:0.121322"
       d="m 229.83471,303.04738 a 12.238769,11.265352 0 0 0 -0.0726,0.0525 l 0.0276,-0.0868 z m 0,0 18.40523,14.05244 a 12.238769,11.265352 0 0 1 -0.005,0.006 c -20.47403,-12.15889 -18.57846,-13.68114 -18.57846,-13.68114 l 0.10368,-0.32342 a 12.238769,11.265352 0 0 1 0.0726,-0.0525 z m 18.40249,14.05714 a 12.238769,11.265352 0 0 0 0.005,-0.006 l 0.0383,0.0293 c -0.0143,-0.007 -0.0264,-0.0167 -0.0412,-0.0247 z m -10.80835,-16.49193 a 12.238769,11.265352 0 0 1 12.23882,11.26533 12.238769,11.265352 0 0 1 -1.42773,5.2219 l -18.40523,-14.05244 a 12.238769,11.265352 0 0 1 7.59414,-2.43479 z" />
    <path
       d="m 226.72524,344.56357 h 22.80851 v 3.46237 a 5.9524921,5.3179085 0 0 1 -0.50314,2.08743 H 227.2284 a 5.9524921,5.3179085 0 0 1 -0.50316,-2.08743 z"
       style="fill:#333333;stroke-width:0.121322"
       id="path14-2-23-7-6-6-4-1-4" />
    <path
       d="m 249.53375,335.78321 v 5.5498 h -22.80851 v -5.5498 z"
       style="fill:#333333;stroke-width:0.121322"
       id="path11-8-38-2-8-4-6-1-0" />
    <path
       d="m 226.72524,341.33301 h 22.80851 v 3.23056 h -22.80851 z"
       style="fill:#aa0000;stroke-width:0.121322"
       id="path13-5-5-2-5-8-1-4-1" />
    <path
       d="m 245.04489,382.51029 c -0.4798,-0.3853 -14.15784,-11.51799 -14.83483,-28.24596 v -1.95304 h 14.83483 z"
       style="fill:#ffffff;stroke-width:0.10141"
       id="path21-0-72-1-8-9-0-1-2" />
    <path
       d="m 223.07823,319.57259 c -1.27255,-2.0892 -7.04815,-12.3304 -2.60933,-19.4882 l 0.22394,-0.13079 15.1624,20.73456 -8.38317,4.89291 z"
       style="fill:#ffffff;stroke-width:0.121322"
       id="path18-7-6-5-2-1-0-5-3-2" />
    <path
       d="m 260.07153,350.24908 h 21.8022 a 5.9524921,5.3179085 0 0 1 -5.44943,3.23057 h -10.90359 a 5.9524921,5.3179085 0 0 1 -5.44918,-3.23057 z"
       style="fill:#ffffff;stroke-width:0.121322"
       id="path10-5-3-2-9-4-9-32-4" />
    <path
       d="m 276.4243,321.83716 a 5.9524921,5.3179085 0 0 1 5.95257,5.31798 v 8.76378 h -22.8085 v -8.76378 a 5.9524921,5.3179085 0 0 1 5.95234,-5.31798 z"
       style="fill:#ffffff;stroke-width:0.121322"
       id="path7-7-10-3-2-0-6-67-4" />
    <path
       d="m 262.60538,303.23554 -0.10369,0.32339 c 0,0 -1.89557,1.52223 18.57848,13.6813 a 12.238769,11.265352 0 0 1 -10.80833,6.03874 12.238769,11.265352 0 0 1 -12.23885,-11.26534 12.238769,11.265352 0 0 1 4.57223,-8.77809 z"
       style="fill:#ffffff;stroke-width:0.121322"
       id="path6-2-16-4-6-4-4-43-7" />
    <path
       id="path4-6-2-8-3-7-1-9-7"
       style="fill:#aa0000;stroke-width:0.121322"
       d="m 262.67784,303.18309 a 12.238769,11.265352 0 0 0 -0.0726,0.0525 l 0.0276,-0.0868 z m 0,0 18.40523,14.05244 a 12.238769,11.265352 0 0 1 -0.005,0.006 C 260.60404,305.08264 262.4996,303.56039 262.4996,303.56039 l 0.10369,-0.32341 a 12.238769,11.265352 0 0 1 0.0725,-0.0525 z m 18.40249,14.05714 a 12.238769,11.265352 0 0 0 0.005,-0.006 l 0.0383,0.0293 c -0.0143,-0.007 -0.0264,-0.0167 -0.0412,-0.0247 z M 270.27198,300.7483 a 12.238769,11.265352 0 0 1 12.23882,11.26533 12.238769,11.265352 0 0 1 -1.42773,5.2219 l -18.40523,-14.05244 a 12.238769,11.265352 0 0 1 7.59414,-2.43479 z" />
    <path
       d="m 259.56837,344.69928 h 22.8085 v 3.46237 a 5.9524921,5.3179085 0 0 1 -0.50314,2.08743 h -21.8022 a 5.9524921,5.3179085 0 0 1 -0.50316,-2.08743 z"
       style="fill:#333333;stroke-width:0.121322"
       id="path14-2-23-7-6-6-4-9-7" />
    <path
       d="m 282.37687,335.91892 v 5.5498 h -22.8085 v -5.5498 z"
       style="fill:#333333;stroke-width:0.121322"
       id="path11-8-38-2-8-4-6-5-7" />
    <path
       d="m 259.56837,341.46872 h 22.8085 v 3.23056 h -22.8085 z"
       style="fill:#aa0000;stroke-width:0.121322"
       id="path13-5-5-2-5-8-1-8-4" />
    <path
       d="m 277.88801,382.646 c -0.47979,-0.3853 -14.15783,-11.51799 -14.83482,-28.24596 V 352.447 h 14.83482 z"
       style="fill:#ffffff;stroke-width:0.10141"
       id="path21-0-72-1-8-9-0-33-8" />
    <path
       d="m 255.92136,319.70831 c -1.27255,-2.08921 -7.04816,-12.33041 -2.60934,-19.48821 l 0.22394,-0.13079 15.16241,20.73456 -8.38317,4.89291 z"
       style="fill:#ffffff;stroke-width:0.121322"
       id="path18-7-6-5-2-1-0-5-1-0" />
    <path
       d="m 293.50827,350.27219 h 21.8022 a 5.9524921,5.3179085 0 0 1 -5.44943,3.23057 h -10.90359 a 5.9524921,5.3179085 0 0 1 -5.44918,-3.23057 z"
       style="fill:#ffffff;stroke-width:0.121322"
       id="path10-5-3-2-9-4-9-9-2" />
    <path
       d="m 309.86104,321.86026 a 5.9524921,5.3179085 0 0 1 5.95257,5.31798 v 8.76379 h -22.8085 v -8.76379 a 5.9524921,5.3179085 0 0 1 5.95234,-5.31798 z"
       style="fill:#ffffff;stroke-width:0.121322"
       id="path7-7-10-3-2-0-6-3-9" />
    <path
       d="m 296.04212,303.25864 -0.10369,0.3234 c 0,0 -1.89557,1.52223 18.57848,13.6813 a 12.238769,11.265352 0 0 1 -10.80833,6.03873 12.238769,11.265352 0 0 1 -12.23885,-11.26533 12.238769,11.265352 0 0 1 4.57223,-8.7781 z"
       style="fill:#ffffff;stroke-width:0.121322"
       id="path6-2-16-4-6-4-4-6-0" />
    <path
       id="path4-6-2-8-3-7-1-2-1"
       style="fill:#aa0000;stroke-width:0.121322"
       d="m 296.11458,303.2062 a 12.238769,11.265352 0 0 0 -0.0726,0.0525 l 0.0276,-0.0868 z m 0,0 18.40523,14.05244 a 12.238769,11.265352 0 0 1 -0.005,0.006 c -20.47403,-12.1589 -18.57847,-13.68115 -18.57847,-13.68115 l 0.10369,-0.32341 a 12.238769,11.265352 0 0 1 0.0725,-0.0525 z m 18.40249,14.05714 a 12.238769,11.265352 0 0 0 0.005,-0.006 l 0.0383,0.0293 c -0.0143,-0.007 -0.0264,-0.0167 -0.0412,-0.0247 z m -10.80835,-16.49193 a 12.238769,11.265352 0 0 1 12.23882,11.26533 12.238769,11.265352 0 0 1 -1.42773,5.2219 L 296.11458,303.2062 a 12.238769,11.265352 0 0 1 7.59414,-2.43479 z" />
    <path
       d="m 293.00511,344.72239 h 22.8085 v 3.46237 a 5.9524921,5.3179085 0 0 1 -0.50314,2.08743 h -21.8022 a 5.9524921,5.3179085 0 0 1 -0.50316,-2.08743 z"
       style="fill:#333333;stroke-width:0.121322"
       id="path14-2-23-7-6-6-4-7-0" />
    <path
       d="m 315.81361,335.94203 v 5.5498 h -22.8085 v -5.5498 z"
       style="fill:#333333;stroke-width:0.121322"
       id="path11-8-38-2-8-4-6-3-6" />
    <path
       d="m 293.00511,341.49183 h 22.8085 v 3.23056 h -22.8085 z"
       style="fill:#aa0000;stroke-width:0.121322"
       id="path13-5-5-2-5-8-1-7-1" />
    <path
       d="m 311.32475,382.66911 c -0.47979,-0.3853 -14.15784,-11.51799 -14.83482,-28.24596 v -1.95304 h 14.83482 z"
       style="fill:#ffffff;stroke-width:0.10141"
       id="path21-0-72-1-8-9-0-601-8" />
    <path
       d="m 289.3581,319.73141 c -1.27255,-2.0892 -7.04816,-12.33041 -2.60934,-19.48821 l 0.22394,-0.13078 15.16241,20.73455 -8.38318,4.89292 z"
       style="fill:#ffffff;stroke-width:0.121322"
       id="path18-7-6-5-2-1-0-5-9-0" />
  </g>
</svg>
