<?xml version="1.0" encoding="UTF-8" standalone="no"?>
<!-- Created with Inkscape (http://www.inkscape.org/) -->

<svg
   width="400mm"
   height="400mm"
   viewBox="0 0 400 400"
   version="1.1"
   id="svg1"
   inkscape:export-filename="..\..\..\..\..\..\Projects\puntal\assets\images\Pd6.svg"
   inkscape:export-xdpi="96"
   inkscape:export-ydpi="96"
   inkscape:version="1.3.2 (091e20e, 2023-11-25, custom)"
   sodipodi:docname="2d6 draft.svg"
   xmlns:inkscape="http://www.inkscape.org/namespaces/inkscape"
   xmlns:sodipodi="http://sodipodi.sourceforge.net/DTD/sodipodi-0.dtd"
   xmlns="http://www.w3.org/2000/svg"
   xmlns:svg="http://www.w3.org/2000/svg">
  <sodipodi:namedview
     id="namedview1"
     pagecolor="#505050"
     bordercolor="#eeeeee"
     borderopacity="1"
     inkscape:showpageshadow="0"
     inkscape:pageopacity="0"
     inkscape:pagecheckerboard="0"
     inkscape:deskcolor="#505050"
     inkscape:document-units="mm"
     inkscape:zoom="0.4894542"
     inkscape:cx="225.76168"
     inkscape:cy="587.38898"
     inkscape:window-width="1920"
     inkscape:window-height="991"
     inkscape:window-x="-9"
     inkscape:window-y="-9"
     inkscape:window-maximized="1"
     inkscape:current-layer="layer1"
     showguides="false" />
  <defs
     id="defs1" />
  <g
     inkscape:label="Capa 1"
     inkscape:groupmode="layer"
     id="layer1">
    <path
       d="M 0,0 V 400 M 2.6458333,0 V 400 M 5.2916666,0 V 400 M 7.9374999,0 V 400 M 10.583333,0 V 400 M 13.229167,0 V 400 M 15.875,0 V 400 M 18.520833,0 V 400 M 21.166667,0 V 400 M 23.8125,0 V 400 M 26.458333,0 V 400 M 29.104166,0 V 400 M 31.75,0 V 400 M 34.395833,0 V 400 M 37.041666,0 V 400 M 39.6875,0 V 400 M 42.333333,0 V 400 M 44.979166,0 V 400 M 47.625,0 V 400 M 50.270833,0 V 400 M 52.916666,0 V 400 M 55.5625,0 V 400 M 58.208333,0 V 400 M 60.854166,0 V 400 M 63.5,0 V 400 M 66.145833,0 V 400 M 68.791666,0 V 400 M 71.437499,0 V 400 M 74.083333,0 V 400 M 76.729166,0 V 400 M 79.374999,0 V 400 M 82.020833,0 V 400 M 84.666666,0 V 400 M 87.312499,0 V 400 M 89.958333,0 V 400 M 92.604166,0 V 400 M 95.249999,0 V 400 M 97.895833,0 V 400 M 100.54167,0 V 400 M 103.1875,0 V 400 M 105.83333,0 V 400 M 108.47917,0 V 400 M 111.125,0 V 400 M 113.77083,0 V 400 M 116.41667,0 V 400 M 119.0625,0 V 400 M 121.70833,0 V 400 M 124.35417,0 V 400 M 127,0 V 400 M 129.64583,0 V 400 M 132.29167,0 V 400 M 134.9375,0 V 400 M 137.58333,0 V 400 M 140.22917,0 V 400 M 142.875,0 V 400 M 145.52083,0 V 400 M 148.16667,0 V 400 M 150.8125,0 V 400 M 153.45833,0 V 400 M 156.10417,0 V 400 M 158.75,0 V 400 M 161.39583,0 V 400 M 164.04167,0 V 400 M 166.6875,0 V 400 M 169.33333,0 V 400 M 171.97917,0 V 400 M 174.625,0 V 400 M 177.27083,0 V 400 M 179.91667,0 V 400 M 182.5625,0 V 400 M 185.20833,0 V 400 M 187.85417,0 V 400 M 190.5,0 V 400 M 193.14583,0 V 400 M 195.79167,0 V 400 M 198.4375,0 V 400 M 201.08333,0 V 400 M 203.72917,0 V 400 M 206.375,0 V 400 M 209.02083,0 V 400 M 211.66667,0 V 400 M 214.3125,0 V 400 M 216.95833,0 V 400 M 219.60416,0 V 400 M 222.25,0 V 400 M 224.89583,0 V 400 M 227.54166,0 V 400 M 230.1875,0 V 400 M 232.83333,0 V 400 M 235.47916,0 V 400 M 238.125,0 V 400 M 240.77083,0 V 400 M 243.41666,0 V 400 M 246.0625,0 V 400 M 248.70833,0 V 400 M 251.35416,0 V 400 M 254,0 V 400 M 256.64583,0 V 400 M 259.29166,0 V 400 M 261.9375,0 V 400 M 264.58333,0 V 400 M 267.22916,0 V 400 M 269.875,0 V 400 M 272.52083,0 V 400 M 275.16666,0 V 400 M 277.8125,0 V 400 M 280.45833,0 V 400 M 283.10416,0 V 400 M 285.75,0 V 400 M 288.39583,0 V 400 M 291.04166,0 V 400 M 293.6875,0 V 400 M 296.33333,0 V 400 M 298.97916,0 V 400 M 301.625,0 V 400 M 304.27083,0 V 400 M 306.91666,0 V 400 M 309.5625,0 V 400 M 312.20833,0 V 400 M 314.85416,0 V 400 M 317.5,0 V 400 M 320.14583,0 V 400 M 322.79166,0 V 400 M 325.4375,0 V 400 M 328.08333,0 V 400 M 330.72916,0 V 400 M 333.375,0 V 400 M 336.02083,0 V 400 M 338.66666,0 V 400 M 341.3125,0 V 400 M 343.95833,0 V 400 M 346.60416,0 V 400 M 349.25,0 V 400 M 351.89583,0 V 400 M 354.54166,0 V 400 M 357.1875,0 V 400 M 359.83333,0 V 400 M 362.47916,0 V 400 M 365.125,0 V 400 M 367.77083,0 V 400 M 370.41666,0 V 400 M 373.0625,0 V 400 M 375.70833,0 V 400 M 378.35416,0 V 400 M 381,0 V 400 M 383.64583,0 V 400 M 386.29166,0 V 400 M 388.9375,0 V 400 M 391.58333,0 V 400 M 394.22916,0 V 400 M 396.875,0 V 400 M 399.52083,0 V 400 M 0,0 H 400 M 0,2.6458333 H 400 M 0,5.2916666 H 400 M 0,7.9374999 H 400 M 0,10.583333 H 400 M 0,13.229167 H 400 M 0,15.875 H 400 M 0,18.520833 H 400 M 0,21.166667 H 400 M 0,23.8125 H 400 M 0,26.458333 H 400 M 0,29.104166 H 400 M 0,31.75 H 400 M 0,34.395833 H 400 M 0,37.041666 H 400 M 0,39.6875 H 400 M 0,42.333333 H 400 M 0,44.979166 H 400 M 0,47.625 H 400 M 0,50.270833 H 400 M 0,52.916666 H 400 M 0,55.5625 H 400 M 0,58.208333 H 400 M 0,60.854166 H 400 M 0,63.5 H 400 M 0,66.145833 H 400 M 0,68.791666 H 400 M 0,71.437499 H 400 M 0,74.083333 H 400 M 0,76.729166 H 400 M 0,79.374999 H 400 M 0,82.020833 H 400 M 0,84.666666 H 400 M 0,87.312499 H 400 M 0,89.958333 H 400 M 0,92.604166 H 400 M 0,95.249999 H 400 M 0,97.895833 H 400 M 0,100.54167 H 400 M 0,103.1875 H 400 M 0,105.83333 H 400 M 0,108.47917 H 400 M 0,111.125 H 400 M 0,113.77083 H 400 M 0,116.41667 H 400 M 0,119.0625 H 400 M 0,121.70833 H 400 M 0,124.35417 H 400 M 0,127 H 400 M 0,129.64583 H 400 M 0,132.29167 H 400 M 0,134.9375 H 400 M 0,137.58333 H 400 M 0,140.22917 H 400 M 0,142.875 H 400 M 0,145.52083 H 400 M 0,148.16667 H 400 M 0,150.8125 H 400 M 0,153.45833 H 400 M 0,156.10417 H 400 M 0,158.75 H 400 M 0,161.39583 H 400 M 0,164.04167 H 400 M 0,166.6875 H 400 M 0,169.33333 H 400 M 0,171.97917 H 400 M 0,174.625 H 400 M 0,177.27083 H 400 M 0,179.91667 H 400 M 0,182.5625 H 400 M 0,185.20833 H 400 M 0,187.85417 H 400 M 0,190.5 H 400 M 0,193.14583 H 400 M 0,195.79167 H 400 M 0,198.4375 H 400 M 0,201.08333 H 400 M 0,203.72917 H 400 M 0,206.375 H 400 M 0,209.02083 H 400 M 0,211.66667 H 400 M 0,214.3125 H 400 M 0,216.95833 H 400 M 0,219.60416 H 400 M 0,222.25 H 400 M 0,224.89583 H 400 M 0,227.54166 H 400 M 0,230.1875 H 400 M 0,232.83333 H 400 M 0,235.47916 H 400 M 0,238.125 H 400 M 0,240.77083 H 400 M 0,243.41666 H 400 M 0,246.0625 H 400 M 0,248.70833 H 400 M 0,251.35416 H 400 M 0,254 H 400 M 0,256.64583 H 400 M 0,259.29166 H 400 M 0,261.9375 H 400 M 0,264.58333 H 400 M 0,267.22916 H 400 M 0,269.875 H 400 M 0,272.52083 H 400 M 0,275.16666 H 400 M 0,277.8125 H 400 M 0,280.45833 H 400 M 0,283.10416 H 400 M 0,285.75 H 400 M 0,288.39583 H 400 M 0,291.04166 H 400 M 0,293.6875 H 400 M 0,296.33333 H 400 M 0,298.97916 H 400 M 0,301.625 H 400 M 0,304.27083 H 400 M 0,306.91666 H 400 M 0,309.5625 H 400 M 0,312.20833 H 400 M 0,314.85416 H 400 M 0,317.5 H 400 M 0,320.14583 H 400 M 0,322.79166 H 400 M 0,325.4375 H 400 M 0,328.08333 H 400 M 0,330.72916 H 400 M 0,333.375 H 400 M 0,336.02083 H 400 M 0,338.66666 H 400 M 0,341.3125 H 400 M 0,343.95833 H 400 M 0,346.60416 H 400 M 0,349.25 H 400 M 0,351.89583 H 400 M 0,354.54166 H 400 M 0,357.1875 H 400 M 0,359.83333 H 400 M 0,362.47916 H 400 M 0,365.125 H 400 M 0,367.77083 H 400 M 0,370.41666 H 400 M 0,373.0625 H 400 M 0,375.70833 H 400 M 0,378.35416 H 400 M 0,381 H 400 M 0,383.64583 H 400 M 0,386.29166 H 400 M 0,388.9375 H 400 M 0,391.58333 H 400 M 0,394.22916 H 400 M 0,396.875 H 400 M 0,399.52083 h 400"
       style="display:none;fill:none;stroke:#000000;stroke-width:0.264583px"
       id="path1" />
    <path
       d="m 193.24219,354.65179 h 17.99688 a 4.9135533,4.5758106 0 0 1 -4.4983,2.77975 h -9.00049 a 4.9135533,4.5758106 0 0 1 -4.49809,-2.77975 z"
       style="fill:#ffffff;stroke-width:0.102247"
       id="path10-5-3-2-9-4-9" />
    <path
       d="m 206.74077,330.20466 a 4.9135533,4.5758106 0 0 1 4.91362,4.57588 v 7.54083 h -18.82754 v -7.54083 a 4.9135533,4.5758106 0 0 1 4.91343,-4.57588 z"
       style="fill:#ffffff;stroke-width:0.102247"
       id="path7-7-10-3-2-0-6" />
    <path
       d="m 195.33378,314.19884 -0.0856,0.27826 c 0,0 -1.56472,1.30981 15.33582,11.77213 a 10.102633,9.6933064 0 0 1 -8.92186,5.19604 10.102633,9.6933064 0 0 1 -10.1027,-9.69329 10.102633,9.6933064 0 0 1 3.7742,-7.55314 z"
       style="fill:#ffffff;stroke-width:0.102247"
       id="path6-2-16-4-6-4-4" />
    <path
       id="path4-6-2-8-3-7-1"
       style="fill:#aa0000;stroke-width:0.102247"
       d="m 195.3936,314.15371 a 10.102633,9.6933064 0 0 0 -0.0599,0.0452 l 0.0228,-0.0747 z m 0,0 15.19281,12.09147 a 10.102633,9.6933064 0 0 1 -0.004,0.005 c -16.90024,-10.46173 -15.33552,-11.77156 -15.33552,-11.77156 l 0.0856,-0.27828 a 10.102633,9.6933064 0 0 1 0.0599,-0.0452 z m 15.19054,12.09552 a 10.102633,9.6933064 0 0 0 0.004,-0.006 l 0.0316,0.0252 c -0.0118,-0.006 -0.0218,-0.0144 -0.034,-0.0213 z m -8.92187,-14.19054 a 10.102633,9.6933064 0 0 1 10.10267,9.69329 10.102633,9.6933064 0 0 1 -1.17853,4.4932 L 195.3936,314.15371 a 10.102633,9.6933064 0 0 1 6.26867,-2.09502 z" />
    <path
       d="m 192.82685,349.87644 h 18.82754 v 2.97921 a 4.9135533,4.5758106 0 0 1 -0.41532,1.79614 h -17.99688 a 4.9135533,4.5758106 0 0 1 -0.41534,-1.79614 z"
       style="fill:#333333;stroke-width:0.102247"
       id="path14-2-23-7-6-6-4" />
    <path
       d="m 211.65439,342.32137 v 4.77534 h -18.82754 v -4.77534 z"
       style="fill:#333333;stroke-width:0.102247"
       id="path11-8-38-2-8-4-6" />
    <path
       d="m 192.82685,347.09671 h 18.82754 v 2.77973 h -18.82754 z"
       style="fill:#aa0000;stroke-width:0.102247"
       id="path13-5-5-2-5-8-1" />
    <path
       d="m 207.94901,382.52781 c -0.39605,-0.33152 -11.68676,-9.91068 -12.24558,-24.30432 v -1.6805 h 12.24558 z"
       style="fill:#ffffff;stroke-width:0.0854659"
       id="path21-0-72-1-8-9-0" />
    <path
       d="m 191.42479,338.52797 c -2.0175,-0.16619 -11.684,-1.30261 -14.34763,-7.99356 l 0.0203,-0.22164 21.24604,-0.1127 -0.76197,8.2952 z"
       style="fill:#ffffff;stroke-width:0.102247"
       id="path18-7-6-5-2-1-0-5" />
    <path
       d="m 193.34485,306.46724 h 17.99689 a 4.9135533,4.5758106 0 0 1 -4.49831,2.77976 h -9.00049 a 4.9135533,4.5758106 0 0 1 -4.49809,-2.77976 z"
       style="fill:#ffffff;stroke-width:0.102247"
       id="path10-5-3-2-9-4-9-2" />
    <path
       d="m 206.84343,282.02011 a 4.9135533,4.5758106 0 0 1 4.91363,4.57587 v 7.54083 h -18.82755 v -7.54083 a 4.9135533,4.5758106 0 0 1 4.91343,-4.57587 z"
       style="fill:#ffffff;stroke-width:0.102247"
       id="path7-7-10-3-2-0-6-6" />
    <path
       d="m 195.43645,266.01429 -0.0856,0.27826 c 0,0 -1.56473,1.30982 15.33582,11.77213 a 10.102633,9.6933064 0 0 1 -8.92187,5.19604 10.102633,9.6933064 0 0 1 -10.1027,-9.69329 10.102633,9.6933064 0 0 1 3.77421,-7.55314 z"
       style="fill:#ffffff;stroke-width:0.102247"
       id="path6-2-16-4-6-4-4-5" />
    <path
       id="path4-6-2-8-3-7-1-0"
       style="fill:#aa0000;stroke-width:0.102247"
       d="m 195.49626,265.96917 a 10.102633,9.6933064 0 0 0 -0.0599,0.0452 l 0.0228,-0.0747 z m 0,0 15.19281,12.09146 a 10.102633,9.6933064 0 0 1 -0.004,0.005 c -16.90052,-10.46216 -15.3358,-11.77198 -15.3358,-11.77198 l 0.0856,-0.27828 a 10.102633,9.6933064 0 0 1 0.0599,-0.0452 z m 15.19055,12.09551 a 10.102633,9.6933064 0 0 0 0.004,-0.005 l 0.0316,0.0252 c -0.0118,-0.006 -0.0218,-0.0144 -0.034,-0.0213 z m -8.92188,-14.19054 a 10.102633,9.6933064 0 0 1 10.10268,9.69329 10.102633,9.6933064 0 0 1 -1.17854,4.4932 l -15.19281,-12.09146 a 10.102633,9.6933064 0 0 1 6.26867,-2.09503 z" />
    <path
       d="m 192.92951,301.6919 h 18.82755 v 2.97921 a 4.9135533,4.5758106 0 0 1 -0.41532,1.79613 h -17.99689 a 4.9135533,4.5758106 0 0 1 -0.41534,-1.79613 z"
       style="fill:#333333;stroke-width:0.102247"
       id="path14-2-23-7-6-6-4-8" />
    <path
       d="m 211.75706,294.13681 v 4.77534 h -18.82755 v -4.77534 z"
       style="fill:#333333;stroke-width:0.102247"
       id="path11-8-38-2-8-4-6-8" />
    <path
       d="m 192.92951,298.91215 h 18.82755 v 2.77975 h -18.82755 z"
       style="fill:#aa0000;stroke-width:0.102247"
       id="path13-5-5-2-5-8-1-9" />
    <path
       d="m 208.05168,334.34326 c -0.39606,-0.33152 -11.68675,-9.91068 -12.24558,-24.30432 v -1.68049 h 12.24558 z"
       style="fill:#ffffff;stroke-width:0.0854659"
       id="path21-0-72-1-8-9-0-6" />
    <path
       d="m 192.82297,257.7967 h 17.99689 a 4.9135533,4.5758106 0 0 1 -4.49831,2.77976 h -9.00049 a 4.9135533,4.5758106 0 0 1 -4.49809,-2.77976 z"
       style="fill:#ffffff;stroke-width:0.102247"
       id="path10-5-3-2-9-4-9-3" />
    <path
       d="m 206.32155,233.34957 a 4.9135533,4.5758106 0 0 1 4.91363,4.57588 v 7.54083 h -18.82755 v -7.54083 a 4.9135533,4.5758106 0 0 1 4.91343,-4.57588 z"
       style="fill:#ffffff;stroke-width:0.102247"
       id="path7-7-10-3-2-0-6-2" />
    <path
       d="m 194.91457,217.34375 -0.0856,0.27827 c 0,0 -1.56472,1.30981 15.33581,11.77212 a 10.102633,9.6933064 0 0 1 -8.92186,5.19604 10.102633,9.6933064 0 0 1 -10.1027,-9.69328 10.102633,9.6933064 0 0 1 3.77421,-7.55315 z"
       style="fill:#ffffff;stroke-width:0.102247"
       id="path6-2-16-4-6-4-4-3" />
    <path
       id="path4-6-2-8-3-7-1-8"
       style="fill:#aa0000;stroke-width:0.102247"
       d="m 194.97438,217.29863 a 10.102633,9.6933064 0 0 0 -0.0599,0.0452 l 0.0228,-0.0747 z m 0,0 15.19281,12.09147 a 10.102633,9.6933064 0 0 1 -0.004,0.005 c -16.90023,-10.46174 -15.33552,-11.77157 -15.33552,-11.77157 l 0.0856,-0.27828 a 10.102633,9.6933064 0 0 1 0.0598,-0.0452 z m 15.19055,12.09551 a 10.102633,9.6933064 0 0 0 0.004,-0.005 l 0.0316,0.0252 c -0.0118,-0.006 -0.0218,-0.0144 -0.034,-0.0213 z m -8.92188,-14.19053 a 10.102633,9.6933064 0 0 1 10.10267,9.69329 10.102633,9.6933064 0 0 1 -1.17853,4.4932 l -15.19281,-12.09147 a 10.102633,9.6933064 0 0 1 6.26867,-2.09502 z" />
    <path
       d="m 192.40763,253.02136 h 18.82755 v 2.97921 a 4.9135533,4.5758106 0 0 1 -0.41532,1.79613 h -17.99689 a 4.9135533,4.5758106 0 0 1 -0.41534,-1.79613 z"
       style="fill:#333333;stroke-width:0.102247"
       id="path14-2-23-7-6-6-4-5" />
    <path
       d="m 211.23518,245.46628 v 4.77534 h -18.82755 v -4.77534 z"
       style="fill:#333333;stroke-width:0.102247"
       id="path11-8-38-2-8-4-6-87" />
    <path
       d="m 192.40763,250.24162 h 18.82755 v 2.77974 h -18.82755 z"
       style="fill:#aa0000;stroke-width:0.102247"
       id="path13-5-5-2-5-8-1-0" />
    <path
       d="m 207.5298,285.67273 c -0.39606,-0.33153 -11.68676,-9.91069 -12.24558,-24.30433 v -1.68049 h 12.24558 z"
       style="fill:#ffffff;stroke-width:0.0854659"
       id="path21-0-72-1-8-9-0-3" />
    <path
       d="m 193.35901,211.13521 h 17.99688 a 4.9135533,4.5758106 0 0 1 -4.4983,2.77975 h -9.00049 a 4.9135533,4.5758106 0 0 1 -4.49809,-2.77975 z"
       style="fill:#ffffff;stroke-width:0.102247"
       id="path10-5-3-2-9-4-9-6" />
    <path
       d="m 206.85759,186.68807 a 4.9135533,4.5758106 0 0 1 4.91363,4.57588 v 7.54083 h -18.82755 v -7.54083 a 4.9135533,4.5758106 0 0 1 4.91343,-4.57588 z"
       style="fill:#ffffff;stroke-width:0.102247"
       id="path7-7-10-3-2-0-6-7" />
    <path
       d="m 195.4506,170.68225 -0.0856,0.27826 c 0,0 -1.56472,1.30981 15.33581,11.77213 a 10.102633,9.6933064 0 0 1 -8.92186,5.19604 10.102633,9.6933064 0 0 1 -10.1027,-9.69328 10.102633,9.6933064 0 0 1 3.77421,-7.55315 z"
       style="fill:#ffffff;stroke-width:0.102247"
       id="path6-2-16-4-6-4-4-4" />
    <path
       id="path4-6-2-8-3-7-1-09"
       style="fill:#aa0000;stroke-width:0.102247"
       d="m 195.51042,170.63713 a 10.102633,9.6933064 0 0 0 -0.0599,0.0452 l 0.0228,-0.0747 z m 0,0 15.19281,12.09147 a 10.102633,9.6933064 0 0 1 -0.004,0.005 c -16.90065,-10.462 -15.33594,-11.77183 -15.33594,-11.77183 l 0.0856,-0.27828 a 10.102633,9.6933064 0 0 1 0.0598,-0.0452 z m 15.19054,12.09551 a 10.102633,9.6933064 0 0 0 0.004,-0.005 l 0.0316,0.0252 c -0.0118,-0.006 -0.0218,-0.0144 -0.034,-0.0213 z m -8.92187,-14.19054 a 10.102633,9.6933064 0 0 1 10.10267,9.6933 10.102633,9.6933064 0 0 1 -1.17853,4.4932 l -15.19281,-12.09147 a 10.102633,9.6933064 0 0 1 6.26867,-2.09503 z" />
    <path
       d="m 192.94367,206.35987 h 18.82755 v 2.9792 a 4.9135533,4.5758106 0 0 1 -0.41533,1.79614 h -17.99688 a 4.9135533,4.5758106 0 0 1 -0.41534,-1.79614 z"
       style="fill:#333333;stroke-width:0.102247"
       id="path14-2-23-7-6-6-4-82" />
    <path
       d="m 211.77122,198.80478 v 4.77535 h -18.82755 v -4.77535 z"
       style="fill:#333333;stroke-width:0.102247"
       id="path11-8-38-2-8-4-6-4" />
    <path
       d="m 192.94367,203.58013 h 18.82755 v 2.77974 h -18.82755 z"
       style="fill:#aa0000;stroke-width:0.102247"
       id="path13-5-5-2-5-8-1-02" />
    <path
       d="m 208.06583,239.01123 c -0.39605,-0.33152 -11.68675,-9.91069 -12.24558,-24.30432 v -1.68049 h 12.24558 z"
       style="fill:#ffffff;stroke-width:0.0854659"
       id="path21-0-72-1-8-9-0-60" />
    <path
       d="m 192.94398,161.69202 h 17.99689 a 4.9135533,4.5758106 0 0 1 -4.4983,2.77976 h -9.00049 a 4.9135533,4.5758106 0 0 1 -4.4981,-2.77976 z"
       style="fill:#ffffff;stroke-width:0.102247"
       id="path10-5-3-2-9-4-9-7" />
    <path
       d="m 206.44257,137.24489 a 4.9135533,4.5758106 0 0 1 4.91362,4.57587 v 7.54083 h -18.82755 v -7.54083 a 4.9135533,4.5758106 0 0 1 4.91344,-4.57587 z"
       style="fill:#ffffff;stroke-width:0.102247"
       id="path7-7-10-3-2-0-6-8" />
    <path
       d="m 195.03559,121.23907 -0.0856,0.27827 c 0,0 -1.56472,1.30981 15.33582,11.77212 a 10.102633,9.6933064 0 0 1 -8.92186,5.19604 10.102633,9.6933064 0 0 1 -10.1027,-9.69329 10.102633,9.6933064 0 0 1 3.7742,-7.55314 z"
       style="fill:#ffffff;stroke-width:0.102247"
       id="path6-2-16-4-6-4-4-55" />
    <path
       id="path4-6-2-8-3-7-1-01"
       style="fill:#aa0000;stroke-width:0.102247"
       d="m 195.09539,121.19395 a 10.102633,9.6933064 0 0 0 -0.0599,0.0451 l 0.0228,-0.0747 z m 0,0 15.19282,12.09146 a 10.102633,9.6933064 0 0 1 -0.004,0.006 c -16.90023,-10.46217 -15.33552,-11.772 -15.33552,-11.772 l 0.0856,-0.27828 a 10.102633,9.6933064 0 0 1 0.0598,-0.0451 z m 15.19055,12.09551 a 10.102633,9.6933064 0 0 0 0.004,-0.006 l 0.0316,0.0252 c -0.0118,-0.006 -0.0218,-0.0144 -0.034,-0.0212 z m -8.92188,-14.19054 a 10.102633,9.6933064 0 0 1 10.10268,9.69329 10.102633,9.6933064 0 0 1 -1.17853,4.4932 l -15.19282,-12.09146 a 10.102633,9.6933064 0 0 1 6.26867,-2.09503 z" />
    <path
       d="m 192.52864,156.91668 h 18.82755 v 2.97921 a 4.9135533,4.5758106 0 0 1 -0.41532,1.79613 h -17.99689 a 4.9135533,4.5758106 0 0 1 -0.41534,-1.79613 z"
       style="fill:#333333;stroke-width:0.102247"
       id="path14-2-23-7-6-6-4-0" />
    <path
       d="m 211.35619,149.36159 v 4.77535 h -18.82755 v -4.77535 z"
       style="fill:#333333;stroke-width:0.102247"
       id="path11-8-38-2-8-4-6-2" />
    <path
       d="m 192.52864,154.13694 h 18.82755 v 2.77974 h -18.82755 z"
       style="fill:#aa0000;stroke-width:0.102247"
       id="path13-5-5-2-5-8-1-5" />
    <path
       d="m 207.65081,189.56804 c -0.39605,-0.33153 -11.68675,-9.91069 -12.24557,-24.30431 v -1.6805 h 12.24557 z"
       style="fill:#ffffff;stroke-width:0.0854659"
       id="path21-0-72-1-8-9-0-9" />
    <path
       d="m 195.95459,130.71223 c 0.21141,-2.09163 1.55149,-12.10455 8.05611,-14.70077 l 0.21269,0.0268 -0.4342,22.07413 -7.96038,-1.00341 z"
       style="fill:#ffffff;stroke-width:0.102247"
       id="path18-7-6-5-2-1-0-5-5" />
    <path
       d="m 192.94264,114.2186 h 17.99688 a 4.9135533,4.5758106 0 0 1 -4.49829,2.77975 h -9.0005 a 4.9135533,4.5758106 0 0 1 -4.49809,-2.77975 z"
       style="fill:#ffffff;stroke-width:0.102247"
       id="path10-5-3-2-9-4-9-7-0" />
    <path
       d="m 206.44123,89.771473 a 4.9135533,4.5758106 0 0 1 4.91362,4.575872 v 7.540825 h -18.82754 v -7.540825 a 4.9135533,4.5758106 0 0 1 4.91342,-4.575872 z"
       style="fill:#ffffff;stroke-width:0.102247"
       id="path7-7-10-3-2-0-6-8-7" />
    <path
       d="m 195.03424,73.765653 -0.0856,0.278265 c 0,0 -1.56472,1.309808 15.33582,11.772119 a 10.102633,9.6933064 0 0 1 -8.92186,5.196047 10.102633,9.6933064 0 0 1 -10.1027,-9.693291 10.102633,9.6933064 0 0 1 3.7742,-7.55314 z"
       style="fill:#ffffff;stroke-width:0.102247"
       id="path6-2-16-4-6-4-4-55-1" />
    <path
       id="path4-6-2-8-3-7-1-01-9"
       style="fill:#aa0000;stroke-width:0.102247"
       d="m 195.09405,73.720527 a 10.102633,9.6933064 0 0 0 -0.06,0.04516 l 0.0228,-0.07468 z m 0,0 15.19281,12.091465 a 10.102633,9.6933064 0 0 1 -0.004,0.0056 C 193.3825,75.355418 194.94721,74.045593 194.94721,74.045593 l 0.0856,-0.278281 a 10.102633,9.6933064 0 0 1 0.0599,-0.04516 z m 15.19055,12.09551 a 10.102633,9.6933064 0 0 0 0.004,-0.0056 l 0.0316,0.02521 c -0.0118,-0.0064 -0.0218,-0.01436 -0.034,-0.02122 z m -8.92188,-14.190535 a 10.102633,9.6933064 0 0 1 10.10268,9.693291 10.102633,9.6933064 0 0 1 -1.17854,4.493199 L 195.09405,73.720527 a 10.102633,9.6933064 0 0 1 6.26867,-2.095025 z" />
    <path
       d="m 192.52731,109.44326 h 18.82754 v 2.97921 a 4.9135533,4.5758106 0 0 1 -0.41533,1.79613 h -17.99688 a 4.9135533,4.5758106 0 0 1 -0.41533,-1.79613 z"
       style="fill:#333333;stroke-width:0.102247"
       id="path14-2-23-7-6-6-4-0-1" />
    <path
       d="m 211.35485,101.88817 v 4.77534 h -18.82754 v -4.77534 z"
       style="fill:#333333;stroke-width:0.102247"
       id="path11-8-38-2-8-4-6-2-1" />
    <path
       d="m 192.52731,106.66351 h 18.82754 v 2.77975 h -18.82754 z"
       style="fill:#aa0000;stroke-width:0.102247"
       id="path13-5-5-2-5-8-1-5-4" />
    <path
       d="m 207.64946,142.09463 c -0.39604,-0.33153 -11.68675,-9.91069 -12.24557,-24.30433 v -1.68049 h 12.24557 z"
       style="fill:#ffffff;stroke-width:0.0854659"
       id="path21-0-72-1-8-9-0-9-7" />
    <path
       d="m 195.95325,83.238809 c 0.2114,-2.091627 1.55148,-12.104554 8.0561,-14.700769 l 0.21269,0.02675 -0.43419,22.074128 -7.96038,-1.003412 z"
       style="fill:#ffffff;stroke-width:0.102247"
       id="path18-7-6-5-2-1-0-5-5-0" />
    <path
       d="m 183.48668,354.68621 h -17.99689 a 4.9135533,4.5758106 0 0 0 4.4983,2.77975 h 9.0005 a 4.9135533,4.5758106 0 0 0 4.49809,-2.77975 z"
       style="fill:#ffffff;stroke-width:0.102247"
       id="path10-5-3-2-9-4-9-31" />
    <path
       d="m 169.98809,330.23908 a 4.9135533,4.5758106 0 0 0 -4.91362,4.57587 v 7.54083 h 18.82755 v -7.54083 a 4.9135533,4.5758106 0 0 0 -4.91343,-4.57587 z"
       style="fill:#ffffff;stroke-width:0.102247"
       id="path7-7-10-3-2-0-6-9" />
    <path
       d="m 181.39507,314.23326 0.0856,0.27826 c 0,0 1.56472,1.30981 -15.33582,11.77213 a 10.102633,9.6933064 0 0 0 8.92186,5.19604 10.102633,9.6933064 0 0 0 10.1027,-9.69329 10.102633,9.6933064 0 0 0 -3.7742,-7.55314 z"
       style="fill:#ffffff;stroke-width:0.102247"
       id="path6-2-16-4-6-4-4-57" />
    <path
       id="path4-6-2-8-3-7-1-7"
       style="fill:#aa0000;stroke-width:0.102247"
       d="m 181.33527,314.18813 a 10.102633,9.6933064 0 0 1 0.0599,0.0452 l -0.0228,-0.0747 z m 0,0 -15.19281,12.09147 a 10.102633,9.6933064 0 0 0 0.004,0.005 c 16.90051,-10.46217 15.3358,-11.77199 15.3358,-11.77199 l -0.0856,-0.27828 a 10.102633,9.6933064 0 0 0 -0.0599,-0.0452 z m -15.19055,12.09552 a 10.102633,9.6933064 0 0 1 -0.004,-0.005 l -0.0316,0.0252 c 0.0118,-0.006 0.0218,-0.0144 0.034,-0.0213 z m 8.92188,-14.19054 a 10.102633,9.6933064 0 0 0 -10.10268,9.69329 10.102633,9.6933064 0 0 0 1.17854,4.4932 l 15.19281,-12.09147 a 10.102633,9.6933064 0 0 0 -6.26867,-2.09502 z" />
    <path
       d="m 183.90202,349.91087 h -18.82755 v 2.97921 a 4.9135533,4.5758106 0 0 0 0.41532,1.79613 h 17.99689 a 4.9135533,4.5758106 0 0 0 0.41534,-1.79613 z"
       style="fill:#333333;stroke-width:0.102247"
       id="path14-2-23-7-6-6-4-1" />
    <path
       d="m 165.07447,342.35578 v 4.77535 h 18.82755 v -4.77535 z"
       style="fill:#333333;stroke-width:0.102247"
       id="path11-8-38-2-8-4-6-1" />
    <path
       d="m 183.90202,347.13113 h -18.82755 v 2.77974 h 18.82755 z"
       style="fill:#aa0000;stroke-width:0.102247"
       id="path13-5-5-2-5-8-1-4" />
    <path
       d="m 168.77985,382.56223 c 0.39606,-0.33152 11.68675,-9.91069 12.24558,-24.30432 v -1.68049 h -12.24558 z"
       style="fill:#ffffff;stroke-width:0.0854659"
       id="path21-0-72-1-8-9-0-1" />
    <path
       d="m 186.91248,328.40731 c 1.05044,-1.79766 5.81798,-10.60974 2.1539,-16.76869 l -0.18485,-0.11254 -12.51599,17.84111 6.92,4.21012 z"
       style="fill:#ffffff;stroke-width:0.102247"
       id="path18-7-6-5-2-1-0-5-3" />
    <path
       d="m 156.37594,354.80299 h -17.99689 a 4.9135533,4.5758106 0 0 0 4.4983,2.77974 h 9.0005 a 4.9135533,4.5758106 0 0 0 4.49809,-2.77974 z"
       style="fill:#ffffff;stroke-width:0.102247"
       id="path10-5-3-2-9-4-9-32" />
    <path
       d="m 142.87735,330.35585 a 4.9135533,4.5758106 0 0 0 -4.91362,4.57588 v 7.54083 h 18.82755 v -7.54083 a 4.9135533,4.5758106 0 0 0 -4.91343,-4.57588 z"
       style="fill:#ffffff;stroke-width:0.102247"
       id="path7-7-10-3-2-0-6-67" />
    <path
       d="m 154.28434,314.35003 0.0856,0.27826 c 0,0 1.56473,1.30981 -15.33581,11.77213 a 10.102633,9.6933064 0 0 0 8.92186,5.19604 10.102633,9.6933064 0 0 0 10.1027,-9.69328 10.102633,9.6933064 0 0 0 -3.77421,-7.55315 z"
       style="fill:#ffffff;stroke-width:0.102247"
       id="path6-2-16-4-6-4-4-43" />
    <path
       id="path4-6-2-8-3-7-1-9"
       style="fill:#aa0000;stroke-width:0.102247"
       d="m 154.22453,314.30491 a 10.102633,9.6933064 0 0 1 0.0599,0.0452 l -0.0228,-0.0747 z m 0,0 -15.19281,12.09147 a 10.102633,9.6933064 0 0 0 0.004,0.005 c 16.90051,-10.46216 15.3358,-11.77199 15.3358,-11.77199 l -0.0856,-0.27828 a 10.102633,9.6933064 0 0 0 -0.0599,-0.0452 z m -15.19055,12.09551 a 10.102633,9.6933064 0 0 1 -0.004,-0.005 l -0.0316,0.0252 c 0.0118,-0.006 0.0218,-0.0144 0.034,-0.0213 z m 8.92188,-14.19054 a 10.102633,9.6933064 0 0 0 -10.10268,9.6933 10.102633,9.6933064 0 0 0 1.17854,4.4932 l 15.19281,-12.09147 a 10.102633,9.6933064 0 0 0 -6.26867,-2.09503 z" />
    <path
       d="m 156.79128,350.02764 h -18.82755 v 2.97921 a 4.9135533,4.5758106 0 0 0 0.41532,1.79614 h 17.99689 a 4.9135533,4.5758106 0 0 0 0.41534,-1.79614 z"
       style="fill:#333333;stroke-width:0.102247"
       id="path14-2-23-7-6-6-4-9" />
    <path
       d="m 137.96373,342.47256 v 4.77534 h 18.82755 v -4.77534 z"
       style="fill:#333333;stroke-width:0.102247"
       id="path11-8-38-2-8-4-6-5" />
    <path
       d="m 156.79128,347.2479 h -18.82755 v 2.77974 h 18.82755 z"
       style="fill:#aa0000;stroke-width:0.102247"
       id="path13-5-5-2-5-8-1-8" />
    <path
       d="m 141.66911,382.679 c 0.39606,-0.33152 11.68675,-9.91068 12.24558,-24.30432 v -1.68049 h -12.24558 z"
       style="fill:#ffffff;stroke-width:0.0854659"
       id="path21-0-72-1-8-9-0-33" />
    <path
       d="m 128.77519,354.82286 h -17.99688 a 4.9135533,4.5758106 0 0 0 4.4983,2.77976 h 9.0005 a 4.9135533,4.5758106 0 0 0 4.49808,-2.77976 z"
       style="fill:#ffffff;stroke-width:0.102247"
       id="path10-5-3-2-9-4-9-9" />
    <path
       d="m 115.27661,330.37574 a 4.9135533,4.5758106 0 0 0 -4.91362,4.57587 v 7.54082 h 18.82754 v -7.54082 a 4.9135533,4.5758106 0 0 0 -4.91342,-4.57587 z"
       style="fill:#ffffff;stroke-width:0.102247"
       id="path7-7-10-3-2-0-6-3" />
    <path
       d="m 126.6836,314.36992 0.0856,0.27826 c 0,0 1.56472,1.30981 -15.33582,11.77212 a 10.102633,9.6933064 0 0 0 8.92186,5.19605 10.102633,9.6933064 0 0 0 10.1027,-9.6933 10.102633,9.6933064 0 0 0 -3.7742,-7.55313 z"
       style="fill:#ffffff;stroke-width:0.102247"
       id="path6-2-16-4-6-4-4-6" />
    <path
       id="path4-6-2-8-3-7-1-2"
       style="fill:#aa0000;stroke-width:0.102247"
       d="m 126.62379,314.32479 a 10.102633,9.6933064 0 0 1 0.0599,0.0452 l -0.0228,-0.0747 z m 0,0 -15.19282,12.09146 a 10.102633,9.6933064 0 0 0 0.004,0.005 c 16.90051,-10.46199 15.33579,-11.77181 15.33579,-11.77181 l -0.0856,-0.27828 a 10.102633,9.6933064 0 0 0 -0.0598,-0.0452 z m -15.19055,12.09551 a 10.102633,9.6933064 0 0 1 -0.004,-0.005 l -0.0316,0.0252 c 0.0118,-0.006 0.0218,-0.0144 0.034,-0.0213 z m 8.92187,-14.19054 a 10.102633,9.6933064 0 0 0 -10.10267,9.69329 10.102633,9.6933064 0 0 0 1.17853,4.4932 l 15.19282,-12.09146 a 10.102633,9.6933064 0 0 0 -6.26868,-2.09503 z" />
    <path
       d="m 129.19053,350.04752 h -18.82754 v 2.97921 a 4.9135533,4.5758106 0 0 0 0.41532,1.79613 h 17.99688 a 4.9135533,4.5758106 0 0 0 0.41534,-1.79613 z"
       style="fill:#333333;stroke-width:0.102247"
       id="path14-2-23-7-6-6-4-7" />
    <path
       d="m 110.36299,342.49243 v 4.77534 h 18.82754 v -4.77534 z"
       style="fill:#333333;stroke-width:0.102247"
       id="path11-8-38-2-8-4-6-3" />
    <path
       d="m 129.19053,347.26777 h -18.82754 v 2.77975 h 18.82754 z"
       style="fill:#aa0000;stroke-width:0.102247"
       id="path13-5-5-2-5-8-1-7" />
    <path
       d="m 114.06837,382.69889 c 0.39605,-0.33153 11.68675,-9.91069 12.24558,-24.30432 v -1.6805 h -12.24558 z"
       style="fill:#ffffff;stroke-width:0.0854659"
       id="path21-0-72-1-8-9-0-601" />
    <path
       d="m 124.24581,340.14338 c 1.50329,1.44054 8.96132,8.13083 15.80469,6.00333 l 0.15252,-0.15357 -14.43219,-16.32994 -5.70719,5.74799 z"
       style="fill:#ffffff;stroke-width:0.102247"
       id="path18-7-6-5-2-1-0-5-9" />
    <path
       d="m 152.12416,341.23114 c 1.50329,1.44054 8.96132,8.13083 15.80469,6.00333 l 0.15252,-0.15357 -14.43219,-16.32994 -5.70719,5.74799 z"
       style="fill:#ffffff;stroke-width:0.102247"
       id="path18-7-6-5-2-1-0-5-9-8" />
    <path
       d="m 221.09058,354.66058 h 17.99688 a 4.9135533,4.5758106 0 0 1 -4.4983,2.77975 h -9.00049 a 4.9135533,4.5758106 0 0 1 -4.49809,-2.77975 z"
       style="fill:#ffffff;stroke-width:0.102247"
       id="path10-5-3-2-9-4-9-31-9" />
    <path
       d="m 234.58916,330.21345 a 4.9135533,4.5758106 0 0 1 4.91363,4.57588 v 7.54082 h -18.82755 v -7.54082 a 4.9135533,4.5758106 0 0 1 4.91343,-4.57588 z"
       style="fill:#ffffff;stroke-width:0.102247"
       id="path7-7-10-3-2-0-6-9-7" />
    <path
       d="m 223.18217,314.20764 -0.0856,0.27826 c 0,0 -1.56473,1.30981 15.33581,11.77211 a 10.102633,9.6933064 0 0 1 -8.92186,5.19606 10.102633,9.6933064 0 0 1 -10.1027,-9.6933 10.102633,9.6933064 0 0 1 3.77421,-7.55313 z"
       style="fill:#ffffff;stroke-width:0.102247"
       id="path6-2-16-4-6-4-4-57-8" />
    <path
       id="path4-6-2-8-3-7-1-7-6"
       style="fill:#aa0000;stroke-width:0.102247"
       d="m 223.24199,314.16251 a 10.102633,9.6933064 0 0 0 -0.0599,0.0452 l 0.0228,-0.0747 z m 0,0 15.19281,12.09146 a 10.102633,9.6933064 0 0 1 -0.004,0.005 c -16.90053,-10.46215 -15.33581,-11.77198 -15.33581,-11.77198 l 0.0856,-0.27828 a 10.102633,9.6933064 0 0 1 0.0599,-0.0452 z m 15.19054,12.0955 a 10.102633,9.6933064 0 0 0 0.004,-0.005 l 0.0316,0.0252 c -0.0118,-0.006 -0.0218,-0.0144 -0.034,-0.0213 z m -8.92187,-14.19053 a 10.102633,9.6933064 0 0 1 10.10267,9.69329 10.102633,9.6933064 0 0 1 -1.17853,4.4932 l -15.19281,-12.09146 a 10.102633,9.6933064 0 0 1 6.26867,-2.09503 z" />
    <path
       d="m 220.67524,349.88524 h 18.82755 v 2.9792 a 4.9135533,4.5758106 0 0 1 -0.41533,1.79614 h -17.99688 a 4.9135533,4.5758106 0 0 1 -0.41534,-1.79614 z"
       style="fill:#333333;stroke-width:0.102247"
       id="path14-2-23-7-6-6-4-1-4" />
    <path
       d="m 239.50279,342.33015 v 4.77534 h -18.82755 v -4.77534 z"
       style="fill:#333333;stroke-width:0.102247"
       id="path11-8-38-2-8-4-6-1-0" />
    <path
       d="m 220.67524,347.10549 h 18.82755 v 2.77975 h -18.82755 z"
       style="fill:#aa0000;stroke-width:0.102247"
       id="path13-5-5-2-5-8-1-4-1" />
    <path
       d="m 235.79741,382.53661 c -0.39606,-0.33153 -11.68676,-9.91069 -12.24559,-24.30432 v -1.6805 h 12.24559 z"
       style="fill:#ffffff;stroke-width:0.0854659"
       id="path21-0-72-1-8-9-0-1-2" />
    <path
       d="m 248.20132,354.77735 h 17.99688 a 4.9135533,4.5758106 0 0 1 -4.4983,2.77976 h -9.00049 a 4.9135533,4.5758106 0 0 1 -4.49809,-2.77976 z"
       style="fill:#ffffff;stroke-width:0.102247"
       id="path10-5-3-2-9-4-9-32-4" />
    <path
       d="m 261.6999,330.33023 a 4.9135533,4.5758106 0 0 1 4.91362,4.57587 v 7.54082 h -18.82754 v -7.54082 a 4.9135533,4.5758106 0 0 1 4.91343,-4.57587 z"
       style="fill:#ffffff;stroke-width:0.102247"
       id="path7-7-10-3-2-0-6-67-4" />
    <path
       d="m 250.29291,314.32441 -0.0856,0.27826 c 0,0 -1.56472,1.30981 15.33582,11.77212 a 10.102633,9.6933064 0 0 1 -8.92186,5.19605 10.102633,9.6933064 0 0 1 -10.1027,-9.6933 10.102633,9.6933064 0 0 1 3.7742,-7.55313 z"
       style="fill:#ffffff;stroke-width:0.102247"
       id="path6-2-16-4-6-4-4-43-7" />
    <path
       id="path4-6-2-8-3-7-1-9-7"
       style="fill:#aa0000;stroke-width:0.102247"
       d="m 250.35273,314.27928 a 10.102633,9.6933064 0 0 0 -0.0599,0.0452 l 0.0228,-0.0747 z m 0,0 15.19281,12.09146 a 10.102633,9.6933064 0 0 1 -0.004,0.005 c -16.90052,-10.46216 -15.33581,-11.77198 -15.33581,-11.77198 l 0.0856,-0.27828 a 10.102633,9.6933064 0 0 1 0.0599,-0.0452 z m 15.19055,12.09551 a 10.102633,9.6933064 0 0 0 0.004,-0.005 l 0.0316,0.0252 c -0.0118,-0.006 -0.0218,-0.0144 -0.034,-0.0213 z m -8.92188,-14.19053 a 10.102633,9.6933064 0 0 1 10.10267,9.69328 10.102633,9.6933064 0 0 1 -1.17853,4.4932 l -15.19281,-12.09146 a 10.102633,9.6933064 0 0 1 6.26867,-2.09502 z" />
    <path
       d="m 247.78598,350.00201 h 18.82754 v 2.97921 a 4.9135533,4.5758106 0 0 1 -0.41532,1.79613 h -17.99688 a 4.9135533,4.5758106 0 0 1 -0.41534,-1.79613 z"
       style="fill:#333333;stroke-width:0.102247"
       id="path14-2-23-7-6-6-4-9-7" />
    <path
       d="m 266.61352,342.44692 v 4.77534 h -18.82754 v -4.77534 z"
       style="fill:#333333;stroke-width:0.102247"
       id="path11-8-38-2-8-4-6-5-7" />
    <path
       d="m 247.78598,347.22226 h 18.82754 v 2.77975 h -18.82754 z"
       style="fill:#aa0000;stroke-width:0.102247"
       id="path13-5-5-2-5-8-1-8-4" />
    <path
       d="m 262.90814,382.65338 c -0.39605,-0.33153 -11.68675,-9.91069 -12.24558,-24.30432 v -1.6805 h 12.24558 z"
       style="fill:#ffffff;stroke-width:0.0854659"
       id="path21-0-72-1-8-9-0-33-8" />
    <path
       d="m 275.80206,354.79724 h 17.99688 a 4.9135533,4.5758106 0 0 1 -4.4983,2.77975 h -9.00049 a 4.9135533,4.5758106 0 0 1 -4.49809,-2.77975 z"
       style="fill:#ffffff;stroke-width:0.102247"
       id="path10-5-3-2-9-4-9-9-2" />
    <path
       d="m 289.30064,330.35011 a 4.9135533,4.5758106 0 0 1 4.91362,4.57587 v 7.54083 h -18.82754 v -7.54083 a 4.9135533,4.5758106 0 0 1 4.91343,-4.57587 z"
       style="fill:#ffffff;stroke-width:0.102247"
       id="path7-7-10-3-2-0-6-3-9" />
    <path
       d="m 277.89366,314.34429 -0.0856,0.27827 c 0,0 -1.56473,1.3098 15.33582,11.77211 a 10.102633,9.6933064 0 0 1 -8.92186,5.19605 10.102633,9.6933064 0 0 1 -10.1027,-9.69329 10.102633,9.6933064 0 0 1 3.7742,-7.55314 z"
       style="fill:#ffffff;stroke-width:0.102247"
       id="path6-2-16-4-6-4-4-6-0" />
    <path
       id="path4-6-2-8-3-7-1-2-1"
       style="fill:#aa0000;stroke-width:0.102247"
       d="m 277.95347,314.29916 a 10.102633,9.6933064 0 0 0 -0.0599,0.0452 l 0.0228,-0.0747 z m 0,0 15.19281,12.09147 a 10.102633,9.6933064 0 0 1 -0.004,0.005 c -16.90065,-10.462 -15.33594,-11.77183 -15.33594,-11.77183 l 0.0856,-0.27828 a 10.102633,9.6933064 0 0 1 0.0598,-0.0452 z m 15.19055,12.09551 a 10.102633,9.6933064 0 0 0 0.004,-0.005 l 0.0316,0.0252 c -0.0118,-0.006 -0.0218,-0.0144 -0.034,-0.0213 z m -8.92188,-14.19053 a 10.102633,9.6933064 0 0 1 10.10268,9.69329 10.102633,9.6933064 0 0 1 -1.17854,4.4932 l -15.19281,-12.09147 a 10.102633,9.6933064 0 0 1 6.26867,-2.09502 z" />
    <path
       d="m 275.38672,350.02189 h 18.82754 v 2.97921 a 4.9135533,4.5758106 0 0 1 -0.41532,1.79614 h -17.99688 a 4.9135533,4.5758106 0 0 1 -0.41534,-1.79614 z"
       style="fill:#333333;stroke-width:0.102247"
       id="path14-2-23-7-6-6-4-7-0" />
    <path
       d="m 294.21426,342.46681 v 4.77534 h -18.82754 v -4.77534 z"
       style="fill:#333333;stroke-width:0.102247"
       id="path11-8-38-2-8-4-6-3-6" />
    <path
       d="m 275.38672,347.24215 h 18.82754 v 2.77974 h -18.82754 z"
       style="fill:#aa0000;stroke-width:0.102247"
       id="path13-5-5-2-5-8-1-7-1" />
    <path
       d="m 290.50888,382.67327 c -0.39605,-0.33154 -11.68675,-9.91069 -12.24557,-24.30433 v -1.6805 h 12.24557 z"
       style="fill:#ffffff;stroke-width:0.0854659"
       id="path21-0-72-1-8-9-0-601-8" />
    <path
       d="m 220.29709,306.691 h 17.99688 a 4.9135533,4.5758106 0 0 1 -4.49829,2.77976 h -9.0005 a 4.9135533,4.5758106 0 0 1 -4.49809,-2.77976 z"
       style="fill:#ffffff;stroke-width:0.102247"
       id="path10-5-3-2-9-4-9-32-4-4" />
    <path
       d="m 233.79568,282.24388 a 4.9135533,4.5758106 0 0 1 4.91362,4.57587 v 7.54082 h -18.82754 v -7.54082 a 4.9135533,4.5758106 0 0 1 4.91342,-4.57587 z"
       style="fill:#ffffff;stroke-width:0.102247"
       id="path7-7-10-3-2-0-6-67-4-9" />
    <path
       d="m 222.38869,266.23806 -0.0856,0.27826 c 0,0 -1.56472,1.30981 15.33582,11.77212 a 10.102633,9.6933064 0 0 1 -8.92186,5.19605 10.102633,9.6933064 0 0 1 -10.1027,-9.6933 10.102633,9.6933064 0 0 1 3.7742,-7.55313 z"
       style="fill:#ffffff;stroke-width:0.102247"
       id="path6-2-16-4-6-4-4-43-7-8" />
    <path
       id="path4-6-2-8-3-7-1-9-7-7"
       style="fill:#aa0000;stroke-width:0.102247"
       d="m 222.4485,266.19293 a 10.102633,9.6933064 0 0 0 -0.0599,0.0452 l 0.0228,-0.0747 z m 0,0 15.19281,12.09146 a 10.102633,9.6933064 0 0 1 -0.004,0.005 C 220.73666,267.8274 222.30137,266.51758 222.30137,266.51758 l 0.0856,-0.27828 a 10.102633,9.6933064 0 0 1 0.0598,-0.0452 z m 15.19055,12.09551 a 10.102633,9.6933064 0 0 0 0.004,-0.005 l 0.0316,0.0252 c -0.0118,-0.006 -0.0218,-0.0144 -0.034,-0.0213 z m -8.92188,-14.19053 a 10.102633,9.6933064 0 0 1 10.10268,9.69328 10.102633,9.6933064 0 0 1 -1.17854,4.4932 L 222.4485,266.19293 a 10.102633,9.6933064 0 0 1 6.26867,-2.09502 z" />
    <path
       d="m 219.88176,301.91566 h 18.82754 v 2.97921 a 4.9135533,4.5758106 0 0 1 -0.41533,1.79613 h -17.99688 a 4.9135533,4.5758106 0 0 1 -0.41533,-1.79613 z"
       style="fill:#333333;stroke-width:0.102247"
       id="path14-2-23-7-6-6-4-9-7-9" />
    <path
       d="m 238.7093,294.36057 v 4.77535 h -18.82754 v -4.77535 z"
       style="fill:#333333;stroke-width:0.102247"
       id="path11-8-38-2-8-4-6-5-7-7" />
    <path
       d="m 219.88176,299.13592 h 18.82754 v 2.77974 h -18.82754 z"
       style="fill:#aa0000;stroke-width:0.102247"
       id="path13-5-5-2-5-8-1-8-4-2" />
    <path
       d="m 235.00391,334.56703 c -0.39604,-0.33153 -11.68674,-9.91069 -12.24557,-24.30432 v -1.6805 h 12.24557 z"
       style="fill:#ffffff;stroke-width:0.0854659"
       id="path21-0-72-1-8-9-0-33-8-1" />
    <path
       d="m 216.87129,280.4121 c -1.05044,-1.79766 -5.81799,-10.60973 -2.15391,-16.76869 l 0.18485,-0.11253 12.51599,17.84111 -6.91999,4.21012 z"
       style="fill:#ffffff;stroke-width:0.102247"
       id="path18-7-6-5-2-1-0-5-1-0-6" />
    <path
       d="m 247.89784,306.71089 h 17.99688 a 4.9135533,4.5758106 0 0 1 -4.4983,2.77975 h -9.00049 a 4.9135533,4.5758106 0 0 1 -4.49809,-2.77975 z"
       style="fill:#ffffff;stroke-width:0.102247"
       id="path10-5-3-2-9-4-9-9-2-3" />
    <path
       d="m 261.39642,282.26376 a 4.9135533,4.5758106 0 0 1 4.91362,4.57587 v 7.54083 H 247.4825 v -7.54083 a 4.9135533,4.5758106 0 0 1 4.91343,-4.57587 z"
       style="fill:#ffffff;stroke-width:0.102247"
       id="path7-7-10-3-2-0-6-3-9-4" />
    <path
       d="m 249.98943,266.25794 -0.0856,0.27827 c 0,0 -1.56472,1.3098 15.33582,11.77211 a 10.102633,9.6933064 0 0 1 -8.92186,5.19605 10.102633,9.6933064 0 0 1 -10.1027,-9.69329 10.102633,9.6933064 0 0 1 3.7742,-7.55314 z"
       style="fill:#ffffff;stroke-width:0.102247"
       id="path6-2-16-4-6-4-4-6-0-5" />
    <path
       id="path4-6-2-8-3-7-1-2-1-8"
       style="fill:#aa0000;stroke-width:0.102247"
       d="m 250.04925,266.21281 a 10.102633,9.6933064 0 0 0 -0.0599,0.0452 l 0.0228,-0.0747 z m 0,0 15.19281,12.09147 a 10.102633,9.6933064 0 0 1 -0.004,0.005 c -16.90053,-10.46216 -15.33581,-11.77199 -15.33581,-11.77199 l 0.0856,-0.27828 a 10.102633,9.6933064 0 0 1 0.0598,-0.0452 z m 15.19054,12.09551 a 10.102633,9.6933064 0 0 0 0.004,-0.005 l 0.0316,0.0252 c -0.0118,-0.006 -0.0218,-0.0144 -0.034,-0.0213 z m -8.92187,-14.19053 a 10.102633,9.6933064 0 0 1 10.10267,9.69329 10.102633,9.6933064 0 0 1 -1.17853,4.4932 l -15.19281,-12.09147 a 10.102633,9.6933064 0 0 1 6.26867,-2.09502 z" />
    <path
       d="m 247.4825,301.93555 h 18.82754 v 2.9792 a 4.9135533,4.5758106 0 0 1 -0.41532,1.79614 h -17.99688 a 4.9135533,4.5758106 0 0 1 -0.41534,-1.79614 z"
       style="fill:#333333;stroke-width:0.102247"
       id="path14-2-23-7-6-6-4-7-0-6" />
    <path
       d="m 266.31004,294.38046 v 4.77534 H 247.4825 v -4.77534 z"
       style="fill:#333333;stroke-width:0.102247"
       id="path11-8-38-2-8-4-6-3-6-7" />
    <path
       d="m 247.4825,299.1558 h 18.82754 v 2.77975 H 247.4825 Z"
       style="fill:#aa0000;stroke-width:0.102247"
       id="path13-5-5-2-5-8-1-7-1-1" />
    <path
       d="m 262.60466,334.58692 c -0.39605,-0.33154 -11.68676,-9.91069 -12.24558,-24.30433 v -1.6805 h 12.24558 z"
       style="fill:#ffffff;stroke-width:0.0854659"
       id="path21-0-72-1-8-9-0-601-8-4" />
    <path
       d="m 244.47203,280.43198 c -1.05044,-1.79766 -5.81798,-10.60974 -2.15391,-16.76869 l 0.18486,-0.11253 12.51598,17.84111 -6.91999,4.21013 z"
       style="fill:#ffffff;stroke-width:0.102247"
       id="path18-7-6-5-2-1-0-5-9-0-7" />
    <path
       d="m 183.20717,306.22268 h -17.99688 a 4.9135533,4.5758106 0 0 0 4.4983,2.77976 h 9.00049 a 4.9135533,4.5758106 0 0 0 4.49809,-2.77976 z"
       style="fill:#ffffff;stroke-width:0.102247"
       id="path10-5-3-2-9-4-9-32-4-6" />
    <path
       d="m 169.70859,281.77556 a 4.9135533,4.5758106 0 0 0 -4.91362,4.57587 v 7.54082 h 18.82754 v -7.54082 a 4.9135533,4.5758106 0 0 0 -4.91343,-4.57587 z"
       style="fill:#ffffff;stroke-width:0.102247"
       id="path7-7-10-3-2-0-6-67-4-6" />
    <path
       d="m 181.11557,265.76974 0.0856,0.27826 c 0,0 1.56472,1.30981 -15.33582,11.77212 a 10.102633,9.6933064 0 0 0 8.92186,5.19605 10.102633,9.6933064 0 0 0 10.1027,-9.6933 10.102633,9.6933064 0 0 0 -3.7742,-7.55313 z"
       style="fill:#ffffff;stroke-width:0.102247"
       id="path6-2-16-4-6-4-4-43-7-6" />
    <path
       id="path4-6-2-8-3-7-1-9-7-4"
       style="fill:#aa0000;stroke-width:0.102247"
       d="m 181.05576,265.72461 a 10.102633,9.6933064 0 0 1 0.0599,0.0452 l -0.0228,-0.0747 z m 0,0 -15.19281,12.09146 a 10.102633,9.6933064 0 0 0 0.004,0.005 c 16.90052,-10.46216 15.33581,-11.77198 15.33581,-11.77198 l -0.0856,-0.27828 a 10.102633,9.6933064 0 0 0 -0.0599,-0.0452 z m -15.19055,12.09551 a 10.102633,9.6933064 0 0 1 -0.004,-0.005 l -0.0316,0.0252 c 0.0118,-0.006 0.0218,-0.0144 0.034,-0.0213 z m 8.92188,-14.19053 a 10.102633,9.6933064 0 0 0 -10.10268,9.69328 10.102633,9.6933064 0 0 0 1.17854,4.4932 l 15.19281,-12.09146 a 10.102633,9.6933064 0 0 0 -6.26867,-2.09502 z" />
    <path
       d="m 183.62251,301.44734 h -18.82754 v 2.97921 a 4.9135533,4.5758106 0 0 0 0.41532,1.79613 h 17.99688 a 4.9135533,4.5758106 0 0 0 0.41534,-1.79613 z"
       style="fill:#333333;stroke-width:0.102247"
       id="path14-2-23-7-6-6-4-9-7-6" />
    <path
       d="m 164.79497,293.89225 v 4.77535 h 18.82754 v -4.77535 z"
       style="fill:#333333;stroke-width:0.102247"
       id="path11-8-38-2-8-4-6-5-7-5" />
    <path
       d="m 183.62251,298.6676 h -18.82754 v 2.77974 h 18.82754 z"
       style="fill:#aa0000;stroke-width:0.102247"
       id="path13-5-5-2-5-8-1-8-4-6" />
    <path
       d="m 168.50035,334.09871 c 0.39605,-0.33153 11.68674,-9.91069 12.24557,-24.30432 v -1.6805 h -12.24557 z"
       style="fill:#ffffff;stroke-width:0.0854659"
       id="path21-0-72-1-8-9-0-33-8-3" />
    <path
       d="m 186.63297,279.94379 c 1.05044,-1.79767 5.81799,-10.60974 2.15391,-16.76869 l -0.18485,-0.11254 -12.51599,17.84111 6.91999,4.21012 z"
       style="fill:#ffffff;stroke-width:0.102247"
       id="path18-7-6-5-2-1-0-5-1-0-3" />
    <path
       d="m 155.60643,306.24257 h -17.99688 a 4.9135533,4.5758106 0 0 0 4.49829,2.77975 h 9.0005 a 4.9135533,4.5758106 0 0 0 4.49809,-2.77975 z"
       style="fill:#ffffff;stroke-width:0.102247"
       id="path10-5-3-2-9-4-9-9-2-4" />
    <path
       d="m 142.10784,281.79544 a 4.9135533,4.5758106 0 0 0 -4.91362,4.57587 v 7.54083 h 18.82754 v -7.54083 a 4.9135533,4.5758106 0 0 0 -4.91342,-4.57587 z"
       style="fill:#ffffff;stroke-width:0.102247"
       id="path7-7-10-3-2-0-6-3-9-8" />
    <path
       d="m 153.51483,265.78962 0.0856,0.27827 c 0,0 1.56472,1.3098 -15.33582,11.77211 a 10.102633,9.6933064 0 0 0 8.92186,5.19605 10.102633,9.6933064 0 0 0 10.1027,-9.69329 10.102633,9.6933064 0 0 0 -3.7742,-7.55314 z"
       style="fill:#ffffff;stroke-width:0.102247"
       id="path6-2-16-4-6-4-4-6-0-0" />
    <path
       id="path4-6-2-8-3-7-1-2-1-5"
       style="fill:#aa0000;stroke-width:0.102247"
       d="m 153.45502,265.74449 a 10.102633,9.6933064 0 0 1 0.0599,0.0452 l -0.0228,-0.0747 z m 0,0 -15.19281,12.09147 a 10.102633,9.6933064 0 0 0 0.004,0.005 c 16.90053,-10.46216 15.33582,-11.77199 15.33582,-11.77199 l -0.0856,-0.27827 a 10.102633,9.6933064 0 0 0 -0.0598,-0.0452 z M 138.26447,277.84 a 10.102633,9.6933064 0 0 1 -0.004,-0.005 l -0.0316,0.0252 c 0.0118,-0.006 0.0218,-0.0144 0.034,-0.0213 z m 8.92188,-14.19053 a 10.102633,9.6933064 0 0 0 -10.10268,9.69329 10.102633,9.6933064 0 0 0 1.17854,4.4932 l 15.19281,-12.09147 a 10.102633,9.6933064 0 0 0 -6.26867,-2.09502 z" />
    <path
       d="m 156.02176,301.46723 h -18.82754 v 2.9792 a 4.9135533,4.5758106 0 0 0 0.41533,1.79614 h 17.99688 a 4.9135533,4.5758106 0 0 0 0.41533,-1.79614 z"
       style="fill:#333333;stroke-width:0.102247"
       id="path14-2-23-7-6-6-4-7-0-9" />
    <path
       d="m 137.19422,293.91214 v 4.77534 h 18.82754 v -4.77534 z"
       style="fill:#333333;stroke-width:0.102247"
       id="path11-8-38-2-8-4-6-3-6-0" />
    <path
       d="m 156.02176,298.68748 h -18.82754 v 2.77975 h 18.82754 z"
       style="fill:#aa0000;stroke-width:0.102247"
       id="path13-5-5-2-5-8-1-7-1-0" />
    <path
       d="m 140.89961,334.1186 c 0.39604,-0.33154 11.68675,-9.91069 12.24557,-24.30432 v -1.6805 h -12.24557 z"
       style="fill:#ffffff;stroke-width:0.0854659"
       id="path21-0-72-1-8-9-0-601-8-5" />
    <path
       d="m 159.03223,279.96366 c 1.05044,-1.79766 5.81799,-10.60974 2.15391,-16.76869 l -0.18485,-0.11253 -12.51599,17.84111 6.91999,4.21013 z"
       style="fill:#ffffff;stroke-width:0.102247"
       id="path18-7-6-5-2-1-0-5-9-0-3" />
    <path
       d="m 192.57803,65.309817 h 17.99688 a 4.9135533,4.5758106 0 0 1 -4.4983,2.779754 h -9.00049 a 4.9135533,4.5758106 0 0 1 -4.49809,-2.779754 z"
       style="fill:#ffffff;stroke-width:0.102247"
       id="path10-5-3-2-9-4-9-32-4-41" />
    <path
       d="m 206.07661,40.862694 a 4.9135533,4.5758106 0 0 1 4.91362,4.575872 v 7.540821 h -18.82754 v -7.540821 a 4.9135533,4.5758106 0 0 1 4.91343,-4.575872 z"
       style="fill:#ffffff;stroke-width:0.102247"
       id="path7-7-10-3-2-0-6-67-4-5" />
    <path
       d="m 194.66963,24.856873 -0.0856,0.278262 c 0,0 -1.56472,1.309808 15.33582,11.772117 a 10.102633,9.6933064 0 0 1 -8.92186,5.196052 10.102633,9.6933064 0 0 1 -10.1027,-9.693296 10.102633,9.6933064 0 0 1 3.7742,-7.553135 z"
       style="fill:#ffffff;stroke-width:0.102247"
       id="path6-2-16-4-6-4-4-43-7-69" />
    <path
       id="path4-6-2-8-3-7-1-9-7-9"
       style="fill:#333333;stroke-width:0.102247"
       d="m 194.72944,24.811743 a 10.102633,9.6933064 0 0 0 -0.0599,0.04517 l 0.0228,-0.07469 z m 0,0 15.19281,12.091464 a 10.102633,9.6933064 0 0 1 -0.004,0.0052 C 193.0176,26.446216 194.58231,25.136392 194.58231,25.136392 l 0.0856,-0.27828 a 10.102633,9.6933064 0 0 1 0.0599,-0.04517 z m 15.19055,12.095509 a 10.102633,9.6933064 0 0 0 0.004,-0.0052 l 0.0316,0.02521 c -0.0118,-0.006 -0.0218,-0.01437 -0.034,-0.02125 z M 200.99811,22.71672 a 10.102633,9.6933064 0 0 1 10.10267,9.693288 10.102633,9.6933064 0 0 1 -1.17853,4.493199 L 194.72944,24.811743 a 10.102633,9.6933064 0 0 1 6.26867,-2.095023 z" />
    <path
       d="m 192.16269,60.534474 h 18.82754 v 2.979208 a 4.9135533,4.5758106 0 0 1 -0.41532,1.796135 h -17.99688 a 4.9135533,4.5758106 0 0 1 -0.41534,-1.796135 z"
       style="fill:#333333;stroke-width:0.102247"
       id="path14-2-23-7-6-6-4-9-7-7" />
    <path
       d="m 210.99023,52.979387 v 4.775342 h -18.82754 v -4.775342 z"
       style="fill:#333333;stroke-width:0.102247"
       id="path11-8-38-2-8-4-6-5-7-0" />
    <path
       d="m 192.16269,57.754729 h 18.82754 v 2.779745 h -18.82754 z"
       style="fill:#aa0000;stroke-width:0.102247"
       id="path13-5-5-2-5-8-1-8-4-4" />
    <path
       d="m 207.28485,93.185846 c -0.39605,-0.331533 -11.68674,-9.91069 -12.24557,-24.304323 v -1.680499 h 12.24557 z"
       style="fill:#ffffff;stroke-width:0.0854659"
       id="path21-0-72-1-8-9-0-33-8-7" />
    <path
       d="m 279.67264,340.97862 c -1.50329,1.44054 -8.96132,8.13083 -15.80469,6.00333 l -0.15252,-0.15357 14.43219,-16.32994 5.70719,5.74799 z"
       style="fill:#ffffff;stroke-width:0.102247"
       id="path18-7-6-5-2-1-0-5-9-0" />
    <path
       d="m 250.94276,342.0601 c -1.50329,1.44054 -8.96132,8.13083 -15.80469,6.00333 l -0.15252,-0.15357 14.43219,-16.32994 5.70719,5.74799 z"
       style="fill:#ffffff;stroke-width:0.102247"
       id="path18-7-6-5-2-1-0-5-9-0-38" />
    <path
       d="m 223.95526,342.23918 c -1.50329,1.44054 -8.96132,8.13083 -15.80469,6.00333 l -0.15252,-0.15357 14.43219,-16.32994 5.70719,5.74799 z"
       style="fill:#ffffff;stroke-width:0.102247"
       id="path18-7-6-5-2-1-0-5-9-0-9" />
  </g>
</svg>
