<?xml version="1.0" encoding="UTF-8" standalone="no"?>
<!-- Created with Inkscape (http://www.inkscape.org/) -->

<svg
   width="400mm"
   height="400mm"
   viewBox="0 0 400 400"
   version="1.1"
   id="svg1"
   inkscape:export-filename="..\..\..\..\..\..\Projects\puntal\assets\images\Pd8fm.png"
   inkscape:export-xdpi="96"
   inkscape:export-ydpi="96"
   inkscape:version="1.3.2 (091e20e, 2023-11-25, custom)"
   sodipodi:docname="Pd7f.svg"
   xmlns:inkscape="http://www.inkscape.org/namespaces/inkscape"
   xmlns:sodipodi="http://sodipodi.sourceforge.net/DTD/sodipodi-0.dtd"
   xmlns="http://www.w3.org/2000/svg"
   xmlns:svg="http://www.w3.org/2000/svg">
  <sodipodi:namedview
     id="namedview1"
     pagecolor="#505050"
     bordercolor="#eeeeee"
     borderopacity="1"
     inkscape:showpageshadow="0"
     inkscape:pageopacity="0"
     inkscape:pagecheckerboard="0"
     inkscape:deskcolor="#505050"
     inkscape:document-units="mm"
     inkscape:zoom="0.4894542"
     inkscape:cx="225.76168"
     inkscape:cy="587.38898"
     inkscape:window-width="1920"
     inkscape:window-height="991"
     inkscape:window-x="-9"
     inkscape:window-y="-9"
     inkscape:window-maximized="1"
     inkscape:current-layer="layer1"
     showguides="false" />
  <defs
     id="defs1" />
  <g
     inkscape:label="Capa 1"
     inkscape:groupmode="layer"
     id="layer1">
    <path
       d="m 199.82358,367.61603 h 16.03314 a 4.3774097,4.1660242 0 0 1 -4.00746,2.53081 h -8.0184 a 4.3774097,4.1660242 0 0 1 -4.00728,-2.53081 z"
       style="fill:#ffffff;stroke-width:0.0920849"
       id="path10-5-3-2-9-4-9-74" />
    <path
       d="m 211.84926,345.35826 a 4.3774097,4.1660242 0 0 1 4.37747,4.16609 v 6.86551 h -16.77317 v -6.86551 a 4.3774097,4.1660242 0 0 1 4.3773,-4.16609 z"
       style="fill:#ffffff;stroke-width:0.0920849"
       id="path7-7-10-3-2-0-6-1" />
    <path
       d="m 201.68694,330.78584 -0.0763,0.25334 c 0,0 -1.39398,1.19251 13.66245,10.71788 a 9.0002816,8.825223 0 0 1 -7.94835,4.73071 9.0002816,8.825223 0 0 1 -9.00034,-8.82521 9.0002816,8.825223 0 0 1 3.36238,-6.87672 z"
       style="fill:#ffffff;stroke-width:0.0920849"
       id="path6-2-16-4-6-4-4-8" />
    <path
       id="path4-6-2-8-3-7-1-90"
       style="fill:#aa0000;stroke-width:0.0920849"
       d="m 201.74024,330.74475 a 9.0002816,8.825223 0 0 0 -0.0534,0.0412 l 0.0203,-0.068 z m 0,0 13.53504,11.00862 a 9.0002816,8.825223 0 0 1 -0.004,0.005 C 200.21511,332.23354 201.6091,331.04102 201.6091,331.04102 l 0.0763,-0.25336 a 9.0002816,8.825223 0 0 1 0.0534,-0.0412 z m 13.53302,11.01231 a 9.0002816,8.825223 0 0 0 0.004,-0.005 l 0.0281,0.0229 c -0.0105,-0.005 -0.0194,-0.0131 -0.0303,-0.0194 z m -7.94836,-12.91971 a 9.0002816,8.825223 0 0 1 9.00031,8.82521 9.0002816,8.825223 0 0 1 -1.04993,4.09081 l -13.53504,-11.00862 a 9.0002816,8.825223 0 0 1 5.58466,-1.9074 z" />
    <path
       d="m 199.45356,363.26834 h 16.77317 v 2.7124 a 4.3774097,4.1660242 0 0 1 -0.37001,1.63529 h -16.03314 a 4.3774097,4.1660242 0 0 1 -0.37002,-1.63529 z"
       style="fill:#333333;stroke-width:0.0920849"
       id="path14-2-23-7-6-6-4-80" />
    <path
       d="m 216.22673,356.38986 v 4.34768 h -16.77317 v -4.34768 z"
       style="fill:#333333;stroke-width:0.0920849"
       id="path11-8-38-2-8-4-6-0" />
    <path
       d="m 199.45356,360.73754 h 16.77317 v 2.5308 h -16.77317 z"
       style="fill:#aa0000;stroke-width:0.0920849"
       id="path13-5-5-2-5-8-1-95" />
    <path
       d="m 212.92566,392.99561 c -0.35283,-0.30183 -10.41156,-9.02312 -10.9094,-22.12774 v -1.53001 h 10.9094 z"
       style="fill:#ffffff;stroke-width:0.0769716"
       id="path21-0-72-1-8-9-0-2" />
    <path
       d="m 198.20448,352.93618 c -1.79736,-0.15131 -10.40909,-1.18596 -12.78208,-7.2777 l 0.0181,-0.20179 18.92777,-0.10261 -0.67883,7.55233 z"
       style="fill:#ffffff;stroke-width:0.0920849"
       id="path18-7-6-5-2-1-0-5-4" />
    <path
       d="m 191.13254,367.64737 h -16.03315 a 4.3774097,4.1660242 0 0 0 4.00747,2.53081 h 8.0184 a 4.3774097,4.1660242 0 0 0 4.00728,-2.53081 z"
       style="fill:#ffffff;stroke-width:0.0920849"
       id="path10-5-3-2-9-4-9-31-2" />
    <path
       d="m 179.10686,345.3896 a 4.3774097,4.1660242 0 0 0 -4.37747,4.16608 v 6.86551 h 16.77317 v -6.86551 a 4.3774097,4.1660242 0 0 0 -4.3773,-4.16608 z"
       style="fill:#ffffff;stroke-width:0.0920849"
       id="path7-7-10-3-2-0-6-9-0" />
    <path
       d="m 189.26916,330.81718 0.0763,0.25334 c 0,0 1.39399,1.19251 -13.66245,10.71788 a 9.0002816,8.825223 0 0 0 7.94835,4.73071 9.0002816,8.825223 0 0 0 9.00034,-8.82521 9.0002816,8.825223 0 0 0 -3.36237,-6.87672 z"
       style="fill:#ffffff;stroke-width:0.0920849"
       id="path6-2-16-4-6-4-4-57-6" />
    <path
       id="path4-6-2-8-3-7-1-7-4"
       style="fill:#aa0000;stroke-width:0.0920849"
       d="m 189.21589,330.77609 a 9.0002816,8.825223 0 0 1 0.0534,0.0412 l -0.0203,-0.068 z m 0,0 -13.53505,11.00862 a 9.0002816,8.825223 0 0 0 0.004,0.005 c 15.0564,-9.52523 13.66243,-10.71775 13.66243,-10.71775 l -0.0763,-0.25336 a 9.0002816,8.825223 0 0 0 -0.0534,-0.0412 z m -13.53303,11.01231 a 9.0002816,8.825223 0 0 1 -0.004,-0.005 l -0.0282,0.0229 c 0.0105,-0.005 0.0194,-0.0131 0.0303,-0.0194 z m 7.94836,-12.91971 a 9.0002816,8.825223 0 0 0 -9.00032,8.82521 9.0002816,8.825223 0 0 0 1.04994,4.09081 l 13.53505,-11.00862 a 9.0002816,8.825223 0 0 0 -5.58467,-1.9074 z" />
    <path
       d="m 191.50256,363.29968 h -16.77317 v 2.71241 a 4.3774097,4.1660242 0 0 0 0.37,1.63528 h 16.03315 a 4.3774097,4.1660242 0 0 0 0.37002,-1.63528 z"
       style="fill:#333333;stroke-width:0.0920849"
       id="path14-2-23-7-6-6-4-1-5" />
    <path
       d="m 174.72939,356.42119 v 4.34769 h 16.77317 v -4.34769 z"
       style="fill:#333333;stroke-width:0.0920849"
       id="path11-8-38-2-8-4-6-1-03" />
    <path
       d="m 191.50256,360.76888 h -16.77317 v 2.5308 h 16.77317 z"
       style="fill:#aa0000;stroke-width:0.0920849"
       id="path13-5-5-2-5-8-1-4-9" />
    <path
       d="m 178.03045,393.02695 c 0.35285,-0.30183 10.41155,-9.02314 10.9094,-22.12775 v -1.52999 h -10.9094 z"
       style="fill:#ffffff;stroke-width:0.0769716"
       id="path21-0-72-1-8-9-0-1-22" />
    <path
       d="m 194.18454,343.72187 c 0.93582,-1.63667 5.18315,-9.65958 1.91887,-15.26697 l -0.16468,-0.10246 -11.1503,16.24335 6.16492,3.83308 z"
       style="fill:#ffffff;stroke-width:0.0920849"
       id="path18-7-6-5-2-1-0-5-3-6" />
    <path
       d="m 166.98,367.75369 h -16.03316 a 4.3774097,4.1660242 0 0 0 4.00747,2.5308 h 8.01841 a 4.3774097,4.1660242 0 0 0 4.00728,-2.5308 z"
       style="fill:#ffffff;stroke-width:0.0920849"
       id="path10-5-3-2-9-4-9-32-3" />
    <path
       d="m 154.95431,345.49591 a 4.3774097,4.1660242 0 0 0 -4.37747,4.16609 v 6.86551 h 16.77318 V 349.662 a 4.3774097,4.1660242 0 0 0 -4.3773,-4.16609 z"
       style="fill:#ffffff;stroke-width:0.0920849"
       id="path7-7-10-3-2-0-6-67-3" />
    <path
       d="m 165.11662,330.92349 0.0763,0.25334 c 0,0 1.394,1.19251 -13.66243,10.71788 a 9.0002816,8.825223 0 0 0 7.94834,4.73071 9.0002816,8.825223 0 0 0 9.00035,-8.8252 9.0002816,8.825223 0 0 0 -3.36239,-6.87673 z"
       style="fill:#ffffff;stroke-width:0.0920849"
       id="path6-2-16-4-6-4-4-43-9" />
    <path
       id="path4-6-2-8-3-7-1-9-1"
       style="fill:#aa0000;stroke-width:0.0920849"
       d="m 165.06334,330.88241 a 9.0002816,8.825223 0 0 1 0.0534,0.0412 l -0.0203,-0.068 z m 0,0 -13.53504,11.00862 a 9.0002816,8.825223 0 0 0 0.004,0.005 c 15.05641,-9.52522 13.66243,-10.71775 13.66243,-10.71775 l -0.0763,-0.25336 a 9.0002816,8.825223 0 0 0 -0.0534,-0.0411 z m -13.53303,11.0123 a 9.0002816,8.825223 0 0 1 -0.004,-0.005 l -0.0281,0.0229 c 0.0105,-0.005 0.0194,-0.0131 0.0303,-0.0194 z m 7.94837,-12.91971 a 9.0002816,8.825223 0 0 0 -9.00032,8.82522 9.0002816,8.825223 0 0 0 1.04994,4.09081 l 13.53504,-11.00862 a 9.0002816,8.825223 0 0 0 -5.58466,-1.90741 z" />
    <path
       d="m 167.35002,363.406 h -16.77318 v 2.7124 a 4.3774097,4.1660242 0 0 0 0.37,1.63529 H 166.98 a 4.3774097,4.1660242 0 0 0 0.37002,-1.63529 z"
       style="fill:#333333;stroke-width:0.0920849"
       id="path14-2-23-7-6-6-4-9-8" />
    <path
       d="m 150.57684,356.52751 v 4.34768 h 16.77318 v -4.34768 z"
       style="fill:#333333;stroke-width:0.0920849"
       id="path11-8-38-2-8-4-6-5-8" />
    <path
       d="m 167.35002,360.87519 h -16.77318 v 2.53081 h 16.77318 z"
       style="fill:#aa0000;stroke-width:0.0920849"
       id="path13-5-5-2-5-8-1-8-6" />
    <path
       d="m 153.87791,393.13327 c 0.35284,-0.30184 10.41155,-9.02313 10.9094,-22.12775 v -1.53 h -10.9094 z"
       style="fill:#ffffff;stroke-width:0.0769716"
       id="path21-0-72-1-8-9-0-33-7" />
    <path
       d="m 142.39091,367.77178 h -16.03314 a 4.3774097,4.1660242 0 0 0 4.00746,2.53082 h 8.01841 a 4.3774097,4.1660242 0 0 0 4.00727,-2.53082 z"
       style="fill:#ffffff;stroke-width:0.0920849"
       id="path10-5-3-2-9-4-9-9-5" />
    <path
       d="m 130.36523,345.51402 a 4.3774097,4.1660242 0 0 0 -4.37747,4.16608 v 6.8655 h 16.77317 v -6.8655 a 4.3774097,4.1660242 0 0 0 -4.37729,-4.16608 z"
       style="fill:#ffffff;stroke-width:0.0920849"
       id="path7-7-10-3-2-0-6-3-7" />
    <path
       d="m 140.52755,330.9416 0.0763,0.25334 c 0,0 1.39398,1.19251 -13.66245,10.71787 a 9.0002816,8.825223 0 0 0 7.94835,4.73072 9.0002816,8.825223 0 0 0 9.00034,-8.82522 9.0002816,8.825223 0 0 0 -3.36238,-6.87671 z"
       style="fill:#ffffff;stroke-width:0.0920849"
       id="path6-2-16-4-6-4-4-6-1" />
    <path
       id="path4-6-2-8-3-7-1-2-8"
       style="fill:#aa0000;stroke-width:0.0920849"
       d="m 140.47426,330.90051 a 9.0002816,8.825223 0 0 1 0.0534,0.0412 l -0.0203,-0.068 z m 0,0 -13.53505,11.00861 a 9.0002816,8.825223 0 0 0 0.004,0.005 c 15.05641,-9.52506 13.66243,-10.71758 13.66243,-10.71758 l -0.0763,-0.25336 a 9.0002816,8.825223 0 0 0 -0.0533,-0.0411 z m -13.53303,11.0123 a 9.0002816,8.825223 0 0 1 -0.004,-0.005 l -0.0281,0.0229 c 0.0105,-0.005 0.0194,-0.0131 0.0303,-0.0194 z m 7.94836,-12.91971 a 9.0002816,8.825223 0 0 0 -9.00031,8.82521 9.0002816,8.825223 0 0 0 1.04993,4.09081 l 13.53505,-11.00861 a 9.0002816,8.825223 0 0 0 -5.58467,-1.90741 z" />
    <path
       d="m 142.76093,363.42409 h -16.77317 v 2.71241 a 4.3774097,4.1660242 0 0 0 0.37001,1.63528 h 16.03314 a 4.3774097,4.1660242 0 0 0 0.37002,-1.63528 z"
       style="fill:#333333;stroke-width:0.0920849"
       id="path14-2-23-7-6-6-4-7-1" />
    <path
       d="m 125.98776,356.5456 v 4.34769 h 16.77317 v -4.34769 z"
       style="fill:#333333;stroke-width:0.0920849"
       id="path11-8-38-2-8-4-6-3-1" />
    <path
       d="m 142.76093,360.89329 h -16.77317 v 2.5308 h 16.77317 z"
       style="fill:#aa0000;stroke-width:0.0920849"
       id="path13-5-5-2-5-8-1-7-7" />
    <path
       d="m 129.28883,393.15137 c 0.35284,-0.30184 10.41155,-9.02314 10.9094,-22.12774 v -1.53001 h -10.9094 z"
       style="fill:#ffffff;stroke-width:0.0769716"
       id="path21-0-72-1-8-9-0-601-0" />
    <path
       d="m 138.35576,354.40692 c 1.33925,1.31153 7.9835,7.40267 14.08015,5.4657 l 0.13588,-0.13982 -12.85742,-14.86751 -5.08444,5.23323 z"
       style="fill:#ffffff;stroke-width:0.0920849"
       id="path18-7-6-5-2-1-0-5-9-2" />
    <path
       d="m 163.19215,355.39727 c 1.33926,1.31153 7.98351,7.40267 14.08016,5.4657 l 0.13588,-0.13982 -12.85742,-14.86751 -5.08445,5.23323 z"
       style="fill:#ffffff;stroke-width:0.0920849"
       id="path18-7-6-5-2-1-0-5-9-8-7" />
    <path
       d="m 224.63328,367.62403 h 16.03315 a 4.3774097,4.1660242 0 0 1 -4.00747,2.53081 h -8.0184 a 4.3774097,4.1660242 0 0 1 -4.00728,-2.53081 z"
       style="fill:#ffffff;stroke-width:0.0920849"
       id="path10-5-3-2-9-4-9-31-9-6" />
    <path
       d="m 236.65896,345.36626 a 4.3774097,4.1660242 0 0 1 4.37748,4.16609 v 6.8655 h -16.77318 v -6.8655 a 4.3774097,4.1660242 0 0 1 4.3773,-4.16609 z"
       style="fill:#ffffff;stroke-width:0.0920849"
       id="path7-7-10-3-2-0-6-9-7-1" />
    <path
       d="m 226.49665,330.79385 -0.0763,0.25334 c 0,0 -1.39399,1.19251 13.66244,10.71786 a 9.0002816,8.825223 0 0 1 -7.94835,4.73073 9.0002816,8.825223 0 0 1 -9.00034,-8.82522 9.0002816,8.825223 0 0 1 3.36239,-6.87671 z"
       style="fill:#ffffff;stroke-width:0.0920849"
       id="path6-2-16-4-6-4-4-57-8-3" />
    <path
       id="path4-6-2-8-3-7-1-7-6-5"
       style="fill:#aa0000;stroke-width:0.0920849"
       d="m 226.54994,330.75276 a 9.0002816,8.825223 0 0 0 -0.0534,0.0412 l 0.0203,-0.068 z m 0,0 13.53505,11.00861 a 9.0002816,8.825223 0 0 1 -0.004,0.005 C 225.025,332.24071 226.41898,331.04819 226.41898,331.04819 l 0.0763,-0.25336 a 9.0002816,8.825223 0 0 1 0.0534,-0.0412 z m 13.53302,11.01229 a 9.0002816,8.825223 0 0 0 0.004,-0.005 l 0.0281,0.0229 c -0.0105,-0.005 -0.0194,-0.0131 -0.0303,-0.0194 z m -7.94835,-12.9197 a 9.0002816,8.825223 0 0 1 9.00031,8.82521 9.0002816,8.825223 0 0 1 -1.04993,4.09081 l -13.53505,-11.00861 a 9.0002816,8.825223 0 0 1 5.58467,-1.90741 z" />
    <path
       d="m 224.26326,363.27635 h 16.77318 v 2.7124 a 4.3774097,4.1660242 0 0 1 -0.37001,1.63528 h -16.03315 a 4.3774097,4.1660242 0 0 1 -0.37002,-1.63528 z"
       style="fill:#333333;stroke-width:0.0920849"
       id="path14-2-23-7-6-6-4-1-4-7" />
    <path
       d="m 241.03644,356.39785 v 4.34769 h -16.77318 v -4.34769 z"
       style="fill:#333333;stroke-width:0.0920849"
       id="path11-8-38-2-8-4-6-1-0-2" />
    <path
       d="m 224.26326,360.74554 h 16.77318 v 2.53081 h -16.77318 z"
       style="fill:#aa0000;stroke-width:0.0920849"
       id="path13-5-5-2-5-8-1-4-1-5" />
    <path
       d="m 237.73537,393.00363 c -0.35284,-0.30184 -10.41155,-9.02314 -10.9094,-22.12775 v -1.53 h 10.9094 z"
       style="fill:#ffffff;stroke-width:0.0769716"
       id="path21-0-72-1-8-9-0-1-2-7" />
    <path
       d="m 248.78583,367.73035 h 16.03314 a 4.3774097,4.1660242 0 0 1 -4.00746,2.53081 h -8.0184 a 4.3774097,4.1660242 0 0 1 -4.00728,-2.53081 z"
       style="fill:#ffffff;stroke-width:0.0920849"
       id="path10-5-3-2-9-4-9-32-4-2" />
    <path
       d="m 260.81151,345.47259 a 4.3774097,4.1660242 0 0 1 4.37747,4.16607 v 6.86551 h -16.77317 v -6.86551 a 4.3774097,4.1660242 0 0 1 4.3773,-4.16607 z"
       style="fill:#ffffff;stroke-width:0.0920849"
       id="path7-7-10-3-2-0-6-67-4-3" />
    <path
       d="m 250.64919,330.90017 -0.0763,0.25334 c 0,0 -1.39399,1.19251 13.66244,10.71786 a 9.0002816,8.825223 0 0 1 -7.94835,4.73072 9.0002816,8.825223 0 0 1 -9.00034,-8.82521 9.0002816,8.825223 0 0 1 3.36238,-6.87671 z"
       style="fill:#ffffff;stroke-width:0.0920849"
       id="path6-2-16-4-6-4-4-43-7-7" />
    <path
       id="path4-6-2-8-3-7-1-9-7-5"
       style="fill:#aa0000;stroke-width:0.0920849"
       d="m 250.70249,330.85908 a 9.0002816,8.825223 0 0 0 -0.0534,0.0412 l 0.0203,-0.068 z m 0,0 13.53504,11.00861 a 9.0002816,8.825223 0 0 1 -0.004,0.005 c -15.05598,-9.52567 -13.662,-10.71819 -13.662,-10.71819 l 0.0763,-0.25336 a 9.0002816,8.825223 0 0 1 0.0534,-0.0412 z m 13.53303,11.01229 a 9.0002816,8.825223 0 0 0 0.004,-0.005 l 0.0282,0.0229 c -0.0105,-0.005 -0.0194,-0.0131 -0.0303,-0.0194 z m -7.94837,-12.91969 a 9.0002816,8.825223 0 0 1 9.00031,8.8252 9.0002816,8.825223 0 0 1 -1.04993,4.09081 l -13.53504,-11.00861 a 9.0002816,8.825223 0 0 1 5.58466,-1.9074 z" />
    <path
       d="m 248.41581,363.38266 h 16.77317 v 2.71241 a 4.3774097,4.1660242 0 0 1 -0.37001,1.63528 h -16.03314 a 4.3774097,4.1660242 0 0 1 -0.37002,-1.63528 z"
       style="fill:#333333;stroke-width:0.0920849"
       id="path14-2-23-7-6-6-4-9-7-1" />
    <path
       d="m 265.18898,356.50417 v 4.34768 h -16.77317 v -4.34768 z"
       style="fill:#333333;stroke-width:0.0920849"
       id="path11-8-38-2-8-4-6-5-7-9" />
    <path
       d="m 248.41581,360.85185 h 16.77317 v 2.53081 h -16.77317 z"
       style="fill:#aa0000;stroke-width:0.0920849"
       id="path13-5-5-2-5-8-1-8-4-63" />
    <path
       d="m 261.88791,393.10994 c -0.35283,-0.30184 -10.41155,-9.02314 -10.9094,-22.12775 v -1.53 h 10.9094 z"
       style="fill:#ffffff;stroke-width:0.0769716"
       id="path21-0-72-1-8-9-0-33-8-31" />
    <path
       d="m 273.37491,367.74845 h 16.03314 a 4.3774097,4.1660242 0 0 1 -4.00746,2.53081 h -8.0184 a 4.3774097,4.1660242 0 0 1 -4.00728,-2.53081 z"
       style="fill:#ffffff;stroke-width:0.0920849"
       id="path10-5-3-2-9-4-9-9-2-6" />
    <path
       d="m 285.40059,345.49069 a 4.3774097,4.1660242 0 0 1 4.37747,4.16607 v 6.86551 h -16.77317 v -6.86551 a 4.3774097,4.1660242 0 0 1 4.3773,-4.16607 z"
       style="fill:#ffffff;stroke-width:0.0920849"
       id="path7-7-10-3-2-0-6-3-9-43" />
    <path
       d="m 275.23828,330.91827 -0.0763,0.25334 c 0,0 -1.39399,1.19251 13.66245,10.71786 a 9.0002816,8.825223 0 0 1 -7.94835,4.73072 9.0002816,8.825223 0 0 1 -9.00034,-8.82521 9.0002816,8.825223 0 0 1 3.36238,-6.87671 z"
       style="fill:#ffffff;stroke-width:0.0920849"
       id="path6-2-16-4-6-4-4-6-0-6" />
    <path
       id="path4-6-2-8-3-7-1-2-1-7"
       style="fill:#aa0000;stroke-width:0.0920849"
       d="m 275.29157,330.87718 a 9.0002816,8.825223 0 0 0 -0.0534,0.0412 l 0.0203,-0.068 z m 0,0 13.53504,11.00862 a 9.0002816,8.825223 0 0 1 -0.004,0.005 c -15.05653,-9.52508 -13.66255,-10.71761 -13.66255,-10.71761 l 0.0763,-0.25335 a 9.0002816,8.825223 0 0 1 0.0533,-0.0412 z m 13.53302,11.01229 a 9.0002816,8.825223 0 0 0 0.004,-0.005 l 0.0281,0.0229 c -0.0105,-0.005 -0.0194,-0.0131 -0.0303,-0.0194 z m -7.94836,-12.91969 a 9.0002816,8.825223 0 0 1 9.00032,8.8252 9.0002816,8.825223 0 0 1 -1.04994,4.09082 l -13.53504,-11.00862 a 9.0002816,8.825223 0 0 1 5.58466,-1.9074 z" />
    <path
       d="m 273.00489,363.40076 h 16.77317 v 2.71241 a 4.3774097,4.1660242 0 0 1 -0.37001,1.63528 h -16.03314 a 4.3774097,4.1660242 0 0 1 -0.37002,-1.63528 z"
       style="fill:#333333;stroke-width:0.0920849"
       id="path14-2-23-7-6-6-4-7-0-0" />
    <path
       d="m 289.77806,356.52227 v 4.34769 h -16.77317 v -4.34769 z"
       style="fill:#333333;stroke-width:0.0920849"
       id="path11-8-38-2-8-4-6-3-6-5" />
    <path
       d="m 273.00489,360.86996 h 16.77317 v 2.5308 h -16.77317 z"
       style="fill:#aa0000;stroke-width:0.0920849"
       id="path13-5-5-2-5-8-1-7-1-4" />
    <path
       d="m 286.47699,393.12805 c -0.35284,-0.30185 -10.41155,-9.02314 -10.90939,-22.12776 v -1.53 h 10.90939 z"
       style="fill:#ffffff;stroke-width:0.0769716"
       id="path21-0-72-1-8-9-0-601-8-6" />
    <path
       d="m 276.82315,355.16736 c -1.33926,1.31153 -7.98351,7.40267 -14.08016,5.4657 l -0.13588,-0.13982 12.85742,-14.86751 5.08445,5.23323 z"
       style="fill:#ffffff;stroke-width:0.0920849"
       id="path18-7-6-5-2-1-0-5-9-0-8" />
    <path
       d="m 251.22814,356.15199 c -1.33926,1.31153 -7.98351,7.40267 -14.08016,5.4657 l -0.13588,-0.13982 12.85742,-14.86751 5.08445,5.23323 z"
       style="fill:#ffffff;stroke-width:0.0920849"
       id="path18-7-6-5-2-1-0-5-9-0-38-8" />
    <path
       d="m 227.18538,356.31503 c -1.33925,1.31153 -7.9835,7.40267 -14.08015,5.4657 l -0.13588,-0.13981 12.85742,-14.86752 5.08445,5.23323 z"
       style="fill:#ffffff;stroke-width:0.0920849"
       id="path18-7-6-5-2-1-0-5-9-0-9-3" />
    <path
       d="M 0,0 V 400 M 2.6458333,0 V 400 M 5.2916666,0 V 400 M 7.9374999,0 V 400 M 10.583333,0 V 400 M 13.229167,0 V 400 M 15.875,0 V 400 M 18.520833,0 V 400 M 21.166667,0 V 400 M 23.8125,0 V 400 M 26.458333,0 V 400 M 29.104166,0 V 400 M 31.75,0 V 400 M 34.395833,0 V 400 M 37.041666,0 V 400 M 39.6875,0 V 400 M 42.333333,0 V 400 M 44.979166,0 V 400 M 47.625,0 V 400 M 50.270833,0 V 400 M 52.916666,0 V 400 M 55.5625,0 V 400 M 58.208333,0 V 400 M 60.854166,0 V 400 M 63.5,0 V 400 M 66.145833,0 V 400 M 68.791666,0 V 400 M 71.437499,0 V 400 M 74.083333,0 V 400 M 76.729166,0 V 400 M 79.374999,0 V 400 M 82.020833,0 V 400 M 84.666666,0 V 400 M 87.312499,0 V 400 M 89.958333,0 V 400 M 92.604166,0 V 400 M 95.249999,0 V 400 M 97.895833,0 V 400 M 100.54167,0 V 400 M 103.1875,0 V 400 M 105.83333,0 V 400 M 108.47917,0 V 400 M 111.125,0 V 400 M 113.77083,0 V 400 M 116.41667,0 V 400 M 119.0625,0 V 400 M 121.70833,0 V 400 M 124.35417,0 V 400 M 127,0 V 400 M 129.64583,0 V 400 M 132.29167,0 V 400 M 134.9375,0 V 400 M 137.58333,0 V 400 M 140.22917,0 V 400 M 142.875,0 V 400 M 145.52083,0 V 400 M 148.16667,0 V 400 M 150.8125,0 V 400 M 153.45833,0 V 400 M 156.10417,0 V 400 M 158.75,0 V 400 M 161.39583,0 V 400 M 164.04167,0 V 400 M 166.6875,0 V 400 M 169.33333,0 V 400 M 171.97917,0 V 400 M 174.625,0 V 400 M 177.27083,0 V 400 M 179.91667,0 V 400 M 182.5625,0 V 400 M 185.20833,0 V 400 M 187.85417,0 V 400 M 190.5,0 V 400 M 193.14583,0 V 400 M 195.79167,0 V 400 M 198.4375,0 V 400 M 201.08333,0 V 400 M 203.72917,0 V 400 M 206.375,0 V 400 M 209.02083,0 V 400 M 211.66667,0 V 400 M 214.3125,0 V 400 M 216.95833,0 V 400 M 219.60416,0 V 400 M 222.25,0 V 400 M 224.89583,0 V 400 M 227.54166,0 V 400 M 230.1875,0 V 400 M 232.83333,0 V 400 M 235.47916,0 V 400 M 238.125,0 V 400 M 240.77083,0 V 400 M 243.41666,0 V 400 M 246.0625,0 V 400 M 248.70833,0 V 400 M 251.35416,0 V 400 M 254,0 V 400 M 256.64583,0 V 400 M 259.29166,0 V 400 M 261.9375,0 V 400 M 264.58333,0 V 400 M 267.22916,0 V 400 M 269.875,0 V 400 M 272.52083,0 V 400 M 275.16666,0 V 400 M 277.8125,0 V 400 M 280.45833,0 V 400 M 283.10416,0 V 400 M 285.75,0 V 400 M 288.39583,0 V 400 M 291.04166,0 V 400 M 293.6875,0 V 400 M 296.33333,0 V 400 M 298.97916,0 V 400 M 301.625,0 V 400 M 304.27083,0 V 400 M 306.91666,0 V 400 M 309.5625,0 V 400 M 312.20833,0 V 400 M 314.85416,0 V 400 M 317.5,0 V 400 M 320.14583,0 V 400 M 322.79166,0 V 400 M 325.4375,0 V 400 M 328.08333,0 V 400 M 330.72916,0 V 400 M 333.375,0 V 400 M 336.02083,0 V 400 M 338.66666,0 V 400 M 341.3125,0 V 400 M 343.95833,0 V 400 M 346.60416,0 V 400 M 349.25,0 V 400 M 351.89583,0 V 400 M 354.54166,0 V 400 M 357.1875,0 V 400 M 359.83333,0 V 400 M 362.47916,0 V 400 M 365.125,0 V 400 M 367.77083,0 V 400 M 370.41666,0 V 400 M 373.0625,0 V 400 M 375.70833,0 V 400 M 378.35416,0 V 400 M 381,0 V 400 M 383.64583,0 V 400 M 386.29166,0 V 400 M 388.9375,0 V 400 M 391.58333,0 V 400 M 394.22916,0 V 400 M 396.875,0 V 400 M 399.52083,0 V 400 M 0,0 H 400 M 0,2.6458333 H 400 M 0,5.2916666 H 400 M 0,7.9374999 H 400 M 0,10.583333 H 400 M 0,13.229167 H 400 M 0,15.875 H 400 M 0,18.520833 H 400 M 0,21.166667 H 400 M 0,23.8125 H 400 M 0,26.458333 H 400 M 0,29.104166 H 400 M 0,31.75 H 400 M 0,34.395833 H 400 M 0,37.041666 H 400 M 0,39.6875 H 400 M 0,42.333333 H 400 M 0,44.979166 H 400 M 0,47.625 H 400 M 0,50.270833 H 400 M 0,52.916666 H 400 M 0,55.5625 H 400 M 0,58.208333 H 400 M 0,60.854166 H 400 M 0,63.5 H 400 M 0,66.145833 H 400 M 0,68.791666 H 400 M 0,71.437499 H 400 M 0,74.083333 H 400 M 0,76.729166 H 400 M 0,79.374999 H 400 M 0,82.020833 H 400 M 0,84.666666 H 400 M 0,87.312499 H 400 M 0,89.958333 H 400 M 0,92.604166 H 400 M 0,95.249999 H 400 M 0,97.895833 H 400 M 0,100.54167 H 400 M 0,103.1875 H 400 M 0,105.83333 H 400 M 0,108.47917 H 400 M 0,111.125 H 400 M 0,113.77083 H 400 M 0,116.41667 H 400 M 0,119.0625 H 400 M 0,121.70833 H 400 M 0,124.35417 H 400 M 0,127 H 400 M 0,129.64583 H 400 M 0,132.29167 H 400 M 0,134.9375 H 400 M 0,137.58333 H 400 M 0,140.22917 H 400 M 0,142.875 H 400 M 0,145.52083 H 400 M 0,148.16667 H 400 M 0,150.8125 H 400 M 0,153.45833 H 400 M 0,156.10417 H 400 M 0,158.75 H 400 M 0,161.39583 H 400 M 0,164.04167 H 400 M 0,166.6875 H 400 M 0,169.33333 H 400 M 0,171.97917 H 400 M 0,174.625 H 400 M 0,177.27083 H 400 M 0,179.91667 H 400 M 0,182.5625 H 400 M 0,185.20833 H 400 M 0,187.85417 H 400 M 0,190.5 H 400 M 0,193.14583 H 400 M 0,195.79167 H 400 M 0,198.4375 H 400 M 0,201.08333 H 400 M 0,203.72917 H 400 M 0,206.375 H 400 M 0,209.02083 H 400 M 0,211.66667 H 400 M 0,214.3125 H 400 M 0,216.95833 H 400 M 0,219.60416 H 400 M 0,222.25 H 400 M 0,224.89583 H 400 M 0,227.54166 H 400 M 0,230.1875 H 400 M 0,232.83333 H 400 M 0,235.47916 H 400 M 0,238.125 H 400 M 0,240.77083 H 400 M 0,243.41666 H 400 M 0,246.0625 H 400 M 0,248.70833 H 400 M 0,251.35416 H 400 M 0,254 H 400 M 0,256.64583 H 400 M 0,259.29166 H 400 M 0,261.9375 H 400 M 0,264.58333 H 400 M 0,267.22916 H 400 M 0,269.875 H 400 M 0,272.52083 H 400 M 0,275.16666 H 400 M 0,277.8125 H 400 M 0,280.45833 H 400 M 0,283.10416 H 400 M 0,285.75 H 400 M 0,288.39583 H 400 M 0,291.04166 H 400 M 0,293.6875 H 400 M 0,296.33333 H 400 M 0,298.97916 H 400 M 0,301.625 H 400 M 0,304.27083 H 400 M 0,306.91666 H 400 M 0,309.5625 H 400 M 0,312.20833 H 400 M 0,314.85416 H 400 M 0,317.5 H 400 M 0,320.14583 H 400 M 0,322.79166 H 400 M 0,325.4375 H 400 M 0,328.08333 H 400 M 0,330.72916 H 400 M 0,333.375 H 400 M 0,336.02083 H 400 M 0,338.66666 H 400 M 0,341.3125 H 400 M 0,343.95833 H 400 M 0,346.60416 H 400 M 0,349.25 H 400 M 0,351.89583 H 400 M 0,354.54166 H 400 M 0,357.1875 H 400 M 0,359.83333 H 400 M 0,362.47916 H 400 M 0,365.125 H 400 M 0,367.77083 H 400 M 0,370.41666 H 400 M 0,373.0625 H 400 M 0,375.70833 H 400 M 0,378.35416 H 400 M 0,381 H 400 M 0,383.64583 H 400 M 0,386.29166 H 400 M 0,388.9375 H 400 M 0,391.58333 H 400 M 0,394.22916 H 400 M 0,396.875 H 400 M 0,399.52083 h 400"
       style="display:none;fill:none;stroke:#000000;stroke-width:0.264583px"
       id="path1" />
    <path
       d="m 198.70264,324.65376 h 16.03315 a 4.3774097,4.1660242 0 0 1 -4.00747,2.53081 h -8.0184 a 4.3774097,4.1660242 0 0 1 -4.00728,-2.53081 z"
       style="fill:#ffffff;stroke-width:0.0920849"
       id="path10-5-3-2-9-4-9" />
    <path
       d="m 210.72832,302.39599 a 4.3774097,4.1660242 0 0 1 4.37747,4.16609 v 6.86551 h -16.77317 v -6.86551 a 4.3774097,4.1660242 0 0 1 4.3773,-4.16609 z"
       style="fill:#ffffff;stroke-width:0.0920849"
       id="path7-7-10-3-2-0-6" />
    <path
       d="m 200.56601,287.82357 -0.0763,0.25334 c 0,0 -1.39399,1.19251 13.66244,10.71788 a 9.0002816,8.825223 0 0 1 -7.94834,4.73071 9.0002816,8.825223 0 0 1 -9.00035,-8.82521 9.0002816,8.825223 0 0 1 3.36238,-6.87672 z"
       style="fill:#ffffff;stroke-width:0.0920849"
       id="path6-2-16-4-6-4-4" />
    <path
       id="path4-6-2-8-3-7-1"
       style="fill:#aa0000;stroke-width:0.0920849"
       d="m 200.6193,287.78248 a 9.0002816,8.825223 0 0 0 -0.0534,0.0411 l 0.0203,-0.068 z m 0,0 13.53504,11.00862 a 9.0002816,8.825223 0 0 1 -0.004,0.005 c -15.05617,-9.52483 -13.66218,-10.71736 -13.66218,-10.71736 l 0.0763,-0.25336 a 9.0002816,8.825223 0 0 1 0.0534,-0.0412 z m 13.53302,11.01231 a 9.0002816,8.825223 0 0 0 0.004,-0.005 l 0.0282,0.023 c -0.0105,-0.005 -0.0194,-0.0131 -0.0303,-0.0194 z m -7.94836,-12.91971 a 9.0002816,8.825223 0 0 1 9.00032,8.82521 9.0002816,8.825223 0 0 1 -1.04994,4.09081 L 200.6193,287.78248 a 9.0002816,8.825223 0 0 1 5.58466,-1.9074 z" />
    <path
       d="m 198.33262,320.30606 h 16.77317 v 2.71241 a 4.3774097,4.1660242 0 0 1 -0.37,1.63529 h -16.03315 a 4.3774097,4.1660242 0 0 1 -0.37002,-1.63529 z"
       style="fill:#333333;stroke-width:0.0920849"
       id="path14-2-23-7-6-6-4" />
    <path
       d="m 215.10579,313.42759 v 4.34768 h -16.77317 v -4.34768 z"
       style="fill:#333333;stroke-width:0.0920849"
       id="path11-8-38-2-8-4-6" />
    <path
       d="m 198.33262,317.77527 h 16.77317 v 2.53079 h -16.77317 z"
       style="fill:#aa0000;stroke-width:0.0920849"
       id="path13-5-5-2-5-8-1" />
    <path
       d="m 211.80472,350.03334 c -0.35283,-0.30183 -10.41155,-9.02313 -10.9094,-22.12775 v -1.53 h 10.9094 z"
       style="fill:#ffffff;stroke-width:0.0769716"
       id="path21-0-72-1-8-9-0" />
    <path
       d="m 197.08355,309.9739 c -1.79736,-0.1513 -10.4091,-1.18595 -12.78209,-7.27769 l 0.0181,-0.20179 18.92777,-0.10261 -0.67883,7.55232 z"
       style="fill:#ffffff;stroke-width:0.0920849"
       id="path18-7-6-5-2-1-0-5" />
    <path
       d="m 198.7941,280.78437 h 16.03315 a 4.3774097,4.1660242 0 0 1 -4.00747,2.53082 h -8.0184 a 4.3774097,4.1660242 0 0 1 -4.00728,-2.53082 z"
       style="fill:#ffffff;stroke-width:0.0920849"
       id="path10-5-3-2-9-4-9-2" />
    <path
       d="m 210.81978,258.5266 a 4.3774097,4.1660242 0 0 1 4.37748,4.16608 v 6.86551 h -16.77318 v -6.86551 a 4.3774097,4.1660242 0 0 1 4.3773,-4.16608 z"
       style="fill:#ffffff;stroke-width:0.0920849"
       id="path7-7-10-3-2-0-6-6" />
    <path
       d="m 200.65747,243.95418 -0.0763,0.25334 c 0,0 -1.39399,1.19252 13.66245,10.71788 a 9.0002816,8.825223 0 0 1 -7.94836,4.73071 9.0002816,8.825223 0 0 1 -9.00034,-8.82521 9.0002816,8.825223 0 0 1 3.36239,-6.87672 z"
       style="fill:#ffffff;stroke-width:0.0920849"
       id="path6-2-16-4-6-4-4-5" />
    <path
       id="path4-6-2-8-3-7-1-0"
       style="fill:#aa0000;stroke-width:0.0920849"
       d="m 200.71076,243.9131 a 9.0002816,8.825223 0 0 0 -0.0534,0.0412 l 0.0203,-0.068 z m 0,0 13.53504,11.00861 a 9.0002816,8.825223 0 0 1 -0.004,0.005 c -15.05642,-9.52523 -13.66243,-10.71775 -13.66243,-10.71775 l 0.0763,-0.25335 a 9.0002816,8.825223 0 0 1 0.0534,-0.0412 z m 13.53303,11.0123 a 9.0002816,8.825223 0 0 0 0.004,-0.005 l 0.0281,0.0229 c -0.0105,-0.005 -0.0194,-0.0131 -0.0303,-0.0194 z m -7.94837,-12.91971 a 9.0002816,8.825223 0 0 1 9.00032,8.82521 9.0002816,8.825223 0 0 1 -1.04994,4.09081 L 200.71076,243.9131 a 9.0002816,8.825223 0 0 1 5.58466,-1.90741 z" />
    <path
       d="m 198.42408,276.43669 h 16.77318 v 2.7124 a 4.3774097,4.1660242 0 0 1 -0.37001,1.63528 H 198.7941 a 4.3774097,4.1660242 0 0 1 -0.37002,-1.63528 z"
       style="fill:#333333;stroke-width:0.0920849"
       id="path14-2-23-7-6-6-4-8" />
    <path
       d="m 215.19726,269.55819 v 4.34769 h -16.77318 v -4.34769 z"
       style="fill:#333333;stroke-width:0.0920849"
       id="path11-8-38-2-8-4-6-8" />
    <path
       d="m 198.42408,273.90588 h 16.77318 v 2.53081 h -16.77318 z"
       style="fill:#aa0000;stroke-width:0.0920849"
       id="path13-5-5-2-5-8-1-9" />
    <path
       d="m 211.89619,306.16396 c -0.35284,-0.30183 -10.41155,-9.02313 -10.9094,-22.12775 v -1.53 h 10.9094 z"
       style="fill:#ffffff;stroke-width:0.0769716"
       id="path21-0-72-1-8-9-0-6" />
    <path
       d="m 198.32916,236.47252 h 16.03316 a 4.3774097,4.1660242 0 0 1 -4.00748,2.53082 h -8.0184 a 4.3774097,4.1660242 0 0 1 -4.00728,-2.53082 z"
       style="fill:#ffffff;stroke-width:0.0920849"
       id="path10-5-3-2-9-4-9-3" />
    <path
       d="m 210.35484,214.21475 a 4.3774097,4.1660242 0 0 1 4.37748,4.16609 v 6.86551 h -16.77318 v -6.86551 a 4.3774097,4.1660242 0 0 1 4.3773,-4.16609 z"
       style="fill:#ffffff;stroke-width:0.0920849"
       id="path7-7-10-3-2-0-6-2" />
    <path
       d="m 200.19254,199.64233 -0.0763,0.25335 c 0,0 -1.39399,1.19251 13.66244,10.71787 a 9.0002816,8.825223 0 0 1 -7.94835,4.73071 9.0002816,8.825223 0 0 1 -9.00034,-8.8252 9.0002816,8.825223 0 0 1 3.36238,-6.87673 z"
       style="fill:#ffffff;stroke-width:0.0920849"
       id="path6-2-16-4-6-4-4-3" />
    <path
       id="path4-6-2-8-3-7-1-8"
       style="fill:#aa0000;stroke-width:0.0920849"
       d="m 200.24582,199.60125 a 9.0002816,8.825223 0 0 0 -0.0534,0.0412 l 0.0203,-0.068 z m 0,0 13.53505,11.00862 a 9.0002816,8.825223 0 0 1 -0.004,0.005 C 198.72071,201.09003 200.11469,199.8975 200.11469,199.8975 l 0.0763,-0.25336 a 9.0002816,8.825223 0 0 1 0.0533,-0.0411 z m 13.53303,11.0123 a 9.0002816,8.825223 0 0 0 0.004,-0.005 l 0.0282,0.0229 c -0.0105,-0.005 -0.0194,-0.0131 -0.0303,-0.0194 z m -7.94836,-12.9197 a 9.0002816,8.825223 0 0 1 9.00031,8.82521 9.0002816,8.825223 0 0 1 -1.04993,4.09081 l -13.53505,-11.00862 a 9.0002816,8.825223 0 0 1 5.58467,-1.9074 z" />
    <path
       d="m 197.95914,232.12483 h 16.77318 v 2.71241 a 4.3774097,4.1660242 0 0 1 -0.37,1.63528 h -16.03316 a 4.3774097,4.1660242 0 0 1 -0.37002,-1.63528 z"
       style="fill:#333333;stroke-width:0.0920849"
       id="path14-2-23-7-6-6-4-5" />
    <path
       d="m 214.73232,225.24635 v 4.34768 h -16.77318 v -4.34768 z"
       style="fill:#333333;stroke-width:0.0920849"
       id="path11-8-38-2-8-4-6-87" />
    <path
       d="m 197.95914,229.59403 h 16.77318 v 2.5308 h -16.77318 z"
       style="fill:#aa0000;stroke-width:0.0920849"
       id="path13-5-5-2-5-8-1-0" />
    <path
       d="m 211.43125,261.85211 c -0.35284,-0.30184 -10.41155,-9.02314 -10.9094,-22.12776 v -1.52999 h 10.9094 z"
       style="fill:#ffffff;stroke-width:0.0769716"
       id="path21-0-72-1-8-9-0-3" />
    <path
       d="m 198.80671,193.98979 h 16.03315 a 4.3774097,4.1660242 0 0 1 -4.00747,2.53081 h -8.0184 a 4.3774097,4.1660242 0 0 1 -4.00728,-2.53081 z"
       style="fill:#ffffff;stroke-width:0.0920849"
       id="path10-5-3-2-9-4-9-6" />
    <path
       d="m 210.83239,171.73202 a 4.3774097,4.1660242 0 0 1 4.37748,4.16608 v 6.86552 h -16.77318 v -6.86552 a 4.3774097,4.1660242 0 0 1 4.3773,-4.16608 z"
       style="fill:#ffffff;stroke-width:0.0920849"
       id="path7-7-10-3-2-0-6-7" />
    <path
       d="m 200.67008,157.1596 -0.0763,0.25334 c 0,0 -1.39399,1.19251 13.66244,10.71787 a 9.0002816,8.825223 0 0 1 -7.94835,4.73071 9.0002816,8.825223 0 0 1 -9.00034,-8.8252 9.0002816,8.825223 0 0 1 3.36239,-6.87672 z"
       style="fill:#ffffff;stroke-width:0.0920849"
       id="path6-2-16-4-6-4-4-4" />
    <path
       id="path4-6-2-8-3-7-1-09"
       style="fill:#aa0000;stroke-width:0.0920849"
       d="m 200.72337,157.11852 a 9.0002816,8.825223 0 0 0 -0.0534,0.0412 l 0.0203,-0.068 z m 0,0 13.53505,11.00862 a 9.0002816,8.825223 0 0 1 -0.004,0.005 c -15.05653,-9.52508 -13.66255,-10.71761 -13.66255,-10.71761 l 0.0763,-0.25335 a 9.0002816,8.825223 0 0 1 0.0533,-0.0412 z m 13.53302,11.01229 a 9.0002816,8.825223 0 0 0 0.004,-0.005 l 0.0281,0.023 c -0.0105,-0.005 -0.0194,-0.0131 -0.0303,-0.0194 z m -7.94836,-12.9197 a 9.0002816,8.825223 0 0 1 9.00032,8.82521 9.0002816,8.825223 0 0 1 -1.04993,4.09082 l -13.53505,-11.00862 a 9.0002816,8.825223 0 0 1 5.58466,-1.90741 z" />
    <path
       d="m 198.43669,189.64211 h 16.77318 v 2.7124 a 4.3774097,4.1660242 0 0 1 -0.37001,1.63528 h -16.03315 a 4.3774097,4.1660242 0 0 1 -0.37002,-1.63528 z"
       style="fill:#333333;stroke-width:0.0920849"
       id="path14-2-23-7-6-6-4-82" />
    <path
       d="m 215.20987,182.76362 v 4.34769 h -16.77318 v -4.34769 z"
       style="fill:#333333;stroke-width:0.0920849"
       id="path11-8-38-2-8-4-6-4" />
    <path
       d="m 198.43669,187.11131 h 16.77318 v 2.5308 h -16.77318 z"
       style="fill:#aa0000;stroke-width:0.0920849"
       id="path13-5-5-2-5-8-1-02" />
    <path
       d="m 211.9088,219.36938 c -0.35284,-0.30183 -10.41155,-9.02314 -10.9094,-22.12775 v -1.52999 h 10.9094 z"
       style="fill:#ffffff;stroke-width:0.0769716"
       id="path21-0-72-1-8-9-0-60" />
    <path
       d="m 198.43697,148.97449 h 16.03315 a 4.3774097,4.1660242 0 0 1 -4.00746,2.53081 h -8.0184 a 4.3774097,4.1660242 0 0 1 -4.00729,-2.53081 z"
       style="fill:#ffffff;stroke-width:0.0920849"
       id="path10-5-3-2-9-4-9-7" />
    <path
       d="m 210.46266,126.71672 a 4.3774097,4.1660242 0 0 1 4.37747,4.16608 v 6.86551 h -16.77318 v -6.86551 a 4.3774097,4.1660242 0 0 1 4.37731,-4.16608 z"
       style="fill:#ffffff;stroke-width:0.0920849"
       id="path7-7-10-3-2-0-6-8" />
    <path
       d="m 200.30035,112.1443 -0.0763,0.25335 c 0,0 -1.39398,1.19251 13.66245,10.71787 a 9.0002816,8.825223 0 0 1 -7.94835,4.7307 9.0002816,8.825223 0 0 1 -9.00034,-8.8252 9.0002816,8.825223 0 0 1 3.36238,-6.87672 z"
       style="fill:#ffffff;stroke-width:0.0920849"
       id="path6-2-16-4-6-4-4-55" />
    <path
       id="path4-6-2-8-3-7-1-01"
       style="fill:#aa0000;stroke-width:0.0920849"
       d="m 200.35363,112.10322 a 9.0002816,8.825223 0 0 0 -0.0534,0.0411 l 0.0203,-0.068 z m 0,0 13.53505,11.00861 a 9.0002816,8.825223 0 0 1 -0.004,0.005 C 198.82852,113.5916 200.2225,112.39907 200.2225,112.39907 l 0.0763,-0.25336 a 9.0002816,8.825223 0 0 1 0.0533,-0.0411 z m 13.53303,11.0123 a 9.0002816,8.825223 0 0 0 0.004,-0.005 l 0.0282,0.0229 c -0.0105,-0.005 -0.0194,-0.0131 -0.0303,-0.0193 z m -7.94837,-12.91971 a 9.0002816,8.825223 0 0 1 9.00032,8.82521 9.0002816,8.825223 0 0 1 -1.04993,4.09081 l -13.53505,-11.00861 a 9.0002816,8.825223 0 0 1 5.58466,-1.90741 z" />
    <path
       d="m 198.06695,144.6268 h 16.77318 v 2.71241 a 4.3774097,4.1660242 0 0 1 -0.37001,1.63528 h -16.03315 a 4.3774097,4.1660242 0 0 1 -0.37002,-1.63528 z"
       style="fill:#333333;stroke-width:0.0920849"
       id="path14-2-23-7-6-6-4-0" />
    <path
       d="m 214.84013,137.74831 v 4.34769 h -16.77318 v -4.34769 z"
       style="fill:#333333;stroke-width:0.0920849"
       id="path11-8-38-2-8-4-6-2" />
    <path
       d="m 198.06695,142.096 h 16.77318 v 2.5308 h -16.77318 z"
       style="fill:#aa0000;stroke-width:0.0920849"
       id="path13-5-5-2-5-8-1-5" />
    <path
       d="m 211.53906,174.35407 c -0.35283,-0.30184 -10.41155,-9.02314 -10.90939,-22.12774 v -1.53 h 10.90939 z"
       style="fill:#ffffff;stroke-width:0.0769716"
       id="path21-0-72-1-8-9-0-9" />
    <path
       d="m 201.11908,120.76909 c 0.18834,-1.90432 1.3822,-11.02053 7.17706,-13.38424 l 0.18948,0.0244 -0.38682,20.09728 -7.09178,-0.91355 z"
       style="fill:#ffffff;stroke-width:0.0920849"
       id="path18-7-6-5-2-1-0-5-5" />
    <path
       d="m 198.43578,105.75254 h 16.03314 a 4.3774097,4.1660242 0 0 1 -4.00746,2.53081 h -8.0184 a 4.3774097,4.1660242 0 0 1 -4.00728,-2.53081 z"
       style="fill:#ffffff;stroke-width:0.0920849"
       id="path10-5-3-2-9-4-9-7-0" />
    <path
       d="m 210.46146,83.494778 a 4.3774097,4.1660242 0 0 1 4.37747,4.16608 v 6.865507 h -16.77316 v -6.865507 a 4.3774097,4.1660242 0 0 1 4.37729,-4.16608 z"
       style="fill:#ffffff;stroke-width:0.0920849"
       id="path7-7-10-3-2-0-6-8-7" />
    <path
       d="m 200.29915,68.922358 -0.0763,0.253345 c 0,0 -1.39398,1.192509 13.66245,10.717868 a 9.0002816,8.825223 0 0 1 -7.94835,4.730716 9.0002816,8.825223 0 0 1 -9.00034,-8.825209 9.0002816,8.825223 0 0 1 3.36238,-6.87672 z"
       style="fill:#ffffff;stroke-width:0.0920849"
       id="path6-2-16-4-6-4-4-55-1" />
    <path
       id="path4-6-2-8-3-7-1-01-9"
       style="fill:#aa0000;stroke-width:0.0920849"
       d="m 200.35243,68.881274 a 9.0002816,8.825223 0 0 0 -0.0534,0.04111 l 0.0203,-0.06799 z m 0,0 13.53505,11.008614 a 9.0002816,8.825223 0 0 1 -0.004,0.0051 c -15.05584,-9.525236 -13.66186,-10.71776 -13.66186,-10.71776 l 0.0763,-0.253359 a 9.0002816,8.825223 0 0 1 0.0534,-0.04112 z m 13.53303,11.012297 a 9.0002816,8.825223 0 0 0 0.004,-0.0051 l 0.0282,0.02295 c -0.0105,-0.0058 -0.0194,-0.01307 -0.0303,-0.01932 z M 205.9371,66.973869 a 9.0002816,8.825223 0 0 1 9.00032,8.825209 9.0002816,8.825223 0 0 1 -1.04994,4.09081 L 200.35243,68.881274 a 9.0002816,8.825223 0 0 1 5.58467,-1.907405 z" />
    <path
       d="m 198.06577,101.40486 h 16.77316 v 2.71241 a 4.3774097,4.1660242 0 0 1 -0.37001,1.63527 h -16.03314 a 4.3774097,4.1660242 0 0 1 -0.37001,-1.63527 z"
       style="fill:#333333;stroke-width:0.0920849"
       id="path14-2-23-7-6-6-4-0-1" />
    <path
       d="M 214.83893,94.526365 V 98.87405 H 198.06577 V 94.526365 Z"
       style="fill:#333333;stroke-width:0.0920849"
       id="path11-8-38-2-8-4-6-2-1" />
    <path
       d="m 198.06577,98.87405 h 16.77316 v 2.53081 h -16.77316 z"
       style="fill:#aa0000;stroke-width:0.0920849"
       id="path13-5-5-2-5-8-1-5-4" />
    <path
       d="m 211.53786,131.13214 c -0.35283,-0.30184 -10.41155,-9.02314 -10.90939,-22.12776 v -1.52999 h 10.90939 z"
       style="fill:#ffffff;stroke-width:0.0769716"
       id="path21-0-72-1-8-9-0-9-7" />
    <path
       d="m 201.11788,77.547147 c 0.18834,-1.904312 1.38219,-11.020532 7.17706,-13.384243 l 0.18948,0.02435 -0.38681,20.097281 -7.09178,-0.913551 z"
       style="fill:#ffffff;stroke-width:0.0920849"
       id="path18-7-6-5-2-1-0-5-5-0" />
    <path
       d="m 190.01161,324.68509 h -16.03316 a 4.3774097,4.1660242 0 0 0 4.00747,2.53081 h 8.01841 a 4.3774097,4.1660242 0 0 0 4.00728,-2.53081 z"
       style="fill:#ffffff;stroke-width:0.0920849"
       id="path10-5-3-2-9-4-9-31" />
    <path
       d="m 177.98592,302.42733 a 4.3774097,4.1660242 0 0 0 -4.37747,4.16607 v 6.86552 h 16.77318 v -6.86552 a 4.3774097,4.1660242 0 0 0 -4.3773,-4.16607 z"
       style="fill:#ffffff;stroke-width:0.0920849"
       id="path7-7-10-3-2-0-6-9" />
    <path
       d="m 188.14822,287.85491 0.0763,0.25334 c 0,0 1.39399,1.19251 -13.66245,10.71787 a 9.0002816,8.825223 0 0 0 7.94835,4.73071 9.0002816,8.825223 0 0 0 9.00034,-8.82521 9.0002816,8.825223 0 0 0 -3.36237,-6.87671 z"
       style="fill:#ffffff;stroke-width:0.0920849"
       id="path6-2-16-4-6-4-4-57" />
    <path
       id="path4-6-2-8-3-7-1-7"
       style="fill:#aa0000;stroke-width:0.0920849"
       d="m 188.09495,287.81382 a 9.0002816,8.825223 0 0 1 0.0534,0.0411 l -0.0203,-0.068 z m 0,0 -13.53504,11.00862 a 9.0002816,8.825223 0 0 0 0.004,0.005 c 15.05641,-9.52523 13.66243,-10.71775 13.66243,-10.71775 l -0.0763,-0.25336 a 9.0002816,8.825223 0 0 0 -0.0534,-0.0412 z m -13.53303,11.0123 a 9.0002816,8.825223 0 0 1 -0.004,-0.005 l -0.0281,0.0229 c 0.0105,-0.005 0.0194,-0.0131 0.0303,-0.0194 z m 7.94837,-12.9197 a 9.0002816,8.825223 0 0 0 -9.00033,8.8252 9.0002816,8.825223 0 0 0 1.04995,4.09082 l 13.53504,-11.00862 a 9.0002816,8.825223 0 0 0 -5.58466,-1.9074 z" />
    <path
       d="m 190.38163,320.33741 h -16.77318 v 2.71241 a 4.3774097,4.1660242 0 0 0 0.37,1.63527 h 16.03316 a 4.3774097,4.1660242 0 0 0 0.37002,-1.63527 z"
       style="fill:#333333;stroke-width:0.0920849"
       id="path14-2-23-7-6-6-4-1" />
    <path
       d="m 173.60845,313.45892 v 4.34769 h 16.77318 v -4.34769 z"
       style="fill:#333333;stroke-width:0.0920849"
       id="path11-8-38-2-8-4-6-1" />
    <path
       d="m 190.38163,317.80661 h -16.77318 v 2.5308 h 16.77318 z"
       style="fill:#aa0000;stroke-width:0.0920849"
       id="path13-5-5-2-5-8-1-4" />
    <path
       d="m 176.90952,350.06468 c 0.35284,-0.30183 10.41154,-9.02314 10.9094,-22.12775 v -1.52999 h -10.9094 z"
       style="fill:#ffffff;stroke-width:0.0769716"
       id="path21-0-72-1-8-9-0-1" />
    <path
       d="m 193.0636,300.7596 c 0.93582,-1.63667 5.18315,-9.65959 1.91888,-15.26697 l -0.16468,-0.10246 -11.15031,16.24335 6.16492,3.83308 z"
       style="fill:#ffffff;stroke-width:0.0920849"
       id="path18-7-6-5-2-1-0-5-3" />
    <path
       d="m 165.85906,324.79142 h -16.03315 a 4.3774097,4.1660242 0 0 0 4.00746,2.5308 h 8.01841 a 4.3774097,4.1660242 0 0 0 4.00728,-2.5308 z"
       style="fill:#ffffff;stroke-width:0.0920849"
       id="path10-5-3-2-9-4-9-32" />
    <path
       d="m 153.83337,302.53364 a 4.3774097,4.1660242 0 0 0 -4.37747,4.16609 v 6.86551 h 16.77318 v -6.86551 a 4.3774097,4.1660242 0 0 0 -4.3773,-4.16609 z"
       style="fill:#ffffff;stroke-width:0.0920849"
       id="path7-7-10-3-2-0-6-67" />
    <path
       d="m 163.99569,287.96122 0.0763,0.25334 c 0,0 1.39399,1.19251 -13.66244,10.71788 a 9.0002816,8.825223 0 0 0 7.94835,4.73071 9.0002816,8.825223 0 0 0 9.00034,-8.8252 9.0002816,8.825223 0 0 0 -3.36239,-6.87673 z"
       style="fill:#ffffff;stroke-width:0.0920849"
       id="path6-2-16-4-6-4-4-43" />
    <path
       id="path4-6-2-8-3-7-1-9"
       style="fill:#aa0000;stroke-width:0.0920849"
       d="m 163.9424,287.92014 a 9.0002816,8.825223 0 0 1 0.0534,0.0412 l -0.0203,-0.068 z m 0,0 -13.53504,11.00862 a 9.0002816,8.825223 0 0 0 0.004,0.005 c 15.05641,-9.52522 13.66243,-10.71775 13.66243,-10.71775 l -0.0763,-0.25336 a 9.0002816,8.825223 0 0 0 -0.0534,-0.0412 z m -13.53303,11.0123 a 9.0002816,8.825223 0 0 1 -0.004,-0.005 l -0.0282,0.0229 c 0.0105,-0.005 0.0194,-0.0131 0.0303,-0.0194 z m 7.94837,-12.91971 a 9.0002816,8.825223 0 0 0 -9.00032,8.82522 9.0002816,8.825223 0 0 0 1.04994,4.09081 l 13.53504,-11.00862 a 9.0002816,8.825223 0 0 0 -5.58466,-1.90741 z" />
    <path
       d="M 166.22908,320.44372 H 149.4559 v 2.71241 a 4.3774097,4.1660242 0 0 0 0.37001,1.63529 h 16.03315 a 4.3774097,4.1660242 0 0 0 0.37002,-1.63529 z"
       style="fill:#333333;stroke-width:0.0920849"
       id="path14-2-23-7-6-6-4-9" />
    <path
       d="m 149.4559,313.56524 v 4.34768 h 16.77318 v -4.34768 z"
       style="fill:#333333;stroke-width:0.0920849"
       id="path11-8-38-2-8-4-6-5" />
    <path
       d="M 166.22908,317.91292 H 149.4559 v 2.5308 h 16.77318 z"
       style="fill:#aa0000;stroke-width:0.0920849"
       id="path13-5-5-2-5-8-1-8" />
    <path
       d="m 152.75697,350.17099 c 0.35284,-0.30183 10.41155,-9.02313 10.9094,-22.12775 v -1.52999 h -10.9094 z"
       style="fill:#ffffff;stroke-width:0.0769716"
       id="path21-0-72-1-8-9-0-33" />
    <path
       d="m 141.26997,324.80951 h -16.03314 a 4.3774097,4.1660242 0 0 0 4.00747,2.53082 h 8.0184 a 4.3774097,4.1660242 0 0 0 4.00727,-2.53082 z"
       style="fill:#ffffff;stroke-width:0.0920849"
       id="path10-5-3-2-9-4-9-9" />
    <path
       d="m 129.2443,302.55175 a 4.3774097,4.1660242 0 0 0 -4.37747,4.16608 v 6.8655 h 16.77316 v -6.8655 a 4.3774097,4.1660242 0 0 0 -4.37729,-4.16608 z"
       style="fill:#ffffff;stroke-width:0.0920849"
       id="path7-7-10-3-2-0-6-3" />
    <path
       d="m 139.40661,287.97933 0.0763,0.25334 c 0,0 1.39398,1.19251 -13.66245,10.71787 a 9.0002816,8.825223 0 0 0 7.94835,4.73071 9.0002816,8.825223 0 0 0 9.00034,-8.82521 9.0002816,8.825223 0 0 0 -3.36238,-6.87671 z"
       style="fill:#ffffff;stroke-width:0.0920849"
       id="path6-2-16-4-6-4-4-6" />
    <path
       id="path4-6-2-8-3-7-1-2"
       style="fill:#aa0000;stroke-width:0.0920849"
       d="m 139.35332,287.93824 a 9.0002816,8.825223 0 0 1 0.0534,0.0412 l -0.0203,-0.068 z m 0,0 -13.53505,11.00861 a 9.0002816,8.825223 0 0 0 0.004,0.005 c 15.0564,-9.52507 13.66242,-10.71759 13.66242,-10.71759 l -0.0763,-0.25335 a 9.0002816,8.825223 0 0 0 -0.0533,-0.0412 z m -13.53302,11.0123 a 9.0002816,8.825223 0 0 1 -0.004,-0.005 l -0.0282,0.0229 c 0.0105,-0.005 0.0194,-0.0131 0.0303,-0.0194 z m 7.94835,-12.91971 a 9.0002816,8.825223 0 0 0 -9.00031,8.82521 9.0002816,8.825223 0 0 0 1.04993,4.09081 l 13.53505,-11.00861 a 9.0002816,8.825223 0 0 0 -5.58467,-1.90741 z" />
    <path
       d="m 141.63999,320.46182 h -16.77316 v 2.71241 a 4.3774097,4.1660242 0 0 0 0.37,1.63528 h 16.03314 a 4.3774097,4.1660242 0 0 0 0.37002,-1.63528 z"
       style="fill:#333333;stroke-width:0.0920849"
       id="path14-2-23-7-6-6-4-7" />
    <path
       d="m 124.86683,313.58333 v 4.34768 h 16.77316 v -4.34768 z"
       style="fill:#333333;stroke-width:0.0920849"
       id="path11-8-38-2-8-4-6-3" />
    <path
       d="m 141.63999,317.93101 h -16.77316 v 2.53081 h 16.77316 z"
       style="fill:#aa0000;stroke-width:0.0920849"
       id="path13-5-5-2-5-8-1-7" />
    <path
       d="m 128.16789,350.1891 c 0.35284,-0.30184 10.41155,-9.02314 10.9094,-22.12775 v -1.53 h -10.9094 z"
       style="fill:#ffffff;stroke-width:0.0769716"
       id="path21-0-72-1-8-9-0-601" />
    <path
       d="m 137.23482,311.44465 c 1.33926,1.31153 7.9835,7.40267 14.08016,5.4657 l 0.13587,-0.13982 -12.85741,-14.86751 -5.08445,5.23323 z"
       style="fill:#ffffff;stroke-width:0.0920849"
       id="path18-7-6-5-2-1-0-5-9" />
    <path
       d="m 162.07122,312.43499 c 1.33925,1.31153 7.9835,7.40268 14.08015,5.4657 l 0.13588,-0.13981 -12.85742,-14.86752 -5.08445,5.23323 z"
       style="fill:#ffffff;stroke-width:0.0920849"
       id="path18-7-6-5-2-1-0-5-9-8" />
    <path
       d="m 223.51235,324.66176 h 16.03314 a 4.3774097,4.1660242 0 0 1 -4.00746,2.53081 h -8.0184 a 4.3774097,4.1660242 0 0 1 -4.00728,-2.53081 z"
       style="fill:#ffffff;stroke-width:0.0920849"
       id="path10-5-3-2-9-4-9-31-9" />
    <path
       d="m 235.53803,302.40399 a 4.3774097,4.1660242 0 0 1 4.37747,4.16609 v 6.8655 h -16.77317 v -6.8655 a 4.3774097,4.1660242 0 0 1 4.3773,-4.16609 z"
       style="fill:#ffffff;stroke-width:0.0920849"
       id="path7-7-10-3-2-0-6-9-7" />
    <path
       d="m 225.37571,287.83158 -0.0763,0.25334 c 0,0 -1.39399,1.19251 13.66244,10.71786 a 9.0002816,8.825223 0 0 1 -7.94835,4.73073 9.0002816,8.825223 0 0 1 -9.00034,-8.82522 9.0002816,8.825223 0 0 1 3.36239,-6.87671 z"
       style="fill:#ffffff;stroke-width:0.0920849"
       id="path6-2-16-4-6-4-4-57-8" />
    <path
       id="path4-6-2-8-3-7-1-7-6"
       style="fill:#aa0000;stroke-width:0.0920849"
       d="m 225.429,287.79049 a 9.0002816,8.825223 0 0 0 -0.0534,0.0412 l 0.0203,-0.068 z m 0,0 13.53505,11.00861 a 9.0002816,8.825223 0 0 1 -0.004,0.005 c -15.05642,-9.52521 -13.66244,-10.71774 -13.66244,-10.71774 l 0.0763,-0.25336 a 9.0002816,8.825223 0 0 1 0.0534,-0.0412 z m 13.53303,11.01229 a 9.0002816,8.825223 0 0 0 0.004,-0.005 l 0.0282,0.0229 c -0.0105,-0.005 -0.0194,-0.0131 -0.0303,-0.0194 z m -7.94836,-12.9197 a 9.0002816,8.825223 0 0 1 9.00031,8.82521 9.0002816,8.825223 0 0 1 -1.04993,4.09081 L 225.429,287.79049 a 9.0002816,8.825223 0 0 1 5.58467,-1.90741 z" />
    <path
       d="m 223.14233,320.31407 h 16.77317 v 2.7124 a 4.3774097,4.1660242 0 0 1 -0.37001,1.63529 h -16.03314 a 4.3774097,4.1660242 0 0 1 -0.37002,-1.63529 z"
       style="fill:#333333;stroke-width:0.0920849"
       id="path14-2-23-7-6-6-4-1-4" />
    <path
       d="m 239.9155,313.43558 v 4.34769 h -16.77317 v -4.34769 z"
       style="fill:#333333;stroke-width:0.0920849"
       id="path11-8-38-2-8-4-6-1-0" />
    <path
       d="m 223.14233,317.78327 h 16.77317 v 2.5308 h -16.77317 z"
       style="fill:#aa0000;stroke-width:0.0920849"
       id="path13-5-5-2-5-8-1-4-1" />
    <path
       d="m 236.61444,350.04135 c -0.35285,-0.30184 -10.41156,-9.02314 -10.90941,-22.12774 v -1.53001 h 10.90941 z"
       style="fill:#ffffff;stroke-width:0.0769716"
       id="path21-0-72-1-8-9-0-1-2" />
    <path
       d="m 247.66489,324.76807 h 16.03315 a 4.3774097,4.1660242 0 0 1 -4.00747,2.53082 h -8.0184 a 4.3774097,4.1660242 0 0 1 -4.00728,-2.53082 z"
       style="fill:#ffffff;stroke-width:0.0920849"
       id="path10-5-3-2-9-4-9-32-4" />
    <path
       d="m 259.69057,302.51031 a 4.3774097,4.1660242 0 0 1 4.37747,4.16608 v 6.8655 h -16.77317 v -6.8655 a 4.3774097,4.1660242 0 0 1 4.3773,-4.16608 z"
       style="fill:#ffffff;stroke-width:0.0920849"
       id="path7-7-10-3-2-0-6-67-4" />
    <path
       d="m 249.52826,287.93789 -0.0763,0.25334 c 0,0 -1.39399,1.19251 13.66245,10.71787 a 9.0002816,8.825223 0 0 1 -7.94835,4.73072 9.0002816,8.825223 0 0 1 -9.00035,-8.82522 9.0002816,8.825223 0 0 1 3.36238,-6.87671 z"
       style="fill:#ffffff;stroke-width:0.0920849"
       id="path6-2-16-4-6-4-4-43-7" />
    <path
       id="path4-6-2-8-3-7-1-9-7"
       style="fill:#aa0000;stroke-width:0.0920849"
       d="m 249.58155,287.8968 a 9.0002816,8.825223 0 0 0 -0.0534,0.0412 l 0.0203,-0.068 z m 0,0 13.53504,11.00861 a 9.0002816,8.825223 0 0 1 -0.004,0.005 c -15.05642,-9.52523 -13.66244,-10.71774 -13.66244,-10.71774 l 0.0763,-0.25336 a 9.0002816,8.825223 0 0 1 0.0534,-0.0412 z m 13.53303,11.0123 a 9.0002816,8.825223 0 0 0 0.004,-0.005 l 0.0281,0.0229 c -0.0105,-0.005 -0.0194,-0.0131 -0.0303,-0.0194 z m -7.94837,-12.9197 a 9.0002816,8.825223 0 0 1 9.00032,8.8252 9.0002816,8.825223 0 0 1 -1.04994,4.09081 L 249.58155,287.8968 a 9.0002816,8.825223 0 0 1 5.58466,-1.9074 z" />
    <path
       d="m 247.29487,320.42039 h 16.77317 v 2.7124 a 4.3774097,4.1660242 0 0 1 -0.37,1.63528 h -16.03315 a 4.3774097,4.1660242 0 0 1 -0.37002,-1.63528 z"
       style="fill:#333333;stroke-width:0.0920849"
       id="path14-2-23-7-6-6-4-9-7" />
    <path
       d="m 264.06804,313.54189 v 4.34769 h -16.77317 v -4.34769 z"
       style="fill:#333333;stroke-width:0.0920849"
       id="path11-8-38-2-8-4-6-5-7" />
    <path
       d="m 247.29487,317.88958 h 16.77317 v 2.53081 h -16.77317 z"
       style="fill:#aa0000;stroke-width:0.0920849"
       id="path13-5-5-2-5-8-1-8-4" />
    <path
       d="m 260.76697,350.14767 c -0.35283,-0.30184 -10.41154,-9.02314 -10.9094,-22.12775 v -1.53 h 10.9094 z"
       style="fill:#ffffff;stroke-width:0.0769716"
       id="path21-0-72-1-8-9-0-33-8" />
    <path
       d="m 272.25397,324.78618 h 16.03315 a 4.3774097,4.1660242 0 0 1 -4.00747,2.53081 h -8.0184 a 4.3774097,4.1660242 0 0 1 -4.00728,-2.53081 z"
       style="fill:#ffffff;stroke-width:0.0920849"
       id="path10-5-3-2-9-4-9-9-2" />
    <path
       d="m 284.27965,302.52841 a 4.3774097,4.1660242 0 0 1 4.37747,4.16608 V 313.56 h -16.77317 v -6.86551 a 4.3774097,4.1660242 0 0 1 4.3773,-4.16608 z"
       style="fill:#ffffff;stroke-width:0.0920849"
       id="path7-7-10-3-2-0-6-3-9" />
    <path
       d="m 274.11734,287.95599 -0.0763,0.25335 c 0,0 -1.39399,1.1925 13.66245,10.71786 a 9.0002816,8.825223 0 0 1 -7.94835,4.73072 9.0002816,8.825223 0 0 1 -9.00034,-8.82521 9.0002816,8.825223 0 0 1 3.36238,-6.87672 z"
       style="fill:#ffffff;stroke-width:0.0920849"
       id="path6-2-16-4-6-4-4-6-0" />
    <path
       id="path4-6-2-8-3-7-1-2-1"
       style="fill:#aa0000;stroke-width:0.0920849"
       d="m 274.17063,287.9149 a 9.0002816,8.825223 0 0 0 -0.0534,0.0412 l 0.0203,-0.068 z m 0,0 13.53504,11.00862 a 9.0002816,8.825223 0 0 1 -0.004,0.005 C 272.64558,289.403 274.03955,288.21047 274.03955,288.21047 l 0.0763,-0.25336 a 9.0002816,8.825223 0 0 1 0.0533,-0.0412 z m 13.53303,11.0123 a 9.0002816,8.825223 0 0 0 0.004,-0.005 l 0.0281,0.0229 c -0.0105,-0.005 -0.0194,-0.0131 -0.0303,-0.0194 z m -7.94837,-12.9197 a 9.0002816,8.825223 0 0 1 9.00032,8.82521 9.0002816,8.825223 0 0 1 -1.04994,4.09081 L 274.17063,287.9149 a 9.0002816,8.825223 0 0 1 5.58466,-1.9074 z" />
    <path
       d="m 271.88395,320.43849 h 16.77317 v 2.7124 a 4.3774097,4.1660242 0 0 1 -0.37,1.63529 h -16.03315 a 4.3774097,4.1660242 0 0 1 -0.37002,-1.63529 z"
       style="fill:#333333;stroke-width:0.0920849"
       id="path14-2-23-7-6-6-4-7-0" />
    <path
       d="m 288.65712,313.56 v 4.34769 H 271.88395 V 313.56 Z"
       style="fill:#333333;stroke-width:0.0920849"
       id="path11-8-38-2-8-4-6-3-6" />
    <path
       d="m 271.88395,317.90769 h 16.77317 v 2.5308 h -16.77317 z"
       style="fill:#aa0000;stroke-width:0.0920849"
       id="path13-5-5-2-5-8-1-7-1" />
    <path
       d="m 285.35605,350.16578 c -0.35283,-0.30185 -10.41155,-9.02314 -10.90939,-22.12776 v -1.53001 h 10.90939 z"
       style="fill:#ffffff;stroke-width:0.0769716"
       id="path21-0-72-1-8-9-0-601-8" />
    <path
       d="m 222.80544,280.98809 h 16.03314 a 4.3774097,4.1660242 0 0 1 -4.00745,2.53082 h -8.01841 a 4.3774097,4.1660242 0 0 1 -4.00728,-2.53082 z"
       style="fill:#ffffff;stroke-width:0.0920849"
       id="path10-5-3-2-9-4-9-32-4-4" />
    <path
       d="m 234.83113,258.73033 a 4.3774097,4.1660242 0 0 1 4.37747,4.16608 v 6.8655 h -16.77317 v -6.8655 a 4.3774097,4.1660242 0 0 1 4.37729,-4.16608 z"
       style="fill:#ffffff;stroke-width:0.0920849"
       id="path7-7-10-3-2-0-6-67-4-9" />
    <path
       d="m 224.66881,244.15791 -0.0763,0.25334 c 0,0 -1.39398,1.19251 13.66245,10.71787 a 9.0002816,8.825223 0 0 1 -7.94835,4.73072 9.0002816,8.825223 0 0 1 -9.00034,-8.82522 9.0002816,8.825223 0 0 1 3.36238,-6.87671 z"
       style="fill:#ffffff;stroke-width:0.0920849"
       id="path6-2-16-4-6-4-4-43-7-8" />
    <path
       id="path4-6-2-8-3-7-1-9-7-7"
       style="fill:#aa0000;stroke-width:0.0920849"
       d="m 224.7221,244.11682 a 9.0002816,8.825223 0 0 0 -0.0534,0.0412 l 0.0203,-0.068 z m 0,0 13.53504,11.00861 a 9.0002816,8.825223 0 0 1 -0.004,0.005 c -15.0561,-9.52551 -13.66212,-10.71803 -13.66212,-10.71803 l 0.0763,-0.25336 a 9.0002816,8.825223 0 0 1 0.0533,-0.0412 z m 13.53303,11.0123 a 9.0002816,8.825223 0 0 0 0.004,-0.005 l 0.0282,0.0229 c -0.0105,-0.005 -0.0194,-0.0131 -0.0303,-0.0194 z m -7.94837,-12.9197 a 9.0002816,8.825223 0 0 1 9.00032,8.8252 9.0002816,8.825223 0 0 1 -1.04994,4.09081 L 224.7221,244.11682 a 9.0002816,8.825223 0 0 1 5.58466,-1.9074 z" />
    <path
       d="m 222.43543,276.64041 h 16.77317 v 2.7124 a 4.3774097,4.1660242 0 0 1 -0.37002,1.63528 h -16.03314 a 4.3774097,4.1660242 0 0 1 -0.37001,-1.63528 z"
       style="fill:#333333;stroke-width:0.0920849"
       id="path14-2-23-7-6-6-4-9-7-9" />
    <path
       d="m 239.2086,269.76191 v 4.3477 h -16.77317 v -4.3477 z"
       style="fill:#333333;stroke-width:0.0920849"
       id="path11-8-38-2-8-4-6-5-7-7" />
    <path
       d="m 222.43543,274.10961 h 16.77317 v 2.5308 h -16.77317 z"
       style="fill:#aa0000;stroke-width:0.0920849"
       id="path13-5-5-2-5-8-1-8-4-2" />
    <path
       d="m 235.90752,306.36769 c -0.35283,-0.30184 -10.41154,-9.02314 -10.90939,-22.12775 v -1.53001 h 10.90939 z"
       style="fill:#ffffff;stroke-width:0.0769716"
       id="path21-0-72-1-8-9-0-33-8-1" />
    <path
       d="m 219.75345,257.0626 c -0.93583,-1.63667 -5.18316,-9.65958 -1.91889,-15.26697 l 0.16468,-0.10246 11.1503,16.24335 -6.16491,3.83309 z"
       style="fill:#ffffff;stroke-width:0.0920849"
       id="path18-7-6-5-2-1-0-5-1-0-6" />
    <path
       d="m 247.39453,281.0062 h 16.03314 a 4.3774097,4.1660242 0 0 1 -4.00747,2.53081 h -8.01839 a 4.3774097,4.1660242 0 0 1 -4.00728,-2.53081 z"
       style="fill:#ffffff;stroke-width:0.0920849"
       id="path10-5-3-2-9-4-9-9-2-3" />
    <path
       d="m 259.4202,258.74843 a 4.3774097,4.1660242 0 0 1 4.37747,4.16608 v 6.86551 h -16.77316 v -6.86551 a 4.3774097,4.1660242 0 0 1 4.3773,-4.16608 z"
       style="fill:#ffffff;stroke-width:0.0920849"
       id="path7-7-10-3-2-0-6-3-9-4" />
    <path
       d="m 249.25789,244.17601 -0.0763,0.25335 c 0,0 -1.39398,1.1925 13.66245,10.71786 a 9.0002816,8.825223 0 0 1 -7.94835,4.73072 9.0002816,8.825223 0 0 1 -9.00034,-8.82521 9.0002816,8.825223 0 0 1 3.36238,-6.87672 z"
       style="fill:#ffffff;stroke-width:0.0920849"
       id="path6-2-16-4-6-4-4-6-0-5" />
    <path
       id="path4-6-2-8-3-7-1-2-1-8"
       style="fill:#aa0000;stroke-width:0.0920849"
       d="m 249.31118,244.13492 a 9.0002816,8.825223 0 0 0 -0.0534,0.0412 l 0.0203,-0.068 z m 0,0 13.53505,11.00862 a 9.0002816,8.825223 0 0 1 -0.004,0.005 c -15.05642,-9.52523 -13.66244,-10.71776 -13.66244,-10.71776 l 0.0763,-0.25335 a 9.0002816,8.825223 0 0 1 0.0533,-0.0412 z m 13.53302,11.0123 a 9.0002816,8.825223 0 0 0 0.004,-0.005 l 0.0282,0.0229 c -0.0105,-0.005 -0.0194,-0.0131 -0.0303,-0.0194 z m -7.94835,-12.9197 a 9.0002816,8.825223 0 0 1 9.00031,8.82521 9.0002816,8.825223 0 0 1 -1.04993,4.09081 l -13.53505,-11.00862 a 9.0002816,8.825223 0 0 1 5.58467,-1.9074 z" />
    <path
       d="m 247.02451,276.65852 h 16.77316 v 2.71239 a 4.3774097,4.1660242 0 0 1 -0.37,1.63529 h -16.03314 a 4.3774097,4.1660242 0 0 1 -0.37002,-1.63529 z"
       style="fill:#333333;stroke-width:0.0920849"
       id="path14-2-23-7-6-6-4-7-0-6" />
    <path
       d="m 263.79767,269.78002 v 4.34769 h -16.77316 v -4.34769 z"
       style="fill:#333333;stroke-width:0.0920849"
       id="path11-8-38-2-8-4-6-3-6-7" />
    <path
       d="m 247.02451,274.12771 h 16.77316 v 2.53081 h -16.77316 z"
       style="fill:#aa0000;stroke-width:0.0920849"
       id="path13-5-5-2-5-8-1-7-1-1" />
    <path
       d="m 260.49661,306.38579 c -0.35284,-0.30184 -10.41156,-9.02313 -10.9094,-22.12775 v -1.53001 h 10.9094 z"
       style="fill:#ffffff;stroke-width:0.0769716"
       id="path21-0-72-1-8-9-0-601-8-4" />
    <path
       d="m 244.34252,257.0807 c -0.93582,-1.63667 -5.18315,-9.65959 -1.91888,-15.26697 l 0.16469,-0.10246 11.15029,16.24335 -6.16491,3.8331 z"
       style="fill:#ffffff;stroke-width:0.0920849"
       id="path18-7-6-5-2-1-0-5-9-0-7" />
    <path
       d="m 189.76259,280.56171 h -16.03314 a 4.3774097,4.1660242 0 0 0 4.00747,2.53082 h 8.0184 a 4.3774097,4.1660242 0 0 0 4.00727,-2.53082 z"
       style="fill:#ffffff;stroke-width:0.0920849"
       id="path10-5-3-2-9-4-9-32-4-6" />
    <path
       d="m 177.73692,258.30395 a 4.3774097,4.1660242 0 0 0 -4.37747,4.16608 v 6.8655 h 16.77316 v -6.8655 a 4.3774097,4.1660242 0 0 0 -4.37729,-4.16608 z"
       style="fill:#ffffff;stroke-width:0.0920849"
       id="path7-7-10-3-2-0-6-67-4-6" />
    <path
       d="m 187.89922,243.73153 0.0763,0.25334 c 0,0 1.39399,1.19251 -13.66245,10.71787 a 9.0002816,8.825223 0 0 0 7.94835,4.73072 9.0002816,8.825223 0 0 0 9.00034,-8.82522 9.0002816,8.825223 0 0 0 -3.36238,-6.87671 z"
       style="fill:#ffffff;stroke-width:0.0920849"
       id="path6-2-16-4-6-4-4-43-7-6" />
    <path
       id="path4-6-2-8-3-7-1-9-7-4"
       style="fill:#aa0000;stroke-width:0.0920849"
       d="m 187.84594,243.69044 a 9.0002816,8.825223 0 0 1 0.0534,0.0412 l -0.0203,-0.068 z m 0,0 -13.53505,11.00861 a 9.0002816,8.825223 0 0 0 0.004,0.005 c 15.05641,-9.52523 13.66244,-10.71774 13.66244,-10.71774 l -0.0763,-0.25336 a 9.0002816,8.825223 0 0 0 -0.0534,-0.0412 z m -13.53303,11.0123 a 9.0002816,8.825223 0 0 1 -0.004,-0.005 l -0.0281,0.0229 c 0.0105,-0.005 0.0194,-0.0131 0.0303,-0.0194 z m 7.94836,-12.9197 a 9.0002816,8.825223 0 0 0 -9.00032,8.8252 9.0002816,8.825223 0 0 0 1.04994,4.09081 l 13.53505,-11.00861 a 9.0002816,8.825223 0 0 0 -5.58467,-1.9074 z" />
    <path
       d="m 190.13261,276.21403 h -16.77316 v 2.7124 a 4.3774097,4.1660242 0 0 0 0.37,1.63528 h 16.03314 a 4.3774097,4.1660242 0 0 0 0.37002,-1.63528 z"
       style="fill:#333333;stroke-width:0.0920849"
       id="path14-2-23-7-6-6-4-9-7-6" />
    <path
       d="m 173.35945,269.33553 v 4.3477 h 16.77316 v -4.3477 z"
       style="fill:#333333;stroke-width:0.0920849"
       id="path11-8-38-2-8-4-6-5-7-5" />
    <path
       d="m 190.13261,273.68323 h -16.77316 v 2.5308 h 16.77316 z"
       style="fill:#aa0000;stroke-width:0.0920849"
       id="path13-5-5-2-5-8-1-8-4-6" />
    <path
       d="m 176.66051,305.94131 c 0.35284,-0.30184 10.41154,-9.02314 10.90939,-22.12775 v -1.53 h -10.90939 z"
       style="fill:#ffffff;stroke-width:0.0769716"
       id="path21-0-72-1-8-9-0-33-8-3" />
    <path
       d="m 192.81459,256.63623 c 0.93582,-1.63668 5.18316,-9.65959 1.91888,-15.26697 l -0.16468,-0.10247 -11.1503,16.24335 6.16491,3.83309 z"
       style="fill:#ffffff;stroke-width:0.0920849"
       id="path18-7-6-5-2-1-0-5-1-0-3" />
    <path
       d="m 165.17352,280.57982 h -16.03315 a 4.3774097,4.1660242 0 0 0 4.00746,2.53081 h 8.01841 a 4.3774097,4.1660242 0 0 0 4.00728,-2.53081 z"
       style="fill:#ffffff;stroke-width:0.0920849"
       id="path10-5-3-2-9-4-9-9-2-4" />
    <path
       d="m 153.14783,258.32205 a 4.3774097,4.1660242 0 0 0 -4.37747,4.16608 v 6.86551 h 16.77317 v -6.86551 a 4.3774097,4.1660242 0 0 0 -4.37729,-4.16608 z"
       style="fill:#ffffff;stroke-width:0.0920849"
       id="path7-7-10-3-2-0-6-3-9-8" />
    <path
       d="m 163.31014,243.74963 0.0763,0.25335 c 0,0 1.39399,1.1925 -13.66245,10.71786 a 9.0002816,8.825223 0 0 0 7.94835,4.73072 9.0002816,8.825223 0 0 0 9.00034,-8.82521 9.0002816,8.825223 0 0 0 -3.36237,-6.87672 z"
       style="fill:#ffffff;stroke-width:0.0920849"
       id="path6-2-16-4-6-4-4-6-0-0" />
    <path
       id="path4-6-2-8-3-7-1-2-1-5"
       style="fill:#aa0000;stroke-width:0.0920849"
       d="m 163.25686,243.70854 a 9.0002816,8.825223 0 0 1 0.0534,0.0412 l -0.0203,-0.068 z m 0,0 -13.53504,11.00862 a 9.0002816,8.825223 0 0 0 0.004,0.005 c 15.05642,-9.52523 13.66245,-10.71775 13.66245,-10.71775 l -0.0763,-0.25335 a 9.0002816,8.825223 0 0 0 -0.0533,-0.0412 z m -13.53303,11.0123 a 9.0002816,8.825223 0 0 1 -0.004,-0.005 l -0.0282,0.0229 c 0.0105,-0.005 0.0194,-0.0131 0.0303,-0.0194 z m 7.94837,-12.9197 a 9.0002816,8.825223 0 0 0 -9.00033,8.82521 9.0002816,8.825223 0 0 0 1.04995,4.09081 l 13.53504,-11.00862 a 9.0002816,8.825223 0 0 0 -5.58466,-1.9074 z" />
    <path
       d="m 165.54353,276.23214 h -16.77317 v 2.71239 a 4.3774097,4.1660242 0 0 0 0.37001,1.63529 h 16.03315 a 4.3774097,4.1660242 0 0 0 0.37001,-1.63529 z"
       style="fill:#333333;stroke-width:0.0920849"
       id="path14-2-23-7-6-6-4-7-0-9" />
    <path
       d="m 148.77036,269.35364 v 4.34769 h 16.77317 v -4.34769 z"
       style="fill:#333333;stroke-width:0.0920849"
       id="path11-8-38-2-8-4-6-3-6-0" />
    <path
       d="m 165.54353,273.70133 h -16.77317 v 2.53081 h 16.77317 z"
       style="fill:#aa0000;stroke-width:0.0920849"
       id="path13-5-5-2-5-8-1-7-1-0" />
    <path
       d="m 152.07144,305.95942 c 0.35282,-0.30185 10.41154,-9.02314 10.90939,-22.12775 v -1.53001 h -10.90939 z"
       style="fill:#ffffff;stroke-width:0.0769716"
       id="path21-0-72-1-8-9-0-601-8-5" />
    <path
       d="m 168.22551,256.65432 c 0.93582,-1.63667 5.18316,-9.65959 1.91889,-15.26697 l -0.16468,-0.10246 -11.15031,16.24335 6.16491,3.8331 z"
       style="fill:#ffffff;stroke-width:0.0920849"
       id="path18-7-6-5-2-1-0-5-9-0-3" />
    <path
       d="m 198.11095,61.223784 h 16.03315 a 4.3774097,4.1660242 0 0 1 -4.00747,2.530814 h -8.0184 a 4.3774097,4.1660242 0 0 1 -4.00728,-2.530814 z"
       style="fill:#ffffff;stroke-width:0.0920849"
       id="path10-5-3-2-9-4-9-32-4-41" />
    <path
       d="m 210.13663,38.966022 a 4.3774097,4.1660242 0 0 1 4.37747,4.16608 v 6.865503 h -16.77317 v -6.865503 a 4.3774097,4.1660242 0 0 1 4.3773,-4.16608 z"
       style="fill:#ffffff;stroke-width:0.0920849"
       id="path7-7-10-3-2-0-6-67-4-5" />
    <path
       d="m 199.97433,24.393601 -0.0763,0.253342 c 0,0 -1.39399,1.192508 13.66244,10.717866 a 9.0002816,8.825223 0 0 1 -7.94835,4.73072 9.0002816,8.825223 0 0 1 -9.00034,-8.825214 9.0002816,8.825223 0 0 1 3.36238,-6.876714 z"
       style="fill:#ffffff;stroke-width:0.0920849"
       id="path6-2-16-4-6-4-4-43-7-69" />
    <path
       id="path4-6-2-8-3-7-1-9-7-9"
       style="fill:#333333;stroke-width:0.0920849"
       d="m 200.02761,24.352512 a 9.0002816,8.825223 0 0 0 -0.0534,0.04112 l 0.0203,-0.068 z m 0,0 13.53504,11.008614 a 9.0002816,8.825223 0 0 1 -0.004,0.0047 C 198.50256,25.84061 199.89653,24.648088 199.89653,24.648088 l 0.0763,-0.253359 a 9.0002816,8.825223 0 0 1 0.0534,-0.04113 z m 13.53303,11.012297 a 9.0002816,8.825223 0 0 0 0.004,-0.0047 l 0.0282,0.02295 c -0.0105,-0.0055 -0.0194,-0.01308 -0.0303,-0.01935 z m -7.94837,-12.9197 a 9.0002816,8.825223 0 0 1 9.00032,8.825206 9.0002816,8.825223 0 0 1 -1.04994,4.090811 L 200.02761,24.352512 a 9.0002816,8.825223 0 0 1 5.58466,-1.907403 z" />
    <path
       d="m 197.74093,56.876097 h 16.77317 v 2.712405 a 4.3774097,4.1660242 0 0 1 -0.37,1.635282 h -16.03315 a 4.3774097,4.1660242 0 0 1 -0.37002,-1.635282 z"
       style="fill:#333333;stroke-width:0.0920849"
       id="path14-2-23-7-6-6-4-9-7-7" />
    <path
       d="m 214.5141,49.997605 v 4.347687 h -16.77317 v -4.347687 z"
       style="fill:#333333;stroke-width:0.0920849"
       id="path11-8-38-2-8-4-6-5-7-0" />
    <path
       d="m 197.74093,54.345292 h 16.77317 v 2.530805 h -16.77317 z"
       style="fill:#aa0000;stroke-width:0.0920849"
       id="path13-5-5-2-5-8-1-8-4-4" />
    <path
       d="M 211.21303,86.603377 C 210.8602,86.301535 200.80149,77.580239 200.30364,64.475626 v -1.530002 h 10.90939 z"
       style="fill:#ffffff;stroke-width:0.0769716"
       id="path21-0-72-1-8-9-0-33-8-7" />
    <path
       d="m 275.70221,312.20509 c -1.33926,1.31153 -7.9835,7.40267 -14.08016,5.4657 l -0.13587,-0.13982 12.85741,-14.86751 5.08445,5.23323 z"
       style="fill:#ffffff;stroke-width:0.0920849"
       id="path18-7-6-5-2-1-0-5-9-0" />
    <path
       d="m 250.1072,313.18971 c -1.33926,1.31154 -7.9835,7.40268 -14.08016,5.46571 l -0.13588,-0.13982 12.85742,-14.86751 5.08445,5.23323 z"
       style="fill:#ffffff;stroke-width:0.0920849"
       id="path18-7-6-5-2-1-0-5-9-0-38" />
    <path
       d="m 226.06445,313.35276 c -1.33926,1.31153 -7.98351,7.40267 -14.08016,5.4657 l -0.13588,-0.13982 12.85742,-14.86751 5.08445,5.23323 z"
       style="fill:#ffffff;stroke-width:0.0920849"
       id="path18-7-6-5-2-1-0-5-9-0-9" />
    <path
       d="m 198.72788,33.611848 c 0.0717,-1.89419 0.70989,-10.992677 6.4118,-13.928025 l 0.19276,0.0036 0.85909,19.822319 -7.21467,-0.154211 z"
       style="fill:#ffffff;stroke-width:0.0920849"
       id="path18-7-6-5-2-1-0-5-9-0-7-3" />
    <path
       d="m 118.55371,367.62899 h -16.03315 a 4.3774097,4.1660242 0 0 0 4.00747,2.53082 h 8.01841 a 4.3774097,4.1660242 0 0 0 4.00727,-2.53082 z"
       style="fill:#ffffff;stroke-width:0.0920849"
       id="path10-5-3-2-9-4-9-9-8" />
    <path
       d="m 106.52803,345.37123 a 4.3774097,4.1660242 0 0 0 -4.37747,4.16608 v 6.86551 h 16.77317 v -6.86551 a 4.3774097,4.1660242 0 0 0 -4.37729,-4.16608 z"
       style="fill:#ffffff;stroke-width:0.0920849"
       id="path7-7-10-3-2-0-6-3-2" />
    <path
       d="m 116.69034,330.79881 0.0763,0.25335 c 0,0 1.39398,1.19251 -13.66245,10.71786 a 9.0002816,8.825223 0 0 0 7.94835,4.73072 9.0002816,8.825223 0 0 0 9.00034,-8.82522 9.0002816,8.825223 0 0 0 -3.36238,-6.87671 z"
       style="fill:#ffffff;stroke-width:0.0920849"
       id="path6-2-16-4-6-4-4-6-5" />
    <path
       id="path4-6-2-8-3-7-1-2-7"
       style="fill:#aa0000;stroke-width:0.0920849"
       d="m 116.63706,330.75773 a 9.0002816,8.825223 0 0 1 0.0534,0.0412 l -0.0203,-0.068 z m 0,0 -13.53506,11.00861 a 9.0002816,8.825223 0 0 0 0.004,0.005 c 15.05637,-9.52552 13.66239,-10.71804 13.66239,-10.71804 l -0.0763,-0.25336 a 9.0002816,8.825223 0 0 0 -0.0533,-0.0412 z m -13.53303,11.01229 a 9.0002816,8.825223 0 0 1 -0.004,-0.005 l -0.0281,0.0229 c 0.0105,-0.005 0.0194,-0.0131 0.0303,-0.0194 z m 7.94835,-12.9197 a 9.0002816,8.825223 0 0 0 -9.00031,8.8252 9.0002816,8.825223 0 0 0 1.04993,4.09082 l 13.53506,-11.00861 a 9.0002816,8.825223 0 0 0 -5.58468,-1.90741 z" />
    <path
       d="m 118.92373,363.28131 h -16.77317 v 2.71241 a 4.3774097,4.1660242 0 0 0 0.37,1.63527 h 16.03315 a 4.3774097,4.1660242 0 0 0 0.37002,-1.63527 z"
       style="fill:#333333;stroke-width:0.0920849"
       id="path14-2-23-7-6-6-4-7-10" />
    <path
       d="m 102.15056,356.40282 v 4.34768 h 16.77317 v -4.34768 z"
       style="fill:#333333;stroke-width:0.0920849"
       id="path11-8-38-2-8-4-6-3-3" />
    <path
       d="m 118.92373,360.7505 h -16.77317 v 2.53081 h 16.77317 z"
       style="fill:#aa0000;stroke-width:0.0920849"
       id="path13-5-5-2-5-8-1-7-77" />
    <path
       d="m 105.45162,393.00859 c 0.35284,-0.30184 10.41155,-9.02314 10.9094,-22.12775 v -1.53 h -10.9094 z"
       style="fill:#ffffff;stroke-width:0.0769716"
       id="path21-0-72-1-8-9-0-601-81" />
    <path
       d="m 114.51855,354.26413 c 1.33926,1.31154 7.9835,7.40268 14.08016,5.46571 l 0.13587,-0.13982 -12.85741,-14.86751 -5.08445,5.23323 z"
       style="fill:#ffffff;stroke-width:0.0920849"
       id="path18-7-6-5-2-1-0-5-9-00" />
    <path
       d="m 297.40005,368.00464 h 16.03314 a 4.3774097,4.1660242 0 0 1 -4.00746,2.53081 h -8.0184 a 4.3774097,4.1660242 0 0 1 -4.00728,-2.53081 z"
       style="fill:#ffffff;stroke-width:0.0920849"
       id="path10-5-3-2-9-4-9-9-2-61-8" />
    <path
       d="m 309.42573,345.74688 a 4.3774097,4.1660242 0 0 1 4.37746,4.16607 v 6.86552 h -16.77316 v -6.86552 a 4.3774097,4.1660242 0 0 1 4.3773,-4.16607 z"
       style="fill:#ffffff;stroke-width:0.0920849"
       id="path7-7-10-3-2-0-6-3-9-5-6" />
    <path
       d="m 299.26342,331.17446 -0.0763,0.25334 c 0,0 -1.39399,1.19251 13.66245,10.71786 a 9.0002816,8.825223 0 0 1 -7.94835,4.73072 9.0002816,8.825223 0 0 1 -9.00034,-8.82521 9.0002816,8.825223 0 0 1 3.36238,-6.87671 z"
       style="fill:#ffffff;stroke-width:0.0920849"
       id="path6-2-16-4-6-4-4-6-0-9-9" />
    <path
       id="path4-6-2-8-3-7-1-2-1-6-8"
       style="fill:#aa0000;stroke-width:0.0920849"
       d="m 299.3167,331.13337 a 9.0002816,8.825223 0 0 0 -0.0534,0.0411 l 0.0203,-0.068 z m 0,0 13.53505,11.00862 a 9.0002816,8.825223 0 0 1 -0.004,0.005 C 297.79122,332.62191 299.1852,331.42938 299.1852,331.42938 l 0.0763,-0.25335 a 9.0002816,8.825223 0 0 1 0.0533,-0.0412 z m 13.53303,11.01229 a 9.0002816,8.825223 0 0 0 0.004,-0.005 l 0.0282,0.0229 c -0.0105,-0.005 -0.0194,-0.0131 -0.0303,-0.0194 z m -7.94836,-12.91969 a 9.0002816,8.825223 0 0 1 9.00032,8.8252 9.0002816,8.825223 0 0 1 -1.04994,4.09082 L 299.3167,331.13337 a 9.0002816,8.825223 0 0 1 5.58467,-1.9074 z" />
    <path
       d="m 297.03003,363.65695 h 16.77316 v 2.71241 a 4.3774097,4.1660242 0 0 1 -0.37,1.63528 h -16.03314 a 4.3774097,4.1660242 0 0 1 -0.37002,-1.63528 z"
       style="fill:#333333;stroke-width:0.0920849"
       id="path14-2-23-7-6-6-4-7-0-63-9" />
    <path
       d="m 313.80319,356.77847 v 4.34768 h -16.77316 v -4.34768 z"
       style="fill:#333333;stroke-width:0.0920849"
       id="path11-8-38-2-8-4-6-3-6-57-8" />
    <path
       d="m 297.03003,361.12615 h 16.77316 v 2.5308 h -16.77316 z"
       style="fill:#aa0000;stroke-width:0.0920849"
       id="path13-5-5-2-5-8-1-7-1-10-7" />
    <path
       d="m 310.50213,393.38424 c -0.35284,-0.30185 -10.41155,-9.02314 -10.90939,-22.12776 v -1.53 h 10.90939 z"
       style="fill:#ffffff;stroke-width:0.0769716"
       id="path21-0-72-1-8-9-0-601-8-1-3" />
    <path
       d="m 300.84829,355.42355 c -1.33926,1.31153 -7.98351,7.40267 -14.08016,5.4657 l -0.13588,-0.13982 12.85742,-14.86751 5.08445,5.23323 z"
       style="fill:#ffffff;stroke-width:0.0920849"
       id="path18-7-6-5-2-1-0-5-9-0-6-8" />
  </g>
</svg>
