<?xml version="1.0" encoding="UTF-8" standalone="no"?>
<!-- Created with Inkscape (http://www.inkscape.org/) -->

<svg
   width="400mm"
   height="400mm"
   viewBox="0 0 400 400"
   version="1.1"
   id="svg1"
   inkscape:export-filename="..\..\..\..\..\..\Projects\puntal\assets\images\Pd9fmp.png"
   inkscape:export-xdpi="96"
   inkscape:export-ydpi="96"
   inkscape:version="1.3.2 (091e20e, 2023-11-25, custom)"
   sodipodi:docname="2d6 draft.svg"
   xmlns:inkscape="http://www.inkscape.org/namespaces/inkscape"
   xmlns:sodipodi="http://sodipodi.sourceforge.net/DTD/sodipodi-0.dtd"
   xmlns="http://www.w3.org/2000/svg"
   xmlns:svg="http://www.w3.org/2000/svg">
  <sodipodi:namedview
     id="namedview1"
     pagecolor="#505050"
     bordercolor="#eeeeee"
     borderopacity="1"
     inkscape:showpageshadow="0"
     inkscape:pageopacity="0"
     inkscape:pagecheckerboard="0"
     inkscape:deskcolor="#505050"
     inkscape:document-units="mm"
     inkscape:zoom="0.69219277"
     inkscape:cx="630.60468"
     inkscape:cy="374.89557"
     inkscape:window-width="1920"
     inkscape:window-height="1009"
     inkscape:window-x="1912"
     inkscape:window-y="-8"
     inkscape:window-maximized="1"
     inkscape:current-layer="layer1"
     showguides="false" />
  <defs
     id="defs1" />
  <g
     inkscape:label="Capa 1"
     inkscape:groupmode="layer"
     id="layer1">
    <path
       d="m 197.94805,360.23637 h 12.9285 a 3.5297715,3.3601265 0 0 1 -3.23146,2.04123 h -6.46572 a 3.5297715,3.3601265 0 0 1 -3.23132,-2.04123 z"
       style="fill:#ffffff;stroke-width:0.0742625"
       id="path10-5-3-2-9-4-9-34-5" />
    <path
       d="m 207.64509,342.28425 a 3.5297715,3.3601265 0 0 1 3.52982,3.36018 v 5.5374 h -13.52523 v -5.5374 a 3.5297715,3.3601265 0 0 1 3.52969,-3.36018 z"
       style="fill:#ffffff;stroke-width:0.0742625"
       id="path7-7-10-3-2-0-6-0-1" />
    <path
       d="m 199.4506,330.5308 -0.0615,0.20433 c 0,0 -1.12405,0.96183 11.01686,8.64456 a 7.2574742,7.1180254 0 0 1 -6.40924,3.81556 7.2574742,7.1180254 0 0 1 -7.25752,-7.118 7.2574742,7.1180254 0 0 1 2.71129,-5.54645 z"
       style="fill:#ffffff;stroke-width:0.0742625"
       id="path6-2-16-4-6-4-4-61-9" />
    <path
       id="path4-6-2-8-3-7-1-94-5"
       style="fill:#aa0000;stroke-width:0.0742625"
       d="m 199.49357,330.49765 a 7.2574742,7.1180254 0 0 0 -0.043,0.0331 l 0.0164,-0.0548 z m 0,0 10.91413,8.87906 a 7.2574742,7.1180254 0 0 1 -0.003,0.004 c -12.1407,-7.6823 -11.01665,-8.64412 -11.01665,-8.64412 l 0.0615,-0.20436 a 7.2574742,7.1180254 0 0 1 0.043,-0.0331 z m 10.9125,8.88204 a 7.2574742,7.1180254 0 0 0 0.003,-0.004 l 0.0227,0.0185 c -0.008,-0.004 -0.0156,-0.0106 -0.0244,-0.0157 z m -6.40925,-10.42045 a 7.2574742,7.1180254 0 0 1 7.2575,7.11801 7.2574742,7.1180254 0 0 1 -0.84662,3.29946 l -10.91413,-8.87906 a 7.2574742,7.1180254 0 0 1 4.50325,-1.53841 z" />
    <path
       d="m 197.64968,356.7297 h 13.52523 v 2.18771 a 3.5297715,3.3601265 0 0 1 -0.29836,1.31896 h -12.9285 a 3.5297715,3.3601265 0 0 1 -0.29837,-1.31896 z"
       style="fill:#333333;stroke-width:0.0742625"
       id="path14-2-23-7-6-6-4-3-6" />
    <path
       d="m 211.17491,351.18183 v 3.50666 h -13.52523 v -3.50666 z"
       style="fill:#333333;stroke-width:0.0742625"
       id="path11-8-38-2-8-4-6-31-9" />
    <path
       d="m 197.64968,354.68849 h 13.52523 v 2.04121 h -13.52523 z"
       style="fill:#aa0000;stroke-width:0.0742625"
       id="path13-5-5-2-5-8-1-95-2" />
    <path
       d="m 208.51306,380.70638 c -0.28452,-0.24344 -8.39548,-7.27764 -8.79691,-17.84723 v -1.23404 h 8.79691 z"
       style="fill:#ffffff;stroke-width:0.0620743"
       id="path21-0-72-1-8-9-0-5-0" />
    <path
       d="m 196.64247,348.39625 c -1.44932,-0.12203 -8.39348,-0.95652 -10.30696,-5.86985 l 0.0146,-0.16276 15.26262,-0.0828 -0.54739,6.09136 z"
       style="fill:#ffffff;stroke-width:0.0742625"
       id="path18-7-6-5-2-1-0-5-90-7" />
    <path
       d="m 190.93994,360.26164 h -12.92851 a 3.5297715,3.3601265 0 0 0 3.23147,2.04123 h 6.46573 a 3.5297715,3.3601265 0 0 0 3.23131,-2.04123 z"
       style="fill:#ffffff;stroke-width:0.0742625"
       id="path10-5-3-2-9-4-9-31-4-6" />
    <path
       d="m 181.2429,342.30953 a 3.5297715,3.3601265 0 0 0 -3.52982,3.36016 v 5.53741 h 13.52523 v -5.53741 a 3.5297715,3.3601265 0 0 0 -3.52968,-3.36016 z"
       style="fill:#ffffff;stroke-width:0.0742625"
       id="path7-7-10-3-2-0-6-9-2-8" />
    <path
       d="m 189.43738,330.55608 0.0615,0.20433 c 0,0 1.12405,0.96182 -11.01686,8.64456 a 7.2574742,7.1180254 0 0 0 6.40924,3.81556 7.2574742,7.1180254 0 0 0 7.25752,-7.11801 7.2574742,7.1180254 0 0 0 -2.71129,-5.54644 z"
       style="fill:#ffffff;stroke-width:0.0742625"
       id="path6-2-16-4-6-4-4-57-7-4" />
    <path
       id="path4-6-2-8-3-7-1-7-2-5"
       style="fill:#aa0000;stroke-width:0.0742625"
       d="m 189.39443,330.52293 a 7.2574742,7.1180254 0 0 1 0.043,0.0331 l -0.0164,-0.0548 z m 0,0 -10.91413,8.87906 a 7.2574742,7.1180254 0 0 0 0.003,0.004 c 12.1409,-7.68261 11.01685,-8.64445 11.01685,-8.64445 l -0.0615,-0.20434 a 7.2574742,7.1180254 0 0 0 -0.043,-0.0331 z m -10.91251,8.88204 a 7.2574742,7.1180254 0 0 1 -0.003,-0.004 l -0.0227,0.0185 c 0.008,-0.004 0.0156,-0.0106 0.0244,-0.0156 z m 6.40925,-10.42046 a 7.2574742,7.1180254 0 0 0 -7.25751,7.11801 7.2574742,7.1180254 0 0 0 0.84664,3.29947 l 10.91413,-8.87906 a 7.2574742,7.1180254 0 0 0 -4.50326,-1.53842 z" />
    <path
       d="m 191.23831,356.75499 h -13.52523 v 2.1877 a 3.5297715,3.3601265 0 0 0 0.29835,1.31895 h 12.92851 a 3.5297715,3.3601265 0 0 0 0.29837,-1.31895 z"
       style="fill:#333333;stroke-width:0.0742625"
       id="path14-2-23-7-6-6-4-1-2-7" />
    <path
       d="m 177.71308,351.2071 v 3.50666 h 13.52523 v -3.50666 z"
       style="fill:#333333;stroke-width:0.0742625"
       id="path11-8-38-2-8-4-6-1-8-4" />
    <path
       d="m 191.23831,354.71376 h -13.52523 v 2.04123 h 13.52523 z"
       style="fill:#aa0000;stroke-width:0.0742625"
       id="path13-5-5-2-5-8-1-4-2-4" />
    <path
       d="m 180.37493,380.73166 c 0.28452,-0.24344 8.39546,-7.27766 8.79691,-17.84724 v -1.23403 h -8.79691 z"
       style="fill:#ffffff;stroke-width:0.0620743"
       id="path21-0-72-1-8-9-0-1-1-7" />
    <path
       d="m 171.46428,360.34739 h -12.92851 a 3.5297715,3.3601265 0 0 0 3.23146,2.04123 h 6.46573 a 3.5297715,3.3601265 0 0 0 3.23132,-2.04123 z"
       style="fill:#ffffff;stroke-width:0.0742625"
       id="path10-5-3-2-9-4-9-32-5-4" />
    <path
       d="m 161.76723,342.39527 a 3.5297715,3.3601265 0 0 0 -3.52982,3.36018 v 5.53741 h 13.52524 v -5.53741 a 3.5297715,3.3601265 0 0 0 -3.52969,-3.36018 z"
       style="fill:#ffffff;stroke-width:0.0742625"
       id="path7-7-10-3-2-0-6-67-7-0" />
    <path
       d="m 169.96172,330.64182 0.0615,0.20434 c 0,0 1.12406,0.96182 -11.01685,8.64456 a 7.2574742,7.1180254 0 0 0 6.40924,3.81556 7.2574742,7.1180254 0 0 0 7.25752,-7.118 7.2574742,7.1180254 0 0 0 -2.7113,-5.54646 z"
       style="fill:#ffffff;stroke-width:0.0742625"
       id="path6-2-16-4-6-4-4-43-71-3" />
    <path
       id="path4-6-2-8-3-7-1-9-4-3"
       style="fill:#aa0000;stroke-width:0.0742625"
       d="m 169.91876,330.60869 a 7.2574742,7.1180254 0 0 1 0.043,0.0331 l -0.0164,-0.0549 z m 0,0 -10.91413,8.87905 a 7.2574742,7.1180254 0 0 0 0.003,0.004 c 12.1409,-7.68261 11.01685,-8.64445 11.01685,-8.64445 l -0.0615,-0.20436 a 7.2574742,7.1180254 0 0 0 -0.043,-0.0331 z m -10.91251,8.88203 a 7.2574742,7.1180254 0 0 1 -0.003,-0.004 l -0.0227,0.0185 c 0.008,-0.004 0.0156,-0.0106 0.0244,-0.0156 z m 6.40925,-10.42046 a 7.2574742,7.1180254 0 0 0 -7.2575,7.11802 7.2574742,7.1180254 0 0 0 0.84663,3.29946 l 10.91413,-8.87905 a 7.2574742,7.1180254 0 0 0 -4.50326,-1.53843 z" />
    <path
       d="m 171.76265,356.84074 h -13.52524 v 2.1877 a 3.5297715,3.3601265 0 0 0 0.29836,1.31895 h 12.92851 a 3.5297715,3.3601265 0 0 0 0.29837,-1.31895 z"
       style="fill:#333333;stroke-width:0.0742625"
       id="path14-2-23-7-6-6-4-9-2-5" />
    <path
       d="m 158.23741,351.29286 v 3.50665 h 13.52524 v -3.50665 z"
       style="fill:#333333;stroke-width:0.0742625"
       id="path11-8-38-2-8-4-6-5-77-3" />
    <path
       d="m 171.76265,354.79951 h -13.52524 v 2.04123 h 13.52524 z"
       style="fill:#aa0000;stroke-width:0.0742625"
       id="path13-5-5-2-5-8-1-8-9-5" />
    <path
       d="m 160.89926,380.81741 c 0.28452,-0.24345 8.39547,-7.27765 8.79692,-17.84724 v -1.23403 h -8.79692 z"
       style="fill:#ffffff;stroke-width:0.0620743"
       id="path21-0-72-1-8-9-0-33-3-3" />
    <path
       d="m 151.6366,360.36198 h -12.9285 a 3.5297715,3.3601265 0 0 0 3.23146,2.04125 h 6.46574 a 3.5297715,3.3601265 0 0 0 3.2313,-2.04125 z"
       style="fill:#ffffff;stroke-width:0.0742625"
       id="path10-5-3-2-9-4-9-9-4-0" />
    <path
       d="m 141.93956,342.40988 a 3.5297715,3.3601265 0 0 0 -3.52981,3.36017 v 5.53741 h 13.52522 v -5.53741 a 3.5297715,3.3601265 0 0 0 -3.52967,-3.36017 z"
       style="fill:#ffffff;stroke-width:0.0742625"
       id="path7-7-10-3-2-0-6-3-7-0" />
    <path
       d="m 150.13405,330.65643 0.0615,0.20433 c 0,0 1.12406,0.96182 -11.01686,8.64454 a 7.2574742,7.1180254 0 0 0 6.40924,3.8156 7.2574742,7.1180254 0 0 0 7.25752,-7.11804 7.2574742,7.1180254 0 0 0 -2.71129,-5.54643 z"
       style="fill:#ffffff;stroke-width:0.0742625"
       id="path6-2-16-4-6-4-4-6-03-8" />
    <path
       id="path4-6-2-8-3-7-1-2-4-7"
       style="fill:#aa0000;stroke-width:0.0742625"
       d="m 150.09109,330.62328 a 7.2574742,7.1180254 0 0 1 0.043,0.0331 l -0.0164,-0.0548 z m 0,0 -10.91414,8.87905 a 7.2574742,7.1180254 0 0 0 0.003,0.004 c 12.1409,-7.6825 11.01684,-8.64432 11.01684,-8.64432 l -0.0615,-0.20435 a 7.2574742,7.1180254 0 0 0 -0.0429,-0.0331 z m -10.91251,8.88202 a 7.2574742,7.1180254 0 0 1 -0.003,-0.004 l -0.0227,0.0185 c 0.008,-0.004 0.0156,-0.0106 0.0244,-0.0157 z m 6.40925,-10.42045 a 7.2574742,7.1180254 0 0 0 -7.2575,7.11801 7.2574742,7.1180254 0 0 0 0.84662,3.29947 l 10.91414,-8.87905 a 7.2574742,7.1180254 0 0 0 -4.50326,-1.53843 z" />
    <path
       d="m 151.93497,356.85533 h -13.52522 v 2.18771 a 3.5297715,3.3601265 0 0 0 0.29835,1.31894 h 12.9285 a 3.5297715,3.3601265 0 0 0 0.29837,-1.31894 z"
       style="fill:#333333;stroke-width:0.0742625"
       id="path14-2-23-7-6-6-4-7-5-2" />
    <path
       d="m 138.40975,351.30746 v 3.50664 h 13.52522 v -3.50664 z"
       style="fill:#333333;stroke-width:0.0742625"
       id="path11-8-38-2-8-4-6-3-3-6" />
    <path
       d="m 151.93497,354.8141 h -13.52522 v 2.04123 h 13.52522 z"
       style="fill:#aa0000;stroke-width:0.0742625"
       id="path13-5-5-2-5-8-1-7-16-3" />
    <path
       d="m 141.07159,380.83201 c 0.28452,-0.24344 8.39547,-7.27765 8.79692,-17.84723 v -1.23403 h -8.79692 z"
       style="fill:#ffffff;stroke-width:0.0620743"
       id="path21-0-72-1-8-9-0-601-6-8" />
    <path
       d="m 148.38281,349.58248 c 1.07992,1.05783 6.43758,5.97068 11.35369,4.40839 l 0.10957,-0.11276 -10.36773,-11.99146 -4.09989,4.22088 z"
       style="fill:#ffffff;stroke-width:0.0742625"
       id="path18-7-6-5-2-1-0-5-9-6-5" />
    <path
       d="m 168.40991,350.38126 c 1.07992,1.05782 6.43758,5.97066 11.35369,4.40839 l 0.10956,-0.11278 -10.36772,-11.99145 -4.0999,4.22088 z"
       style="fill:#ffffff;stroke-width:0.0742625"
       id="path18-7-6-5-2-1-0-5-9-8-7-2" />
    <path
       d="m 217.95363,360.24282 h 12.92849 a 3.5297715,3.3601265 0 0 1 -3.23146,2.04123 h -6.46572 a 3.5297715,3.3601265 0 0 1 -3.23131,-2.04123 z"
       style="fill:#ffffff;stroke-width:0.0742625"
       id="path10-5-3-2-9-4-9-31-9-9-8" />
    <path
       d="m 227.65066,342.29071 a 3.5297715,3.3601265 0 0 1 3.52983,3.36017 v 5.53741 h -13.52523 v -5.53741 a 3.5297715,3.3601265 0 0 1 3.52968,-3.36017 z"
       style="fill:#ffffff;stroke-width:0.0742625"
       id="path7-7-10-3-2-0-6-9-7-3-6" />
    <path
       d="m 219.45617,330.53727 -0.0615,0.20432 c 0,0 -1.12407,0.96183 11.01685,8.64454 a 7.2574742,7.1180254 0 0 1 -6.40924,3.81559 7.2574742,7.1180254 0 0 1 -7.25752,-7.11802 7.2574742,7.1180254 0 0 1 2.7113,-5.54643 z"
       style="fill:#ffffff;stroke-width:0.0742625"
       id="path6-2-16-4-6-4-4-57-8-7-6" />
    <path
       id="path4-6-2-8-3-7-1-7-6-7-1"
       style="fill:#aa0000;stroke-width:0.0742625"
       d="m 219.49915,330.50411 a 7.2574742,7.1180254 0 0 0 -0.043,0.0331 l 0.0164,-0.0548 z m 0,0 10.91412,8.87905 a 7.2574742,7.1180254 0 0 1 -0.003,0.004 C 218.26903,331.70485 219.39308,330.743 219.39308,330.743 l 0.0615,-0.20434 a 7.2574742,7.1180254 0 0 1 0.043,-0.0331 z m 10.91249,8.88202 a 7.2574742,7.1180254 0 0 0 0.003,-0.004 l 0.0227,0.0185 c -0.008,-0.004 -0.0156,-0.0106 -0.0244,-0.0157 z m -6.40924,-10.42044 a 7.2574742,7.1180254 0 0 1 7.2575,7.11801 7.2574742,7.1180254 0 0 1 -0.84663,3.29946 l -10.91412,-8.87905 a 7.2574742,7.1180254 0 0 1 4.50325,-1.53842 z" />
    <path
       d="m 217.65526,356.73616 h 13.52523 v 2.18771 a 3.5297715,3.3601265 0 0 1 -0.29837,1.31895 h -12.92849 a 3.5297715,3.3601265 0 0 1 -0.29837,-1.31895 z"
       style="fill:#333333;stroke-width:0.0742625"
       id="path14-2-23-7-6-6-4-1-4-7-4" />
    <path
       d="m 231.18049,351.18829 v 3.50664 h -13.52523 v -3.50664 z"
       style="fill:#333333;stroke-width:0.0742625"
       id="path11-8-38-2-8-4-6-1-0-2-4" />
    <path
       d="m 217.65526,354.69493 h 13.52523 v 2.04123 h -13.52523 z"
       style="fill:#aa0000;stroke-width:0.0742625"
       id="path13-5-5-2-5-8-1-4-1-2-7" />
    <path
       d="m 228.51864,380.71284 c -0.28452,-0.24345 -8.39547,-7.27765 -8.79693,-17.84723 v -1.23403 h 8.79693 z"
       style="fill:#ffffff;stroke-width:0.0620743"
       id="path21-0-72-1-8-9-0-1-2-3-2" />
    <path
       d="m 237.42929,360.32857 h 12.9285 a 3.5297715,3.3601265 0 0 1 -3.23146,2.04124 h -6.46572 a 3.5297715,3.3601265 0 0 1 -3.23132,-2.04124 z"
       style="fill:#ffffff;stroke-width:0.0742625"
       id="path10-5-3-2-9-4-9-32-4-2-8" />
    <path
       d="m 247.12633,342.37646 a 3.5297715,3.3601265 0 0 1 3.52982,3.36017 v 5.53741 h -13.52523 v -5.53741 a 3.5297715,3.3601265 0 0 1 3.52969,-3.36017 z"
       style="fill:#ffffff;stroke-width:0.0742625"
       id="path7-7-10-3-2-0-6-67-4-7-4" />
    <path
       d="m 238.93183,330.62301 -0.0615,0.20433 c 0,0 -1.12406,0.96183 11.01686,8.64455 a 7.2574742,7.1180254 0 0 1 -6.40924,3.81557 7.2574742,7.1180254 0 0 1 -7.25752,-7.11801 7.2574742,7.1180254 0 0 1 2.71129,-5.54644 z"
       style="fill:#ffffff;stroke-width:0.0742625"
       id="path6-2-16-4-6-4-4-43-7-4-7" />
    <path
       id="path4-6-2-8-3-7-1-9-7-49-4"
       style="fill:#aa0000;stroke-width:0.0742625"
       d="m 238.97481,330.58986 a 7.2574742,7.1180254 0 0 0 -0.043,0.0331 l 0.0164,-0.0548 z m 0,0 10.91412,8.87905 a 7.2574742,7.1180254 0 0 1 -0.003,0.004 c -12.1409,-7.6826 -11.01686,-8.64444 -11.01686,-8.64444 l 0.0615,-0.20434 a 7.2574742,7.1180254 0 0 1 0.043,-0.0331 z m 10.9125,8.88203 a 7.2574742,7.1180254 0 0 0 0.003,-0.004 l 0.0227,0.0185 c -0.008,-0.004 -0.0156,-0.0106 -0.0244,-0.0156 z m -6.40925,-10.42044 a 7.2574742,7.1180254 0 0 1 7.25751,7.118 7.2574742,7.1180254 0 0 1 -0.84664,3.29946 l -10.91412,-8.87905 a 7.2574742,7.1180254 0 0 1 4.50325,-1.53841 z" />
    <path
       d="m 237.13092,356.82191 h 13.52523 v 2.18771 a 3.5297715,3.3601265 0 0 1 -0.29836,1.31895 h -12.9285 a 3.5297715,3.3601265 0 0 1 -0.29837,-1.31895 z"
       style="fill:#333333;stroke-width:0.0742625"
       id="path14-2-23-7-6-6-4-9-7-2-1" />
    <path
       d="m 250.65615,351.27404 v 3.50664 h -13.52523 v -3.50664 z"
       style="fill:#333333;stroke-width:0.0742625"
       id="path11-8-38-2-8-4-6-5-7-8-9" />
    <path
       d="m 237.13092,354.78068 h 13.52523 v 2.04123 h -13.52523 z"
       style="fill:#aa0000;stroke-width:0.0742625"
       id="path13-5-5-2-5-8-1-8-4-7-6" />
    <path
       d="m 247.99429,380.79859 c -0.28451,-0.24345 -8.39546,-7.27765 -8.79691,-17.84723 v -1.23404 h 8.79691 z"
       style="fill:#ffffff;stroke-width:0.0620743"
       id="path21-0-72-1-8-9-0-33-8-12-1" />
    <path
       d="m 257.25696,360.34317 h 12.9285 a 3.5297715,3.3601265 0 0 1 -3.23146,2.04123 h -6.46572 a 3.5297715,3.3601265 0 0 1 -3.23132,-2.04123 z"
       style="fill:#ffffff;stroke-width:0.0742625"
       id="path10-5-3-2-9-4-9-9-2-5-1" />
    <path
       d="m 266.954,342.39106 a 3.5297715,3.3601265 0 0 1 3.52982,3.36017 v 5.53741 h -13.52523 v -5.53741 a 3.5297715,3.3601265 0 0 1 3.52969,-3.36017 z"
       style="fill:#ffffff;stroke-width:0.0742625"
       id="path7-7-10-3-2-0-6-3-9-5-4" />
    <path
       d="m 258.75951,330.6376 -0.0615,0.20434 c 0,0 -1.12406,0.96182 11.01686,8.64455 a 7.2574742,7.1180254 0 0 1 -6.40923,3.81558 7.2574742,7.1180254 0 0 1 -7.25752,-7.11801 7.2574742,7.1180254 0 0 1 2.71128,-5.54646 z"
       style="fill:#ffffff;stroke-width:0.0742625"
       id="path6-2-16-4-6-4-4-6-0-7-86" />
    <path
       id="path4-6-2-8-3-7-1-2-1-0-4"
       style="fill:#aa0000;stroke-width:0.0742625"
       d="m 258.80248,330.60447 a 7.2574742,7.1180254 0 0 0 -0.043,0.0331 l 0.0164,-0.0548 z m 0,0 10.91412,8.87905 a 7.2574742,7.1180254 0 0 1 -0.003,0.004 c -12.141,-7.68249 -11.01695,-8.64433 -11.01695,-8.64433 l 0.0615,-0.20435 a 7.2574742,7.1180254 0 0 1 0.0429,-0.0331 z m 10.9125,8.88202 a 7.2574742,7.1180254 0 0 0 0.003,-0.004 l 0.0227,0.0185 c -0.008,-0.004 -0.0156,-0.0106 -0.0244,-0.0156 z m -6.40925,-10.42045 a 7.2574742,7.1180254 0 0 1 7.2575,7.11802 7.2574742,7.1180254 0 0 1 -0.84663,3.29946 l -10.91412,-8.87905 a 7.2574742,7.1180254 0 0 1 4.50325,-1.53843 z" />
    <path
       d="m 256.95859,356.83652 h 13.52523 v 2.18769 a 3.5297715,3.3601265 0 0 1 -0.29836,1.31896 h -12.9285 a 3.5297715,3.3601265 0 0 1 -0.29837,-1.31896 z"
       style="fill:#333333;stroke-width:0.0742625"
       id="path14-2-23-7-6-6-4-7-0-8-5" />
    <path
       d="m 270.48382,351.28864 v 3.50664 h -13.52523 v -3.50664 z"
       style="fill:#333333;stroke-width:0.0742625"
       id="path11-8-38-2-8-4-6-3-6-8-3" />
    <path
       d="m 256.95859,354.79528 h 13.52523 v 2.04124 h -13.52523 z"
       style="fill:#aa0000;stroke-width:0.0742625"
       id="path13-5-5-2-5-8-1-7-1-9-2" />
    <path
       d="m 267.82196,380.81321 c -0.28451,-0.24346 -8.39546,-7.27767 -8.7969,-17.84726 v -1.23402 h 8.7969 z"
       style="fill:#ffffff;stroke-width:0.0620743"
       id="path21-0-72-1-8-9-0-601-8-2-3" />
    <path
       d="m 260.03749,350.19583 c -1.07993,1.05782 -6.43759,5.97066 -11.35369,4.40839 l -0.10957,-0.11277 10.36772,-11.99147 4.0999,4.22089 z"
       style="fill:#ffffff;stroke-width:0.0742625"
       id="path18-7-6-5-2-1-0-5-9-0-70-2" />
    <path
       d="m 276.50882,360.62482 h 12.92849 a 3.5297715,3.3601265 0 0 1 -3.23146,2.04124 h -6.46572 a 3.5297715,3.3601265 0 0 1 -3.23131,-2.04124 z"
       style="fill:#ffffff;stroke-width:0.0742625"
       id="path10-5-3-2-9-4-9-9-2-5-3-73" />
    <path
       d="m 286.20585,342.6727 a 3.5297715,3.3601265 0 0 1 3.52982,3.36018 v 5.53741 h -13.52522 v -5.53741 a 3.5297715,3.3601265 0 0 1 3.52968,-3.36018 z"
       style="fill:#ffffff;stroke-width:0.0742625"
       id="path7-7-10-3-2-0-6-3-9-5-7-4" />
    <path
       d="m 278.01136,330.91925 -0.0615,0.20435 c 0,0 -1.12406,0.96181 11.01687,8.64453 a 7.2574742,7.1180254 0 0 1 -6.40923,3.81558 7.2574742,7.1180254 0 0 1 -7.25753,-7.118 7.2574742,7.1180254 0 0 1 2.71129,-5.54646 z"
       style="fill:#ffffff;stroke-width:0.0742625"
       id="path6-2-16-4-6-4-4-6-0-7-8-5" />
    <path
       id="path4-6-2-8-3-7-1-2-1-0-8-2"
       style="fill:#aa0000;stroke-width:0.0742625"
       d="m 278.05433,330.88611 a 7.2574742,7.1180254 0 0 0 -0.043,0.0331 l 0.0164,-0.0548 z m 0,0 10.91413,8.87906 a 7.2574742,7.1180254 0 0 1 -0.003,0.004 c -12.14099,-7.68249 -11.01695,-8.64434 -11.01695,-8.64434 l 0.0615,-0.20433 a 7.2574742,7.1180254 0 0 1 0.0429,-0.0331 z m 10.9125,8.88202 a 7.2574742,7.1180254 0 0 0 0.003,-0.004 l 0.0227,0.0185 c -0.008,-0.004 -0.0156,-0.0106 -0.0244,-0.0156 z m -6.40924,-10.42043 a 7.2574742,7.1180254 0 0 1 7.2575,7.11801 7.2574742,7.1180254 0 0 1 -0.84663,3.29946 l -10.91413,-8.87906 a 7.2574742,7.1180254 0 0 1 4.50326,-1.53841 z" />
    <path
       d="m 276.21045,357.11816 h 13.52522 v 2.18771 a 3.5297715,3.3601265 0 0 1 -0.29836,1.31895 h -12.92849 a 3.5297715,3.3601265 0 0 1 -0.29837,-1.31895 z"
       style="fill:#333333;stroke-width:0.0742625"
       id="path14-2-23-7-6-6-4-7-0-8-7-5" />
    <path
       d="m 289.73567,351.57029 v 3.50665 h -13.52522 v -3.50665 z"
       style="fill:#333333;stroke-width:0.0742625"
       id="path11-8-38-2-8-4-6-3-6-8-8-7" />
    <path
       d="m 276.21045,355.07694 h 13.52522 v 2.04122 h -13.52522 z"
       style="fill:#aa0000;stroke-width:0.0742625"
       id="path13-5-5-2-5-8-1-7-1-9-7-7" />
    <path
       d="m 287.07382,381.09485 c -0.28451,-0.24346 -8.39546,-7.27765 -8.79691,-17.84725 v -1.23403 h 8.79691 z"
       style="fill:#ffffff;stroke-width:0.0620743"
       id="path21-0-72-1-8-9-0-601-8-2-7-1" />
    <path
       d="m 279.28934,350.47748 c -1.07992,1.05782 -6.43758,5.97066 -11.35369,4.40838 l -0.10957,-0.11276 10.36773,-11.99147 4.09989,4.22089 z"
       style="fill:#ffffff;stroke-width:0.0742625"
       id="path18-7-6-5-2-1-0-5-9-0-70-7-4" />
    <path
       d="m 239.39867,350.98998 c -1.07993,1.05783 -6.43759,5.97066 -11.35368,4.40839 l -0.10957,-0.11277 10.36772,-11.99145 4.0999,4.22087 z"
       style="fill:#ffffff;stroke-width:0.0742625"
       id="path18-7-6-5-2-1-0-5-9-0-38-0-5" />
    <path
       d="m 220.01154,351.12149 c -1.07993,1.05781 -6.43758,5.97066 -11.35369,4.40839 l -0.10956,-0.11278 10.36772,-11.99146 4.09989,4.22089 z"
       style="fill:#ffffff;stroke-width:0.0742625"
       id="path18-7-6-5-2-1-0-5-9-0-9-0-8" />
    <path
       d="m 132.13909,360.46468 h -12.9285 a 3.5297715,3.3601265 0 0 0 3.23146,2.04124 h 6.46573 a 3.5297715,3.3601265 0 0 0 3.23131,-2.04124 z"
       style="fill:#ffffff;stroke-width:0.0742625"
       id="path10-5-3-2-9-4-9-9-2-5-4-9" />
    <path
       d="m 122.44205,342.51257 a 3.5297715,3.3601265 0 0 0 -3.52981,3.36018 v 5.5374 h 13.52523 v -5.5374 a 3.5297715,3.3601265 0 0 0 -3.52969,-3.36018 z"
       style="fill:#ffffff;stroke-width:0.0742625"
       id="path7-7-10-3-2-0-6-3-9-5-73-9" />
    <path
       d="m 130.63654,330.75912 0.0615,0.20434 c 0,0 1.12406,0.96181 -11.01687,8.64454 a 7.2574742,7.1180254 0 0 0 6.40924,3.81558 7.2574742,7.1180254 0 0 0 7.25753,-7.11801 7.2574742,7.1180254 0 0 0 -2.7113,-5.54645 z"
       style="fill:#ffffff;stroke-width:0.0742625"
       id="path6-2-16-4-6-4-4-6-0-7-5-7" />
    <path
       id="path4-6-2-8-3-7-1-2-1-0-9-6"
       style="fill:#aa0000;stroke-width:0.0742625"
       d="m 130.59357,330.72598 a 7.2574742,7.1180254 0 0 1 0.043,0.0331 l -0.0164,-0.0549 z m 0,0 -10.91413,8.87906 a 7.2574742,7.1180254 0 0 0 0.003,0.004 c 12.141,-7.68249 11.01695,-8.64434 11.01695,-8.64434 l -0.0615,-0.20434 a 7.2574742,7.1180254 0 0 0 -0.0429,-0.0331 z m -10.9125,8.88202 a 7.2574742,7.1180254 0 0 1 -0.003,-0.004 l -0.0227,0.0185 c 0.008,-0.004 0.0156,-0.0106 0.0244,-0.0156 z m 6.40925,-10.42044 a 7.2574742,7.1180254 0 0 0 -7.25751,7.11801 7.2574742,7.1180254 0 0 0 0.84663,3.29947 l 10.91413,-8.87906 a 7.2574742,7.1180254 0 0 0 -4.50325,-1.53842 z" />
    <path
       d="m 132.43747,356.95803 h -13.52523 v 2.18771 a 3.5297715,3.3601265 0 0 0 0.29835,1.31894 h 12.9285 a 3.5297715,3.3601265 0 0 0 0.29838,-1.31894 z"
       style="fill:#333333;stroke-width:0.0742625"
       id="path14-2-23-7-6-6-4-7-0-8-4-2" />
    <path
       d="m 118.91224,351.41015 v 3.50666 h 13.52523 v -3.50666 z"
       style="fill:#333333;stroke-width:0.0742625"
       id="path11-8-38-2-8-4-6-3-6-8-6-3" />
    <path
       d="m 132.43747,354.91681 h -13.52523 v 2.04122 h 13.52523 z"
       style="fill:#aa0000;stroke-width:0.0742625"
       id="path13-5-5-2-5-8-1-7-1-9-5-6" />
    <path
       d="m 121.57408,380.93472 c 0.28452,-0.24346 8.39547,-7.27766 8.79692,-17.84726 v -1.23402 h -8.79692 z"
       style="fill:#ffffff;stroke-width:0.0620743"
       id="path21-0-72-1-8-9-0-601-8-2-4-2" />
    <path
       d="m 129.35857,350.31734 c 1.07992,1.05783 6.43759,5.97066 11.35369,4.40839 l 0.10956,-0.11276 -10.36771,-11.99147 -4.09991,4.22088 z"
       style="fill:#ffffff;stroke-width:0.0742625"
       id="path18-7-6-5-2-1-0-5-9-0-70-77-2" />
    <path
       d="m 197.69668,324.47609 h 12.9285 a 3.5297715,3.3601265 0 0 1 -3.23146,2.04123 H 200.928 a 3.5297715,3.3601265 0 0 1 -3.23132,-2.04123 z"
       style="fill:#ffffff;stroke-width:0.0742625"
       id="path10-5-3-2-9-4-9-34" />
    <path
       d="m 207.39372,306.52397 a 3.5297715,3.3601265 0 0 1 3.52982,3.36018 v 5.53741 h -13.52522 v -5.53741 a 3.5297715,3.3601265 0 0 1 3.52968,-3.36018 z"
       style="fill:#ffffff;stroke-width:0.0742625"
       id="path7-7-10-3-2-0-6-0" />
    <path
       d="m 199.19923,294.77052 -0.0615,0.20433 c 0,0 -1.12405,0.96183 11.01687,8.64456 a 7.2574742,7.1180254 0 0 1 -6.40924,3.81556 7.2574742,7.1180254 0 0 1 -7.25753,-7.118 7.2574742,7.1180254 0 0 1 2.7113,-5.54645 z"
       style="fill:#ffffff;stroke-width:0.0742625"
       id="path6-2-16-4-6-4-4-61" />
    <path
       id="path4-6-2-8-3-7-1-94"
       style="fill:#aa0000;stroke-width:0.0742625"
       d="m 199.2422,294.73737 a 7.2574742,7.1180254 0 0 0 -0.043,0.0331 l 0.0164,-0.0548 z m 0,0 10.91413,8.87906 a 7.2574742,7.1180254 0 0 1 -0.003,0.004 c -12.14071,-7.6823 -11.01665,-8.64412 -11.01665,-8.64412 l 0.0615,-0.20436 a 7.2574742,7.1180254 0 0 1 0.043,-0.0331 z m 10.9125,8.88204 a 7.2574742,7.1180254 0 0 0 0.003,-0.004 l 0.0227,0.0185 c -0.008,-0.004 -0.0156,-0.0106 -0.0244,-0.0156 z m -6.40925,-10.42045 a 7.2574742,7.1180254 0 0 1 7.25751,7.11801 7.2574742,7.1180254 0 0 1 -0.84663,3.29946 l -10.91413,-8.87906 a 7.2574742,7.1180254 0 0 1 4.50325,-1.53841 z" />
    <path
       d="m 197.39832,320.96942 h 13.52522 v 2.18771 a 3.5297715,3.3601265 0 0 1 -0.29836,1.31896 h -12.9285 a 3.5297715,3.3601265 0 0 1 -0.29836,-1.31896 z"
       style="fill:#333333;stroke-width:0.0742625"
       id="path14-2-23-7-6-6-4-3" />
    <path
       d="m 210.92354,315.42156 v 3.50665 h -13.52522 v -3.50665 z"
       style="fill:#333333;stroke-width:0.0742625"
       id="path11-8-38-2-8-4-6-31" />
    <path
       d="m 197.39832,318.92821 h 13.52522 v 2.04121 h -13.52522 z"
       style="fill:#aa0000;stroke-width:0.0742625"
       id="path13-5-5-2-5-8-1-95" />
    <path
       d="m 208.26169,344.9461 c -0.28452,-0.24344 -8.39547,-7.27764 -8.79691,-17.84723 v -1.23404 h 8.79691 z"
       style="fill:#ffffff;stroke-width:0.0620743"
       id="path21-0-72-1-8-9-0-5" />
    <path
       d="m 196.39111,312.63598 c -1.44932,-0.12204 -8.39348,-0.95654 -10.30697,-5.86986 l 0.0146,-0.16276 15.26262,-0.0828 -0.54739,6.09136 z"
       style="fill:#ffffff;stroke-width:0.0742625"
       id="path18-7-6-5-2-1-0-5-90" />
    <path
       d="m 190.68858,324.50136 h -12.92852 a 3.5297715,3.3601265 0 0 0 3.23147,2.04123 h 6.46573 a 3.5297715,3.3601265 0 0 0 3.23132,-2.04123 z"
       style="fill:#ffffff;stroke-width:0.0742625"
       id="path10-5-3-2-9-4-9-31-4" />
    <path
       d="m 180.99153,306.54925 a 3.5297715,3.3601265 0 0 0 -3.52982,3.36016 v 5.53742 h 13.52524 v -5.53742 a 3.5297715,3.3601265 0 0 0 -3.52969,-3.36016 z"
       style="fill:#ffffff;stroke-width:0.0742625"
       id="path7-7-10-3-2-0-6-9-2" />
    <path
       d="m 189.18601,294.7958 0.0615,0.20433 c 0,0 1.12405,0.96182 -11.01686,8.64456 a 7.2574742,7.1180254 0 0 0 6.40924,3.81556 7.2574742,7.1180254 0 0 0 7.25752,-7.11801 7.2574742,7.1180254 0 0 0 -2.71129,-5.54644 z"
       style="fill:#ffffff;stroke-width:0.0742625"
       id="path6-2-16-4-6-4-4-57-7" />
    <path
       id="path4-6-2-8-3-7-1-7-2"
       style="fill:#aa0000;stroke-width:0.0742625"
       d="m 189.14306,294.76265 a 7.2574742,7.1180254 0 0 1 0.043,0.0331 l -0.0164,-0.0548 z m 0,0 -10.91413,8.87906 a 7.2574742,7.1180254 0 0 0 0.003,0.004 c 12.1409,-7.68261 11.01685,-8.64445 11.01685,-8.64445 l -0.0615,-0.20434 a 7.2574742,7.1180254 0 0 0 -0.043,-0.0331 z m -10.91251,8.88204 a 7.2574742,7.1180254 0 0 1 -0.003,-0.004 l -0.0227,0.0185 c 0.008,-0.004 0.0156,-0.0106 0.0244,-0.0156 z m 6.40925,-10.42046 a 7.2574742,7.1180254 0 0 0 -7.25751,7.11801 7.2574742,7.1180254 0 0 0 0.84664,3.29947 l 10.91413,-8.87906 a 7.2574742,7.1180254 0 0 0 -4.50326,-1.53842 z" />
    <path
       d="m 190.98695,320.99471 h -13.52524 v 2.1877 a 3.5297715,3.3601265 0 0 0 0.29835,1.31895 h 12.92852 a 3.5297715,3.3601265 0 0 0 0.29837,-1.31895 z"
       style="fill:#333333;stroke-width:0.0742625"
       id="path14-2-23-7-6-6-4-1-2" />
    <path
       d="m 177.46171,315.44683 v 3.50665 h 13.52524 v -3.50665 z"
       style="fill:#333333;stroke-width:0.0742625"
       id="path11-8-38-2-8-4-6-1-8" />
    <path
       d="m 190.98695,318.95348 h -13.52524 v 2.04123 h 13.52524 z"
       style="fill:#aa0000;stroke-width:0.0742625"
       id="path13-5-5-2-5-8-1-4-2" />
    <path
       d="m 180.12356,344.97138 c 0.28452,-0.24344 8.39547,-7.27766 8.79691,-17.84724 v -1.23403 h -8.79691 z"
       style="fill:#ffffff;stroke-width:0.0620743"
       id="path21-0-72-1-8-9-0-1-1" />
    <path
       d="M 171.21291,324.58711 H 158.2844 a 3.5297715,3.3601265 0 0 0 3.23147,2.04123 h 6.46573 a 3.5297715,3.3601265 0 0 0 3.23131,-2.04123 z"
       style="fill:#ffffff;stroke-width:0.0742625"
       id="path10-5-3-2-9-4-9-32-5" />
    <path
       d="m 161.51587,306.635 a 3.5297715,3.3601265 0 0 0 -3.52982,3.36017 v 5.53741 h 13.52523 v -5.53741 A 3.5297715,3.3601265 0 0 0 167.9816,306.635 Z"
       style="fill:#ffffff;stroke-width:0.0742625"
       id="path7-7-10-3-2-0-6-67-7" />
    <path
       d="m 169.71036,294.88155 0.0615,0.20433 c 0,0 1.12407,0.96182 -11.01685,8.64455 a 7.2574742,7.1180254 0 0 0 6.40924,3.81557 7.2574742,7.1180254 0 0 0 7.25752,-7.118 7.2574742,7.1180254 0 0 0 -2.7113,-5.54645 z"
       style="fill:#ffffff;stroke-width:0.0742625"
       id="path6-2-16-4-6-4-4-43-71" />
    <path
       id="path4-6-2-8-3-7-1-9-4"
       style="fill:#aa0000;stroke-width:0.0742625"
       d="m 169.66739,294.84841 a 7.2574742,7.1180254 0 0 1 0.043,0.0331 l -0.0164,-0.0549 z m 0,0 -10.91413,8.87905 a 7.2574742,7.1180254 0 0 0 0.003,0.004 c 12.1409,-7.68261 11.01684,-8.64445 11.01684,-8.64445 l -0.0615,-0.20435 a 7.2574742,7.1180254 0 0 0 -0.043,-0.0331 z m -10.9125,8.88202 a 7.2574742,7.1180254 0 0 1 -0.003,-0.004 l -0.0227,0.0185 c 0.008,-0.004 0.0156,-0.0106 0.0244,-0.0156 z m 6.40924,-10.42045 a 7.2574742,7.1180254 0 0 0 -7.2575,7.11802 7.2574742,7.1180254 0 0 0 0.84663,3.29946 l 10.91413,-8.87905 a 7.2574742,7.1180254 0 0 0 -4.50326,-1.53843 z" />
    <path
       d="m 171.51128,321.08046 h -13.52523 v 2.1877 a 3.5297715,3.3601265 0 0 0 0.29835,1.31895 h 12.92851 a 3.5297715,3.3601265 0 0 0 0.29837,-1.31895 z"
       style="fill:#333333;stroke-width:0.0742625"
       id="path14-2-23-7-6-6-4-9-2" />
    <path
       d="m 157.98605,315.53258 v 3.50665 h 13.52523 v -3.50665 z"
       style="fill:#333333;stroke-width:0.0742625"
       id="path11-8-38-2-8-4-6-5-77" />
    <path
       d="m 171.51128,319.03923 h -13.52523 v 2.04123 h 13.52523 z"
       style="fill:#aa0000;stroke-width:0.0742625"
       id="path13-5-5-2-5-8-1-8-9" />
    <path
       d="m 160.64789,345.05713 c 0.28452,-0.24345 8.39547,-7.27765 8.79692,-17.84724 v -1.23403 h -8.79692 z"
       style="fill:#ffffff;stroke-width:0.0620743"
       id="path21-0-72-1-8-9-0-33-3" />
    <path
       d="m 151.38524,324.6017 h -12.92851 a 3.5297715,3.3601265 0 0 0 3.23147,2.04125 h 6.46573 a 3.5297715,3.3601265 0 0 0 3.23131,-2.04125 z"
       style="fill:#ffffff;stroke-width:0.0742625"
       id="path10-5-3-2-9-4-9-9-4" />
    <path
       d="m 141.6882,306.6496 a 3.5297715,3.3601265 0 0 0 -3.52982,3.36017 v 5.53741 h 13.52522 v -5.53741 a 3.5297715,3.3601265 0 0 0 -3.52967,-3.36017 z"
       style="fill:#ffffff;stroke-width:0.0742625"
       id="path7-7-10-3-2-0-6-3-7" />
    <path
       d="m 149.88269,294.89615 0.0615,0.20433 c 0,0 1.12405,0.96182 -11.01687,8.64454 a 7.2574742,7.1180254 0 0 0 6.40924,3.8156 7.2574742,7.1180254 0 0 0 7.25753,-7.11804 7.2574742,7.1180254 0 0 0 -2.7113,-5.54643 z"
       style="fill:#ffffff;stroke-width:0.0742625"
       id="path6-2-16-4-6-4-4-6-03" />
    <path
       id="path4-6-2-8-3-7-1-2-4"
       style="fill:#aa0000;stroke-width:0.0742625"
       d="m 149.83972,294.86301 a 7.2574742,7.1180254 0 0 1 0.043,0.0331 l -0.0164,-0.0548 z m 0,0 -10.91413,8.87904 a 7.2574742,7.1180254 0 0 0 0.003,0.004 c 12.1409,-7.6825 11.01685,-8.64432 11.01685,-8.64432 l -0.0615,-0.20435 a 7.2574742,7.1180254 0 0 0 -0.0429,-0.0331 z m -10.9125,8.88201 a 7.2574742,7.1180254 0 0 1 -0.003,-0.004 l -0.0227,0.0185 c 0.008,-0.004 0.0156,-0.0106 0.0244,-0.0156 z m 6.40925,-10.42045 a 7.2574742,7.1180254 0 0 0 -7.25751,7.11801 7.2574742,7.1180254 0 0 0 0.84663,3.29947 l 10.91413,-8.87904 a 7.2574742,7.1180254 0 0 0 -4.50325,-1.53844 z" />
    <path
       d="m 151.6836,321.09505 h -13.52522 v 2.18771 a 3.5297715,3.3601265 0 0 0 0.29835,1.31894 h 12.92851 a 3.5297715,3.3601265 0 0 0 0.29836,-1.31894 z"
       style="fill:#333333;stroke-width:0.0742625"
       id="path14-2-23-7-6-6-4-7-5" />
    <path
       d="m 138.15838,315.54718 v 3.50663 h 13.52522 v -3.50663 z"
       style="fill:#333333;stroke-width:0.0742625"
       id="path11-8-38-2-8-4-6-3-3" />
    <path
       d="m 151.6836,319.05381 h -13.52522 v 2.04124 h 13.52522 z"
       style="fill:#aa0000;stroke-width:0.0742625"
       id="path13-5-5-2-5-8-1-7-16" />
    <path
       d="m 140.82023,345.07173 c 0.28451,-0.24344 8.39546,-7.27765 8.79691,-17.84723 v -1.23403 h -8.79691 z"
       style="fill:#ffffff;stroke-width:0.0620743"
       id="path21-0-72-1-8-9-0-601-6" />
    <path
       d="m 148.13144,313.8222 c 1.07993,1.05783 6.43758,5.97067 11.35369,4.40839 l 0.10957,-0.11277 -10.36773,-11.99145 -4.09989,4.22088 z"
       style="fill:#ffffff;stroke-width:0.0742625"
       id="path18-7-6-5-2-1-0-5-9-6" />
    <path
       d="m 168.15854,314.62098 c 1.07993,1.05782 6.43758,5.97066 11.35369,4.40839 l 0.10956,-0.11278 -10.36772,-11.99145 -4.0999,4.22088 z"
       style="fill:#ffffff;stroke-width:0.0742625"
       id="path18-7-6-5-2-1-0-5-9-8-7" />
    <path
       d="m 217.70226,324.48254 h 12.9285 a 3.5297715,3.3601265 0 0 1 -3.23146,2.04123 h -6.46573 a 3.5297715,3.3601265 0 0 1 -3.23131,-2.04123 z"
       style="fill:#ffffff;stroke-width:0.0742625"
       id="path10-5-3-2-9-4-9-31-9-9" />
    <path
       d="m 227.3993,306.53043 a 3.5297715,3.3601265 0 0 1 3.52982,3.36018 v 5.5374 h -13.52523 v -5.5374 a 3.5297715,3.3601265 0 0 1 3.52968,-3.36018 z"
       style="fill:#ffffff;stroke-width:0.0742625"
       id="path7-7-10-3-2-0-6-9-7-3" />
    <path
       d="m 219.2048,294.77698 -0.0615,0.20433 c 0,0 -1.12407,0.96183 11.01685,8.64454 a 7.2574742,7.1180254 0 0 1 -6.40924,3.81559 7.2574742,7.1180254 0 0 1 -7.25752,-7.11802 7.2574742,7.1180254 0 0 1 2.7113,-5.54644 z"
       style="fill:#ffffff;stroke-width:0.0742625"
       id="path6-2-16-4-6-4-4-57-8-7" />
    <path
       id="path4-6-2-8-3-7-1-7-6-7"
       style="fill:#aa0000;stroke-width:0.0742625"
       d="m 219.24778,294.74383 a 7.2574742,7.1180254 0 0 0 -0.043,0.0331 l 0.0164,-0.0548 z m 0,0 10.91412,8.87905 a 7.2574742,7.1180254 0 0 1 -0.003,0.004 c -12.14125,-7.68231 -11.0172,-8.64416 -11.0172,-8.64416 l 0.0615,-0.20434 a 7.2574742,7.1180254 0 0 1 0.043,-0.0331 z m 10.91249,8.88202 a 7.2574742,7.1180254 0 0 0 0.003,-0.004 l 0.0227,0.0185 c -0.008,-0.004 -0.0156,-0.0106 -0.0244,-0.0156 z m -6.40924,-10.42044 a 7.2574742,7.1180254 0 0 1 7.2575,7.11801 7.2574742,7.1180254 0 0 1 -0.84663,3.29946 l -10.91412,-8.87905 a 7.2574742,7.1180254 0 0 1 4.50325,-1.53842 z" />
    <path
       d="m 217.40389,320.97588 h 13.52523 v 2.18771 a 3.5297715,3.3601265 0 0 1 -0.29836,1.31895 h -12.9285 a 3.5297715,3.3601265 0 0 1 -0.29837,-1.31895 z"
       style="fill:#333333;stroke-width:0.0742625"
       id="path14-2-23-7-6-6-4-1-4-7" />
    <path
       d="m 230.92912,315.42801 v 3.50664 h -13.52523 v -3.50664 z"
       style="fill:#333333;stroke-width:0.0742625"
       id="path11-8-38-2-8-4-6-1-0-2" />
    <path
       d="m 217.40389,318.93465 h 13.52523 v 2.04123 h -13.52523 z"
       style="fill:#aa0000;stroke-width:0.0742625"
       id="path13-5-5-2-5-8-1-4-1-2" />
    <path
       d="m 228.26727,344.95256 c -0.28452,-0.24345 -8.39547,-7.27765 -8.79692,-17.84723 v -1.23403 h 8.79692 z"
       style="fill:#ffffff;stroke-width:0.0620743"
       id="path21-0-72-1-8-9-0-1-2-3" />
    <path
       d="m 237.17792,324.56829 h 12.9285 a 3.5297715,3.3601265 0 0 1 -3.23146,2.04124 h -6.46572 a 3.5297715,3.3601265 0 0 1 -3.23132,-2.04124 z"
       style="fill:#ffffff;stroke-width:0.0742625"
       id="path10-5-3-2-9-4-9-32-4-2" />
    <path
       d="m 246.87496,306.61618 a 3.5297715,3.3601265 0 0 1 3.52982,3.36017 v 5.53741 h -13.52522 v -5.53741 a 3.5297715,3.3601265 0 0 1 3.52968,-3.36017 z"
       style="fill:#ffffff;stroke-width:0.0742625"
       id="path7-7-10-3-2-0-6-67-4-7" />
    <path
       d="m 238.68046,294.86273 -0.0615,0.20433 c 0,0 -1.12407,0.96183 11.01686,8.64455 a 7.2574742,7.1180254 0 0 1 -6.40924,3.81557 7.2574742,7.1180254 0 0 1 -7.25752,-7.11801 7.2574742,7.1180254 0 0 1 2.71129,-5.54644 z"
       style="fill:#ffffff;stroke-width:0.0742625"
       id="path6-2-16-4-6-4-4-43-7-4" />
    <path
       id="path4-6-2-8-3-7-1-9-7-49"
       style="fill:#aa0000;stroke-width:0.0742625"
       d="m 238.72344,294.82958 a 7.2574742,7.1180254 0 0 0 -0.043,0.0331 l 0.0164,-0.0548 z m 0,0 10.91413,8.87905 a 7.2574742,7.1180254 0 0 1 -0.003,0.004 c -12.1409,-7.6826 -11.01685,-8.64444 -11.01685,-8.64444 l 0.0615,-0.20434 a 7.2574742,7.1180254 0 0 1 0.043,-0.0331 z m 10.9125,8.88203 a 7.2574742,7.1180254 0 0 0 0.003,-0.004 l 0.0227,0.0185 c -0.008,-0.004 -0.0156,-0.0106 -0.0244,-0.0156 z m -6.40925,-10.42044 a 7.2574742,7.1180254 0 0 1 7.25751,7.118 7.2574742,7.1180254 0 0 1 -0.84663,3.29946 l -10.91413,-8.87905 a 7.2574742,7.1180254 0 0 1 4.50325,-1.53841 z" />
    <path
       d="m 236.87956,321.06163 h 13.52522 v 2.18771 a 3.5297715,3.3601265 0 0 1 -0.29836,1.31895 h -12.9285 a 3.5297715,3.3601265 0 0 1 -0.29836,-1.31895 z"
       style="fill:#333333;stroke-width:0.0742625"
       id="path14-2-23-7-6-6-4-9-7-2" />
    <path
       d="m 250.40478,315.51376 v 3.50664 h -13.52522 v -3.50664 z"
       style="fill:#333333;stroke-width:0.0742625"
       id="path11-8-38-2-8-4-6-5-7-8" />
    <path
       d="m 236.87956,319.0204 h 13.52522 v 2.04123 h -13.52522 z"
       style="fill:#aa0000;stroke-width:0.0742625"
       id="path13-5-5-2-5-8-1-8-4-7" />
    <path
       d="m 247.74293,345.03831 c -0.28451,-0.24345 -8.39546,-7.27765 -8.79692,-17.84723 v -1.23404 h 8.79692 z"
       style="fill:#ffffff;stroke-width:0.0620743"
       id="path21-0-72-1-8-9-0-33-8-12" />
    <path
       d="m 257.00559,324.58288 h 12.9285 a 3.5297715,3.3601265 0 0 1 -3.23146,2.04124 h -6.46572 a 3.5297715,3.3601265 0 0 1 -3.23132,-2.04124 z"
       style="fill:#ffffff;stroke-width:0.0742625"
       id="path10-5-3-2-9-4-9-9-2-5" />
    <path
       d="m 266.70263,306.63078 a 3.5297715,3.3601265 0 0 1 3.52982,3.36017 v 5.53741 h -13.52522 v -5.53741 a 3.5297715,3.3601265 0 0 1 3.52968,-3.36017 z"
       style="fill:#ffffff;stroke-width:0.0742625"
       id="path7-7-10-3-2-0-6-3-9-5" />
    <path
       d="m 258.50814,294.87732 -0.0615,0.20434 c 0,0 -1.12406,0.96182 11.01686,8.64455 a 7.2574742,7.1180254 0 0 1 -6.40923,3.81558 7.2574742,7.1180254 0 0 1 -7.25752,-7.11801 7.2574742,7.1180254 0 0 1 2.71128,-5.54646 z"
       style="fill:#ffffff;stroke-width:0.0742625"
       id="path6-2-16-4-6-4-4-6-0-7" />
    <path
       id="path4-6-2-8-3-7-1-2-1-0"
       style="fill:#aa0000;stroke-width:0.0742625"
       d="m 258.55111,294.84419 a 7.2574742,7.1180254 0 0 0 -0.043,0.0331 l 0.0164,-0.0548 z m 0,0 10.91412,8.87906 a 7.2574742,7.1180254 0 0 1 -0.003,0.004 c -12.14099,-7.6825 -11.01695,-8.64434 -11.01695,-8.64434 l 0.0615,-0.20435 a 7.2574742,7.1180254 0 0 1 0.0429,-0.0331 z m 10.9125,8.88202 a 7.2574742,7.1180254 0 0 0 0.003,-0.004 l 0.0227,0.0185 c -0.008,-0.004 -0.0156,-0.0106 -0.0244,-0.0157 z m -6.40925,-10.42045 a 7.2574742,7.1180254 0 0 1 7.25751,7.11802 7.2574742,7.1180254 0 0 1 -0.84664,3.29947 l -10.91412,-8.87906 a 7.2574742,7.1180254 0 0 1 4.50325,-1.53843 z" />
    <path
       d="m 256.70723,321.07624 h 13.52522 v 2.18769 a 3.5297715,3.3601265 0 0 1 -0.29836,1.31895 h -12.9285 a 3.5297715,3.3601265 0 0 1 -0.29836,-1.31895 z"
       style="fill:#333333;stroke-width:0.0742625"
       id="path14-2-23-7-6-6-4-7-0-8" />
    <path
       d="m 270.23245,315.52836 v 3.50664 h -13.52522 v -3.50664 z"
       style="fill:#333333;stroke-width:0.0742625"
       id="path11-8-38-2-8-4-6-3-6-8" />
    <path
       d="m 256.70723,319.035 h 13.52522 v 2.04124 h -13.52522 z"
       style="fill:#aa0000;stroke-width:0.0742625"
       id="path13-5-5-2-5-8-1-7-1-9" />
    <path
       d="m 267.57059,345.05293 c -0.28451,-0.24346 -8.39545,-7.27766 -8.7969,-17.84726 v -1.23402 h 8.7969 z"
       style="fill:#ffffff;stroke-width:0.0620743"
       id="path21-0-72-1-8-9-0-601-8-2" />
    <path
       d="m 259.78612,314.43555 c -1.07993,1.05782 -6.43758,5.97066 -11.35369,4.40839 l -0.10957,-0.11277 10.36772,-11.99147 4.0999,4.22089 z"
       style="fill:#ffffff;stroke-width:0.0742625"
       id="path18-7-6-5-2-1-0-5-9-0-70" />
    <path
       d="m 239.1473,315.2297 c -1.07992,1.05783 -6.43758,5.97066 -11.35368,4.40839 l -0.10957,-0.11277 10.36772,-11.99145 4.0999,4.22087 z"
       style="fill:#ffffff;stroke-width:0.0742625"
       id="path18-7-6-5-2-1-0-5-9-0-38-0" />
    <path
       d="m 219.76017,315.36121 c -1.07992,1.05781 -6.43758,5.97066 -11.35369,4.40839 l -0.10956,-0.11278 10.36772,-11.99146 4.09989,4.22089 z"
       style="fill:#ffffff;stroke-width:0.0742625"
       id="path18-7-6-5-2-1-0-5-9-0-9-0" />
    <path
       d="M 0,0 V 400 M 2.6458333,0 V 400 M 5.2916666,0 V 400 M 7.9374999,0 V 400 M 10.583333,0 V 400 M 13.229167,0 V 400 M 15.875,0 V 400 M 18.520833,0 V 400 M 21.166667,0 V 400 M 23.8125,0 V 400 M 26.458333,0 V 400 M 29.104166,0 V 400 M 31.75,0 V 400 M 34.395833,0 V 400 M 37.041666,0 V 400 M 39.6875,0 V 400 M 42.333333,0 V 400 M 44.979166,0 V 400 M 47.625,0 V 400 M 50.270833,0 V 400 M 52.916666,0 V 400 M 55.5625,0 V 400 M 58.208333,0 V 400 M 60.854166,0 V 400 M 63.5,0 V 400 M 66.145833,0 V 400 M 68.791666,0 V 400 M 71.437499,0 V 400 M 74.083333,0 V 400 M 76.729166,0 V 400 M 79.374999,0 V 400 M 82.020833,0 V 400 M 84.666666,0 V 400 M 87.312499,0 V 400 M 89.958333,0 V 400 M 92.604166,0 V 400 M 95.249999,0 V 400 M 97.895833,0 V 400 M 100.54167,0 V 400 M 103.1875,0 V 400 M 105.83333,0 V 400 M 108.47917,0 V 400 M 111.125,0 V 400 M 113.77083,0 V 400 M 116.41667,0 V 400 M 119.0625,0 V 400 M 121.70833,0 V 400 M 124.35417,0 V 400 M 127,0 V 400 M 129.64583,0 V 400 M 132.29167,0 V 400 M 134.9375,0 V 400 M 137.58333,0 V 400 M 140.22917,0 V 400 M 142.875,0 V 400 M 145.52083,0 V 400 M 148.16667,0 V 400 M 150.8125,0 V 400 M 153.45833,0 V 400 M 156.10417,0 V 400 M 158.75,0 V 400 M 161.39583,0 V 400 M 164.04167,0 V 400 M 166.6875,0 V 400 M 169.33333,0 V 400 M 171.97917,0 V 400 M 174.625,0 V 400 M 177.27083,0 V 400 M 179.91667,0 V 400 M 182.5625,0 V 400 M 185.20833,0 V 400 M 187.85417,0 V 400 M 190.5,0 V 400 M 193.14583,0 V 400 M 195.79167,0 V 400 M 198.4375,0 V 400 M 201.08333,0 V 400 M 203.72917,0 V 400 M 206.375,0 V 400 M 209.02083,0 V 400 M 211.66667,0 V 400 M 214.3125,0 V 400 M 216.95833,0 V 400 M 219.60416,0 V 400 M 222.25,0 V 400 M 224.89583,0 V 400 M 227.54166,0 V 400 M 230.1875,0 V 400 M 232.83333,0 V 400 M 235.47916,0 V 400 M 238.125,0 V 400 M 240.77083,0 V 400 M 243.41666,0 V 400 M 246.0625,0 V 400 M 248.70833,0 V 400 M 251.35416,0 V 400 M 254,0 V 400 M 256.64583,0 V 400 M 259.29166,0 V 400 M 261.9375,0 V 400 M 264.58333,0 V 400 M 267.22916,0 V 400 M 269.875,0 V 400 M 272.52083,0 V 400 M 275.16666,0 V 400 M 277.8125,0 V 400 M 280.45833,0 V 400 M 283.10416,0 V 400 M 285.75,0 V 400 M 288.39583,0 V 400 M 291.04166,0 V 400 M 293.6875,0 V 400 M 296.33333,0 V 400 M 298.97916,0 V 400 M 301.625,0 V 400 M 304.27083,0 V 400 M 306.91666,0 V 400 M 309.5625,0 V 400 M 312.20833,0 V 400 M 314.85416,0 V 400 M 317.5,0 V 400 M 320.14583,0 V 400 M 322.79166,0 V 400 M 325.4375,0 V 400 M 328.08333,0 V 400 M 330.72916,0 V 400 M 333.375,0 V 400 M 336.02083,0 V 400 M 338.66666,0 V 400 M 341.3125,0 V 400 M 343.95833,0 V 400 M 346.60416,0 V 400 M 349.25,0 V 400 M 351.89583,0 V 400 M 354.54166,0 V 400 M 357.1875,0 V 400 M 359.83333,0 V 400 M 362.47916,0 V 400 M 365.125,0 V 400 M 367.77083,0 V 400 M 370.41666,0 V 400 M 373.0625,0 V 400 M 375.70833,0 V 400 M 378.35416,0 V 400 M 381,0 V 400 M 383.64583,0 V 400 M 386.29166,0 V 400 M 388.9375,0 V 400 M 391.58333,0 V 400 M 394.22916,0 V 400 M 396.875,0 V 400 M 399.52083,0 V 400 M 0,0 H 400 M 0,2.6458333 H 400 M 0,5.2916666 H 400 M 0,7.9374999 H 400 M 0,10.583333 H 400 M 0,13.229167 H 400 M 0,15.875 H 400 M 0,18.520833 H 400 M 0,21.166667 H 400 M 0,23.8125 H 400 M 0,26.458333 H 400 M 0,29.104166 H 400 M 0,31.75 H 400 M 0,34.395833 H 400 M 0,37.041666 H 400 M 0,39.6875 H 400 M 0,42.333333 H 400 M 0,44.979166 H 400 M 0,47.625 H 400 M 0,50.270833 H 400 M 0,52.916666 H 400 M 0,55.5625 H 400 M 0,58.208333 H 400 M 0,60.854166 H 400 M 0,63.5 H 400 M 0,66.145833 H 400 M 0,68.791666 H 400 M 0,71.437499 H 400 M 0,74.083333 H 400 M 0,76.729166 H 400 M 0,79.374999 H 400 M 0,82.020833 H 400 M 0,84.666666 H 400 M 0,87.312499 H 400 M 0,89.958333 H 400 M 0,92.604166 H 400 M 0,95.249999 H 400 M 0,97.895833 H 400 M 0,100.54167 H 400 M 0,103.1875 H 400 M 0,105.83333 H 400 M 0,108.47917 H 400 M 0,111.125 H 400 M 0,113.77083 H 400 M 0,116.41667 H 400 M 0,119.0625 H 400 M 0,121.70833 H 400 M 0,124.35417 H 400 M 0,127 H 400 M 0,129.64583 H 400 M 0,132.29167 H 400 M 0,134.9375 H 400 M 0,137.58333 H 400 M 0,140.22917 H 400 M 0,142.875 H 400 M 0,145.52083 H 400 M 0,148.16667 H 400 M 0,150.8125 H 400 M 0,153.45833 H 400 M 0,156.10417 H 400 M 0,158.75 H 400 M 0,161.39583 H 400 M 0,164.04167 H 400 M 0,166.6875 H 400 M 0,169.33333 H 400 M 0,171.97917 H 400 M 0,174.625 H 400 M 0,177.27083 H 400 M 0,179.91667 H 400 M 0,182.5625 H 400 M 0,185.20833 H 400 M 0,187.85417 H 400 M 0,190.5 H 400 M 0,193.14583 H 400 M 0,195.79167 H 400 M 0,198.4375 H 400 M 0,201.08333 H 400 M 0,203.72917 H 400 M 0,206.375 H 400 M 0,209.02083 H 400 M 0,211.66667 H 400 M 0,214.3125 H 400 M 0,216.95833 H 400 M 0,219.60416 H 400 M 0,222.25 H 400 M 0,224.89583 H 400 M 0,227.54166 H 400 M 0,230.1875 H 400 M 0,232.83333 H 400 M 0,235.47916 H 400 M 0,238.125 H 400 M 0,240.77083 H 400 M 0,243.41666 H 400 M 0,246.0625 H 400 M 0,248.70833 H 400 M 0,251.35416 H 400 M 0,254 H 400 M 0,256.64583 H 400 M 0,259.29166 H 400 M 0,261.9375 H 400 M 0,264.58333 H 400 M 0,267.22916 H 400 M 0,269.875 H 400 M 0,272.52083 H 400 M 0,275.16666 H 400 M 0,277.8125 H 400 M 0,280.45833 H 400 M 0,283.10416 H 400 M 0,285.75 H 400 M 0,288.39583 H 400 M 0,291.04166 H 400 M 0,293.6875 H 400 M 0,296.33333 H 400 M 0,298.97916 H 400 M 0,301.625 H 400 M 0,304.27083 H 400 M 0,306.91666 H 400 M 0,309.5625 H 400 M 0,312.20833 H 400 M 0,314.85416 H 400 M 0,317.5 H 400 M 0,320.14583 H 400 M 0,322.79166 H 400 M 0,325.4375 H 400 M 0,328.08333 H 400 M 0,330.72916 H 400 M 0,333.375 H 400 M 0,336.02083 H 400 M 0,338.66666 H 400 M 0,341.3125 H 400 M 0,343.95833 H 400 M 0,346.60416 H 400 M 0,349.25 H 400 M 0,351.89583 H 400 M 0,354.54166 H 400 M 0,357.1875 H 400 M 0,359.83333 H 400 M 0,362.47916 H 400 M 0,365.125 H 400 M 0,367.77083 H 400 M 0,370.41666 H 400 M 0,373.0625 H 400 M 0,375.70833 H 400 M 0,378.35416 H 400 M 0,381 H 400 M 0,383.64583 H 400 M 0,386.29166 H 400 M 0,388.9375 H 400 M 0,391.58333 H 400 M 0,394.22916 H 400 M 0,396.875 H 400 M 0,399.52083 h 400"
       style="display:none;fill:none;stroke:#000000;stroke-width:0.264583px"
       id="path1" />
    <path
       d="m 197.10208,288.28522 h 12.9285 a 3.5297715,3.3601265 0 0 1 -3.23147,2.04124 h -6.46572 a 3.5297715,3.3601265 0 0 1 -3.23131,-2.04124 z"
       style="fill:#ffffff;stroke-width:0.0742625"
       id="path10-5-3-2-9-4-9" />
    <path
       d="m 206.79911,270.33311 a 3.5297715,3.3601265 0 0 1 3.52982,3.36019 v 5.5374 h -13.52522 v -5.5374 a 3.5297715,3.3601265 0 0 1 3.52968,-3.36019 z"
       style="fill:#ffffff;stroke-width:0.0742625"
       id="path7-7-10-3-2-0-6" />
    <path
       d="m 198.60462,258.57965 -0.0615,0.20433 c 0,0 -1.12406,0.96183 11.01686,8.64456 a 7.2574742,7.1180254 0 0 1 -6.40924,3.81558 7.2574742,7.1180254 0 0 1 -7.25752,-7.11802 7.2574742,7.1180254 0 0 1 2.71129,-5.54645 z"
       style="fill:#ffffff;stroke-width:0.0742625"
       id="path6-2-16-4-6-4-4" />
    <path
       id="path4-6-2-8-3-7-1"
       style="fill:#aa0000;stroke-width:0.0742625"
       d="m 198.6476,258.54651 a 7.2574742,7.1180254 0 0 0 -0.043,0.0331 l 0.0164,-0.0548 z m 0,0 10.91413,8.87906 a 7.2574742,7.1180254 0 0 1 -0.003,0.004 c -12.1407,-7.68229 -11.01665,-8.64413 -11.01665,-8.64413 l 0.0615,-0.20435 a 7.2574742,7.1180254 0 0 1 0.043,-0.0331 z m 10.91249,8.88203 a 7.2574742,7.1180254 0 0 0 0.003,-0.004 l 0.0227,0.0185 c -0.008,-0.004 -0.0156,-0.0106 -0.0244,-0.0156 z m -6.40924,-10.42045 a 7.2574742,7.1180254 0 0 1 7.2575,7.11801 7.2574742,7.1180254 0 0 1 -0.84662,3.29947 l -10.91413,-8.87906 a 7.2574742,7.1180254 0 0 1 4.50325,-1.53842 z" />
    <path
       d="m 196.80371,284.77856 h 13.52522 v 2.18771 a 3.5297715,3.3601265 0 0 1 -0.29835,1.31895 h -12.9285 a 3.5297715,3.3601265 0 0 1 -0.29837,-1.31895 z"
       style="fill:#333333;stroke-width:0.0742625"
       id="path14-2-23-7-6-6-4" />
    <path
       d="m 210.32893,279.2307 v 3.50664 h -13.52522 v -3.50664 z"
       style="fill:#333333;stroke-width:0.0742625"
       id="path11-8-38-2-8-4-6" />
    <path
       d="m 196.80371,282.73734 h 13.52522 v 2.04122 h -13.52522 z"
       style="fill:#aa0000;stroke-width:0.0742625"
       id="path13-5-5-2-5-8-1" />
    <path
       d="m 207.66709,308.75525 c -0.28452,-0.24345 -8.39548,-7.27765 -8.79692,-17.84724 v -1.23403 h 8.79692 z"
       style="fill:#ffffff;stroke-width:0.0620743"
       id="path21-0-72-1-8-9-0" />
    <path
       d="m 195.79651,276.44512 c -1.44933,-0.12204 -8.39349,-0.95654 -10.30698,-5.86987 l 0.0146,-0.16275 15.26261,-0.0828 -0.54737,6.09136 z"
       style="fill:#ffffff;stroke-width:0.0742625"
       id="path18-7-6-5-2-1-0-5" />
    <path
       d="m 197.17582,252.90216 h 12.92852 a 3.5297715,3.3601265 0 0 1 -3.23148,2.04124 h -6.46572 a 3.5297715,3.3601265 0 0 1 -3.23132,-2.04124 z"
       style="fill:#ffffff;stroke-width:0.0742625"
       id="path10-5-3-2-9-4-9-2" />
    <path
       d="m 206.87286,234.95004 a 3.5297715,3.3601265 0 0 1 3.52983,3.36018 v 5.5374 h -13.52523 v -5.5374 a 3.5297715,3.3601265 0 0 1 3.52968,-3.36018 z"
       style="fill:#ffffff;stroke-width:0.0742625"
       id="path7-7-10-3-2-0-6-6" />
    <path
       d="m 198.67838,223.19659 -0.0615,0.20434 c 0,0 -1.12406,0.96183 11.01686,8.64455 a 7.2574742,7.1180254 0 0 1 -6.40925,3.81558 7.2574742,7.1180254 0 0 1 -7.25752,-7.11801 7.2574742,7.1180254 0 0 1 2.7113,-5.54646 z"
       style="fill:#ffffff;stroke-width:0.0742625"
       id="path6-2-16-4-6-4-4-5" />
    <path
       id="path4-6-2-8-3-7-1-0"
       style="fill:#aa0000;stroke-width:0.0742625"
       d="m 198.72134,223.16346 a 7.2574742,7.1180254 0 0 0 -0.043,0.0331 l 0.0164,-0.0548 z m 0,0 10.91413,8.87905 a 7.2574742,7.1180254 0 0 1 -0.003,0.004 c -12.14091,-7.68261 -11.01685,-8.64444 -11.01685,-8.64444 l 0.0615,-0.20435 a 7.2574742,7.1180254 0 0 1 0.043,-0.0331 z m 10.91251,8.88202 a 7.2574742,7.1180254 0 0 0 0.003,-0.004 l 0.0227,0.0185 c -0.008,-0.004 -0.0156,-0.0106 -0.0244,-0.0156 z m -6.40925,-10.42044 a 7.2574742,7.1180254 0 0 1 7.25751,7.11801 7.2574742,7.1180254 0 0 1 -0.84664,3.29946 l -10.91413,-8.87905 a 7.2574742,7.1180254 0 0 1 4.50326,-1.53842 z" />
    <path
       d="m 196.87746,249.39551 h 13.52523 v 2.18771 a 3.5297715,3.3601265 0 0 1 -0.29835,1.31894 h -12.92852 a 3.5297715,3.3601265 0 0 1 -0.29836,-1.31894 z"
       style="fill:#333333;stroke-width:0.0742625"
       id="path14-2-23-7-6-6-4-8" />
    <path
       d="m 210.40269,243.84762 v 3.50666 h -13.52523 v -3.50666 z"
       style="fill:#333333;stroke-width:0.0742625"
       id="path11-8-38-2-8-4-6-8" />
    <path
       d="m 196.87746,247.35428 h 13.52523 v 2.04123 h -13.52523 z"
       style="fill:#aa0000;stroke-width:0.0742625"
       id="path13-5-5-2-5-8-1-9" />
    <path
       d="m 207.74084,273.37218 c -0.28452,-0.24344 -8.39547,-7.27764 -8.79691,-17.84724 v -1.23402 h 8.79691 z"
       style="fill:#ffffff;stroke-width:0.0620743"
       id="path21-0-72-1-8-9-0-6" />
    <path
       d="m 196.80092,217.16223 h 12.9285 a 3.5297715,3.3601265 0 0 1 -3.23146,2.04124 h -6.46573 a 3.5297715,3.3601265 0 0 1 -3.23131,-2.04124 z"
       style="fill:#ffffff;stroke-width:0.0742625"
       id="path10-5-3-2-9-4-9-3" />
    <path
       d="m 206.49796,199.21011 a 3.5297715,3.3601265 0 0 1 3.52982,3.36019 v 5.5374 h -13.52523 v -5.5374 a 3.5297715,3.3601265 0 0 1 3.52968,-3.36019 z"
       style="fill:#ffffff;stroke-width:0.0742625"
       id="path7-7-10-3-2-0-6-2" />
    <path
       d="m 198.30348,187.45666 -0.0615,0.20434 c 0,0 -1.12406,0.96183 11.01685,8.64455 a 7.2574742,7.1180254 0 0 1 -6.40924,3.81558 7.2574742,7.1180254 0 0 1 -7.25752,-7.11801 7.2574742,7.1180254 0 0 1 2.7113,-5.54646 z"
       style="fill:#ffffff;stroke-width:0.0742625"
       id="path6-2-16-4-6-4-4-3" />
    <path
       id="path4-6-2-8-3-7-1-8"
       style="fill:#aa0000;stroke-width:0.0742625"
       d="m 198.34644,187.42353 a 7.2574742,7.1180254 0 0 0 -0.043,0.0331 l 0.0164,-0.0548 z m 0,0 10.91413,8.87905 a 7.2574742,7.1180254 0 0 1 -0.003,0.004 c -12.14069,-7.6823 -11.01665,-8.64413 -11.01665,-8.64413 l 0.0615,-0.20435 a 7.2574742,7.1180254 0 0 1 0.0429,-0.0331 z m 10.91251,8.88202 a 7.2574742,7.1180254 0 0 0 0.003,-0.004 l 0.0227,0.0185 c -0.008,-0.004 -0.0156,-0.0106 -0.0244,-0.0156 z m -6.40926,-10.42044 a 7.2574742,7.1180254 0 0 1 7.2575,7.11801 7.2574742,7.1180254 0 0 1 -0.84662,3.29946 l -10.91413,-8.87905 a 7.2574742,7.1180254 0 0 1 4.50325,-1.53842 z" />
    <path
       d="m 196.50255,213.65557 h 13.52523 v 2.18771 a 3.5297715,3.3601265 0 0 1 -0.29836,1.31895 h -12.9285 a 3.5297715,3.3601265 0 0 1 -0.29837,-1.31895 z"
       style="fill:#333333;stroke-width:0.0742625"
       id="path14-2-23-7-6-6-4-5" />
    <path
       d="m 210.02778,208.1077 v 3.50665 h -13.52523 v -3.50665 z"
       style="fill:#333333;stroke-width:0.0742625"
       id="path11-8-38-2-8-4-6-87" />
    <path
       d="m 196.50255,211.61435 h 13.52523 v 2.04122 h -13.52523 z"
       style="fill:#aa0000;stroke-width:0.0742625"
       id="path13-5-5-2-5-8-1-0" />
    <path
       d="m 207.36594,237.63226 c -0.28453,-0.24345 -8.39548,-7.27766 -8.79692,-17.84725 v -1.23402 h 8.79692 z"
       style="fill:#ffffff;stroke-width:0.0620743"
       id="path21-0-72-1-8-9-0-3" />
    <path
       d="m 197.186,182.89758 h 12.9285 a 3.5297715,3.3601265 0 0 1 -3.23146,2.04124 h -6.46573 a 3.5297715,3.3601265 0 0 1 -3.23131,-2.04124 z"
       style="fill:#ffffff;stroke-width:0.0742625"
       id="path10-5-3-2-9-4-9-6" />
    <path
       d="m 206.88304,164.94547 a 3.5297715,3.3601265 0 0 1 3.52982,3.36017 v 5.53742 h -13.52523 v -5.53742 a 3.5297715,3.3601265 0 0 1 3.52968,-3.36017 z"
       style="fill:#ffffff;stroke-width:0.0742625"
       id="path7-7-10-3-2-0-6-7" />
    <path
       d="m 198.68855,153.19201 -0.0615,0.20433 c 0,0 -1.12406,0.96183 11.01685,8.64456 a 7.2574742,7.1180254 0 0 1 -6.40924,3.81558 7.2574742,7.1180254 0 0 1 -7.25752,-7.11801 7.2574742,7.1180254 0 0 1 2.7113,-5.54646 z"
       style="fill:#ffffff;stroke-width:0.0742625"
       id="path6-2-16-4-6-4-4-4" />
    <path
       id="path4-6-2-8-3-7-1-09"
       style="fill:#aa0000;stroke-width:0.0742625"
       d="m 198.73152,153.15888 a 7.2574742,7.1180254 0 0 0 -0.043,0.0331 l 0.0164,-0.0548 z m 0,0 10.91413,8.87905 a 7.2574742,7.1180254 0 0 1 -0.003,0.004 c -12.141,-7.6825 -11.01695,-8.64434 -11.01695,-8.64434 l 0.0615,-0.20435 a 7.2574742,7.1180254 0 0 1 0.0429,-0.0331 z m 10.9125,8.88202 a 7.2574742,7.1180254 0 0 0 0.003,-0.004 l 0.0227,0.0185 c -0.008,-0.004 -0.0156,-0.0106 -0.0244,-0.0157 z m -6.40925,-10.42045 a 7.2574742,7.1180254 0 0 1 7.2575,7.11802 7.2574742,7.1180254 0 0 1 -0.84662,3.29946 l -10.91413,-8.87905 a 7.2574742,7.1180254 0 0 1 4.50325,-1.53843 z" />
    <path
       d="m 196.88763,179.39094 h 13.52523 v 2.18769 a 3.5297715,3.3601265 0 0 1 -0.29836,1.31895 H 197.186 a 3.5297715,3.3601265 0 0 1 -0.29837,-1.31895 z"
       style="fill:#333333;stroke-width:0.0742625"
       id="path14-2-23-7-6-6-4-82" />
    <path
       d="m 210.41286,173.84306 v 3.50665 h -13.52523 v -3.50665 z"
       style="fill:#333333;stroke-width:0.0742625"
       id="path11-8-38-2-8-4-6-4" />
    <path
       d="m 196.88763,177.34971 h 13.52523 v 2.04123 h -13.52523 z"
       style="fill:#aa0000;stroke-width:0.0742625"
       id="path13-5-5-2-5-8-1-02" />
    <path
       d="m 207.75101,203.36761 c -0.28452,-0.24344 -8.39547,-7.27767 -8.79692,-17.84725 v -1.23402 h 8.79692 z"
       style="fill:#ffffff;stroke-width:0.0620743"
       id="path21-0-72-1-8-9-0-60" />
    <path
       d="m 196.88785,146.59027 h 12.92851 a 3.5297715,3.3601265 0 0 1 -3.23146,2.04125 h -6.46573 a 3.5297715,3.3601265 0 0 1 -3.23132,-2.04125 z"
       style="fill:#ffffff;stroke-width:0.0742625"
       id="path10-5-3-2-9-4-9-7" />
    <path
       d="m 206.5849,128.63817 a 3.5297715,3.3601265 0 0 1 3.52981,3.36016 v 5.53742 h -13.52523 v -5.53742 a 3.5297715,3.3601265 0 0 1 3.52969,-3.36016 z"
       style="fill:#ffffff;stroke-width:0.0742625"
       id="path7-7-10-3-2-0-6-8" />
    <path
       d="m 198.39041,116.88471 -0.0615,0.20434 c 0,0 -1.12407,0.96183 11.01686,8.64455 a 7.2574742,7.1180254 0 0 1 -6.40924,3.81557 7.2574742,7.1180254 0 0 1 -7.25752,-7.11801 7.2574742,7.1180254 0 0 1 2.71129,-5.54645 z"
       style="fill:#ffffff;stroke-width:0.0742625"
       id="path6-2-16-4-6-4-4-55" />
    <path
       id="path4-6-2-8-3-7-1-01"
       style="fill:#aa0000;stroke-width:0.0742625"
       d="m 198.43337,116.85158 a 7.2574742,7.1180254 0 0 0 -0.043,0.033 l 0.0164,-0.0548 z m 0,0 10.91414,8.87904 a 7.2574742,7.1180254 0 0 1 -0.003,0.004 c -12.14069,-7.68262 -11.01665,-8.64446 -11.01665,-8.64446 l 0.0615,-0.20435 a 7.2574742,7.1180254 0 0 1 0.0429,-0.0331 z m 10.91251,8.88202 a 7.2574742,7.1180254 0 0 0 0.003,-0.004 l 0.0227,0.0185 c -0.008,-0.004 -0.0156,-0.0106 -0.0244,-0.0156 z m -6.40926,-10.42046 a 7.2574742,7.1180254 0 0 1 7.25751,7.11802 7.2574742,7.1180254 0 0 1 -0.84662,3.29946 l -10.91414,-8.87904 a 7.2574742,7.1180254 0 0 1 4.50325,-1.53844 z" />
    <path
       d="m 196.58948,143.08363 h 13.52523 v 2.1877 a 3.5297715,3.3601265 0 0 1 -0.29835,1.31894 h -12.92851 a 3.5297715,3.3601265 0 0 1 -0.29837,-1.31894 z"
       style="fill:#333333;stroke-width:0.0742625"
       id="path14-2-23-7-6-6-4-0" />
    <path
       d="m 210.11471,137.53575 v 3.50665 h -13.52523 v -3.50665 z"
       style="fill:#333333;stroke-width:0.0742625"
       id="path11-8-38-2-8-4-6-2" />
    <path
       d="m 196.58948,141.0424 h 13.52523 v 2.04123 h -13.52523 z"
       style="fill:#aa0000;stroke-width:0.0742625"
       id="path13-5-5-2-5-8-1-5" />
    <path
       d="m 207.45287,167.0603 c -0.28452,-0.24346 -8.39547,-7.27766 -8.79691,-17.84723 v -1.23404 h 8.79691 z"
       style="fill:#ffffff;stroke-width:0.0620743"
       id="path21-0-72-1-8-9-0-9" />
    <path
       d="m 199.0506,123.84107 c 0.15187,-1.53592 1.11455,-8.88865 5.7873,-10.79513 l 0.15279,0.0197 -0.31192,16.20956 -5.71853,-0.73684 z"
       style="fill:#ffffff;stroke-width:0.0742625"
       id="path18-7-6-5-2-1-0-5-5" />
    <path
       d="m 196.88689,111.72941 h 12.9285 a 3.5297715,3.3601265 0 0 1 -3.23146,2.04124 h -6.46573 a 3.5297715,3.3601265 0 0 1 -3.23131,-2.04124 z"
       style="fill:#ffffff;stroke-width:0.0742625"
       id="path10-5-3-2-9-4-9-7-0" />
    <path
       d="m 206.58393,93.777304 a 3.5297715,3.3601265 0 0 1 3.52982,3.360163 v 5.537423 h -13.52522 v -5.537423 a 3.5297715,3.3601265 0 0 1 3.52967,-3.360163 z"
       style="fill:#ffffff;stroke-width:0.0742625"
       id="path7-7-10-3-2-0-6-8-7" />
    <path
       d="m 198.38944,82.023854 -0.0615,0.20433 c 0,0 -1.12405,0.96183 11.01687,8.64455 a 7.2574742,7.1180254 0 0 1 -6.40924,3.81557 7.2574742,7.1180254 0 0 1 -7.25753,-7.11801 7.2574742,7.1180254 0 0 1 2.7113,-5.54644 z"
       style="fill:#ffffff;stroke-width:0.0742625"
       id="path6-2-16-4-6-4-4-55-1" />
    <path
       id="path4-6-2-8-3-7-1-01-9"
       style="fill:#aa0000;stroke-width:0.0742625"
       d="m 198.4324,81.990714 a 7.2574742,7.1180254 0 0 0 -0.0431,0.0331 l 0.0164,-0.0548 z m 0,0 10.91414,8.87904 a 7.2574742,7.1180254 0 0 1 -0.003,0.004 c -12.14113,-7.68274 -11.01708,-8.64457 -11.01708,-8.64457 l 0.0615,-0.20435 a 7.2574742,7.1180254 0 0 1 0.043,-0.0331 z m 10.91251,8.88202 a 7.2574742,7.1180254 0 0 0 0.003,-0.004 l 0.0227,0.0185 c -0.008,-0.005 -0.0156,-0.0106 -0.0244,-0.0156 z m -6.40925,-10.42046 a 7.2574742,7.1180254 0 0 1 7.25751,7.11802 7.2574742,7.1180254 0 0 1 -0.84663,3.29946 l -10.91414,-8.87904 a 7.2574742,7.1180254 0 0 1 4.50326,-1.53844 z" />
    <path
       d="m 196.58853,108.22277 h 13.52522 v 2.1877 a 3.5297715,3.3601265 0 0 1 -0.29836,1.31894 h -12.9285 a 3.5297715,3.3601265 0 0 1 -0.29836,-1.31894 z"
       style="fill:#333333;stroke-width:0.0742625"
       id="path14-2-23-7-6-6-4-0-1" />
    <path
       d="m 210.11375,102.67489 v 3.50664 h -13.52522 v -3.50664 z"
       style="fill:#333333;stroke-width:0.0742625"
       id="path11-8-38-2-8-4-6-2-1" />
    <path
       d="m 196.58853,106.18153 h 13.52522 v 2.04124 h -13.52522 z"
       style="fill:#aa0000;stroke-width:0.0742625"
       id="path13-5-5-2-5-8-1-5-4" />
    <path
       d="m 207.45189,132.19944 c -0.2845,-0.24345 -8.39546,-7.27765 -8.7969,-17.84724 v -1.23403 h 8.7969 z"
       style="fill:#ffffff;stroke-width:0.0620743"
       id="path21-0-72-1-8-9-0-9-7" />
    <path
       d="m 199.04963,88.980204 c 0.15187,-1.53592 1.11455,-8.88865 5.7873,-10.79513 l 0.15279,0.0196 -0.31191,16.20956 -5.71853,-0.73683 z"
       style="fill:#ffffff;stroke-width:0.0742625"
       id="path18-7-6-5-2-1-0-5-5-0" />
    <path
       d="m 190.09397,288.3105 h -12.92851 a 3.5297715,3.3601265 0 0 0 3.23146,2.04123 h 6.46574 a 3.5297715,3.3601265 0 0 0 3.23131,-2.04123 z"
       style="fill:#ffffff;stroke-width:0.0742625"
       id="path10-5-3-2-9-4-9-31" />
    <path
       d="m 180.39692,270.35839 a 3.5297715,3.3601265 0 0 0 -3.52981,3.36017 v 5.53741 h 13.52523 v -5.53741 a 3.5297715,3.3601265 0 0 0 -3.52968,-3.36017 z"
       style="fill:#ffffff;stroke-width:0.0742625"
       id="path7-7-10-3-2-0-6-9" />
    <path
       d="m 188.59141,258.60493 0.0615,0.20433 c 0,0 1.12407,0.96183 -11.01686,8.64456 a 7.2574742,7.1180254 0 0 0 6.40924,3.81558 7.2574742,7.1180254 0 0 0 7.25752,-7.11802 7.2574742,7.1180254 0 0 0 -2.71129,-5.54645 z"
       style="fill:#ffffff;stroke-width:0.0742625"
       id="path6-2-16-4-6-4-4-57" />
    <path
       id="path4-6-2-8-3-7-1-7"
       style="fill:#aa0000;stroke-width:0.0742625"
       d="m 188.54845,258.57179 a 7.2574742,7.1180254 0 0 1 0.043,0.0331 l -0.0164,-0.0548 z m 0,0 -10.91413,8.87906 a 7.2574742,7.1180254 0 0 0 0.003,0.004 c 12.14089,-7.68261 11.01685,-8.64445 11.01685,-8.64445 l -0.0615,-0.20435 a 7.2574742,7.1180254 0 0 0 -0.043,-0.0331 z m -10.91251,8.88203 a 7.2574742,7.1180254 0 0 1 -0.003,-0.004 l -0.0227,0.0185 c 0.008,-0.004 0.0156,-0.0106 0.0244,-0.0156 z m 6.40926,-10.42045 a 7.2574742,7.1180254 0 0 0 -7.25751,7.11801 7.2574742,7.1180254 0 0 0 0.84663,3.29947 l 10.91413,-8.87906 a 7.2574742,7.1180254 0 0 0 -4.50325,-1.53842 z" />
    <path
       d="m 190.39234,284.80385 h -13.52523 v 2.1877 a 3.5297715,3.3601265 0 0 0 0.29835,1.31895 h 12.92851 a 3.5297715,3.3601265 0 0 0 0.29837,-1.31895 z"
       style="fill:#333333;stroke-width:0.0742625"
       id="path14-2-23-7-6-6-4-1" />
    <path
       d="m 176.86711,279.25597 v 3.50665 h 13.52523 v -3.50665 z"
       style="fill:#333333;stroke-width:0.0742625"
       id="path11-8-38-2-8-4-6-1" />
    <path
       d="m 190.39234,282.76262 h -13.52523 v 2.04123 h 13.52523 z"
       style="fill:#aa0000;stroke-width:0.0742625"
       id="path13-5-5-2-5-8-1-4" />
    <path
       d="m 179.52895,308.78053 c 0.28453,-0.24345 8.39547,-7.27767 8.79692,-17.84725 v -1.23402 h -8.79692 z"
       style="fill:#ffffff;stroke-width:0.0620743"
       id="path21-0-72-1-8-9-0-1" />
    <path
       d="m 192.55498,269.01328 c 0.7546,-1.32007 4.17949,-7.791 1.54731,-12.31365 l -0.1328,-0.0827 -8.99117,13.10116 4.97116,3.09159 z"
       style="fill:#ffffff;stroke-width:0.0742625"
       id="path18-7-6-5-2-1-0-5-3" />
    <path
       d="m 170.6183,288.39625 h -12.9285 a 3.5297715,3.3601265 0 0 0 3.23146,2.04123 h 6.46573 a 3.5297715,3.3601265 0 0 0 3.23131,-2.04123 z"
       style="fill:#ffffff;stroke-width:0.0742625"
       id="path10-5-3-2-9-4-9-32" />
    <path
       d="m 160.92126,270.44414 a 3.5297715,3.3601265 0 0 0 -3.52982,3.36017 v 5.53742 h 13.52523 v -5.53742 a 3.5297715,3.3601265 0 0 0 -3.52968,-3.36017 z"
       style="fill:#ffffff;stroke-width:0.0742625"
       id="path7-7-10-3-2-0-6-67" />
    <path
       d="m 169.11575,258.69068 0.0615,0.20433 c 0,0 1.12406,0.96183 -11.01686,8.64456 a 7.2574742,7.1180254 0 0 0 6.40924,3.81557 7.2574742,7.1180254 0 0 0 7.25752,-7.118 7.2574742,7.1180254 0 0 0 -2.7113,-5.54646 z"
       style="fill:#ffffff;stroke-width:0.0742625"
       id="path6-2-16-4-6-4-4-43" />
    <path
       id="path4-6-2-8-3-7-1-9"
       style="fill:#aa0000;stroke-width:0.0742625"
       d="m 169.07279,258.65755 a 7.2574742,7.1180254 0 0 1 0.043,0.0331 l -0.0164,-0.0548 z m 0,0 -10.91413,8.87905 a 7.2574742,7.1180254 0 0 0 0.003,0.004 c 12.1409,-7.68262 11.01685,-8.64445 11.01685,-8.64445 l -0.0615,-0.20435 a 7.2574742,7.1180254 0 0 0 -0.043,-0.0331 z m -10.91251,8.88202 a 7.2574742,7.1180254 0 0 1 -0.003,-0.004 l -0.0227,0.0185 c 0.008,-0.004 0.0156,-0.0106 0.0244,-0.0156 z m 6.40926,-10.42046 a 7.2574742,7.1180254 0 0 0 -7.25752,7.11803 7.2574742,7.1180254 0 0 0 0.84664,3.29946 l 10.91413,-8.87905 a 7.2574742,7.1180254 0 0 0 -4.50325,-1.53844 z" />
    <path
       d="m 170.91667,284.8896 h -13.52523 v 2.1877 a 3.5297715,3.3601265 0 0 0 0.29836,1.31895 h 12.9285 a 3.5297715,3.3601265 0 0 0 0.29837,-1.31895 z"
       style="fill:#333333;stroke-width:0.0742625"
       id="path14-2-23-7-6-6-4-9" />
    <path
       d="m 157.39144,279.34173 v 3.50664 h 13.52523 v -3.50664 z"
       style="fill:#333333;stroke-width:0.0742625"
       id="path11-8-38-2-8-4-6-5" />
    <path
       d="m 170.91667,282.84837 h -13.52523 v 2.04123 h 13.52523 z"
       style="fill:#aa0000;stroke-width:0.0742625"
       id="path13-5-5-2-5-8-1-8" />
    <path
       d="m 160.05329,308.86627 c 0.28452,-0.24345 8.39546,-7.27765 8.79691,-17.84724 V 289.785 h -8.79691 z"
       style="fill:#ffffff;stroke-width:0.0620743"
       id="path21-0-72-1-8-9-0-33" />
    <path
       d="m 167.56393,278.43011 c 1.07993,1.05783 6.43759,5.97066 11.35369,4.40839 l 0.10956,-0.11277 -10.36771,-11.99145 -4.0999,4.22087 z"
       style="fill:#ffffff;stroke-width:0.0742625"
       id="path18-7-6-5-2-1-0-5-9-8" />
    <path
       d="m 217.10765,288.29167 h 12.9285 a 3.5297715,3.3601265 0 0 1 -3.23146,2.04124 h -6.46572 a 3.5297715,3.3601265 0 0 1 -3.23132,-2.04124 z"
       style="fill:#ffffff;stroke-width:0.0742625"
       id="path10-5-3-2-9-4-9-31-9" />
    <path
       d="m 226.80469,270.33957 a 3.5297715,3.3601265 0 0 1 3.52983,3.36018 v 5.5374 h -13.52524 v -5.5374 a 3.5297715,3.3601265 0 0 1 3.52969,-3.36018 z"
       style="fill:#ffffff;stroke-width:0.0742625"
       id="path7-7-10-3-2-0-6-9-7" />
    <path
       d="m 218.6102,258.58612 -0.0615,0.20433 c 0,0 -1.12406,0.96182 11.01686,8.64454 a 7.2574742,7.1180254 0 0 1 -6.40924,3.8156 7.2574742,7.1180254 0 0 1 -7.25753,-7.11803 7.2574742,7.1180254 0 0 1 2.7113,-5.54644 z"
       style="fill:#ffffff;stroke-width:0.0742625"
       id="path6-2-16-4-6-4-4-57-8" />
    <path
       id="path4-6-2-8-3-7-1-7-6"
       style="fill:#aa0000;stroke-width:0.0742625"
       d="m 218.65317,258.55298 a 7.2574742,7.1180254 0 0 0 -0.043,0.0331 l 0.0164,-0.0548 z m 0,0 10.91413,8.87904 a 7.2574742,7.1180254 0 0 1 -0.003,0.004 c -12.14092,-7.68262 -11.01687,-8.64446 -11.01687,-8.64446 l 0.0615,-0.20434 a 7.2574742,7.1180254 0 0 1 0.043,-0.0331 z m 10.9125,8.88201 a 7.2574742,7.1180254 0 0 0 0.003,-0.004 l 0.0227,0.0185 c -0.008,-0.004 -0.0156,-0.0106 -0.0244,-0.0156 z m -6.40925,-10.42045 a 7.2574742,7.1180254 0 0 1 7.25751,7.11802 7.2574742,7.1180254 0 0 1 -0.84663,3.29946 l -10.91413,-8.87904 a 7.2574742,7.1180254 0 0 1 4.50325,-1.53844 z" />
    <path
       d="m 216.80928,284.78503 h 13.52524 v 2.18769 a 3.5297715,3.3601265 0 0 1 -0.29837,1.31895 h -12.9285 a 3.5297715,3.3601265 0 0 1 -0.29837,-1.31895 z"
       style="fill:#333333;stroke-width:0.0742625"
       id="path14-2-23-7-6-6-4-1-4" />
    <path
       d="m 230.33452,279.23715 v 3.50664 h -13.52524 v -3.50664 z"
       style="fill:#333333;stroke-width:0.0742625"
       id="path11-8-38-2-8-4-6-1-0" />
    <path
       d="m 216.80928,282.74379 h 13.52524 v 2.04124 h -13.52524 z"
       style="fill:#aa0000;stroke-width:0.0742625"
       id="path13-5-5-2-5-8-1-4-1" />
    <path
       d="m 227.67266,308.76171 c -0.28452,-0.24345 -8.39547,-7.27766 -8.79691,-17.84724 v -1.23403 h 8.79691 z"
       style="fill:#ffffff;stroke-width:0.0620743"
       id="path21-0-72-1-8-9-0-1-2" />
    <path
       d="m 236.58332,288.37742 h 12.92849 a 3.5297715,3.3601265 0 0 1 -3.23145,2.04125 h -6.46573 a 3.5297715,3.3601265 0 0 1 -3.23131,-2.04125 z"
       style="fill:#ffffff;stroke-width:0.0742625"
       id="path10-5-3-2-9-4-9-32-4" />
    <path
       d="m 246.28036,270.42532 a 3.5297715,3.3601265 0 0 1 3.52981,3.36018 v 5.5374 h -13.52522 v -5.5374 a 3.5297715,3.3601265 0 0 1 3.52968,-3.36018 z"
       style="fill:#ffffff;stroke-width:0.0742625"
       id="path7-7-10-3-2-0-6-67-4" />
    <path
       d="m 238.08587,258.67186 -0.0615,0.20433 c 0,0 -1.12406,0.96183 11.01686,8.64456 a 7.2574742,7.1180254 0 0 1 -6.40924,3.81558 7.2574742,7.1180254 0 0 1 -7.25752,-7.11803 7.2574742,7.1180254 0 0 1 2.71129,-5.54644 z"
       style="fill:#ffffff;stroke-width:0.0742625"
       id="path6-2-16-4-6-4-4-43-7" />
    <path
       id="path4-6-2-8-3-7-1-9-7"
       style="fill:#aa0000;stroke-width:0.0742625"
       d="m 238.12884,258.63872 a 7.2574742,7.1180254 0 0 0 -0.043,0.0331 l 0.0164,-0.0548 z m 0,0 10.91413,8.87905 a 7.2574742,7.1180254 0 0 1 -0.003,0.004 c -12.14091,-7.6826 -11.01686,-8.64444 -11.01686,-8.64444 l 0.0615,-0.20435 a 7.2574742,7.1180254 0 0 1 0.043,-0.0331 z m 10.9125,8.88203 a 7.2574742,7.1180254 0 0 0 0.003,-0.004 l 0.0227,0.0185 c -0.008,-0.004 -0.0156,-0.0106 -0.0244,-0.0156 z m -6.40925,-10.42045 a 7.2574742,7.1180254 0 0 1 7.2575,7.118 7.2574742,7.1180254 0 0 1 -0.84662,3.29947 l -10.91413,-8.87905 a 7.2574742,7.1180254 0 0 1 4.50325,-1.53842 z" />
    <path
       d="m 236.28495,284.87077 h 13.52522 v 2.18771 a 3.5297715,3.3601265 0 0 1 -0.29836,1.31894 h -12.92849 a 3.5297715,3.3601265 0 0 1 -0.29837,-1.31894 z"
       style="fill:#333333;stroke-width:0.0742625"
       id="path14-2-23-7-6-6-4-9-7" />
    <path
       d="m 249.81017,279.3229 v 3.50663 h -13.52522 v -3.50663 z"
       style="fill:#333333;stroke-width:0.0742625"
       id="path11-8-38-2-8-4-6-5-7" />
    <path
       d="m 236.28495,282.82953 h 13.52522 v 2.04124 h -13.52522 z"
       style="fill:#aa0000;stroke-width:0.0742625"
       id="path13-5-5-2-5-8-1-8-4" />
    <path
       d="m 247.14833,308.84746 c -0.28452,-0.24345 -8.39547,-7.27766 -8.79692,-17.84724 v -1.23403 h 8.79692 z"
       style="fill:#ffffff;stroke-width:0.0620743"
       id="path21-0-72-1-8-9-0-33-8" />
    <path
       d="m 216.53763,253.06647 h 12.9285 a 3.5297715,3.3601265 0 0 1 -3.23146,2.04124 h -6.46573 a 3.5297715,3.3601265 0 0 1 -3.23131,-2.04124 z"
       style="fill:#ffffff;stroke-width:0.0742625"
       id="path10-5-3-2-9-4-9-32-4-4" />
    <path
       d="m 226.23467,235.11437 a 3.5297715,3.3601265 0 0 1 3.52982,3.36017 v 5.53741 h -13.52522 v -5.53741 a 3.5297715,3.3601265 0 0 1 3.52967,-3.36017 z"
       style="fill:#ffffff;stroke-width:0.0742625"
       id="path7-7-10-3-2-0-6-67-4-9" />
    <path
       d="m 218.04018,223.36092 -0.0615,0.20433 c 0,0 -1.12406,0.96182 11.01686,8.64454 a 7.2574742,7.1180254 0 0 1 -6.40924,3.8156 7.2574742,7.1180254 0 0 1 -7.25752,-7.11803 7.2574742,7.1180254 0 0 1 2.71129,-5.54644 z"
       style="fill:#ffffff;stroke-width:0.0742625"
       id="path6-2-16-4-6-4-4-43-7-8" />
    <path
       id="path4-6-2-8-3-7-1-9-7-7"
       style="fill:#aa0000;stroke-width:0.0742625"
       d="m 218.08315,223.32778 a 7.2574742,7.1180254 0 0 0 -0.043,0.0331 l 0.0164,-0.0548 z m 0,0 10.91413,8.87904 a 7.2574742,7.1180254 0 0 1 -0.003,0.004 C 216.85294,224.5286 217.977,223.56678 217.977,223.56678 l 0.0615,-0.20435 a 7.2574742,7.1180254 0 0 1 0.0429,-0.0331 z m 10.9125,8.88201 a 7.2574742,7.1180254 0 0 0 0.003,-0.004 l 0.0227,0.0185 c -0.008,-0.004 -0.0156,-0.0106 -0.0244,-0.0156 z m -6.40925,-10.42044 a 7.2574742,7.1180254 0 0 1 7.25751,7.11801 7.2574742,7.1180254 0 0 1 -0.84663,3.29946 l -10.91413,-8.87904 a 7.2574742,7.1180254 0 0 1 4.50325,-1.53843 z" />
    <path
       d="m 216.23927,249.55983 h 13.52522 v 2.1877 a 3.5297715,3.3601265 0 0 1 -0.29836,1.31894 h -12.9285 a 3.5297715,3.3601265 0 0 1 -0.29836,-1.31894 z"
       style="fill:#333333;stroke-width:0.0742625"
       id="path14-2-23-7-6-6-4-9-7-9" />
    <path
       d="m 229.76449,244.01195 v 3.50664 h -13.52522 v -3.50664 z"
       style="fill:#333333;stroke-width:0.0742625"
       id="path11-8-38-2-8-4-6-5-7-7" />
    <path
       d="m 216.23927,247.51859 h 13.52522 v 2.04124 h -13.52522 z"
       style="fill:#aa0000;stroke-width:0.0742625"
       id="path13-5-5-2-5-8-1-8-4-2" />
    <path
       d="m 227.10264,273.5365 c -0.28451,-0.24345 -8.39546,-7.27766 -8.79691,-17.84724 v -1.23403 h 8.79691 z"
       style="fill:#ffffff;stroke-width:0.0620743"
       id="path21-0-72-1-8-9-0-33-8-1" />
    <path
       d="m 214.07662,233.76925 c -0.75461,-1.32006 -4.1795,-7.79097 -1.54731,-12.31365 l 0.13279,-0.0827 8.99117,13.10115 -4.97115,3.09158 z"
       style="fill:#ffffff;stroke-width:0.0742625"
       id="path18-7-6-5-2-1-0-5-1-0-6" />
    <path
       d="m 189.89318,252.72257 h -12.92851 a 3.5297715,3.3601265 0 0 0 3.23147,2.04125 h 6.46572 a 3.5297715,3.3601265 0 0 0 3.23132,-2.04125 z"
       style="fill:#ffffff;stroke-width:0.0742625"
       id="path10-5-3-2-9-4-9-32-4-6" />
    <path
       d="m 180.19614,234.77047 a 3.5297715,3.3601265 0 0 0 -3.52982,3.36017 v 5.53741 h 13.52523 v -5.53741 a 3.5297715,3.3601265 0 0 0 -3.52969,-3.36017 z"
       style="fill:#ffffff;stroke-width:0.0742625"
       id="path7-7-10-3-2-0-6-67-4-6" />
    <path
       d="m 188.39062,223.01701 0.0615,0.20434 c 0,0 1.12405,0.96182 -11.01686,8.64454 a 7.2574742,7.1180254 0 0 0 6.40924,3.81559 7.2574742,7.1180254 0 0 0 7.25752,-7.11802 7.2574742,7.1180254 0 0 0 -2.71129,-5.54645 z"
       style="fill:#ffffff;stroke-width:0.0742625"
       id="path6-2-16-4-6-4-4-43-7-6" />
    <path
       id="path4-6-2-8-3-7-1-9-7-4"
       style="fill:#aa0000;stroke-width:0.0742625"
       d="m 188.34766,222.98388 a 7.2574742,7.1180254 0 0 1 0.043,0.0331 l -0.0164,-0.0548 z m 0,0 -10.91413,8.87905 a 7.2574742,7.1180254 0 0 0 0.003,0.004 c 12.1409,-7.68262 11.01685,-8.64445 11.01685,-8.64445 l -0.0615,-0.20435 a 7.2574742,7.1180254 0 0 0 -0.043,-0.0331 z m -10.91251,8.88201 a 7.2574742,7.1180254 0 0 1 -0.003,-0.004 l -0.0227,0.0185 c 0.008,-0.004 0.0156,-0.0106 0.0244,-0.0157 z m 6.40925,-10.42043 a 7.2574742,7.1180254 0 0 0 -7.2575,7.118 7.2574742,7.1180254 0 0 0 0.84663,3.29947 l 10.91413,-8.87905 a 7.2574742,7.1180254 0 0 0 -4.50326,-1.53842 z" />
    <path
       d="m 190.19155,249.21593 h -13.52523 v 2.18771 a 3.5297715,3.3601265 0 0 0 0.29835,1.31893 h 12.92851 a 3.5297715,3.3601265 0 0 0 0.29837,-1.31893 z"
       style="fill:#333333;stroke-width:0.0742625"
       id="path14-2-23-7-6-6-4-9-7-6" />
    <path
       d="m 176.66632,243.66805 v 3.50665 h 13.52523 v -3.50665 z"
       style="fill:#333333;stroke-width:0.0742625"
       id="path11-8-38-2-8-4-6-5-7-5" />
    <path
       d="m 190.19155,247.1747 h -13.52523 v 2.04123 h 13.52523 z"
       style="fill:#aa0000;stroke-width:0.0742625"
       id="path13-5-5-2-5-8-1-8-4-6" />
    <path
       d="m 179.32817,273.19261 c 0.28451,-0.24345 8.39546,-7.27765 8.79691,-17.84724 v -1.23403 h -8.79691 z"
       style="fill:#ffffff;stroke-width:0.0620743"
       id="path21-0-72-1-8-9-0-33-8-3" />
    <path
       d="m 192.35419,233.42536 c 0.7546,-1.32008 4.17949,-7.79098 1.54731,-12.31365 l -0.13279,-0.0827 -8.99118,13.10115 4.97116,3.09158 z"
       style="fill:#ffffff;stroke-width:0.0742625"
       id="path18-7-6-5-2-1-0-5-1-0-3" />
    <path
       d="m 196.62496,75.814524 h 12.9285 a 3.5297715,3.3601265 0 0 1 -3.23146,2.04124 h -6.46572 a 3.5297715,3.3601265 0 0 1 -3.23132,-2.04124 z"
       style="fill:#ffffff;stroke-width:0.0742625"
       id="path10-5-3-2-9-4-9-32-4-41" />
    <path
       d="m 206.322,57.862424 a 3.5297715,3.3601265 0 0 1 3.52982,3.36017 v 5.5374 H 196.3266 v -5.5374 a 3.5297715,3.3601265 0 0 1 3.52968,-3.36017 z"
       style="fill:#ffffff;stroke-width:0.0742625"
       id="path7-7-10-3-2-0-6-67-4-5" />
    <path
       d="m 198.12751,46.108965 -0.0615,0.204335 c 0,0 -1.12405,0.961824 11.01687,8.644544 a 7.2574742,7.1180254 0 0 1 -6.40924,3.81559 7.2574742,7.1180254 0 0 1 -7.25752,-7.118022 7.2574742,7.1180254 0 0 1 2.71129,-5.546447 z"
       style="fill:#ffffff;stroke-width:0.0742625"
       id="path6-2-16-4-6-4-4-43-7-69" />
    <path
       id="path4-6-2-8-3-7-1-9-7-9"
       style="fill:#333333;stroke-width:0.0742625"
       d="m 198.17048,46.075825 a 7.2574742,7.1180254 0 0 0 -0.043,0.03317 l 0.0164,-0.05484 z m 0,0 10.91413,8.879049 a 7.2574742,7.1180254 0 0 1 -0.003,0.004 c -12.14133,-7.682623 -11.01728,-8.644457 -11.01728,-8.644457 l 0.0615,-0.204348 a 7.2574742,7.1180254 0 0 1 0.043,-0.03317 z m 10.9125,8.882019 a 7.2574742,7.1180254 0 0 0 0.003,-0.004 l 0.0227,0.0185 c -0.008,-0.004 -0.0156,-0.0106 -0.0244,-0.0156 z M 202.67373,44.5374 a 7.2574742,7.1180254 0 0 1 7.25751,7.118012 7.2574742,7.1180254 0 0 1 -0.84663,3.299462 l -10.91413,-8.879049 a 7.2574742,7.1180254 0 0 1 4.50325,-1.538425 z" />
    <path
       d="m 196.3266,72.307874 h 13.52522 v 2.1877 a 3.5297715,3.3601265 0 0 1 -0.29836,1.31895 h -12.9285 a 3.5297715,3.3601265 0 0 1 -0.29836,-1.31895 z"
       style="fill:#333333;stroke-width:0.0742625"
       id="path14-2-23-7-6-6-4-9-7-7" />
    <path
       d="m 209.85182,66.759994 v 3.50665 H 196.3266 v -3.50665 z"
       style="fill:#333333;stroke-width:0.0742625"
       id="path11-8-38-2-8-4-6-5-7-0" />
    <path
       d="m 196.3266,70.266644 h 13.52522 v 2.04123 H 196.3266 Z"
       style="fill:#aa0000;stroke-width:0.0742625"
       id="path13-5-5-2-5-8-1-8-4-4" />
    <path
       d="m 207.18996,96.284557 c -0.2845,-0.24345 -8.39545,-7.277663 -8.7969,-17.847243 v -1.23403 h 8.7969 z"
       style="fill:#ffffff;stroke-width:0.0620743"
       id="path21-0-72-1-8-9-0-33-8-7" />
    <path
       d="m 238.5527,279.03884 c -1.07993,1.05782 -6.43759,5.97066 -11.35369,4.40839 l -0.10956,-0.11277 10.36771,-11.99146 4.0999,4.22088 z"
       style="fill:#ffffff;stroke-width:0.0742625"
       id="path18-7-6-5-2-1-0-5-9-0-38" />
    <path
       d="m 219.16556,279.17034 c -1.07992,1.05782 -6.43758,5.97067 -11.35368,4.40839 l -0.10956,-0.11277 10.36771,-11.99146 4.0999,4.22089 z"
       style="fill:#ffffff;stroke-width:0.0742625"
       id="path18-7-6-5-2-1-0-5-9-0-9" />
    <path
       d="m 197.36448,53.746474 c 0.10742,-1.517127 0.86177,-8.801207 5.56371,-11.090673 l 0.15627,0.0054 0.18141,15.894153 -5.84879,-0.20303 z"
       style="fill:#ffffff;stroke-width:0.0742625"
       id="path18-7-6-5-2-1-0-5-1-0-6-9" />
  </g>
</svg>
